/* XPM */
static char * collectable_xpm[] = {
"32 32 166 2",
"  	c #4D9262",
". 	c #3E2731",
"+ 	c #3E734E",
"@ 	c #563054",
"# 	c #532F51",
"$ 	c #68386C",
"% 	c #97467C",
"& 	c #9F497D",
"* 	c #CD6275",
"= 	c #BE5C6F",
"- 	c #262B44",
"; 	c #4B3158",
"> 	c #93457A",
", 	c #9C487E",
"' 	c #CC6275",
") 	c #C55F74",
"! 	c #67386C",
"~ 	c #894277",
"{ 	c #B55088",
"] 	c #894177",
"^ 	c #904479",
"/ 	c #9C477E",
"( 	c #C96076",
"_ 	c #C96174",
": 	c #AE4E85",
"< 	c #B95387",
"[ 	c #F6757A",
"} 	c #DA6970",
"| 	c #A94C83",
"1 	c #B65088",
"2 	c #F5747A",
"3 	c #E76E78",
"4 	c #93447A",
"5 	c #A44A81",
"6 	c #F1727B",
"7 	c #EF7279",
"8 	c #5D6082",
"9 	c #654874",
"0 	c #444864",
"a 	c #644B75",
"b 	c #C65A85",
"c 	c #BB5681",
"d 	c #6E4B77",
"e 	c #776488",
"f 	c #6F507A",
"g 	c #C55985",
"h 	c #C15883",
"i 	c #5A6988",
"j 	c #644B76",
"k 	c #424D68",
"l 	c #635078",
"m 	c #AC4D84",
"n 	c #634D77",
"o 	c #62537A",
"p 	c #B04E86",
"q 	c #6D396E",
"r 	c #6E3A6E",
"s 	c #763D6D",
"t 	c #693965",
"u 	c #6D396D",
"v 	c #6C396D",
"w 	c #6E396E",
"x 	c #634E77",
"y 	c #67406F",
"z 	c #673F6F",
"A 	c #5D3564",
"B 	c #404A65",
"C 	c #566483",
"D 	c #615077",
"E 	c #683A6D",
"F 	c #67386B",
"G 	c #633769",
"H 	c #5F4A72",
"I 	c #5F5379",
"J 	c #674070",
"K 	c #68396C",
"L 	c #5B6787",
"M 	c #262A43",
"N 	c #4B5773",
"O 	c #654673",
"P 	c #613667",
"Q 	c #252B44",
"R 	c #47536F",
"S 	c #505E7B",
"T 	c #515B79",
"U 	c #603666",
"V 	c #412F52",
"W 	c #4A4E6C",
"X 	c #4F5C79",
"Y 	c #593F68",
"Z 	c #5B3563",
"` 	c #573460",
" .	c #524C6E",
"..	c #5E5E81",
"+.	c #545D7C",
"@.	c #653E6E",
"#.	c #2D2C47",
"$.	c #493156",
"%.	c #372D4C",
"&.	c #7AB055",
"*.	c #4D3159",
"=.	c #4F325A",
"-.	c #743B70",
";.	c #92447A",
">.	c #A54F77",
",.	c #BB5A73",
"'.	c #864564",
").	c #312C49",
"!.	c #4C3159",
"~.	c #52335C",
"{.	c #793D71",
"].	c #A95176",
"^.	c #7A4061",
"/.	c #803F74",
"(.	c #D46282",
"_.	c #B25672",
":.	c #3B2E4E",
"<.	c #272B44",
"[.	c #DB6681",
"}.	c #A24F70",
"|.	c #5F5B7F",
"1.	c #60597E",
"2.	c #C15786",
"3.	c #D06083",
"4.	c #9C4B76",
"5.	c #272B45",
"6.	c #5E5A7D",
"7.	c #61567C",
"8.	c #C45985",
"9.	c #904673",
"0.	c #8D4378",
"a.	c #272C45",
"b.	c #596887",
"c.	c #5C6384",
"d.	c #844075",
"e.	c #7C3E72",
"f.	c #713A6F",
"g.	c #703A6E",
"h.	c #5A6887",
"i.	c #61577D",
"j.	c #4A3157",
"k.	c #2A2B46",
"l.	c #5E3565",
"m.	c #66386B",
"n.	c #2C2F49",
"o.	c #353C56",
"p.	c #5B6887",
"q.	c #4E325A",
"r.	c #352D4B",
"s.	c #6D396A",
"t.	c #773C70",
"u.	c #6B3C4F",
"v.	c #68455A",
"w.	c #5C6485",
"x.	c #5B6686",
"y.	c #F5747B",
"z.	c #67376C",
"A.	c #644C76",
"B.	c #664070",
"C.	c #E36A7F",
"D.	c #D6657C",
"E.	c #AB4D84",
"F.	c #8E4378",
"G.	c #96467B",
"H.	c #5F5C7F",
"I.	c #68396D",
"                                                                ",
"                        . . .               +                   ",
"                        . . .             +   +                 ",
"                              . .           +                   ",
"                              @ #                               ",
"        $ $ $ $ $ $       $ $ $ $ $ $       $ $ $ $ $ $         ",
"      $ $ $ % & * = - ; $ $ $ > , ' ) ! ~ { ] $ ^ / ( _ !       ",
"    $ $ $ ! : < [ } - ; $ $ $ | 1 2 3 ! ~ { 4 $ 5 { 6 7 ! $     ",
"    8 8 9 ! : < [ } - 0 8 a $ | { b c $ d e f $ 5 { g h ! $     ",
"    i i j ! : < [ } - k i l $ | { { m $ n i o $ 5 { { p ! $     ",
"    i i j $ q r s t - k i l $ u r r u $ n i o $ v r r w $ $     ",
"      i x y y z $ A - B C D y E $ $ F G H C I y y J K $ $ $     ",
"        i i i L $ A - - M N i O $ $ P Q Q M R i i i z $         ",
"          i S T $ U V V V W X Y Z Z ` V V V  ...+.X @.$         ",
"            - #.$ $ $ $ $ $.- - - - %.$ $ $ $ $ V -             ",
"&.          *.=.$ -.;.>.,.'.*.).- !.~.$ {.;.].,.^.*.            ",
"  &.        $ $ $ /.{ (.[ _.$ :.<.F $ $ ~ { [.[ }.$           &.",
"&.          |.1.$ /.{ 2.3.4.$ :.5.6.7.$ ~ { 8.3.9.$             ",
"            i L $ /.{ { { 0.$ :.a.b.c.$ ~ { { { d.$             ",
"            i L $ q e.e.e.f.$ :.a.b.c.$ g.e.e.e.r $             ",
"            i L $ $ $ $ $ $ $ :.a.b.c.$ $ $ $ $ $ $             ",
"                h.h.h.i.$ j.k.l.m.n.o.p.h.h.o $                 ",
"                i i i 7.$ q.r.s.t.u.v.w.x.i o $                 ",
"                    +   $ $ $ | 1 y.3 z.$                       ",
"                        A.B.$ | { C.D.! $         &.            ",
"                        i l $ | { { E.$ $     &.  &.            ",
"                        i l $ F.G.G.^ $ $     &.  &.            ",
"                        i l $ $ $ $ $ $ $     &.                ",
"                          ..H.H.H.I.$                           ",
"                          i i i i E $                           ",
"                        &.  &.                                  ",
"                          &.                                    "};
