/* XPM */
static char * collectable_xpm[] = {
"32 32 574 2",
"  	c #050002",
". 	c #040000",
"+ 	c #020000",
"@ 	c #000000",
"# 	c #000200",
"$ 	c #000400",
"% 	c #000300",
"& 	c #010200",
"* 	c #010400",
"= 	c #000700",
"- 	c #030001",
"; 	c #070002",
"> 	c #0A0004",
", 	c #070005",
"' 	c #030005",
") 	c #010005",
"! 	c #010004",
"~ 	c #000004",
"{ 	c #000104",
"] 	c #020003",
"^ 	c #090002",
"/ 	c #0D0002",
"( 	c #0B0002",
"_ 	c #010000",
": 	c #060002",
"< 	c #000100",
"[ 	c #050100",
"} 	c #080100",
"| 	c #060200",
"1 	c #010300",
"2 	c #040101",
"3 	c #0A0002",
"4 	c #0D0004",
"5 	c #0B0006",
"6 	c #080007",
"7 	c #040008",
"8 	c #010007",
"9 	c #010006",
"0 	c #040005",
"a 	c #050004",
"b 	c #040003",
"c 	c #010002",
"d 	c #010101",
"e 	c #040001",
"f 	c #070001",
"g 	c #030000",
"h 	c #080000",
"i 	c #0D0000",
"j 	c #0B0000",
"k 	c #080001",
"l 	c #0F0003",
"m 	c #100005",
"n 	c #050007",
"o 	c #020007",
"p 	c #020001",
"q 	c #010100",
"r 	c #020100",
"s 	c #0E0000",
"t 	c #0C0000",
"u 	c #010001",
"v 	c #080002",
"w 	c #0F0002",
"x 	c #090003",
"y 	c #050003",
"z 	c #020002",
"A 	c #030002",
"B 	c #120002",
"C 	c #150001",
"D 	c #100000",
"E 	c #050000",
"F 	c #000500",
"G 	c #000301",
"H 	c #070204",
"I 	c #0B0106",
"J 	c #080004",
"K 	c #030103",
"L 	c #010203",
"M 	c #050102",
"N 	c #0B0101",
"O 	c #0C0201",
"P 	c #070101",
"Q 	c #050101",
"R 	c #220D10",
"S 	c #714A4D",
"T 	c #82595C",
"U 	c #69484C",
"V 	c #190B0C",
"W 	c #000802",
"X 	c #000803",
"Y 	c #040002",
"Z 	c #000302",
"` 	c #05030B",
" .	c #05010E",
"..	c #02010A",
"+.	c #000308",
"@.	c #000505",
"#.	c #010302",
"$.	c #040200",
"%.	c #090400",
"&.	c #050200",
"*.	c #241813",
"=.	c #32221B",
"-.	c #4E3130",
";.	c #AF7779",
">.	c #C48A8E",
",.	c #9F7176",
"'.	c #281818",
").	c #000600",
"!.	c #000C04",
"~.	c #000D06",
"{.	c #000401",
"].	c #02020A",
"^.	c #02010E",
"/.	c #00010C",
"(.	c #000509",
"_.	c #000906",
":.	c #000602",
"<.	c #020300",
"[.	c #665145",
"}.	c #937464",
"|.	c #92675D",
"1.	c #C78B88",
"2.	c #D49898",
"3.	c #AA7C7D",
"4.	c #2B1B1B",
"5.	c #000A03",
"6.	c #000D05",
"7.	c #000107",
"8.	c #00000B",
"9.	c #00020A",
"0.	c #000506",
"a.	c #000B05",
"b.	c #020802",
"c.	c #1B1710",
"d.	c #494135",
"e.	c #4D4235",
"f.	c #866E5D",
"g.	c #B48F7C",
"h.	c #B88778",
"i.	c #C38A82",
"j.	c #C18C87",
"k.	c #99726F",
"l.	c #261916",
"m.	c #000C05",
"n.	c #020C05",
"o.	c #030702",
"p.	c #000203",
"q.	c #000005",
"r.	c #000103",
"s.	c #020702",
"t.	c #070701",
"u.	c #3E372B",
"v.	c #90836D",
"w.	c #9D8972",
"x.	c #8A735F",
"y.	c #8F7061",
"z.	c #C09483",
"A.	c #956C63",
"B.	c #75534F",
"C.	c #5D4441",
"D.	c #140F09",
"E.	c #000900",
"F.	c #000702",
"G.	c #090A06",
"H.	c #0D0A07",
"I.	c #020101",
"J.	c #070000",
"K.	c #030100",
"L.	c #090200",
"M.	c #3B2B21",
"N.	c #745C4D",
"O.	c #95846F",
"P.	c #9A876F",
"Q.	c #725F4D",
"R.	c #694F44",
"S.	c #B9927F",
"T.	c #6B5246",
"U.	c #000F00",
"V.	c #020600",
"W.	c #0C0604",
"X.	c #0F0907",
"Y.	c #030101",
"Z.	c #260101",
"`.	c #360202",
" +	c #390102",
".+	c #3E0203",
"++	c #3F060A",
"@+	c #714E43",
"#+	c #9A7665",
"$+	c #665042",
"%+	c #4A3C30",
"&+	c #3D2D23",
"*+	c #644E40",
"=+	c #A2846E",
"-+	c #5E4B3D",
";+	c #000C00",
">+	c #001300",
",+	c #040800",
"'+	c #000001",
")+	c #0A0000",
"!+	c #1D0000",
"~+	c #560907",
"{+	c #7D1211",
"]+	c #890B11",
"^+	c #900E15",
"/+	c #AD494B",
"(+	c #B26560",
"_+	c #865F51",
":+	c #3E231B",
"<+	c #574A3D",
"[+	c #84705E",
"}+	c #786352",
"|+	c #403327",
"1+	c #000D00",
"2+	c #001000",
"3+	c #070700",
"4+	c #0B0100",
"5+	c #140100",
"6+	c #400403",
"7+	c #801411",
"8+	c #AF1C1B",
"9+	c #BF141C",
"0+	c #C9232E",
"a+	c #E36062",
"b+	c #D36868",
"c+	c #682722",
"d+	c #340A05",
"e+	c #452A21",
"f+	c #806A59",
"g+	c #917E6A",
"h+	c #403329",
"i+	c #0C0601",
"j+	c #010B00",
"k+	c #000B00",
"l+	c #080600",
"m+	c #0D0201",
"n+	c #0C0101",
"o+	c #1E0101",
"p+	c #6C130E",
"q+	c #A81E19",
"r+	c #CE1D1C",
"s+	c #DE1721",
"t+	c #EC3B48",
"u+	c #E54D53",
"v+	c #C44644",
"w+	c #871E15",
"x+	c #4D150E",
"y+	c #8F6552",
"z+	c #97715D",
"A+	c #635143",
"B+	c #28130D",
"C+	c #0A0600",
"D+	c #010900",
"E+	c #000A00",
"F+	c #060500",
"G+	c #0F0403",
"H+	c #100404",
"I+	c #240101",
"J+	c #821B16",
"K+	c #B91E19",
"L+	c #DA0F0F",
"M+	c #EC131D",
"N+	c #F83A47",
"O+	c #E2333B",
"P+	c #B51C13",
"Q+	c #8E1F13",
"R+	c #742416",
"S+	c #BF7761",
"T+	c #BA705C",
"U+	c #740F0E",
"V+	c #6F0F11",
"W+	c #440405",
"X+	c #1C0100",
"Y+	c #130400",
"Z+	c #010801",
"`+	c #040302",
" @	c #0D0306",
".@	c #0F0408",
"+@	c #891D18",
"@@	c #BC2724",
"#@	c #D82224",
"$@	c #EC0E17",
"%@	c #F21D26",
"&@	c #DE2221",
"*@	c #B11C0F",
"=@	c #7C1407",
"-@	c #992E17",
";@	c #DE715B",
">@	c #E06957",
",@	c #B51E1C",
"'@	c #AE1F22",
")@	c #710D10",
"!@	c #380000",
"~@	c #250200",
"{@	c #120301",
"]@	c #030202",
"^@	c #030107",
"/@	c #07010C",
"(@	c #07010B",
"_@	c #020004",
":@	c #000101",
"<@	c #280101",
"[@	c #8A1512",
"}@	c #C8595B",
"|@	c #E87175",
"1@	c #E82225",
"2@	c #E80000",
"3@	c #CA130D",
"4@	c #9F1709",
"5@	c #921904",
"6@	c #B02F17",
"7@	c #EA6653",
"8@	c #EF5E4F",
"9@	c #D21A1B",
"0@	c #CA1B20",
"a@	c #A2171D",
"b@	c #690B10",
"c@	c #2E0000",
"d@	c #170202",
"e@	c #090308",
"f@	c #060311",
"g@	c #050212",
"h@	c #02000D",
"i@	c #000202",
"j@	c #000102",
"k@	c #290101",
"l@	c #8A0A0C",
"m@	c #D06E72",
"n@	c #F39297",
"o@	c #E85158",
"p@	c #DE2026",
"q@	c #AF0405",
"r@	c #8A1104",
"s@	c #AD220B",
"t@	c #BD2B14",
"u@	c #E85545",
"v@	c #F14D41",
"w@	c #E00D12",
"x@	c #D90D18",
"y@	c #C31E25",
"z@	c #89151A",
"A@	c #350000",
"B@	c #1B0102",
"C@	c #0E060B",
"D@	c #0A0615",
"E@	c #050315",
"F@	c #01000D",
"G@	c #000201",
"H@	c #090000",
"I@	c #2B0102",
"J@	c #8E121B",
"K@	c #C74A4F",
"L@	c #E6777E",
"M@	c #F28C98",
"N@	c #DA535B",
"O@	c #A10000",
"P@	c #851208",
"Q@	c #B32413",
"R@	c #BE1C05",
"S@	c #D83529",
"T@	c #E83029",
"U@	c #E9080F",
"V@	c #E10A14",
"W@	c #CE1E23",
"X@	c #931519",
"Y@	c #3A0000",
"Z@	c #0E0305",
"`@	c #07030D",
" #	c #04010F",
".#	c #01000B",
"+#	c #000204",
"@#	c #000303",
"##	c #80131C",
"$#	c #B0091A",
"%#	c #CE4D57",
"&#	c #E48E9B",
"*#	c #CC5962",
"=#	c #940104",
"-#	c #811009",
";#	c #B73632",
">#	c #CF5E60",
",#	c #D53F40",
"'#	c #E00000",
")#	c #EC0510",
"!#	c #E50A15",
"~#	c #D11E21",
"{#	c #941517",
"]#	c #3B0000",
"^#	c #1F0000",
"/#	c #0C0100",
"(#	c #040004",
"_#	c #030009",
":#	c #000205",
"<#	c #000304",
"[#	c #200000",
"}#	c #550508",
"|#	c #8C0C17",
"1#	c #AF2C36",
"2#	c #B04E56",
"3#	c #AB393F",
"4#	c #83181B",
"5#	c #780805",
"6#	c #B94A4C",
"7#	c #EA959A",
"8#	c #E2696F",
"9#	c #E00010",
"0#	c #EC0314",
"a#	c #E60C19",
"b#	c #CE1E22",
"c#	c #901517",
"d#	c #1C0000",
"e#	c #070100",
"f#	c #040009",
"g#	c #060000",
"h#	c #170000",
"i#	c #2F0000",
"j#	c #610A0F",
"k#	c #7F0F18",
"l#	c #770003",
"m#	c #7B191D",
"n#	c #631416",
"o#	c #6C0A0D",
"p#	c #AC4146",
"q#	c #DE8189",
"r#	c #EA7B8D",
"s#	c #EE536A",
"t#	c #EF0A25",
"u#	c #E51025",
"v#	c #C21A22",
"w#	c #821114",
"x#	c #300000",
"y#	c #150000",
"z#	c #030200",
"A#	c #010105",
"B#	c #04000B",
"C#	c #05000C",
"D#	c #2E0202",
"E#	c #380304",
"F#	c #360204",
"G#	c #360506",
"H#	c #320202",
"I#	c #5B0E13",
"J#	c #93232C",
"K#	c #BB3845",
"L#	c #E67B96",
"M#	c #F5718D",
"N#	c #EC1131",
"O#	c #DC122D",
"P#	c #AC1320",
"Q#	c #6C0A0E",
"R#	c #240000",
"S#	c #0A0100",
"T#	c #010401",
"U#	c #000208",
"V#	c #04010E",
"W#	c #06010E",
"X#	c #0C0200",
"Y#	c #070400",
"Z#	c #3E0609",
"`#	c #6E0F1A",
" $	c #A1122D",
".$	c #CD5570",
"+$	c #DA516B",
"@$	c #D00F2F",
"#$	c #BE0F29",
"$$	c #890A17",
"%$	c #4E0304",
"&$	c #190100",
"*$	c #030400",
"=$	c #02040B",
"-$	c #060400",
";$	c #090100",
">$	c #150102",
",$	c #1F0101",
"'$	c #45040B",
")$	c #811328",
"!$	c #A21C36",
"~$	c #AB1833",
"{$	c #A30925",
"]$	c #91091E",
"^$	c #60030B",
"/$	c #2D0000",
"($	c #0D0300",
"_$	c #04050C",
":$	c #05020D",
"<$	c #000002",
"[$	c #030300",
"}$	c #050300",
"|$	c #0A0200",
"1$	c #110000",
"2$	c #120000",
"3$	c #180205",
"4$	c #1B0306",
"5$	c #260103",
"6$	c #480612",
"7$	c #5A0516",
"8$	c #610313",
"9$	c #60020F",
"0$	c #57020D",
"a$	c #360103",
"b$	c #150100",
"c$	c #030601",
"d$	c #000C02",
"e$	c #05050A",
"f$	c #08020B",
"g$	c #060006",
"h$	c #030003",
"i$	c #040401",
"j$	c #0B0001",
"k$	c #160102",
"l$	c #160104",
"m$	c #150306",
"n$	c #0C0203",
"o$	c #060101",
"p$	c #0F0100",
"q$	c #000C01",
"r$	c #000902",
"s$	c #050508",
"t$	c #070208",
"u$	c #030502",
"v$	c #040501",
"w$	c #0B0203",
"x$	c #1A040A",
"y$	c #150205",
"z$	c #0F0103",
"A$	c #0B0205",
"B$	c #070406",
"C$	c #040403",
"D$	c #030401",
"E$	c #060300",
"F$	c #010700",
"G$	c #000501",
"H$	c #040505",
"I$	c #050305",
"J$	c #010501",
"K$	c #030602",
"L$	c #070503",
"M$	c #110206",
"N$	c #100306",
"O$	c #0C0306",
"P$	c #080306",
"Q$	c #030305",
"R$	c #020606",
"S$	c #000402",
"T$	c #060100",
"U$	c #040300",
"V$	c #020602",
"W$	c #010301",
"X$	c #020601",
"Y$	c #040703",
"Z$	c #050302",
"`$	c #080505",
" %	c #090507",
".%	c #060305",
"+%	c #020203",
"@%	c #030607",
"#%	c #010403",
"$%	c #020700",
"%%	c #010800",
"&%	c #050805",
"*%	c #040504",
"=%	c #020303",
"-%	c #020302",
";%	c #030700",
">%	c #010402",
",%	c #040806",
"'%	c #010503",
")%	c #000603",
"!%	c #010804",
"~%	c #040100",
"{%	c #0D0403",
"]%	c #100806",
"^%	c #070301",
"/%	c #030600",
"  . + @ # $ % & & * = = % - ; > > , ' ) ) ! ~ { ] ^ / ( . _ @ @ ",
": . _ < # $ # [ } | 1 % 2 3 4 5 6 7 8 9 0 a b c d e f f g @ @ @ ",
": . _ < % $ # h i j g _ k l m 5 n o 8 ) p g g + < q r r _ @ @ @ ",
": g _ < % $ # } s t . u v w l x y z A ; B C D E & % $ 1 # @ @ @ ",
"  g _ < % F G H I J K L M N O P Q @ @ R S T U V < F W X % @ @ @ ",
"Y g _ < % F Z `  ...+.@.#.$.%.&.[ *.=.-.;.>.,.'.< ).!.~.{.< @ @ ",
"Y g _ < % $ Z ].^./.(._.:.<._ @ @ [.}.|.1.2.3.4.# 5.6.5.% @ @ @ ",
"Y g q < % $ Z 7.8.9.0.a.b.@ c.d.e.f.g.h.i.j.k.l.$ m.n.o.# @ @ @ ",
"A + @ < % $ G p.q.r.Z s.t.@ u.v.w.x.y.z.A.B.C.D.E.F.G.H.I.@ @ @ ",
"z _ @ < # % & 2 f J.K.L.@ M.N.O.P.Q.R.S.T.@ @ E.U.V.W.X.Y.@ @ @ ",
"c _ @ < # # K.D Z.`. +.+++@+#+$+%+&+*+=+-+@ ).;+>+,+N O . _ @ @ ",
"'+@ @ < # & )+!+~+{+]+^+/+(+_+:+@ <+[+}+|+% 1+1+2+3+4+j . _ @ @ ",
"@ @ @ @ < r 5+6+7+8+9+0+a+b+c+d+e+f+g+h+i+j+U.;+k+l+m+n+. _ @ @ ",
"< @ @ @ @ K.o+p+q+r+s+t+u+v+w+x+y+z+A+B+D C+D+E+k+F+G+H+. _ @ @ ",
"< @ @ @ @ . I+J+K+L+M+N+O+P+Q+R+S+T+U+V+W+X+Y+3+Z+`+ @.@Y @ @ @ ",
"< @ @ @ @ E Z.+@@@#@$@%@&@*@=@-@;@>@,@'@)@!@~@{@]@^@/@(@_@'+@ @ ",
":@:@@ @ @ J.<@[@}@|@1@2@3@4@5@6@7@8@9@0@a@b@c@d@e@f@g@h@) '+@ @ ",
"i@j@:@< @ h k@l@m@n@o@p@q@r@s@t@u@v@w@x@y@z@A@B@C@D@E@F@q.'+@ @ ",
"p.p.i@G@@ H@I@J@K@L@M@N@O@P@Q@R@S@T@U@V@W@X@Y@o+Z@`@ #.#q.'+@ @ ",
"+#+#@#G@< H@k@##$#%#&#*#=#-#;#>#,#'#)#!#~#{#]#^#/#(#_#_#~ '+@ @ ",
":#<#@#G@q h [#}#|#1#2#3#4#5#6#7#8#9#0#a#b#c#!@d#e#_@7 f#! '+@ @ ",
"+#+#@#G@q g#h#i#j#k#l#m#n#o#p#q#r#s#t#u#v#w#x#y#z#A#B#C#! '+@ @ ",
"{ +#Z G@q . s !+D#E#F#G#H#I#J#K#L#M#N#O#P#Q#R#S#T#U#V#W#) '+@ @ ",
"{ p.G@# q g J.t X#Y#g#E h#Z#`# $.$+$@$#$$$%$&$*$:.=$V#B#! '+@ @ ",
"r.i@# # q g . K.-$C+;$t >$,$'$)$!$~${$]$^$/$($Z+X _$:$7 _@'+@ @ ",
"<$:@# # < + g [$}$|$1$2$3$4$5$6$7$8$9$0$a$b$c$d$5.e$f$g$h$_ @ @ ",
"u < < # < _ + i$i$j$3$k$l$m$n$o$< S#d#!+p$<.= q$r$s$t$a p @ @ @ ",
"+ _ < # < _ < u$v$w$x$y$z$A$B$C$D$E$j t [ * F$= G$H$I$A _ @ @ @ ",
"g + q < < < # J$K$L$M$N$O$P$Q$R$S$# K.T$e#| U$<.% V$K$W$< @ @ @ ",
". g q < < < # $ X$Y$Z$`$ %.%+%@%#%r &.;$/#j h E r $%%%F < @ @ @ ",
". . + < < # # % $ V$&%*%=%-%G@#%G q r g#t t )+S#&.;%%%$ < @ @ @ ",
"E E g _ < # # % % >%,%'%)%!%$ G$F % & ~%H@)+{%]%^%/%V.% < @ @ @ "};
