/* XPM */
static char * door_xpm[] = {
"32 32 960 2",
"  	c #6E5C3F",
". 	c #573914",
"+ 	c #593515",
"@ 	c #5C3519",
"# 	c #5D3517",
"$ 	c #5F3516",
"% 	c #613414",
"& 	c #633312",
"* 	c #643312",
"= 	c #653411",
"- 	c #623512",
"; 	c #603310",
"> 	c #60330F",
", 	c #623511",
"' 	c #613411",
") 	c #613410",
"! 	c #633613",
"~ 	c #623613",
"{ 	c #62340F",
"] 	c #643511",
"^ 	c #613511",
"/ 	c #5F3615",
"( 	c #5C3516",
"_ 	c #5B3518",
": 	c #5A3519",
"< 	c #6E5C45",
"[ 	c #74553A",
"} 	c #B98F6D",
"| 	c #C09576",
"1 	c #8B6246",
"2 	c #653816",
"3 	c #865732",
"4 	c #8C5A31",
"5 	c #8E5A2D",
"6 	c #915B2C",
"7 	c #905C2D",
"8 	c #8E5C31",
"9 	c #8E5C30",
"0 	c #8B5A2E",
"a 	c #8D5C2F",
"b 	c #8C5B2E",
"c 	c #8F5D31",
"d 	c #8C5A2E",
"e 	c #8C5B2F",
"f 	c #916033",
"g 	c #8F5E32",
"h 	c #8E5B2E",
"i 	c #8C582B",
"j 	c #AA7950",
"k 	c #73451F",
"l 	c #825836",
"m 	c #B88E6B",
"n 	c #BF9876",
"o 	c #70563A",
"p 	c #6F4C30",
"q 	c #A67650",
"r 	c #D7AF8C",
"s 	c #987458",
"t 	c #64330D",
"u 	c #A2724A",
"v 	c #9D7146",
"w 	c #AD8456",
"x 	c #A77844",
"y 	c #A37441",
"z 	c #A77D4C",
"A 	c #A47C4A",
"B 	c #B38D59",
"C 	c #9C7540",
"D 	c #9E7845",
"E 	c #A87F4D",
"F 	c #A37948",
"G 	c #9B7442",
"H 	c #B38D5B",
"I 	c #976E3D",
"J 	c #AA8151",
"K 	c #AC8556",
"L 	c #A77F4D",
"M 	c #A17745",
"N 	c #9D6E41",
"O 	c #AC7B4D",
"P 	c #CB9C70",
"Q 	c #764827",
"R 	c #764B26",
"S 	c #AC8457",
"T 	c #D8B185",
"U 	c #7B5F41",
"V 	c #6D4B2C",
"W 	c #9E6F41",
"X 	c #B1916B",
"Y 	c #967656",
"Z 	c #6D3814",
"` 	c #BD8B66",
" .	c #C09C77",
"..	c #C1A37D",
"+.	c #C29B73",
"@.	c #C59970",
"#.	c #C19870",
"$.	c #C19C70",
"%.	c #C7A676",
"&.	c #BC9A6A",
"*.	c #C8A577",
"=.	c #C8A177",
"-.	c #C69E75",
";.	c #C29D70",
">.	c #C9A479",
",.	c #C09A73",
"'.	c #C09A74",
").	c #C49E77",
"!.	c #C6A177",
"~.	c #C39E73",
"{.	c #C19776",
"].	c #C99E73",
"^.	c #CA9E75",
"/.	c #72432D",
"(.	c #744729",
"_.	c #9D743E",
":.	c #C19B6A",
"<.	c #7B5E40",
"[.	c #6D4C2D",
"}.	c #A47546",
"|.	c #AE8B5F",
"1.	c #95734E",
"2.	c #6B3711",
"3.	c #6C3A1A",
"4.	c #633B1F",
"5.	c #634024",
"6.	c #633921",
"7.	c #6B3A22",
"8.	c #6B3720",
"9.	c #6B3A1E",
"0.	c #673919",
"a.	c #6C3F1D",
"b.	c #693A1C",
"c.	c #6F3C22",
"d.	c #6B391E",
"e.	c #6B391F",
"f.	c #6B3922",
"g.	c #6A3822",
"h.	c #6A3821",
"i.	c #6C3A20",
"j.	c #6A391C",
"k.	c #683C22",
"l.	c #643C15",
"m.	c #663B15",
"n.	c #67361F",
"o.	c #774A2B",
"p.	c #A47B47",
"q.	c #BF9969",
"r.	c #A37545",
"s.	c #B08A5A",
"t.	c #99734C",
"u.	c #6B3C1C",
"v.	c #AC7F61",
"w.	c #AA8262",
"x.	c #A6825F",
"y.	c #AE8567",
"z.	c #8A6047",
"A.	c #74492E",
"B.	c #A68262",
"C.	c #A48460",
"D.	c #A58662",
"E.	c #A88764",
"F.	c #7A5337",
"G.	c #7E563A",
"H.	c #A98663",
"I.	c #A78464",
"J.	c #A88567",
"K.	c #A88569",
"L.	c #714B30",
"M.	c #896648",
"N.	c #AB8867",
"O.	c #A78469",
"P.	c #A7835C",
"Q.	c #A77F57",
"R.	c #6B3B22",
"S.	c #784A2A",
"T.	c #9B723E",
"U.	c #BE996B",
"V.	c #795D40",
"W.	c #6E4D2D",
"X.	c #AD7F50",
"Y.	c #D8AE7F",
"Z.	c #997552",
"`.	c #6F4930",
" +	c #C39C7D",
".+	c #C19B70",
"++	c #DBB681",
"@+	c #DBB685",
"#+	c #A17F57",
"$+	c #84623D",
"%+	c #BD9D72",
"&+	c #C2A574",
"*+	c #D1B481",
"=+	c #D8BA89",
"-+	c #896943",
";+	c #94724D",
">+	c #B79768",
",+	c #D0B081",
"'+	c #D2B084",
")+	c #D9B78D",
"!+	c #7C5D38",
"~+	c #9D7E52",
"{+	c #B49466",
"]+	c #CFAF8F",
"^+	c #D0AF83",
"/+	c #DBB285",
"(+	c #704227",
"_+	c #7B4C2B",
":+	c #B68D58",
"<+	c #D7B281",
"[+	c #7B5F43",
"}+	c #6C4B2B",
"|+	c #A27344",
"1+	c #BF976E",
"2+	c #907156",
"3+	c #745E53",
"4+	c #806751",
"5+	c #9D8052",
"6+	c #C6A86F",
"7+	c #B39963",
"8+	c #A18359",
"9+	c #865937",
"0+	c #A3764D",
"a+	c #B88F62",
"b+	c #C29A6C",
"c+	c #926744",
"d+	c #946542",
"e+	c #9A6C3E",
"f+	c #C79B70",
"g+	c #BB8F67",
"h+	c #D5A780",
"i+	c #825735",
"j+	c #A0754C",
"k+	c #95693A",
"l+	c #C4A688",
"m+	c #A88B63",
"n+	c #D2AB7D",
"o+	c #6E3F23",
"p+	c #784824",
"q+	c #A47A43",
"r+	c #C7A477",
"s+	c #7A5F44",
"t+	c #A37546",
"u+	c #A9855E",
"v+	c #8F7A63",
"w+	c #E6DDD9",
"x+	c #D2C8C3",
"y+	c #786246",
"z+	c #A38963",
"A+	c #877558",
"B+	c #846D58",
"C+	c #744C3A",
"D+	c #89624B",
"E+	c #977459",
"F+	c #9D7B5F",
"G+	c #A17C63",
"H+	c #7A5541",
"I+	c #7E5441",
"J+	c #835C40",
"K+	c #A68065",
"L+	c #966F57",
"M+	c #A77F6A",
"N+	c #724C38",
"O+	c #825C43",
"P+	c #7E573A",
"Q+	c #A28A70",
"R+	c #8E764D",
"S+	c #C6A171",
"T+	c #704123",
"U+	c #794722",
"V+	c #A57B45",
"W+	c #BD996F",
"X+	c #7A6046",
"Y+	c #6C4B2C",
"Z+	c #A07243",
"`+	c #B9986B",
" @	c #8E806C",
".@	c #EFEEED",
"+@	c #DCD9DE",
"@@	c #9B8D88",
"#@	c #DBCBC4",
"$@	c #D4C8CC",
"%@	c #D8D0D7",
"&@	c #D3CFCD",
"*@	c #D1CFC9",
"=@	c #CED0C7",
"-@	c #D1D3CA",
";@	c #D2D2CB",
">@	c #D3D1CE",
",@	c #D7D2D0",
"'@	c #D4D3CB",
")@	c #D3D1C9",
"!@	c #D3D2CC",
"~@	c #CFCFCA",
"{@	c #D3D1CA",
"]@	c #D3D2C7",
"^@	c #CFC4B1",
"/@	c #806943",
"(@	c #C6A272",
"_@	c #6F4022",
":@	c #784520",
"<@	c #A67C46",
"[@	c #795E44",
"}@	c #A57749",
"|@	c #D2AF87",
"1@	c #8A7A68",
"2@	c #C9C9C7",
"3@	c #A9ACB1",
"4@	c #817E7E",
"5@	c #B4AEAB",
"6@	c #B4B0B0",
"7@	c #AEAFB1",
"8@	c #ABB0B2",
"9@	c #ABB2B0",
"0@	c #A9B0AF",
"a@	c #ABB3B2",
"b@	c #A8AFB0",
"c@	c #AAB0B3",
"d@	c #ABAEB4",
"e@	c #AFAFB3",
"f@	c #ADAFB0",
"g@	c #ABB0B0",
"h@	c #AAB0B4",
"i@	c #ACB1B9",
"j@	c #ABAEB3",
"k@	c #AFB2AD",
"l@	c #B0A59B",
"m@	c #80694E",
"n@	c #BE9A75",
"o@	c #6F3F28",
"p@	c #7B4725",
"q@	c #AB824D",
"r@	c #D9B584",
"s@	c #795E41",
"t@	c #6E4D2E",
"u@	c #956637",
"v@	c #B7926D",
"w@	c #927D69",
"x@	c #948E88",
"y@	c #8D8A8A",
"z@	c #7E746F",
"A@	c #B2A59A",
"B@	c #B3A79A",
"C@	c #AEA399",
"D@	c #B1A49E",
"E@	c #B1A49C",
"F@	c #B3A69E",
"G@	c #B2A49F",
"H@	c #B2A4A3",
"I@	c #B2A3A3",
"J@	c #B0A39F",
"K@	c #B0A69A",
"L@	c #ADA799",
"M@	c #ADA69F",
"N@	c #ADA4A3",
"O@	c #B2A6A1",
"P@	c #B2A495",
"Q@	c #BDA999",
"R@	c #896E52",
"S@	c #C09873",
"T@	c #6F3E26",
"U@	c #784624",
"V@	c #9B713A",
"W@	c #C8A576",
"X@	c #785E41",
"Y@	c #6C4C2E",
"Z@	c #A77848",
"`@	c #BC956E",
" #	c #967E66",
".#	c #B19F8F",
"+#	c #B1A194",
"@#	c #573F2F",
"##	c #583C26",
"$#	c #553C24",
"%#	c #593D28",
"&#	c #563223",
"*#	c #593523",
"=#	c #5D3A24",
"-#	c #583521",
";#	c #5C3827",
">#	c #583428",
",#	c #59352A",
"'#	c #573723",
")#	c #583C1F",
"!#	c #523B1D",
"~#	c #563E26",
"{#	c #533826",
"]#	c #553621",
"^#	c #59391A",
"/#	c #5A3920",
"(#	c #755026",
"_#	c #C29569",
":#	c #744024",
"<#	c #7E4C2A",
"[#	c #C5A375",
"}#	c #795F42",
"|#	c #704E2E",
"1#	c #D7AD83",
"2#	c #826347",
"3#	c #745C4C",
"4#	c #684D3C",
"5#	c #906747",
"6#	c #9A6C44",
"7#	c #9B744B",
"8#	c #9A7451",
"9#	c #754525",
"0#	c #905F3A",
"a#	c #A8794F",
"b#	c #96663D",
"c#	c #A87856",
"d#	c #8F6046",
"e#	c #7A482D",
"f#	c #906036",
"g#	c #A97D4C",
"h#	c #8C6330",
"i#	c #B38B63",
"j#	c #7C5333",
"k#	c #83552E",
"l#	c #906030",
"m#	c #AB7F58",
"n#	c #8D602E",
"o#	c #C59463",
"p#	c #733D1F",
"q#	c #A77F4A",
"r#	c #D7B584",
"s#	c #795E42",
"t#	c #6A492B",
"u#	c #A17243",
"v#	c #C79B72",
"w#	c #967353",
"x#	c #5A3415",
"y#	c #7F542F",
"z#	c #A67042",
"A#	c #A16B38",
"B#	c #A27645",
"C#	c #A27A51",
"D#	c #75441B",
"E#	c #966635",
"F#	c #AC7D47",
"G#	c #96662F",
"H#	c #B08154",
"I#	c #936441",
"J#	c #7E4925",
"K#	c #9A622D",
"L#	c #B17C41",
"M#	c #97672A",
"N#	c #BC8F63",
"O#	c #855836",
"P#	c #805029",
"Q#	c #966535",
"R#	c #AC7D53",
"S#	c #91622A",
"T#	c #C2905D",
"U#	c #744020",
"V#	c #784623",
"W#	c #A37944",
"X#	c #CAA678",
"Y#	c #7B6043",
"Z#	c #6F4E2E",
"`#	c #9B6C3D",
" $	c #B78A62",
".$	c #9B7353",
"+$	c #673C19",
"@$	c #966339",
"#$	c #A76B37",
"$$	c #9E652C",
"%$	c #A17542",
"&$	c #A07A51",
"*$	c #72431A",
"=$	c #956634",
"-$	c #A1733A",
";$	c #95682D",
">$	c #AD8051",
",$	c #90643F",
"'$	c #7B4824",
")$	c #9C622C",
"!$	c #A87338",
"~$	c #95672F",
"{$	c #B58E68",
"]$	c #7E593E",
"^$	c #764F33",
"/$	c #8A643F",
"($	c #A3774E",
"_$	c #93662C",
":$	c #BF925E",
"<$	c #704021",
"[$	c #774826",
"}$	c #9A713C",
"|$	c #C39E71",
"1$	c #7B5F42",
"2$	c #B18254",
"3$	c #D6A77C",
"4$	c #9D7454",
"5$	c #673914",
"6$	c #986135",
"7$	c #A3662E",
"8$	c #9C652B",
"9$	c #9B7341",
"0$	c #9D7A53",
"a$	c #73401D",
"b$	c #966438",
"c$	c #996832",
"d$	c #986731",
"e$	c #AD7C52",
"f$	c #926141",
"g$	c #7B4627",
"h$	c #9A622F",
"i$	c #9E6C34",
"j$	c #8F6634",
"k$	c #805F40",
"l$	c #735A4C",
"m$	c #907C72",
"n$	c #725C4C",
"o$	c #7A5531",
"p$	c #8E662D",
"q$	c #B88E5D",
"r$	c #6D4023",
"s$	c #744826",
"t$	c #B8905B",
"u$	c #D0A878",
"v$	c #7C5E40",
"w$	c #AF8053",
"x$	c #B1865E",
"y$	c #9A7351",
"z$	c #6B3B15",
"A$	c #986233",
"B$	c #9D642B",
"C$	c #99672E",
"D$	c #977043",
"E$	c #9E7857",
"F$	c #743F1E",
"G$	c #986338",
"H$	c #986430",
"I$	c #9A6631",
"J$	c #AC7A50",
"K$	c #916241",
"L$	c #7B4727",
"M$	c #9B6430",
"N$	c #956834",
"O$	c #73532D",
"P$	c #77675F",
"Q$	c #DCD1D1",
"R$	c #FCF8F6",
"S$	c #DCD5CB",
"T$	c #786A5C",
"U$	c #72572D",
"V$	c #AE8A5D",
"W$	c #6D4022",
"X$	c #784923",
"Y$	c #AB824A",
"Z$	c #C09A6F",
"`$	c #7C5F44",
" %	c #6E4C2D",
".%	c #9C6D3E",
"+%	c #B48C61",
"@%	c #97714F",
"#%	c #6D3B15",
"$%	c #9A652B",
"%%	c #96662E",
"&%	c #986D44",
"*%	c #A07656",
"=%	c #75411C",
"-%	c #996436",
";%	c #9B652F",
">%	c #9A652F",
",%	c #A9784C",
"'%	c #8F623F",
")%	c #794925",
"!%	c #9B642D",
"~%	c #8F6434",
"{%	c #6B5541",
"]%	c #B4AAAA",
"^%	c #CAC9D3",
"/%	c #F0F1F5",
"(%	c #D3D3CD",
"_%	c #B3ADA7",
":%	c #675A4A",
"<%	c #AA8A63",
"[%	c #704022",
"}%	c #7D4A20",
"|%	c #9F7137",
"1%	c #BF9A6F",
"2%	c #6E4C2C",
"3%	c #996A3B",
"4%	c #B1885D",
"5%	c #9B7450",
"6%	c #6D3A14",
"7%	c #986131",
"8%	c #9B642A",
"9%	c #98662C",
"0%	c #9A6B3F",
"a%	c #A07351",
"b%	c #A8774A",
"c%	c #8D5F3C",
"d%	c #794824",
"e%	c #9B642F",
"f%	c #7E6957",
"g%	c #B8ADAA",
"h%	c #D8D8DF",
"i%	c #A6A9B3",
"j%	c #949794",
"k%	c #B9AFAB",
"l%	c #7F6F63",
"m%	c #6F3E24",
"n%	c #7A4720",
"o%	c #9A6D34",
"p%	c #BD996D",
"q%	c #7A6044",
"r%	c #6D4C2C",
"s%	c #AA7B4C",
"t%	c #B88E62",
"u%	c #9D7551",
"v%	c #6C3913",
"w%	c #996334",
"x%	c #9A642A",
"y%	c #9A662A",
"z%	c #9C6A39",
"A%	c #A1714C",
"B%	c #A77648",
"C%	c #8B5D39",
"D%	c #916535",
"E%	c #6A5137",
"F%	c #C7BBB4",
"G%	c #8B8891",
"H%	c #6B6E77",
"I%	c #727473",
"J%	c #C5B6B3",
"K%	c #6C5443",
"L%	c #A57E5D",
"M%	c #73412A",
"N%	c #7A4624",
"O%	c #AB7F48",
"P%	c #7A5F42",
"Q%	c #A47647",
"R%	c #D9AD80",
"S%	c #9C7452",
"T%	c #683814",
"U%	c #976439",
"V%	c #98642C",
"W%	c #986429",
"X%	c #9D6835",
"Y%	c #A06E47",
"Z%	c #75401C",
"`%	c #996336",
" &	c #9A642E",
".&	c #A27142",
"+&	c #784825",
"@&	c #9C6431",
"#&	c #966735",
"$&	c #73522C",
"%&	c #786960",
"&&	c #ADA4A6",
"*&	c #A6A1A4",
"=&	c #AAA6A2",
"-&	c #7B6B63",
";&	c #725130",
">&	c #A97F5C",
",&	c #713D28",
"'&	c #794425",
")&	c #AE834D",
"!&	c #D6B07F",
"~&	c #C69D72",
"{&	c #957050",
"]&	c #673C1B",
"^&	c #93653D",
"/&	c #976632",
"(&	c #99662C",
"_&	c #9C6834",
":&	c #9E6C45",
"<&	c #75401B",
"[&	c #A06F40",
"}&	c #8A5C38",
"|&	c #784725",
"1&	c #9C6230",
"2&	c #96632C",
"3&	c #8D6335",
"4&	c #503116",
"5&	c #4D352B",
"6&	c #503D36",
"7&	c #49372A",
"8&	c #4D2E16",
"9&	c #886135",
"0&	c #A5774E",
"a&	c #733D26",
"b&	c #794529",
"c&	c #CDA779",
"d&	c #6F4D2D",
"e&	c #A7784A",
"f&	c #D1AA80",
"g&	c #957457",
"h&	c #613A1E",
"i&	c #865E3A",
"j&	c #936838",
"k&	c #93632C",
"l&	c #9C6836",
"m&	c #996740",
"n&	c #743F1B",
"o&	c #986235",
"p&	c #99632D",
"q&	c #99642E",
"r&	c #9E6C3E",
"s&	c #885A36",
"t&	c #794825",
"u&	c #9E6130",
"v&	c #986530",
"w&	c #724721",
"x&	c #512912",
"y&	c #4C2713",
"z&	c #49270D",
"A&	c #6D471E",
"B&	c #91672D",
"C&	c #A47645",
"D&	c #743E24",
"E&	c #764328",
"F&	c #B18655",
"G&	c #D5AF81",
"H&	c #7C5F42",
"I&	c #9D6E40",
"J&	c #B18D67",
"K&	c #8F7258",
"L&	c #B9A090",
"M&	c #A68B78",
"N&	c #7F5A30",
"O&	c #946A38",
"P&	c #966639",
"Q&	c #956743",
"R&	c #724321",
"S&	c #96653B",
"T&	c #976536",
"U&	c #976737",
"V&	c #9B6D43",
"W&	c #855B39",
"X&	c #774929",
"Y&	c #9E6639",
"Z&	c #99642F",
"`&	c #9A6D46",
" *	c #6E4429",
".*	c #593018",
"+*	c #714A2D",
"@*	c #8D6539",
"#*	c #91682A",
"$*	c #A57540",
"%*	c #733D1E",
"&*	c #784425",
"**	c #A07341",
"=*	c #BF976D",
"-*	c #7A5D42",
";*	c #6D4C2E",
">*	c #AD7D53",
",*	c #A27F5D",
"'*	c #937F6E",
")*	c #F7EFEE",
"!*	c #E5DEDC",
"~*	c #6C5A4B",
"{*	c #8D7560",
"]*	c #8D7461",
"^*	c #8A7364",
"/*	c #857161",
"(*	c #8B7463",
"_*	c #8C7464",
":*	c #8B7465",
"<*	c #8E7666",
"[*	c #887262",
"}*	c #8A7563",
"|*	c #8A7564",
"1*	c #8C7667",
"2*	c #847064",
"3*	c #857166",
"4*	c #8A7468",
"5*	c #896C5D",
"6*	c #815D34",
"7*	c #773F1E",
"8*	c #834B25",
"9*	c #AA7942",
"0*	c #BE966D",
"a*	c #7D5F46",
"b*	c #6E4D2C",
"c*	c #A27246",
"d*	c #AA875E",
"e*	c #907C69",
"f*	c #E2DADB",
"g*	c #C1BEC2",
"h*	c #97918A",
"i*	c #E8E3D8",
"j*	c #E6E2DE",
"k*	c #E6E2E0",
"l*	c #EAE3DD",
"m*	c #E9E1DB",
"n*	c #E8E3DE",
"o*	c #E9E3DF",
"p*	c #E8E2DC",
"q*	c #E9E3DC",
"r*	c #E8E3DC",
"s*	c #E8E3DD",
"t*	c #E8E3DF",
"u*	c #E8E2DF",
"v*	c #E9E4E2",
"w*	c #E9E3E2",
"x*	c #DECCC7",
"y*	c #89664C",
"z*	c #9C6D47",
"A*	c #723A20",
"B*	c #7E4928",
"C*	c #A0723F",
"D*	c #C29B76",
"E*	c #7B5F48",
"F*	c #6E4E2B",
"G*	c #AB7C4F",
"H*	c #D0AC7E",
"I*	c #8F7A62",
"J*	c #C1B9B8",
"K*	c #A09DA1",
"L*	c #66615E",
"M*	c #847F79",
"N*	c #7F7F83",
"O*	c #7E8087",
"P*	c #828182",
"Q*	c #838282",
"R*	c #828180",
"S*	c #818181",
"T*	c #80827F",
"U*	c #808280",
"V*	c #808181",
"W*	c #808182",
"X*	c #818284",
"Y*	c #818285",
"Z*	c #818083",
"`*	c #977E7B",
" =	c #8B674E",
".=	c #976A47",
"+=	c #723E28",
"@=	c #794628",
"#=	c #B78E5C",
"$=	c #D8B389",
"%=	c #785D46",
"&=	c #6B4B29",
"*=	c #A7794C",
"==	c #AE8C63",
"-=	c #95826B",
";=	c #7C6E67",
">=	c #938681",
",=	c #817063",
"'=	c #AE9C8E",
")=	c #A59891",
"!=	c #A39897",
"~=	c #A69B96",
"{=	c #A49A92",
"]=	c #A59B91",
"^=	c #A3998F",
"/=	c #A2978F",
"(=	c #A49993",
"_=	c #A59A95",
":=	c #A39A90",
"<=	c #A39A91",
"[=	c #A59C93",
"}=	c #A49A94",
"|=	c #A29893",
"1=	c #A39893",
"2=	c #AF948A",
"3=	c #825F41",
"4=	c #996E43",
"5=	c #6D3C1F",
"6=	c #774924",
"7=	c #A68049",
"8=	c #BF9E71",
"9=	c #7B6146",
"0=	c #AC7D51",
"a=	c #A6845F",
"b=	c #7F6953",
"c=	c #B19D95",
"d=	c #A58C81",
"e=	c #613819",
"f=	c #704117",
"g=	c #6F401C",
"h=	c #663B1F",
"i=	c #5A3115",
"j=	c #694121",
"k=	c #6A431F",
"l=	c #69421C",
"m=	c #6A4321",
"n=	c #5C3417",
"o=	c #5C3317",
"p=	c #6B421F",
"q=	c #6A411E",
"r=	c #6A401F",
"s=	c #6A4020",
"t=	c #5C3313",
"u=	c #61371A",
"v=	c #693F22",
"w=	c #694020",
"x=	c #805927",
"y=	c #976A35",
"z=	c #6D3B17",
"A=	c #794B23",
"B=	c #A77F44",
"C=	c #C09D6C",
"D=	c #7A5E43",
"E=	c #69482A",
"F=	c #9D6D46",
"G=	c #D4A881",
"H=	c #8D6C52",
"I=	c #502D1F",
"J=	c #5F3620",
"K=	c #905C30",
"L=	c #9C632D",
"M=	c #996333",
"N=	c #895632",
"O=	c #733F1C",
"P=	c #99653B",
"Q=	c #966333",
"R=	c #966433",
"S=	c #9B683B",
"T=	c #7D4A25",
"U=	c #7C4725",
"V=	c #9A6438",
"W=	c #9A6337",
"X=	c #9D663C",
"Y=	c #7A441E",
"Z=	c #824C27",
"`=	c #9B643E",
" -	c #96643D",
".-	c #976831",
"+-	c #95652D",
"@-	c #6E3B18",
"#-	c #764520",
"$-	c #A87D48",
"%-	c #D4AB7F",
"&-	c #7B5C44",
"*-	c #664427",
"=-	c #845532",
"--	c #AD7D59",
";-	c #885C40",
">-	c #663A28",
",-	c #88593E",
"'-	c #8D5A2F",
")-	c #8C5A26",
"!-	c #875C2F",
"~-	c #79502E",
"{-	c #703E1D",
"]-	c #895831",
"^-	c #8D5D2E",
"/-	c #8B5C2B",
"(-	c #8A5A2F",
"_-	c #73431E",
":-	c #713F1E",
"<-	c #8D592F",
"[-	c #8C582D",
"}-	c #8B572C",
"|-	c #8C582F",
"1-	c #733F18",
"2-	c #7C4823",
"3-	c #8E5934",
"4-	c #8A5631",
"5-	c #8D5B27",
"6-	c #8D5A28",
"7-	c #6C351B",
"8-	c #734026",
"9-	c #885B34",
"0-	c #A87E60",
"a-	c #6C4938",
"  . + @ # $ % & * = - ; ; - > , ' ) ! ' ' ~ ; - { ] ^ / ( _ : < ",
"[ } | 1 2 3 4 5 6 7 8 9 0 a b c d e d d c d f g h i j k l m n o ",
"p q r s t u v w x y z A B C D E F G H I J K L M N O P Q R S T U ",
"V W X Y Z `  ...+.@.#.$.%.&.*.=.-.;.>.,.'.).!.~.{.].^./.(._.:.<.",
"[.}.|.1.2.3.4.5.6.7.8.9.0.a.b.c.8.d.e.f.g.h.i.j.k.l.m.n.o.p.q.<.",
"[.r.s.t.u.v.w.x.y.z.A.B.C.D.E.F.G.H.I.J.K.L.M.N.O.P.Q.R.S.T.U.V.",
"W.X.Y.Z.`. +.+++@+#+$+%+&+*+=+-+;+>+,+'+)+!+~+{+]+^+/+(+_+:+<+[+",
"}+|+1+2+3+4+5+6+7+8+9+0+a+b+].c+d+e+f+g+h+i+j+k+l+m+n+o+p+q+r+s+",
"[.t+u+v+w+x+y+z+A+B+C+D+E+F+G+H+I+J+K+L+M+N+O+P+Q+R+S+T+U+V+W+X+",
"Y+Z+`+ @.@+@@@#@$@%@&@*@=@-@;@>@,@'@)@!@>@~@{@]@^@/@(@_@:@<@r+[@",
"Y+}@|@1@2@3@4@5@6@7@8@9@0@a@b@c@d@e@f@g@h@i@j@k@l@m@n@o@p@q@r@s@",
"t@u@v@w@x@y@z@A@B@C@D@E@F@F@G@H@I@J@K@L@M@N@O@P@Q@R@S@T@U@V@W@X@",
"Y@Z@`@ #.#+#@###$#%#&#*#=#-#;#>#,#'#)#!#~#{#]#^#/#(#_#:#<#V+[#}#",
"|#Z+1#2#3#4#5#6#7#8#9#0#a#b#c#d#e#f#g#h#i#j#k#l#m#n#o#p#:@q#r#s#",
"t#u#v#w#x#y#z#A#B#C#D#E#F#G#H#I#J#K#L#M#N#O#P#Q#R#S#T#U#V#W#X#Y#",
"Z#`# $.$+$@$#$$$%$&$*$=$-$;$>$,$'$)$!$~${$]$^$/$($_$:$<$[$}$|$1$",
"W.2$3$4$5$6$7$8$9$0$a$b$c$d$e$f$g$h$i$j$k$l$m$n$o$p$q$r$s$t$u$v$",
"[.w$x$y$z$A$B$C$D$E$F$G$H$I$J$K$L$M$N$O$P$Q$R$S$T$U$V$W$X$Y$Z$`$",
" %.%+%@%#%A$$%%%&%*%=%-%;%>%,%'%)%!%~%{%]%^%/%(%_%:%<%[%}%|%1%s+",
"2%3%4%5%6%7%8%9%0%a%=%-%;%>%b%c%d%e%~%f%g%h%i%j%k%l%x.m%n%o%p%q%",
"r%s%t%u%v%w%x%y%z%A%=%-%;%>%B%C%d%M$D%E%F%G%H%I%J%K%L%M%N%O%|$P%",
"r%Q%R%S%T%U%V%W%X%Y%Z%`% &>%.&C%+&@&#&$&%&&&*&=&-&;&>&,&'&)&!&V.",
"}+W ~&{&]&^&/&(&_&:&<&`% &>%[&}&|&1&2&3&4&5&6&7&8&9&0&a&b&B#c&1$",
"d&e&f&g&h&i&j&k&l&m&n&o&p&q&r&s&t&u&$$v&w&x&y&z&A&B&C&D&E&F&G&H&",
"V I&J&K&L&M&N&O&P&Q&R&S&T&U&V&W&X&Y&Z&/&`& *.*+*@*#*$*%*&***=*-*",
";*>*,*'*)*!*~*{*]*^*/*(*_*:*<*[*/*}*}*|*1*2*3*4*5*6*u#7*8*9*0*a*",
"b*c*d*e*f*g*h*i*j*k*l*m*n*o*p*q*q*r*r*s*t*u*v*w*x*y*z*A*B*C*D*E*",
"F*G*H*I*J*K*L*M*N*O*P*Q*R*R*Q*P*S*T*U*V*W*X*Y*Z*`* =.=+=@=#=$=%=",
"&=*===-=;=>=,='=)=!=~={=]=^=/=(=_=:=:=<=[=}=|=1=2=3=4=5=6=7=8=9=",
"b*0=a=b=c=d=e=f=g=h=i=j=k=l=m=n=o=p=q=r=s=t=u=v=w=x=y=z=A=B=C=D=",
"E=F=G=H=I=J=K=L=M=N=O=P=Q=R=S=T=U=V=W=`%X=Y=Z=`= -.-+-@-#-$-%-&-",
"*-=---;->-,-'-)-!-~-{-]-^-/-(-_-:-<-[-}-|-1-2-3-4-5-6-7-8-9-0-a-"};
