/* XPM */
static char * ene_up_xpm[] = {
"32 32 936 2",
"  	c #000208",
". 	c #000107",
"+ 	c #010109",
"@ 	c #01000B",
"# 	c #01000C",
"$ 	c #010106",
"% 	c #010402",
"& 	c #000800",
"* 	c #000B00",
"= 	c #000A01",
"- 	c #010503",
"; 	c #030205",
"> 	c #140004",
", 	c #2B0002",
"' 	c #3A0000",
") 	c #430000",
"! 	c #450000",
"~ 	c #410000",
"{ 	c #370000",
"] 	c #270000",
"^ 	c #0F0001",
"/ 	c #030101",
"( 	c #000101",
"_ 	c #010000",
": 	c #010002",
"< 	c #010005",
"[ 	c #00000B",
"} 	c #00000C",
"| 	c #010009",
"1 	c #050003",
"2 	c #090000",
"3 	c #0B0000",
"4 	c #000306",
"5 	c #000305",
"6 	c #000206",
"7 	c #000204",
"8 	c #000401",
"9 	c #000700",
"0 	c #000300",
"a 	c #020105",
"b 	c #23020F",
"c 	c #4B0614",
"d 	c #680B18",
"e 	c #7B0F19",
"f 	c #7E0F18",
"g 	c #770F18",
"h 	c #67101B",
"i 	c #490A12",
"j 	c #190000",
"k 	c #000000",
"l 	c #000003",
"m 	c #000004",
"n 	c #010007",
"o 	c #000502",
"p 	c #000501",
"q 	c #000403",
"r 	c #000405",
"s 	c #000402",
"t 	c #000400",
"u 	c #00040B",
"v 	c #01041E",
"w 	c #010427",
"x 	c #33072B",
"y 	c #69102B",
"z 	c #91182C",
"A 	c #AB1D2C",
"B 	c #B01D2A",
"C 	c #A71D2B",
"D 	c #912032",
"E 	c #69172B",
"F 	c #23041F",
"G 	c #000122",
"H 	c #00011F",
"I 	c #000011",
"J 	c #020009",
"K 	c #020008",
"L 	c #01000A",
"M 	c #00000A",
"N 	c #040002",
"O 	c #070000",
"P 	c #000701",
"Q 	c #000702",
"R 	c #020401",
"S 	c #000024",
"T 	c #01165A",
"U 	c #101B65",
"V 	c #3E135C",
"W 	c #790C45",
"X 	c #A21230",
"Y 	c #BC1C2D",
"Z 	c #C01E29",
"` 	c #B61C2C",
" .	c #9E1936",
"..	c #74174E",
"+.	c #321660",
"@.	c #0F1664",
"#.	c #000152",
"$.	c #00001B",
"%.	c #020007",
"&.	c #000006",
"*.	c #010105",
"=.	c #030204",
"-.	c #050204",
";.	c #050105",
">.	c #000A00",
",.	c #000801",
"'.	c #000600",
").	c #020200",
"!.	c #0F0608",
"~.	c #292125",
"{.	c #312E58",
"].	c #233189",
"^.	c #1B2B92",
"/.	c #492584",
"(.	c #8A326A",
"_.	c #AD304B",
":.	c #BE1D2A",
"<.	c #C0161A",
"[.	c #B72432",
"}.	c #A43654",
"|.	c #7D3476",
"1.	c #41288D",
"2.	c #202591",
"3.	c #242A7F",
"4.	c #312E4F",
"5.	c #231E27",
"6.	c #080108",
"7.	c #020002",
"8.	c #010101",
"9.	c #000202",
"0.	c #010407",
"a.	c #02040B",
"b.	c #01010B",
"c.	c #010A00",
"d.	c #010900",
"e.	c #020400",
"f.	c #2E242A",
"g.	c #887686",
"h.	c #9A88AB",
"i.	c #5352A7",
"j.	c #00109E",
"k.	c #55389B",
"l.	c #B178A9",
"m.	c #CC7794",
"n.	c #C43644",
"o.	c #BD0000",
"p.	c #BF4D5D",
"q.	c #C786A3",
"r.	c #A074AB",
"s.	c #41289B",
"t.	c #00039B",
"u.	c #6965A5",
"v.	c #9F96A9",
"w.	c #787078",
"x.	c #1B0C12",
"y.	c #020000",
"z.	c #030100",
"A.	c #020201",
"B.	c #010408",
"C.	c #00040D",
"D.	c #000210",
"E.	c #020800",
"F.	c #040800",
"G.	c #040600",
"H.	c #050300",
"I.	c #0E0100",
"J.	c #060000",
"K.	c #4F3841",
"L.	c #C1A7BE",
"M.	c #DAC1E5",
"N.	c #8780C2",
"O.	c #404BAA",
"P.	c #7B69B2",
"Q.	c #D6ACD9",
"R.	c #E9A6C6",
"S.	c #C94B5B",
"T.	c #B80000",
"U.	c #C66B7C",
"V.	c #E9BADA",
"W.	c #C6A8D6",
"X.	c #685AAA",
"Y.	c #4747A5",
"Z.	c #A098C7",
"`.	c #E0D2E4",
" +	c #AC9EA7",
".+	c #34181C",
"++	c #110000",
"@+	c #060101",
"#+	c #020207",
"$+	c #00030D",
"%+	c #000412",
"&+	c #060701",
"*+	c #090401",
"=+	c #0D0401",
"-+	c #0E0300",
";+	c #140100",
">+	c #210000",
",+	c #3E0000",
"'+	c #76424D",
")+	c #D4B3CB",
"!+	c #F2DAF9",
"~+	c #C7C2E4",
"{+	c #B3B5D6",
"]+	c #C6BADA",
"^+	c #EFCDEE",
"/+	c #EFB4D0",
"(+	c #C65361",
"_+	c #AE0000",
":+	c #C17481",
"<+	c #F1CCE3",
"[+	c #E7D1EC",
"}+	c #BFB5D6",
"|+	c #B4AED4",
"1+	c #D3C8E6",
"2+	c #F4E2F3",
"3+	c #BCA5AF",
"4+	c #552223",
"5+	c #280000",
"6+	c #110101",
"7+	c #080507",
"8+	c #02070E",
"9+	c #000812",
"0+	c #0C0301",
"a+	c #100102",
"b+	c #150101",
"c+	c #190001",
"d+	c #250000",
"e+	c #3A0102",
"f+	c #630000",
"g+	c #964652",
"h+	c #DAB1C7",
"i+	c #FBE3FA",
"j+	c #F2EBF9",
"k+	c #F1EEF8",
"l+	c #F7EBF7",
"m+	c #FDE0F3",
"n+	c #ECB6CA",
"o+	c #C3555F",
"p+	c #A80000",
"q+	c #BB757B",
"r+	c #F0CFDA",
"s+	c #FDEAF6",
"t+	c #F6EBF8",
"u+	c #F1E8F8",
"v+	c #F6E8F8",
"w+	c #F8E1EE",
"x+	c #C3A0A8",
"y+	c #742927",
"z+	c #4C0400",
"A+	c #2F0403",
"B+	c #1E0202",
"C+	c #0F0707",
"D+	c #030B0D",
"E+	c #010B0F",
"F+	c #110203",
"G+	c #150004",
"H+	c #1C0004",
"I+	c #220001",
"J+	c #370203",
"K+	c #5A0A0E",
"L+	c #800007",
"M+	c #AA444E",
"N+	c #E1AEBE",
"O+	c #FEE0F1",
"P+	c #FEE9F4",
"Q+	c #FFF0F8",
"R+	c #FFF0F9",
"S+	c #FFE0EC",
"T+	c #EDB3BF",
"U+	c #C6535A",
"V+	c #AF0000",
"W+	c #C17577",
"X+	c #F2CDD1",
"Y+	c #FFECF1",
"Z+	c #FFF3F9",
"`+	c #FFF2FA",
" @	c #FFEEF4",
".@	c #FBDFE2",
"+@	c #CC9C9D",
"@@	c #912D27",
"#@	c #791F18",
"$@	c #5A1916",
"%@	c #2D0403",
"&@	c #110303",
"*@	c #020707",
"=@	c #000809",
"-@	c #130104",
";@	c #180006",
">@	c #210005",
",@	c #290001",
"'@	c #470406",
")@	c #751418",
"!@	c #990812",
"~@	c #BA3D44",
"{@	c #E29EA8",
"]@	c #FACDD8",
"^@	c #FED8E3",
"/@	c #FFE3ED",
"(@	c #FFE5EE",
"_@	c #FDD0D8",
":@	c #EDA2A8",
"<@	c #CE4B4E",
"[@	c #C00000",
"}@	c #CE6B6B",
"|@	c #EFBBBC",
"1@	c #FDDEE0",
"2@	c #FFEBED",
"3@	c #FFEDED",
"4@	c #FEE4E2",
"5@	c #F6CEC8",
"6@	c #D28F88",
"7@	c #AB2D25",
"8@	c #992A24",
"9@	c #75221E",
"0@	c #380504",
"a@	c #140000",
"b@	c #040302",
"c@	c #020705",
"d@	c #140003",
"e@	c #1A0005",
"f@	c #240003",
"g@	c #2F0000",
"h@	c #530608",
"i@	c #8B1B1E",
"j@	c #AF1A1D",
"k@	c #C82C2F",
"l@	c #D86C71",
"m@	c #E89FA6",
"n@	c #FAC8D0",
"o@	c #FFDCE3",
"p@	c #FED7DD",
"q@	c #F4ABAF",
"r@	c #E67073",
"s@	c #D93234",
"t@	c #D80001",
"u@	c #DB494A",
"v@	c #DF8585",
"w@	c #EEBDBB",
"x@	c #FEE1DD",
"y@	c #FFE3DC",
"z@	c #F6CBC3",
"A@	c #E19A92",
"B@	c #D2625B",
"C@	c #C32720",
"D@	c #AB2723",
"E@	c #801F1C",
"F@	c #3E0403",
"G@	c #0D0403",
"H@	c #0A0B09",
"I@	c #130002",
"J@	c #190003",
"K@	c #240001",
"L@	c #320000",
"M@	c #5B0708",
"N@	c #971E1F",
"O@	c #BE2121",
"P@	c #D31915",
"Q@	c #D6130F",
"R@	c #DE6467",
"S@	c #F3ADB1",
"T@	c #FAC5C9",
"U@	c #F5BABD",
"V@	c #E87A7B",
"W@	c #E21E1B",
"X@	c #E60D0C",
"Y@	c #EA090D",
"Z@	c #E61116",
"`@	c #D83132",
" #	c #E3918D",
".#	c #F6C6BE",
"+#	c #FAC8BD",
"@#	c #ECA69A",
"##	c #D2514A",
"$#	c #D4150E",
"%#	c #D11F1A",
"&#	c #B4201F",
"*#	c #861717",
"=#	c #450202",
"-#	c #230000",
";#	c #150404",
">#	c #0F0B0A",
",#	c #0E0001",
"'#	c #160001",
")#	c #310000",
"!#	c #5B0606",
"~#	c #9A1A1B",
"{#	c #C31D1C",
"]#	c #DC130C",
"^#	c #E50000",
"/#	c #E83938",
"(#	c #EA7274",
"_#	c #E68385",
":#	c #DE7A7C",
"<#	c #DC4849",
"[#	c #E40000",
"}#	c #F30500",
"|#	c #F30808",
"1#	c #EE0000",
"2#	c #E80000",
"3#	c #E25C58",
"4#	c #E0847D",
"5#	c #E7877D",
"6#	c #E46D63",
"7#	c #D9251E",
"8#	c #DB0000",
"9#	c #D41411",
"0#	c #B61719",
"a#	c #881012",
"b#	c #4E0102",
"c#	c #2E0000",
"d#	c #1C0202",
"e#	c #100504",
"f#	c #080102",
"g#	c #120100",
"h#	c #200000",
"i#	c #2D0000",
"j#	c #590505",
"k#	c #991716",
"l#	c #C31917",
"m#	c #DE100B",
"n#	c #EF0B06",
"o#	c #F2120F",
"p#	c #E71E1C",
"q#	c #DC1F1D",
"r#	c #D71816",
"s#	c #DB0B0B",
"t#	c #EA0604",
"u#	c #FA0C07",
"v#	c #F90804",
"w#	c #F50604",
"x#	c #F40C0B",
"y#	c #E71814",
"z#	c #D8231C",
"A#	c #D92A20",
"B#	c #E0251B",
"C#	c #E5100C",
"D#	c #E30705",
"E#	c #D50D0D",
"F#	c #B61317",
"G#	c #8A0E12",
"H#	c #520102",
"I#	c #1E0000",
"J#	c #100000",
"K#	c #0A0201",
"L#	c #190100",
"M#	c #550504",
"N#	c #961615",
"O#	c #BF1617",
"P#	c #D9090C",
"Q#	c #EF080A",
"R#	c #F60405",
"S#	c #EB0000",
"T#	c #E60000",
"U#	c #EA0000",
"V#	c #F1080A",
"W#	c #F90B0B",
"X#	c #FC0C06",
"Y#	c #FA0C03",
"Z#	c #F70804",
"`#	c #F00000",
" $	c #DA0000",
".$	c #E10600",
"+$	c #F21210",
"@$	c #EA0D0D",
"#$	c #D60D10",
"$$	c #B9181E",
"%$	c #8C1317",
"&$	c #500202",
"*$	c #1C0000",
"=$	c #130000",
"-$	c #000407",
";$	c #040401",
">$	c #540505",
",$	c #971818",
"'$	c #C1191B",
")$	c #DC0C14",
"!$	c #F0060E",
"~$	c #F60508",
"{$	c #F00102",
"]$	c #F10501",
"^$	c #F50B04",
"/$	c #F20908",
"($	c #F1070B",
"_$	c #F5080A",
":$	c #FA0C06",
"<$	c #FC0C02",
"[$	c #F80601",
"}$	c #F50703",
"|$	c #F00B06",
"1$	c #E50605",
"2$	c #EA0A0A",
"3$	c #F81212",
"4$	c #ED0C0D",
"5$	c #D71013",
"6$	c #BD1E23",
"7$	c #90181C",
"8$	c #4D0303",
"9$	c #290000",
"0$	c #1B0000",
"a$	c #000507",
"b$	c #030400",
"c$	c #0F0100",
"d$	c #1F0000",
"e$	c #560707",
"f$	c #9C1C1C",
"g$	c #CA1F22",
"h$	c #E7141D",
"i$	c #F10912",
"j$	c #F30103",
"k$	c #F60000",
"l$	c #F90603",
"m$	c #F10608",
"n$	c #EC0308",
"o$	c #EE0306",
"p$	c #F50603",
"q$	c #FA0701",
"r$	c #F80300",
"s$	c #F60201",
"t$	c #F50403",
"u$	c #F50708",
"v$	c #F7080A",
"w$	c #F80807",
"x$	c #EC0504",
"y$	c #D91213",
"z$	c #C32325",
"A$	c #941C1E",
"B$	c #4B0304",
"C$	c #000506",
"D$	c #040500",
"E$	c #110100",
"F$	c #590707",
"G$	c #9F1C1C",
"H$	c #CC1E21",
"I$	c #E9131C",
"J$	c #F10710",
"K$	c #F50002",
"L$	c #FA0003",
"M$	c #FD0507",
"N$	c #FB090A",
"O$	c #F00408",
"P$	c #E90207",
"Q$	c #EB0306",
"R$	c #F30503",
"S$	c #F90401",
"T$	c #F90100",
"U$	c #F80101",
"V$	c #F90404",
"W$	c #FB0708",
"X$	c #FC0607",
"Y$	c #EE0400",
"Z$	c #DC120F",
"`$	c #C52121",
" %	c #961A1B",
".%	c #4C0303",
"+%	c #260000",
"@%	c #180100",
"#%	c #110200",
"$%	c #000504",
"%%	c #060500",
"&%	c #170100",
"*%	c #2A0000",
"=%	c #5C0505",
"-%	c #9F1818",
";%	c #C9191B",
">%	c #E30C11",
",%	c #F20308",
"'%	c #FA0005",
")%	c #FD0008",
"!%	c #FD030C",
"~%	c #F9050D",
"{%	c #EE0309",
"]%	c #E90408",
"^%	c #EE0609",
"/%	c #F50606",
"(%	c #FA0403",
"_%	c #FA0101",
":%	c #FC0403",
"<%	c #FC0706",
"[%	c #FA0402",
"}%	c #FC0700",
"|%	c #F20900",
"1%	c #E01108",
"2%	c #C51A16",
"3%	c #951412",
"4%	c #4E0202",
"5%	c #140200",
"6%	c #0B0501",
"7%	c #010303",
"8%	c #090300",
"9%	c #2B0000",
"0%	c #9F1616",
"a%	c #C91817",
"b%	c #E30B0A",
"c%	c #FD0408",
"d%	c #FC020D",
"e%	c #F9020F",
"f%	c #F5040F",
"g%	c #ED0409",
"h%	c #EA0506",
"i%	c #EE0607",
"j%	c #F20504",
"k%	c #F70303",
"l%	c #FC0405",
"m%	c #FD0606",
"n%	c #FC0605",
"o%	c #F90403",
"p%	c #FA0600",
"q%	c #F30B01",
"r%	c #E41308",
"s%	c #C81A12",
"t%	c #97130E",
"u%	c #4F0201",
"v%	c #250100",
"w%	c #110300",
"x%	c #060601",
"y%	c #040103",
"z%	c #0D0101",
"A%	c #1A0000",
"B%	c #5C0504",
"C%	c #9F1815",
"D%	c #CB1A16",
"E%	c #E61009",
"F%	c #F60B07",
"G%	c #FC090B",
"H%	c #F7040F",
"I%	c #F40411",
"J%	c #F10511",
"K%	c #EC0703",
"L%	c #ED0502",
"M%	c #EF0301",
"N%	c #F30303",
"O%	c #FB0809",
"P%	c #FA0607",
"Q%	c #F80303",
"R%	c #FA0504",
"S%	c #F70302",
"T%	c #F30A04",
"U%	c #E6150B",
"V%	c #CA1D14",
"W%	c #98160F",
"X%	c #4D0301",
"Y%	c #220200",
"Z%	c #0E0401",
"`%	c #030503",
" &	c #0A0005",
".&	c #110005",
"+&	c #1C0001",
"@&	c #5C0704",
"#&	c #A01C14",
"$&	c #CC1E15",
"%&	c #E61207",
"&&	c #F20A04",
"*&	c #F40608",
"=&	c #EF030C",
"-&	c #EC050F",
";&	c #ED070F",
">&	c #ED0707",
",&	c #F00701",
"'&	c #F50900",
")&	c #F60800",
"!&	c #F50602",
"~&	c #F40606",
"{&	c #F20305",
"]&	c #F10103",
"^&	c #F60609",
"/&	c #F9060C",
"(&	c #F8030B",
"_&	c #F1070A",
":&	c #E1110C",
"<&	c #C31A11",
"[&	c #91130C",
"}&	c #480301",
"|&	c #1E0300",
"1&	c #090704",
"2&	c #020909",
"3&	c #0F0009",
"4&	c #15000A",
"5&	c #1E0003",
"6&	c #2C0000",
"7&	c #5B0804",
"8&	c #9D1E14",
"9&	c #C82114",
"0&	c #E21305",
"a&	c #EB0901",
"b&	c #EA0504",
"c&	c #E3060A",
"d&	c #E0080C",
"e&	c #E2090B",
"f&	c #E70604",
"g&	c #EF0800",
"h&	c #F80E00",
"i&	c #FC1003",
"j&	c #F70F04",
"k&	c #E90704",
"l&	c #E20102",
"m&	c #E30206",
"n&	c #EC0A12",
"o&	c #F50B16",
"p&	c #F70614",
"q&	c #ED0411",
"r&	c #D80D10",
"s&	c #B81811",
"t&	c #88120B",
"u&	c #430301",
"v&	c #180300",
"w&	c #030907",
"x&	c #010C10",
"y&	c #0F000D",
"z&	c #13000E",
"A&	c #1A0006",
"B&	c #520703",
"C&	c #8E1C11",
"D&	c #B91F11",
"E&	c #D71604",
"F&	c #E31202",
"G&	c #E4140B",
"H&	c #D91716",
"I&	c #C91212",
"J&	c #C00706",
"K&	c #D30701",
"L&	c #E10700",
"M&	c #E70900",
"N&	c #F01709",
"O&	c #EF1C0F",
"P&	c #DF140E",
"Q&	c #C90907",
"R&	c #C0060A",
"S&	c #D8151F",
"T&	c #E81623",
"U&	c #E9081B",
"V&	c #E10518",
"W&	c #D0151B",
"X&	c #B62620",
"Y&	c #871E18",
"Z&	c #3C0403",
"`&	c #0E0200",
" *	c #010B12",
".*	c #0C000F",
"+*	c #0F0010",
"@*	c #130008",
"#*	c #1E0002",
"$*	c #430503",
"%*	c #75160B",
"&*	c #A21D0D",
"**	c #C51D07",
"=*	c #D61C06",
"-*	c #D71D0F",
";*	c #C71F1B",
">*	c #A71616",
",*	c #8F0403",
"'*	c #B20600",
")*	c #C70B01",
"!*	c #CC1106",
"~*	c #D81E10",
"{*	c #DA2316",
"]*	c #CB1B14",
"^*	c #A80E0B",
"/*	c #8E080C",
"(*	c #B81A25",
"_*	c #D01B29",
":*	c #D20E21",
"<*	c #CF0D20",
"[*	c #C31C23",
"}*	c #AE2D28",
"|*	c #81241E",
"1*	c #350604",
"2*	c #040201",
"3*	c #00070A",
"4*	c #010912",
"5*	c #060111",
"6*	c #070210",
"7*	c #0A010B",
"8*	c #2E0203",
"9*	c #540C05",
"0*	c #851D0C",
"a*	c #AE2A10",
"b*	c #B9250B",
"c*	c #B11B09",
"d*	c #981712",
"e*	c #790E0D",
"f*	c #670201",
"g*	c #850200",
"h*	c #A1170A",
"i*	c #B42716",
"j*	c #B72718",
"k*	c #AE2016",
"l*	c #9A150F",
"m*	c #790806",
"n*	c #610406",
"o*	c #841119",
"p*	c #A41823",
"q*	c #B61A29",
"r*	c #B81A29",
"s*	c #AB1D26",
"t*	c #8B211F",
"u*	c #611813",
"v*	c #280403",
"w*	c #050505",
"x*	c #00070C",
"y*	c #010611",
"z*	c #010211",
"A*	c #010310",
"B*	c #01030C",
"C*	c #020208",
"D*	c #2A0202",
"E*	c #641B09",
"F*	c #902D13",
"G*	c #93260C",
"H*	c #801501",
"I*	c #590702",
"J*	c #410102",
"K*	c #450001",
"L*	c #4E0000",
"M*	c #751B0E",
"N*	c #972E1C",
"O*	c #8E281A",
"P*	c #731912",
"Q*	c #550906",
"R*	c #360101",
"S*	c #3E0102",
"T*	c #6B1019",
"U*	c #941D2A",
"V*	c #9B1E2A",
"W*	c #8A1922",
"X*	c #5C0C0F",
"Y*	c #310201",
"Z*	c #1A0202",
"`*	c #070809",
" =	c #00090E",
".=	c #020410",
"+=	c #000310",
"@=	c #00050F",
"#=	c #00050D",
"$=	c #00040A",
"%=	c #040207",
"&=	c #100002",
"*=	c #400F04",
"==	c #631D0A",
"-=	c #661706",
";=	c #580A00",
">=	c #340200",
",=	c #210001",
"'=	c #4F1007",
")=	c #691E11",
"!=	c #5E190F",
"~=	c #450D08",
"{=	c #290302",
"]=	c #180000",
"^=	c #43060C",
"/=	c #68111A",
"(=	c #6E121B",
"_=	c #620E14",
":=	c #3B0205",
"<=	c #0F0102",
"[=	c #04080B",
"}=	c #000A0F",
"|=	c #020610",
"1=	c #02030E",
"2=	c #01060D",
"3=	c #01060C",
"4=	c #00050A",
"5=	c #010307",
"6=	c #060102",
"7=	c #1A0100",
"8=	c #2C0201",
"9=	c #360200",
"0=	c #350103",
"a=	c #23000A",
"b=	c #17000F",
"c=	c #1A000F",
"d=	c #270006",
"e=	c #2E0101",
"f=	c #2F0301",
"g=	c #270202",
"h=	c #1B0202",
"i=	c #120101",
"j=	c #0B0200",
"k=	c #0A0200",
"l=	c #360102",
"m=	c #350102",
"n=	c #230001",
"o=	c #140102",
"p=	c #0A0306",
"q=	c #03080B",
"r=	c #00090D",
"s=	c #02060D",
"t=	c #06030B",
"u=	c #04050B",
"v=	c #02040A",
"w=	c #000304",
"x=	c #020101",
"y=	c #0C0000",
"z=	c #170000",
"A=	c #200008",
"B=	c #180019",
"C=	c #12001F",
"D=	c #13001F",
"E=	c #1A0011",
"F=	c #1A0001",
"G=	c #0F0103",
"H=	c #0B0305",
"I=	c #080402",
"J=	c #050501",
"K=	c #060200",
"L=	c #150003",
"M=	c #10030A",
"N=	c #0C050F",
"O=	c #020306",
"P=	c #090208",
"Q=	c #060309",
"R=	c #030207",
"S=	c #010304",
"T=	c #020100",
"U=	c #0A0000",
"V=	c #160000",
"W=	c #15000D",
"X=	c #120020",
"Y=	c #110026",
"Z=	c #100025",
"`=	c #110017",
" -	c #110006",
".-	c #0F0002",
"+-	c #0E0204",
"@-	c #0C0406",
"#-	c #070503",
"$-	c #030501",
"%-	c #020600",
"&-	c #040400",
"*-	c #0C0200",
"=-	c #150100",
"--	c #160100",
";-	c #0D0005",
">-	c #0C030D",
",-	c #0B0511",
"'-	c #05030A",
")-	c #010203",
"  . + @ # $ % & * = - ; > , ' ) ! ~ { ] ^ / ( _ : < [ } | 1 2 3 ",
"4 5 6     7 8 9 & 9 0 a b c d e f g h i j k l m < n } } | 1 2 3 ",
"o p o q r s t t t u v w x y z A B C D E F G H I J K L M n N O 2 ",
"& 9 9 P Q p R k k S T U V W X Y Z `  ...+.@.#.$.k %.n &.*.=.-.;.",
"* >.>.>.,.'.).!.~.{.].^./.(._.:.<.[.}.|.1.2.3.4.5.6.7.8.9.0.a.b.",
"* >.c.d.9 e.k f.g.h.i.j.k.l.m.n.o.p.q.r.s.t.u.v.w.x.y.z.A.B.C.D.",
"c.E.F.G.H.I.J.K.L.M.N.O.P.Q.R.S.T.U.V.W.X.Y.Z.`. +.+++3 @+#+$+%+",
"&+*+=+-+;+>+,+'+)+!+~+{+]+^+/+(+_+:+<+[+}+|+1+2+3+4+5+++6+7+8+9+",
"0+a+b+c+d+e+f+g+h+i+j+k+l+m+n+o+p+q+r+s+t+u+v+w+x+y+z+A+B+C+D+E+",
"F+G+H+I+J+K+L+M+N+O+P+Q+R+S+T+U+V+W+X+Y+Z+`+ @.@+@@@#@$@%@&@*@=@",
"-@;@>@,@'@)@!@~@{@]@^@/@(@_@:@<@[@}@|@1@2@3@4@5@6@7@8@9@0@a@b@c@",
"d@e@f@g@h@i@j@k@l@m@n@o@p@q@r@s@t@u@v@w@x@y@z@A@B@C@D@E@F@j G@H@",
"I@J@K@L@M@N@O@P@Q@R@S@T@U@V@W@X@Y@Z@`@ #.#+#@###$#%#&#*#=#-#;#>#",
",#'#-#)#!#~#{#]#^#/#(#_#:#<#[#}#|#1#2#3#4#5#6#7#8#9#0#a#b#c#d#e#",
"f#g#h#i#j#k#l#m#n#o#p#q#r#s#t#u#v#w#x#y#z#A#B#C#D#E#F#G#H#L@I#J#",
"; K#L#] M#N#O#P#Q#R#S#T#2#U#V#W#X#Y#Z#`#^# $.$+$@$#$$$%$&$c#*$=$",
"-$;$g#>+>$,$'$)$!$~${$]$^$/$($_$:$<$[$}$|$1$2$3$4$5$6$7$8$9$0$a@",
"a$b$c$d$e$f$g$h$i$j$k$l$u#m$n$o$p$q$r$s$t$u$v$w$x$y$z$A$B$] 0$a@",
"C$D$E$-#F$G$H$I$J$K$L$M$N$O$P$Q$R$S$T$U$V$W$X$S$Y$Z$`$ %.%+%@%#%",
"$%%%&%*%=%-%;%>%,%'%)%!%~%{%]%^%/%(%_%:%<%V$[%}%|%1%2%3%4%+%5%6%",
"7%8%L#9%=%0%a%b%/%c%d%e%f%g%h%i%j%k%l%m%n%o%S$p%q%r%s%t%u%v%w%x%",
"y%z%A%*%B%C%D%E%F%G%H%I%J%^%K%L%M%N%O%P%Q%R%R%S%T%U%V%W%X%Y%Z%`%",
" &.&+&9%@&#&$&%&&&*&=&-&;&>&,&'&)&!&~&{&]&^&/&(&_&:&<&[&}&|&1&2&",
"3&4&5&6&7&8&9&0&a&b&c&d&e&f&g&h&i&j&k&l&m&n&o&p&q&r&s&t&u&v&w&x&",
"y&z&A&] B&C&D&E&F&G&H&I&J&K&L&M&N&O&P&Q&R&S&T&U&V&W&X&Y&Z&`&=@ *",
".*+*@*#*$*%*&***=*-*;*>*,*'*)*!*~*{*]*^*/*(*_*:*<*[*}*|*1*2*3*4*",
"5*6*7*.&8*9*0*a*b*c*d*e*f*g*h*i*j*k*l*m*n*o*p*q*r*s*t*u*v*w*x*y*",
"z*A*B*C*-@D*E*F*G*H*I*J*K*L*M*N*O*P*Q*,+R*S*T*U*V*W*X*Y*Z*`* =.=",
"+=@=#=$=%=&=*===-=;=>=,=, L@'=)=!=~={=]=@%=$^=/=(=_=:=j <=[=}=|=",
"1=2=3=4=5=6=7=8=9=0=a=b=c=d=e=f=g=h=i=j=k=I.K@l=e+m=n=o=p=q=r=s=",
"t=u=v=0.w=x=y=z=d$A=B=C=D=E=F==$G=H=I=J=b$K=a@d$>+I#L=M=N=u=-$O=",
"P=Q=R=S=9.T=U=a@V=W=X=Y=Z=`= -.-+-@-#-$-%-&-*-=---o=;->-,-'-)-x="};
