/* XPM */
static char * enemy_left_xpm[] = {
"32 32 873 2",
"  	c #000700",
". 	c #000500",
"+ 	c #000300",
"@ 	c #020100",
"# 	c #060000",
"$ 	c #0C0000",
"% 	c #0F0000",
"& 	c #0E0000",
"* 	c #0A0002",
"= 	c #060003",
"- 	c #040004",
"; 	c #090003",
"> 	c #120102",
", 	c #140201",
"' 	c #120200",
") 	c #0E0300",
"! 	c #090500",
"~ 	c #040600",
"{ 	c #010700",
"] 	c #000701",
"^ 	c #000802",
"/ 	c #000904",
"( 	c #000805",
"_ 	c #000604",
": 	c #000302",
"< 	c #030000",
"[ 	c #040000",
"} 	c #030002",
"| 	c #010004",
"1 	c #000104",
"2 	c #000600",
"3 	c #000400",
"4 	c #000200",
"5 	c #090000",
"6 	c #0B0000",
"7 	c #070002",
"8 	c #030005",
"9 	c #050004",
"0 	c #0E0003",
"a 	c #1B0001",
"b 	c #220000",
"c 	c #260000",
"d 	c #270000",
"e 	c #240000",
"f 	c #1F0100",
"g 	c #160200",
"h 	c #0B0400",
"i 	c #010500",
"j 	c #000801",
"k 	c #000903",
"l 	c #000804",
"m 	c #000403",
"n 	c #010201",
"o 	c #040001",
"p 	c #040002",
"q 	c #040102",
"r 	c #080000",
"s 	c #050002",
"t 	c #080003",
"u 	c #1C0001",
"v 	c #310101",
"w 	c #3F0101",
"x 	c #470101",
"y 	c #4B0101",
"z 	c #430101",
"A 	c #360100",
"B 	c #230100",
"C 	c #0D0200",
"D 	c #040500",
"E 	c #010601",
"F 	c #000703",
"G 	c #000504",
"H 	c #010100",
"I 	c #020000",
"J 	c #0B0001",
"K 	c #0C0001",
"L 	c #020200",
"M 	c #050100",
"N 	c #0A0000",
"O 	c #030001",
"P 	c #000002",
"Q 	c #380304",
"R 	c #660C11",
"S 	c #7E1015",
"T 	c #8A0F14",
"U 	c #901013",
"V 	c #8F1011",
"W 	c #810C0C",
"X 	c #6A0604",
"Y 	c #4A0201",
"Z 	c #080100",
"` 	c #030401",
" .	c #040402",
"..	c #020403",
"+.	c #000301",
"@.	c #070000",
"#.	c #100000",
"$.	c #020300",
"%.	c #070100",
"&.	c #180000",
"*.	c #2A0101",
"=.	c #3A0203",
"-.	c #440102",
";.	c #67080C",
">.	c #97161D",
",.	c #B21B22",
"'.	c #BE1A20",
").	c #C51A1F",
"!.	c #C31B1D",
"~.	c #B41617",
"{.	c #9A0E0D",
"].	c #770506",
"^.	c #540203",
"/.	c #410305",
"(.	c #300304",
"_.	c #1D0101",
":.	c #0E0100",
"<.	c #090101",
"[.	c #030100",
"}.	c #010200",
"|.	c #110000",
"1.	c #010203",
"2.	c #000501",
"3.	c #020400",
"4.	c #0A0100",
"5.	c #2C0000",
"6.	c #61090A",
"7.	c #861012",
"8.	c #990E13",
"9.	c #AC0F16",
"0.	c #C5161E",
"a.	c #D3181F",
"b.	c #D8141B",
"c.	c #DB141A",
"d.	c #D41319",
"e.	c #C61017",
"f.	c #B00B15",
"g.	c #9C0D18",
"h.	c #8E151E",
"i.	c #72121A",
"j.	c #3F0406",
"k.	c #170000",
"l.	c #0D0100",
"m.	c #040100",
"n.	c #020105",
"o.	c #000502",
"p.	c #000900",
"q.	c #050400",
"r.	c #140100",
"s.	c #2D0202",
"t.	c #530807",
"u.	c #8B1213",
"v.	c #B5181B",
"w.	c #CB151A",
"x.	c #D91119",
"y.	c #E31118",
"z.	c #E70E15",
"A.	c #E60810",
"B.	c #E6050F",
"C.	c #E70612",
"D.	c #E70B19",
"E.	c #E30E1E",
"F.	c #D70E1D",
"G.	c #CA1422",
"H.	c #BD1D2A",
"I.	c #9F1B25",
"J.	c #680B11",
"K.	c #3E0102",
"L.	c #290000",
"M.	c #030200",
"N.	c #080300",
"O.	c #0A0200",
"P.	c #000402",
"Q.	c #030700",
"R.	c #0A0400",
"S.	c #200100",
"T.	c #540E09",
"U.	c #821A16",
"V.	c #AD1B19",
"W.	c #CD1518",
"X.	c #DE0E13",
"Y.	c #E8080F",
"Z.	c #EC070C",
"`.	c #EE060A",
" +	c #F0050A",
".+	c #F0030D",
"++	c #EF0212",
"@+	c #EF061A",
"#+	c #ED091E",
"$+	c #E6091D",
"%+	c #DD0E20",
"&+	c #D21727",
"*+	c #BB1926",
"=+	c #98151E",
"-+	c #6E0C12",
";+	c #3C0102",
">+	c #1C0000",
",+	c #120000",
"'+	c #060200",
")+	c #010300",
"!+	c #030300",
"~+	c #040300",
"{+	c #060409",
"]+	c #030605",
"^+	c #010600",
"/+	c #030500",
"(+	c #270606",
"_+	c #4C0913",
":+	c #791319",
"<+	c #A21A1B",
"[+	c #C01416",
"}+	c #D7070B",
"|+	c #E50509",
"1+	c #EC0608",
"2+	c #EE0504",
"3+	c #EF0403",
"4+	c #F00407",
"5+	c #F00511",
"6+	c #EF0519",
"7+	c #EC0019",
"8+	c #E80017",
"9+	c #E40013",
"0+	c #DF0017",
"a+	c #D90D20",
"b+	c #CD1524",
"c+	c #BA1723",
"d+	c #99131B",
"e+	c #6C0A0E",
"f+	c #440305",
"g+	c #1E0100",
"h+	c #060300",
"i+	c #0C0D11",
"j+	c #070B0A",
"k+	c #440A14",
"l+	c #78182A",
"m+	c #9B1C31",
"n+	c #B61B30",
"o+	c #C81828",
"p+	c #D6141E",
"q+	c #E31417",
"r+	c #EB1311",
"s+	c #EF0F08",
"t+	c #ED0A02",
"u+	c #E60404",
"v+	c #E60816",
"w+	c #E81024",
"x+	c #E11026",
"y+	c #D90D24",
"z+	c #D40B1F",
"A+	c #D40D1C",
"B+	c #D6111F",
"C+	c #D61220",
"D+	c #D21320",
"E+	c #C01520",
"F+	c #A1161D",
"G+	c #6F0C11",
"H+	c #2A0201",
"I+	c #000800",
"J+	c #0D0E10",
"K+	c #020501",
"L+	c #4F0118",
"M+	c #891538",
"N+	c #B34B6B",
"O+	c #D27192",
"P+	c #DF7D95",
"Q+	c #E17683",
"R+	c #DC5057",
"S+	c #DC0908",
"T+	c #E60200",
"U+	c #E80F04",
"V+	c #E10905",
"W+	c #DB0005",
"X+	c #D92032",
"Y+	c #DC5F70",
"Z+	c #E07D8D",
"`+	c #DE7E88",
" @	c #DA6D71",
".@	c #D53E43",
"+@	c #D80012",
"@@	c #DE0A19",
"#@	c #D5131E",
"$@	c #BB171F",
"%@	c #840D13",
"&@	c #320201",
"*@	c #000A00",
"=@	c #000B00",
"-@	c #090909",
";@	c #050605",
">@	c #050200",
",@	c #56172B",
"'@	c #953B5A",
")@	c #C87EA3",
"!@	c #EEB1DA",
"~@	c #FAC1E1",
"{@	c #F4B8CA",
"]@	c #D8868F",
"^@	c #C73838",
"/@	c #D71408",
"(@	c #E20F03",
"_@	c #E1120E",
":@	c #CB4958",
"<@	c #E19AAD",
"[@	c #F7C3D6",
"}@	c #F9C5D0",
"|@	c #EFADB0",
"1@	c #DA6E6F",
"2@	c #D72927",
"3@	c #E11319",
"4@	c #DD0916",
"5@	c #C80F18",
"6@	c #8F080E",
"7@	c #3A0101",
"8@	c #010B01",
"9@	c #000C01",
"0@	c #070503",
"a@	c #0A0202",
"b@	c #715361",
"c@	c #BF94AB",
"d@	c #E8BCDA",
"e@	c #FDD5F7",
"f@	c #FFDFFB",
"g@	c #FCDAEB",
"h@	c #E9BEC6",
"i@	c #D79494",
"j@	c #D35856",
"k@	c #D70000",
"l@	c #DE1E1F",
"m@	c #DF616D",
"n@	c #E196A8",
"o@	c #F2C7DA",
"p@	c #FFE4F3",
"q@	c #FFE5EB",
"r@	c #FAD3D0",
"s@	c #EBABA3",
"t@	c #E27A6F",
"u@	c #DE3A36",
"v@	c #DE0003",
"w@	c #D30F15",
"x@	c #9B070C",
"y@	c #490000",
"z@	c #210000",
"A@	c #100300",
"B@	c #060900",
"C@	c #020A00",
"D@	c #0A0201",
"E@	c #160000",
"F@	c #846E7D",
"G@	c #D6BDD4",
"H@	c #F3D8F2",
"I@	c #F5DCF5",
"J@	c #FAE6FA",
"K@	c #FEECF9",
"L@	c #FDE6EC",
"M@	c #F2CACA",
"N@	c #D87D7C",
"O@	c #CE0000",
"P@	c #DA242A",
"Q@	c #E68090",
"R@	c #F0BBCF",
"S@	c #F3D7E9",
"T@	c #F6E7F2",
"U@	c #FCEFEF",
"V@	c #FEEAE2",
"W@	c #FCD7C9",
"X@	c #EFAB9D",
"Y@	c #DC544D",
"Z@	c #DD0000",
"`@	c #D91114",
" #	c #A70A0D",
".#	c #600304",
"+#	c #380101",
"@#	c #1C0200",
"##	c #0E0400",
"$#	c #120100",
"%#	c #280000",
"&#	c #3C0513",
"*#	c #4F0E28",
"=#	c #79576C",
"-#	c #A791AA",
";#	c #B4A2BD",
">#	c #B7A7C0",
",#	c #DBD0E0",
"'#	c #FBF0F9",
")#	c #FFF0F5",
"!#	c #F8D3D5",
"~#	c #E08485",
"{#	c #D30001",
"]#	c #D51C26",
"^#	c #CD6273",
"/#	c #BF8EA3",
"(#	c #B49FB2",
"_#	c #BFB6C0",
":#	c #E7DEDE",
"<#	c #FEF0E8",
"[#	c #FFE7D8",
"}#	c #F5BDAD",
"|#	c #E36056",
"1#	c #DE0000",
"2#	c #D70D0D",
"3#	c #B20E13",
"4#	c #800E13",
"5#	c #520508",
"6#	c #130200",
"7#	c #040400",
"8#	c #170101",
"9#	c #2F0000",
"0#	c #4B0C1C",
"a#	c #68223D",
"b#	c #6F2F55",
"c#	c #5E3666",
"d#	c #482F68",
"e#	c #5C5179",
"f#	c #BCB5C5",
"g#	c #F8EEF6",
"h#	c #FFEFF6",
"i#	c #F9D1D5",
"j#	c #E68386",
"k#	c #D80D14",
"l#	c #D00E1F",
"m#	c #B12442",
"n#	c #7B335A",
"o#	c #4F2E5B",
"p#	c #7A7184",
"q#	c #D4CBD0",
"r#	c #FDF0ED",
"s#	c #FFEBDE",
"t#	c #F6C1B2",
"u#	c #E66359",
"v#	c #DF0000",
"w#	c #D60D09",
"x#	c #BB161A",
"y#	c #94191E",
"z#	c #610C10",
"A#	c #130000",
"B#	c #180100",
"C#	c #4C0D1E",
"D#	c #742643",
"E#	c #7B2C58",
"F#	c #5F2363",
"G#	c #390060",
"H#	c #4E3B6F",
"I#	c #B9AEC1",
"J#	c #F7E8F6",
"K#	c #FFEAF5",
"L#	c #F9CCD4",
"M#	c #E68085",
"N#	c #D60614",
"O#	c #CB001D",
"P#	c #AB0A40",
"Q#	c #760D58",
"R#	c #460059",
"S#	c #756487",
"T#	c #D4C8D7",
"U#	c #FEEEF3",
"V#	c #FFE6E0",
"W#	c #F4BCB1",
"X#	c #E15F58",
"Y#	c #DB150F",
"Z#	c #C22222",
"`#	c #9B2427",
" $	c #631315",
".$	c #190100",
"+$	c #2E0000",
"@$	c #510C1C",
"#$	c #7C2441",
"$$	c #872B57",
"%$	c #732D67",
"&$	c #775181",
"*$	c #9980A5",
"=$	c #D2BED7",
"-$	c #F8E1F4",
";$	c #F6D4E2",
">$	c #EAAFB8",
",$	c #E16B72",
"'$	c #D90415",
")$	c #CF0020",
"!$	c #B30243",
"~$	c #8E2967",
"{$	c #8B5B8D",
"]$	c #AD93B7",
"^$	c #E4D0E6",
"/$	c #FBE3F0",
"($	c #F2CDCD",
"_$	c #E69F98",
":$	c #DD4F4A",
"<$	c #DD160F",
"[$	c #C42424",
"}$	c #9C2728",
"|$	c #631516",
"1$	c #200000",
"2$	c #0D0000",
"3$	c #1B0100",
"4$	c #350000",
"5$	c #590816",
"6$	c #821D37",
"7$	c #901F4A",
"8$	c #882A5E",
"9$	c #AD7EA2",
"0$	c #DEBCDD",
"a$	c #F5D6F1",
"b$	c #F8D4EA",
"c$	c #DEA8B7",
"d$	c #CB666E",
"e$	c #DA373C",
"f$	c #E20919",
"g$	c #DD0726",
"h$	c #C5003D",
"i$	c #AE3D6E",
"j$	c #C993BA",
"k$	c #E9C4E7",
"l$	c #F9DAF3",
"m$	c #F2CEDE",
"n$	c #D3959A",
"o$	c #CD5852",
"p$	c #DC2C26",
"q$	c #E10200",
"r$	c #DA110B",
"s$	c #C01F1E",
"t$	c #9A2223",
"u$	c #621212",
"v$	c #040200",
"w$	c #1A0100",
"x$	c #5E0712",
"y$	c #8D192E",
"z$	c #A21B3C",
"A$	c #A4234C",
"B$	c #C4728F",
"C$	c #EBA9C5",
"D$	c #F3B6CE",
"E$	c #EAA9BB",
"F$	c #D77481",
"G$	c #D1151C",
"H$	c #E20000",
"I$	c #EB0715",
"J$	c #E80821",
"K$	c #D90030",
"L$	c #C9365C",
"M$	c #DB86A4",
"N$	c #EEAECB",
"O$	c #F2B5CB",
"P$	c #E79FAF",
"Q$	c #CD5C65",
"R$	c #D00000",
"S$	c #E50901",
"T$	c #E70A04",
"U$	c #DA0C0A",
"V$	c #C21A1B",
"W$	c #9E1D1F",
"X$	c #670F10",
"Y$	c #2A0000",
"Z$	c #080200",
"`$	c #310000",
" %	c #60070E",
".%	c #981927",
"+%	c #B61D30",
"@%	c #C01832",
"#%	c #CF3449",
"$%	c #DF4E60",
"%%	c #DE5362",
"&%	c #D94D56",
"*%	c #E1353B",
"=%	c #EA1314",
"-%	c #F00406",
";%	c #F2020A",
">%	c #F00311",
",%	c #E9031C",
"'%	c #DF1930",
")%	c #DA3C4E",
"!%	c #D9505F",
"~%	c #DE555F",
"{%	c #DF4B51",
"]%	c #DB2C2D",
"^%	c #E40B03",
"/%	c #F10B07",
"(%	c #ED0808",
"_%	c #DE0B0E",
":%	c #C7171C",
"<%	c #A61A1E",
"[%	c #6E0D0F",
"}%	c #320000",
"|%	c #0B0100",
"1%	c #1E0300",
"2%	c #62060A",
"3%	c #9E1721",
"4%	c #C11B28",
"5%	c #D21222",
"6%	c #DF0013",
"7%	c #E70000",
"8%	c #E90000",
"9%	c #E80000",
"0%	c #ED0000",
"a%	c #F20805",
"b%	c #F50607",
"c%	c #F30206",
"d%	c #EF0105",
"e%	c #ED060C",
"f%	c #EC080C",
"g%	c #E50000",
"h%	c #ED0703",
"i%	c #F20606",
"j%	c #EE090E",
"k%	c #E21017",
"l%	c #CC1920",
"m%	c #AA1A20",
"n%	c #720C10",
"o%	c #1E0000",
"p%	c #0C0100",
"q%	c #230300",
"r%	c #330100",
"s%	c #630509",
"t%	c #A1141E",
"u%	c #C61824",
"v%	c #DB111F",
"w%	c #E70917",
"x%	c #EF040F",
"y%	c #F6070B",
"z%	c #F90B0A",
"A%	c #F60706",
"B%	c #F20404",
"C%	c #F30608",
"D%	c #F00609",
"E%	c #EA0507",
"F%	c #EB0807",
"G%	c #EE0B08",
"H%	c #EB0A06",
"I%	c #E90803",
"J%	c #EC0803",
"K%	c #EE0802",
"L%	c #EF0601",
"M%	c #EE0408",
"N%	c #EA0B13",
"O%	c #E1141D",
"P%	c #CC1B24",
"Q%	c #AA1B23",
"R%	c #720D12",
"S%	c #0B0300",
"T%	c #280100",
"U%	c #380000",
"V%	c #66040A",
"W%	c #A21221",
"X%	c #C61727",
"Y%	c #D71222",
"Z%	c #E00A19",
"`%	c #E6030E",
" &	c #EF050A",
".&	c #F60B0C",
"+&	c #F40A0B",
"@&	c #F0090C",
"#&	c #EC0A0F",
"$&	c #E90F13",
"%&	c #E71315",
"&&	c #E21110",
"*&	c #DE0C06",
"=&	c #E10D06",
"-&	c #E60F08",
";&	c #EA0D07",
">&	c #EC0905",
",&	c #EC0705",
"'&	c #EC080B",
")&	c #EB0C13",
"!&	c #E20E17",
"~&	c #D3111B",
"{&	c #C11A24",
"]&	c #A51A24",
"^&	c #6F0D13",
"/&	c #330000",
"(&	c #1A0000",
"_&	c #070501",
":&	c #2B0000",
"<&	c #3C0000",
"[&	c #65040B",
"}&	c #9D1122",
"|&	c #BE182A",
"1&	c #CD1A29",
"2&	c #D01420",
"3&	c #CD0610",
"4&	c #DA070D",
"5&	c #E80F12",
"6&	c #EA1012",
"7&	c #E61013",
"8&	c #DE1014",
"9&	c #D71217",
"0&	c #D31618",
"a&	c #C81212",
"b&	c #C10A06",
"c&	c #CB1109",
"d&	c #D91710",
"e&	c #E11611",
"f&	c #E3120E",
"g&	c #DF0A09",
"h&	c #DC090D",
"i&	c #D80E15",
"j&	c #CF1018",
"k&	c #C2131D",
"l&	c #B41C27",
"m&	c #9C1C27",
"n&	c #690E15",
"o&	c #300000",
"p&	c #040601",
"q&	c #5F040A",
"r&	c #8E1120",
"s&	c #AD1C2C",
"t&	c #BE2531",
"u&	c #B52028",
"v&	c #9F0B11",
"w&	c #B60D0F",
"x&	c #D21719",
"y&	c #D61719",
"z&	c #D11418",
"A&	c #C91419",
"B&	c #B81216",
"C&	c #9F0C0E",
"D&	c #8F0606",
"E&	c #900603",
"F&	c #AB150D",
"G&	c #C41E16",
"H&	c #D2201A",
"I&	c #D31C17",
"J&	c #C70E0C",
"K&	c #B70305",
"L&	c #A9060A",
"M&	c #AA1118",
"N&	c #AF1B23",
"O&	c #A7222D",
"P&	c #92212C",
"Q&	c #631118",
"R&	c #2D0000",
"S&	c #010501",
"T&	c #370000",
"U&	c #53070C",
"V&	c #7C1A24",
"W&	c #94232D",
"X&	c #9D252D",
"Y&	c #8D1D23",
"Z&	c #700A0D",
"`&	c #890B0C",
" *	c #AA1517",
".*	c #B41A1A",
"+*	c #B51D1D",
"@*	c #B12022",
"#*	c #9C1B1D",
"$*	c #75090A",
"%*	c #5B0000",
"&*	c #640503",
"**	c #8B1D14",
"=*	c #AA291D",
"-*	c #B92A20",
";*	c #B7241B",
">*	c #A3110C",
",*	c #8B0000",
"'*	c #770102",
")*	c #800C11",
"!*	c #901920",
"~*	c #90232D",
"{*	c #81242E",
"]*	c #58131A",
"^*	c #250000",
"/*	c #420C0E",
"(*	c #682428",
"_*	c #72282D",
":*	c #61191D",
"<*	c #50080B",
"[*	c #480203",
"}*	c #530202",
"|*	c #680A09",
"1*	c #811915",
"2*	c #91231F",
"3*	c #952929",
"4*	c #882425",
"5*	c #660E0F",
"6*	c #4B0000",
"7*	c #4B0704",
"8*	c #6F2418",
"9*	c #8A3122",
"0*	c #933021",
"a*	c #8B271B",
"b*	c #6F130B",
"c*	c #570000",
"d*	c #4E0000",
"e*	c #510203",
"f*	c #5C0C11",
"g*	c #6B1F27",
"h*	c #69232C",
"i*	c #481319",
"j*	c #1F0001",
"k*	c #0A0001",
"l*	c #000203",
"m*	c #210002",
"n*	c #30090A",
"o*	c #4C1D20",
"p*	c #4D2022",
"q*	c #2C0F0E",
"r*	c #150000",
"s*	c #240100",
"t*	c #310302",
"u*	c #53110C",
"v*	c #671B17",
"w*	c #6E201F",
"x*	c #651C1D",
"y*	c #4D0A0A",
"z*	c #350502",
"A*	c #4E1B12",
"B*	c #61261A",
"C*	c #672518",
"D*	c #5E1E12",
"E*	c #440E06",
"F*	c #310100",
"G*	c #310405",
"H*	c #47161C",
"I*	c #4C1A21",
"J*	c #340D12",
"K*	c #150001",
"L*	c #050003",
"M*	c #000204",
"N*	c #1C0003",
"O*	c #1B0002",
"P*	c #1D0303",
"Q*	c #260B0B",
"R*	c #260D0D",
"S*	c #150804",
"T*	c #070400",
"U*	c #0C0400",
"V*	c #150200",
"W*	c #210100",
"X*	c #2F0302",
"Y*	c #370504",
"Z*	c #370706",
"`*	c #320505",
" =	c #290101",
".=	c #230000",
"+=	c #220100",
"@=	c #270503",
"#=	c #2D0905",
"$=	c #300904",
"%=	c #300703",
"&=	c #2E0501",
"*=	c #280300",
"==	c #1D0000",
"-=	c #1F0102",
";=	c #28060A",
">=	c #2A080D",
",=	c #1C0305",
"'=	c #0C0002",
")=	c #030106",
"!=	c #000207",
"~=	c #150004",
"{=	c #140304",
"]=	c #110505",
"^=	c #0C0503",
"/=	c #060501",
"(=	c #140000",
"_=	c #1D0200",
":=	c #1B0000",
"<=	c #130001",
"[=	c #100002",
"}=	c #050206",
"|=	c #06050C",
"1=	c #05060D",
"2=	c #0C0103",
"3=	c #0C0405",
"4=	c #0A0707",
"5=	c #050503",
"6=	c #000901",
"7=	c #080201",
"8=	c #0A0101",
"9=	c #0D0001",
"0=	c #0E0001",
"a=	c #0C0101",
"b=	c #040202",
"c=	c #020103",
"d=	c #030308",
"e=	c #07070E",
"f=	c #07070F",
"  . + @ # $ % & * = - ; > , ' ) ! ~ {   ] ^ / ( _ : @ < [ } | 1 ",
"  2 3 4 < 5 $ 6 7 8 9 0 a b c d e f g h i j k l _ m n @ < o p q ",
"  2 3 + @ # 5 r s - t u v w x y y z A B C D E F _ G : H I # J K ",
"2 . . 3 L M 5 N O P < Q R S T U V W X Y e Z + `  ...+.4 H @.& #.",
"3 . . 3 $.%.& &.*.=.-.;.>.,.'.).!.~.{.].^./.(._.:.<.[.}.H # % |.",
"1.2.  2 3.4.#.5.6.7.8.9.0.a.b.c.c.d.e.f.g.h.i.j.&.k.l.m.H M l.:.",
"n.o.p.  q.r.s.t.u.v.w.x.y.z.A.B.C.D.E.F.G.H.I.J.K.L.k.N @ M.N.O.",
"8 P.{ Q.R.S.T.U.V.W.X.Y.Z.`. +.+++@+#+$+%+&+*+=+-+;+>+,+'+)+!+~+",
"{+]+^+/+(+_+:+<+[+}+|+1+2+3+4+5+6+7+8+9+0+a+b+c+d+e+f+g+h+3 . . ",
"i+j+E + k+l+m+n+o+p+q+r+s+t+u+v+w+x+y+z+A+B+C+D+E+F+G+H+~+2 I+I+",
"J+j+K+[.L+M+N+O+P+Q+R+S+T+U+V+W+X+Y+Z+`+ @.@+@@@#@$@%@&@~+  *@=@",
"-@;@>@6 ,@'@)@!@~@{@]@^@/@(@_@#@:@<@[@}@|@1@2@3@4@5@6@7@:./+8@9@",
"0@a@& 5 b@c@d@e@f@g@h@i@j@k@l@m@n@o@p@q@r@s@t@u@v@w@x@y@z@A@B@C@",
"D@E@z@e F@G@H@I@J@K@L@M@N@O@P@Q@R@S@T@U@V@W@X@Y@Z@`@ #.#+#@###~ ",
"$#%#&#*#=#-#;#>#,#'#)#!#~#{#]#^#/#(#_#:#<#[#}#|#1#2#3#4#5#c 6#7#",
"8#9#0#a#b#c#d#e#f#g#h#i#j#k#l#m#n#o#p#q#r#s#t#u#v#w#x#y#z#L.A#~+",
"B#5.C#D#E#F#G#H#I#J#K#L#M#N#O#P#Q#R#S#T#U#V#W#X#1#Y#Z#`# $e % M.",
".$+$@$#$$$%$&$*$=$-$;$>$,$'$)$!$~${$]$^$/$($_$:$v#<$[$}$|$1$2$M.",
"3$4$5$6$7$8$9$0$a$b$c$d$e$f$g$h$i$j$k$l$m$n$o$p$q$r$s$t$u$b % v$",
"w$4$x$y$z$A$B$C$D$E$F$G$H$I$J$K$L$M$N$O$P$Q$R$S$T$U$V$W$X$Y$E@Z$",
".$`$ %.%+%@%#%$%%%&%*%=%-%;%>%,%'%)%!%~%{%]%^%/%(%_%:%<%[%}%>+|%",
"1%`$2%3%4%5%6%7%8%9%0%a%b%c%d%e%f%g%v#H$g%7%h%i%j%k%l%m%n%4$o%p%",
"q%r%s%t%u%v%w%x%y%z%A%B%C%D%E%F%G%H%I%J%K%L%3+M%N%O%P%Q%R%4$o%S%",
"T%U%V%W%X%Y%Z%`% &.&+&@&#&$&%&&&*&=&-&;&>&,&'&)&!&~&{&]&^&/&(&_&",
":&<&[&}&|&1&2&3&4&5&6&7&8&9&0&a&b&c&d&e&f&g&h&i&j&k&l&m&n&o&E@p&",
"+$<&q&r&s&t&u&v&w&x&y&z&A&B&C&D&E&F&G&H&I&J&K&L&M&N&O&P&Q&R&A#S&",
"5.T&U&V&W&X&Y&Z&`& *.*+*@*#*$*%*&***=*-*;*>*,*'*)*!*~*{*]*%##.+.",
"^*:&/*(*_*:*<*[*}*|*1*2*3*4*5*6*7*8*9*0*a*b*c*d*e*f*g*h*i*j*k*l*",
"m*b n*o*p*q*r*s*e t*u*v*w*x*y*U%z*A*B*C*D*E*F*R&Y$G*H*I*J*K*L*M*",
"N*O*P*Q*R*S*T*U*V*W*X*Y*Z*`* =.=+=@=#=$=%=&=*=W*==-=;=>=,='=)=!=",
"~={=]=^=/=^+  I+T*|.r*r*#.% A#r*(=#.$ $ ,+3$_=:=&.r*<=[=* }=|=1=",
"2=3=4=5=S&] 6=*@~ 7=6 $ J 8=J 9=0=#.#.|.|.#.A#&.k.A#a=b=c=d=e=f="};
