/* XPM */
static char * enemy_down_xpm[] = {
"32 32 916 2",
"  	c #040002",
". 	c #070002",
"+ 	c #080002",
"@ 	c #080001",
"# 	c #080000",
"$ 	c #0A0100",
"% 	c #0A0200",
"& 	c #080200",
"* 	c #070100",
"= 	c #060000",
"- 	c #080101",
"; 	c #0A0102",
"> 	c #0B0104",
", 	c #0C0106",
"' 	c #0E0009",
") 	c #10000C",
"! 	c #10010E",
"~ 	c #0C0009",
"{ 	c #060002",
"] 	c #040000",
"^ 	c #050000",
"/ 	c #040005",
"( 	c #02000C",
"_ 	c #01000E",
": 	c #00000D",
"< 	c #000005",
"[ 	c #000100",
"} 	c #060200",
"| 	c #070300",
"1 	c #060300",
"2 	c #100000",
"3 	c #170000",
"4 	c #1C0000",
"5 	c #1E0000",
"6 	c #1F0001",
"7 	c #1D0003",
"8 	c #1A0006",
"9 	c #120004",
"0 	c #090000",
"a 	c #040100",
"b 	c #020100",
"c 	c #030100",
"d 	c #030004",
"e 	c #010009",
"f 	c #00000C",
"g 	c #00000B",
"h 	c #000104",
"i 	c #000200",
"j 	c #070000",
"k 	c #070200",
"l 	c #050400",
"m 	c #040500",
"n 	c #030600",
"o 	c #030500",
"p 	c #030300",
"q 	c #130000",
"r 	c #240000",
"s 	c #320100",
"t 	c #3B0100",
"u 	c #400101",
"v 	c #3C0101",
"w 	c #340102",
"x 	c #260001",
"y 	c #120000",
"z 	c #050100",
"A 	c #020200",
"B 	c #010200",
"C 	c #010103",
"D 	c #000106",
"E 	c #000108",
"F 	c #000107",
"G 	c #000303",
"H 	c #000400",
"I 	c #040400",
"J 	c #020500",
"K 	c #000300",
"L 	c #0E0000",
"M 	c #2C0100",
"N 	c #4D0601",
"O 	c #660E03",
"P 	c #791509",
"Q 	c #82170D",
"R 	c #83150D",
"S 	c #7D140D",
"T 	c #71130D",
"U 	c #540C07",
"V 	c #240101",
"W 	c #000000",
"X 	c #050200",
"Y 	c #010101",
"Z 	c #000203",
"` 	c #000204",
" .	c #000304",
"..	c #000401",
"+.	c #020301",
"@.	c #010501",
"#.	c #030301",
"$.	c #070201",
"%.	c #0E0100",
"&.	c #220200",
"*.	c #360301",
"=.	c #460200",
"-.	c #5B0300",
";.	c #7A0E02",
">.	c #961807",
",.	c #AB2112",
"'.	c #B62416",
").	c #B72117",
"!.	c #B22017",
"~.	c #A42016",
"{.	c #83160F",
"].	c #520502",
"^.	c #3A0200",
"/.	c #310301",
"(.	c #220100",
"_.	c #150000",
":.	c #0D0000",
"<.	c #060101",
"[.	c #010302",
"}.	c #000402",
"|.	c #000501",
"1.	c #000500",
"2.	c #060400",
"3.	c #040402",
"4.	c #010405",
"5.	c #000407",
"6.	c #010409",
"7.	c #08020A",
"8.	c #110008",
"9.	c #1C0002",
"0.	c #520901",
"a.	c #801505",
"b.	c #951404",
"c.	c #A10D01",
"d.	c #B10F03",
"e.	c #BF1509",
"f.	c #C91A10",
"g.	c #CF1C14",
"h.	c #D11A13",
"i.	c #D01B13",
"j.	c #C81C13",
"k.	c #B4180C",
"l.	c #9A1202",
"m.	c #891404",
"n.	c #751205",
"o.	c #4E0701",
"p.	c #260000",
"q.	c #1D0002",
"r.	c #130102",
"s.	c #040301",
"t.	c #000700",
"u.	c #010400",
"v.	c #040600",
"w.	c #030604",
"x.	c #01050C",
"y.	c #000410",
"z.	c #040211",
"A.	c #120111",
"B.	c #28000E",
"C.	c #410108",
"D.	c #7A1107",
"E.	c #AF1F0B",
"F.	c #C61E07",
"G.	c #D01302",
"H.	c #D80E05",
"I.	c #DD0C0A",
"J.	c #DF090D",
"K.	c #E1080D",
"L.	c #E4090C",
"M.	c #E40D0B",
"N.	c #E11209",
"O.	c #D61504",
"P.	c #C71802",
"Q.	c #BA1E09",
"R.	c #A51D0E",
"S.	c #7C110C",
"T.	c #510308",
"U.	c #370105",
"V.	c #1F0002",
"W.	c #090201",
"X.	c #000600",
"Y.	c #000901",
"Z.	c #010601",
"`.	c #030400",
" +	c #020300",
".+	c #010408",
"++	c #000513",
"@+	c #000317",
"#+	c #070117",
"$+	c #180011",
"%+	c #42010E",
"&+	c #6F0613",
"*+	c #9F1314",
"=+	c #C91E10",
"-+	c #DE1D08",
";+	c #E81402",
">+	c #EC0C04",
",+	c #EF060A",
"'+	c #F1030D",
")+	c #F4030E",
"!+	c #F5070E",
"~+	c #F2080A",
"{+	c #EB0804",
"]+	c #E10B01",
"^+	c #D71302",
"/+	c #D31E0D",
"(+	c #C82217",
"_+	c #AD1B1F",
":+	c #88101B",
"<+	c #54040A",
"[+	c #100100",
"}+	c #000802",
"|+	c #010C04",
"1+	c #040903",
"2+	c #070502",
"3+	c #020101",
"4+	c #01030B",
"5+	c #010516",
"6+	c #000319",
"7+	c #200118",
"8+	c #4B0517",
"9+	c #730A19",
"0+	c #990D1D",
"a+	c #B8121B",
"b+	c #D1150F",
"c+	c #E01001",
"d+	c #E90600",
"e+	c #EE0300",
"f+	c #F20207",
"g+	c #FA030B",
"h+	c #FD050D",
"i+	c #FC070D",
"j+	c #F7070A",
"k+	c #F00504",
"l+	c #E40000",
"m+	c #D90000",
"n+	c #D91300",
"o+	c #D61C13",
"p+	c #C91B21",
"q+	c #AF1722",
"r+	c #861117",
"s+	c #5A090B",
"t+	c #2C0202",
"u+	c #020702",
"v+	c #030C04",
"w+	c #070804",
"x+	c #0A0403",
"y+	c #070003",
"z+	c #04020C",
"A+	c #020514",
"B+	c #000314",
"C+	c #390316",
"D+	c #7C1122",
"E+	c #A61728",
"F+	c #BF1425",
"G+	c #CA1523",
"H+	c #CA1924",
"I+	c #CE1922",
"J+	c #D5151C",
"K+	c #DC0C12",
"L+	c #E70304",
"M+	c #F60504",
"N+	c #FC0606",
"O+	c #F60405",
"P+	c #F40807",
"Q+	c #F30F0A",
"R+	c #E4120B",
"S+	c #D2140D",
"T+	c #CE1912",
"U+	c #CF1A16",
"V+	c #D1151A",
"W+	c #CC1820",
"X+	c #BA1F25",
"Y+	c #91191E",
"Z+	c #490607",
"`+	c #070402",
" @	c #070303",
".@	c #0C0003",
"+@	c #070209",
"@@	c #04040F",
"#@	c #00020D",
"$@	c #450410",
"%@	c #931423",
"&@	c #BD1527",
"*@	c #D0011C",
"=@	c #D74251",
"-@	c #D77081",
";@	c #D98191",
">@	c #DB7E8B",
",@	c #D95A63",
"'@	c #DC0C0F",
")@	c #EE0000",
"!@	c #F80D07",
"~@	c #F60E0D",
"{@	c #F00000",
"]@	c #E9130D",
"^@	c #E35B58",
"/@	c #DE7E7B",
"(@	c #DC827F",
"_@	c #DA726F",
":@	c #D74241",
"<@	c #D20007",
"[@	c #C71920",
"}@	c #9F181D",
"|@	c #520507",
"1@	c #140000",
"2@	c #0C0005",
"3@	c #110002",
"4@	c #0C0004",
"5@	c #0A0107",
"6@	c #000004",
"7@	c #4B0309",
"8@	c #9A111C",
"9@	c #C41B28",
"0@	c #D42934",
"a@	c #E37282",
"b@	c #F2AEC3",
"c@	c #F8C6DA",
"d@	c #F5C3D3",
"e@	c #E5949F",
"f@	c #D94144",
"g@	c #E31107",
"h@	c #EF130F",
"i@	c #F71A19",
"j@	c #ED1518",
"k@	c #D93E3E",
"l@	c #E39390",
"m@	c #F6C3BF",
"n@	c #F9C8C4",
"o@	c #F2B2AE",
"p@	c #DF7573",
"q@	c #CD292B",
"r@	c #BC161A",
"s@	c #950A0E",
"t@	c #500203",
"u@	c #210102",
"v@	c #1D0205",
"w@	c #130105",
"x@	c #0E0005",
"y@	c #160001",
"z@	c #150002",
"A@	c #170002",
"B@	c #1A0000",
"C@	c #500306",
"D@	c #980512",
"E@	c #C5474E",
"F@	c #E08088",
"G@	c #F2AAB6",
"H@	c #FDCADA",
"I@	c #FFDCEB",
"J@	c #FEDEEB",
"K@	c #F3C3CB",
"L@	c #E59598",
"M@	c #D85D5E",
"N@	c #D61214",
"O@	c #E0161A",
"P@	c #E3595F",
"Q@	c #E39094",
"R@	c #F0C1BF",
"S@	c #FEE1D9",
"T@	c #FFE5DD",
"U@	c #FCD7D0",
"V@	c #EEB4B1",
"W@	c #D98587",
"X@	c #B9494B",
"Y@	c #8D0109",
"Z@	c #500204",
"`@	c #270000",
" #	c #210104",
".#	c #160103",
"+#	c #0F0003",
"@#	c #1B0000",
"##	c #270001",
"$#	c #360100",
"%#	c #5D080A",
"&#	c #940006",
"*#	c #C3636A",
"=#	c #EBB1BB",
"-#	c #FDD1DC",
";#	c #FFD9E3",
">#	c #FFE3EC",
",#	c #FEE9F1",
"'#	c #FEE2E9",
")#	c #F3C9CE",
"!#	c #D08489",
"~#	c #B7121A",
"{#	c #BE0D1A",
"]#	c #D87E87",
"^#	c #F4C2CA",
"/#	c #FEDFE1",
"(#	c #FFEDE6",
"_#	c #FFF1E8",
":#	c #FFECE5",
"<#	c #FDDEDD",
"[#	c #E8B7BB",
"}#	c #BA676B",
"|#	c #890410",
"1#	c #590D0E",
"2#	c #350302",
"3#	c #0F0001",
"4#	c #1D0000",
"5#	c #380101",
"6#	c #570C09",
"7#	c #781714",
"8#	c #9B0402",
"9#	c #C36970",
"0#	c #EDBCC8",
"a#	c #FFE0EB",
"b#	c #FFE9F3",
"c#	c #FFEEF8",
"d#	c #FFEEFA",
"e#	c #FFEBF6",
"f#	c #F7D5DE",
"g#	c #D08E96",
"h#	c #B01D27",
"i#	c #B41122",
"j#	c #D38694",
"k#	c #F7CCDC",
"l#	c #FFE7F2",
"m#	c #FFF1F6",
"n#	c #FFF8F8",
"o#	c #FFF4F4",
"p#	c #FFE3EB",
"q#	c #EABBC6",
"r#	c #B66971",
"s#	c #8D1319",
"t#	c #732120",
"u#	c #521513",
"v#	c #2D0202",
"w#	c #190000",
"x#	c #110000",
"y#	c #1C0001",
"z#	c #290000",
"A#	c #410201",
"B#	c #6B150F",
"C#	c #8E2119",
"D#	c #A20B00",
"E#	c #C26971",
"F#	c #EDBDCB",
"G#	c #FADDED",
"H#	c #F0E1EF",
"I#	c #E9DFF0",
"J#	c #EADCF1",
"K#	c #F6E0F3",
"L#	c #F6D3E1",
"M#	c #D38F99",
"N#	c #B6232A",
"O#	c #B71624",
"P#	c #D5869A",
"Q#	c #F6CAE4",
"R#	c #F8DBF4",
"S#	c #EEDDF0",
"T#	c #ECE3F0",
"U#	c #F0E3F0",
"V#	c #FAD8ED",
"W#	c #E9B4CB",
"X#	c #B66574",
"Y#	c #961C1E",
"Z#	c #892F2B",
"`#	c #65211C",
" $	c #320504",
".$	c #180000",
"+$	c #150004",
"@$	c #230000",
"#$	c #410301",
"$$	c #751A0D",
"%$	c #992515",
"&$	c #A60700",
"*$	c #C16971",
"=$	c #ECBDCF",
"-$	c #E9CBE2",
";$	c #B3A5C6",
">$	c #938FBA",
",$	c #A398C3",
"'$	c #D9C0DD",
")$	c #F4CBDE",
"!$	c #D98D98",
"~$	c #BF1F1D",
"{$	c #C1151F",
"]$	c #DC86A1",
"^$	c #F5C4EA",
"/$	c #DABAE3",
"($	c #A896BF",
"_$	c #9991B9",
":$	c #B6A4CA",
"<$	c #E9C2EA",
"[$	c #ECB4D7",
"}$	c #BE647B",
"|$	c #A21F1C",
"1$	c #95372D",
"2$	c #6E281F",
"3$	c #320604",
"4$	c #110100",
"5$	c #0F0006",
"6$	c #1E0001",
"7$	c #400301",
"8$	c #7B1C0C",
"9$	c #A22712",
"0$	c #B01100",
"a$	c #C35B62",
"b$	c #DFA4B5",
"c$	c #CCA4C1",
"d$	c #765C9A",
"e$	c #11048A",
"f$	c #584599",
"g$	c #B792B9",
"h$	c #E4ACBF",
"i$	c #D77882",
"j$	c #C9190E",
"k$	c #CD1317",
"l$	c #DC738E",
"m$	c #E6A6CE",
"n$	c #BB8CBF",
"o$	c #643B8F",
"p$	c #3D0086",
"q$	c #8258A1",
"r$	c #D29CCE",
"s$	c #E29BC3",
"t$	c #C45670",
"u$	c #AD1F1C",
"v$	c #993429",
"w$	c #6F261B",
"x$	c #330603",
"y$	c #110200",
"z$	c #0D0008",
"A$	c #400302",
"B$	c #7E1B0C",
"C$	c #A92713",
"D$	c #BF2004",
"E$	c #C83737",
"F$	c #C55D68",
"G$	c #AA5C7C",
"H$	c #6E337F",
"I$	c #461185",
"J$	c #622C8A",
"K$	c #9C5484",
"L$	c #C36172",
"M$	c #CE4349",
"N$	c #D41208",
"O$	c #D90F11",
"P$	c #D73F52",
"Q$	c #C95C7A",
"R$	c #A54D80",
"S$	c #731E7C",
"T$	c #62007E",
"U$	c #832D83",
"V$	c #B95689",
"W$	c #CD5679",
"X$	c #C83048",
"Y$	c #B61B1F",
"Z$	c #99261B",
"`$	c #6E1B0F",
" %	c #380302",
".%	c #110300",
"+%	c #0E0106",
"@%	c #430302",
"#%	c #81170F",
"$%	c #AE2217",
"%%	c #C71F11",
"&%	c #CF1406",
"*%	c #C70004",
"=%	c #B3003A",
"-%	c #961360",
";%	c #8A1D70",
">%	c #931F70",
",%	c #AB1253",
"'%	c #C4001E",
")%	c #D70500",
"!%	c #E30D05",
"~%	c #E70C0A",
"{%	c #DF0009",
"]%	c #CD001B",
"^%	c #B90047",
"/%	c #A71361",
"(%	c #9D1266",
"_%	c #A7065F",
":%	c #C40047",
"<%	c #D4002F",
"[%	c #D30925",
"}%	c #C2171C",
"|%	c #A31C15",
"1%	c #76130A",
"2%	c #3E0201",
"3%	c #0E0300",
"4%	c #110104",
"5%	c #220001",
"6%	c #460202",
"7%	c #841312",
"8%	c #B11C1B",
"9%	c #CA1713",
"0%	c #D80E08",
"a%	c #DD0C0D",
"b%	c #D50F26",
"c%	c #C4143B",
"d%	c #BD1744",
"e%	c #C11844",
"f%	c #CD1233",
"g%	c #DB0A17",
"h%	c #E90807",
"i%	c #F10804",
"j%	c #F20805",
"k%	c #EE0609",
"l%	c #E50614",
"m%	c #DD0F2A",
"n%	c #D51538",
"o%	c #CC0F37",
"p%	c #CF0832",
"q%	c #E1092A",
"r%	c #E80A21",
"s%	c #E10C19",
"t%	c #D01517",
"u%	c #B31A18",
"v%	c #84110F",
"w%	c #450201",
"x%	c #0B0400",
"y%	c #120103",
"z%	c #470102",
"A%	c #840F12",
"B%	c #B3171B",
"C%	c #D11314",
"D%	c #E40C0A",
"E%	c #EE0C0B",
"F%	c #EC0E13",
"G%	c #DF101D",
"H%	c #D91121",
"I%	c #DB1021",
"J%	c #E20B18",
"K%	c #EA050B",
"L%	c #F10405",
"M%	c #F50302",
"N%	c #F50301",
"O%	c #F50503",
"P%	c #F40907",
"Q%	c #F00D10",
"R%	c #EB0F16",
"S%	c #E70C10",
"T%	c #E8080A",
"U%	c #ED060D",
"V%	c #EE0810",
"W%	c #E90D12",
"X%	c #DA1519",
"Y%	c #C0191D",
"Z%	c #8F1114",
"`%	c #4B0202",
" &	c #0E0500",
".&	c #120102",
"+&	c #220000",
"@&	c #470202",
"#&	c #861011",
"$&	c #B7181A",
"%&	c #D71415",
"&&	c #EC0C0D",
"*&	c #F70C0C",
"=&	c #F50C0C",
"-&	c #EA0B0D",
";&	c #E50C0F",
">&	c #E60C10",
",&	c #EB080D",
"'&	c #F0040A",
")&	c #F40308",
"!&	c #F60206",
"~&	c #F60205",
"{&	c #F70504",
"]&	c #F90A05",
"^&	c #F60905",
"/&	c #F10704",
"(&	c #F20A04",
"_&	c #F20B04",
":&	c #EF0604",
"<&	c #ED0709",
"[&	c #EA0E11",
"}&	c #DE151B",
"|&	c #C71721",
"1&	c #970F17",
"2&	c #520202",
"3&	c #290200",
"4&	c #130500",
"5&	c #130103",
"6&	c #8D1611",
"7&	c #BF2019",
"8&	c #DC1815",
"9&	c #F00607",
"0&	c #EC0605",
"a&	c #E20806",
"b&	c #DE0B0A",
"c&	c #E00D0E",
"d&	c #E4090D",
"e&	c #EA050E",
"f&	c #F30712",
"g&	c #F90814",
"h&	c #FB0612",
"i&	c #F7050C",
"j&	c #EA0400",
"k&	c #E80600",
"l&	c #EA0D02",
"m&	c #EC1006",
"n&	c #EB0D08",
"o&	c #E80B0C",
"p&	c #E10C11",
"q&	c #D70E19",
"r&	c #C40F1D",
"s&	c #970814",
"t&	c #590102",
"u&	c #310100",
"v&	c #180301",
"w&	c #130104",
"x&	c #4A0301",
"y&	c #8D180E",
"z&	c #BD2317",
"A&	c #D81A14",
"B&	c #E60D0F",
"C&	c #E8080D",
"D&	c #E20B0D",
"E&	c #D61111",
"F&	c #CD1111",
"G&	c #C90D10",
"H&	c #D00910",
"I&	c #DC0611",
"J&	c #E80816",
"K&	c #F20C1A",
"L&	c #F8101D",
"M&	c #F20E19",
"N&	c #E3080D",
"O&	c #D50504",
"P&	c #CE0803",
"Q&	c #D6150B",
"R&	c #DE1A11",
"S&	c #E01510",
"T&	c #DD0F11",
"U&	c #D50D15",
"V&	c #CD101E",
"W&	c #BF1324",
"X&	c #950B19",
"Y&	c #5A0103",
"Z&	c #330000",
"`&	c #190201",
" *	c #210000",
".*	c #440201",
"+*	c #7F1409",
"@*	c #AC1E11",
"#*	c #C91913",
"$*	c #DA1215",
"%*	c #E1131A",
"&*	c #DC191D",
"**	c #CB1F1E",
"=*	c #B21A17",
"-*	c #9C090B",
";*	c #AF060E",
">*	c #C70814",
",*	c #CF0513",
"'*	c #D90C1A",
")*	c #E71925",
"!*	c #E61A25",
"~*	c #D6151B",
"{*	c #B80B0E",
"]*	c #A00A06",
"^*	c #B71F14",
"/*	c #CB261B",
"(*	c #CC1C16",
"_*	c #C91215",
":*	c #C7131C",
"<*	c #C51C2A",
"[*	c #BB2133",
"}*	c #911725",
"|*	c #510305",
"1*	c #2A0000",
"2*	c #150101",
"3*	c #0E0105",
"4*	c #660C04",
"5*	c #90160C",
"6*	c #B41B19",
"7*	c #C91B1F",
"8*	c #CD191E",
"9*	c #C31A1D",
"0*	c #AC1D1C",
"a*	c #8C1613",
"b*	c #6F0505",
"c*	c #880208",
"d*	c #A60A14",
"e*	c #B6131F",
"f*	c #C21A26",
"g*	c #CA1E28",
"h*	c #C61C24",
"i*	c #B4141A",
"j*	c #90090D",
"k*	c #6F0805",
"l*	c #8D1C12",
"m*	c #A8241A",
"n*	c #B1201B",
"o*	c #B41C1D",
"p*	c #B41D22",
"q*	c #AF1F2B",
"r*	c #A0202F",
"s*	c #7A1521",
"t*	c #410205",
"u*	c #200000",
"v*	c #100103",
"w*	c #0A0208",
"x*	c #140104",
"y*	c #250101",
"z*	c #410200",
"A*	c #670C09",
"B*	c #981E1F",
"C*	c #AE2326",
"D*	c #A81A1C",
"E*	c #921110",
"F*	c #6E0C0B",
"G*	c #530605",
"H*	c #4D0101",
"I*	c #5A0000",
"J*	c #780B12",
"K*	c #9E202C",
"L*	c #AB2632",
"M*	c #9D1F26",
"N*	c #891518",
"O*	c #70090B",
"P*	c #570202",
"Q*	c #460201",
"R*	c #510804",
"S*	c #6D140F",
"T*	c #8F211D",
"U*	c #9D2524",
"V*	c #9A2326",
"W*	c #861C21",
"X*	c #640F16",
"Y*	c #45050A",
"Z*	c #290102",
"`*	c #170104",
" =	c #0C0207",
".=	c #050309",
"+=	c #0B0105",
"@=	c #420405",
"#=	c #711618",
"$=	c #851B1D",
"%=	c #7C1313",
"&=	c #650706",
"*=	c #300000",
"==	c #390000",
"-=	c #52070B",
";=	c #791A23",
">=	c #831F28",
",=	c #6D171B",
"'=	c #520C0C",
")=	c #350202",
"!=	c #250000",
"~=	c #230100",
"{=	c #3B0605",
"]=	c #681715",
"^=	c #781D1B",
"/=	c #741B1C",
"(=	c #5D1214",
"_=	c #310202",
":=	c #120101",
"<=	c #0D0307",
"[=	c #08050A",
"}=	c #010209",
"|=	c #030107",
"1=	c #0A0003",
"2=	c #150001",
"3=	c #260101",
"4=	c #3C0404",
"5=	c #490506",
"6=	c #4A0303",
"7=	c #280000",
"8=	c #2D0000",
"9=	c #3B0102",
"0=	c #450508",
"a=	c #45060A",
"b=	c #370405",
"c=	c #280202",
"d=	c #1B0101",
"e=	c #130200",
"f=	c #110400",
"g=	c #220101",
"h=	c #3A0403",
"i=	c #420605",
"j=	c #400505",
"k=	c #330303",
"l=	c #050303",
"m=	c #060508",
"n=	c #05070C",
"o=	c #00020B",
"p=	c #030106",
"q=	c #0A0304",
"r=	c #130303",
"s=	c #1C0100",
"t=	c #160000",
"u=	c #0C0000",
"v=	c #120201",
"w=	c #090402",
"x=	c #050501",
"y=	c #0D0100",
"z=	c #030807",
"A=	c #030608",
"B=	c #020309",
"C=	c #00030A",
"D=	c #010307",
"E=	c #040405",
"F=	c #0C0504",
"G=	c #150302",
"H=	c #150100",
"I=	c #0B0100",
"J=	c #100001",
"K=	c #140102",
"L=	c #100404",
"M=	c #0A0604",
"N=	c #040702",
"O=	c #010801",
"P=	c #000801",
"Q=	c #040300",
"R=	c #0F0100",
"S=	c #020201",
"T=	c #020805",
"U=	c #040B09",
"V=	c #030507",
"W=	c #010106",
"    . + @ @ # $ % & * = - ; > , ' ) ! ~ { ] ] ^ = ^ / ( _ : < [ ",
"^ = * * * } } | | 1 } # 2 3 4 5 6 7 8 9 0 a b c a a d e f g h i ",
"j * k 1 l m n n o p * q r s t u u v w x y z A B A B C D E F G H ",
"j * 1 I o J J o K [ L M N O P Q R S T U V W [ B X b Y Z `  ...H ",
"j X +.@.@.#.$.%.&.*.=.-.;.>.,.'.).!.~.{.].^./.(._.:.<.[.}.|.1.H ",
"2.3.4.5.6.7.8.9.0.a.b.c.d.e.f.g.h.i.j.k.l.m.n.o.p.q.r.s.1.t.1.u.",
"v.w.x.y.z.A.B.C.D.E.F.G.H.I.J.K.L.M.N.O.P.Q.R.S.T.U.V.W.X.Y.Z.`.",
" +.+++@+#+$+%+&+*+=+-+;+>+,+'+)+!+~+{+]+^+/+(+_+:+<+r [+}+|+1+2+",
"3+4+5+6+7+8+9+0+a+b+c+d+e+f+g+h+i+j+k+l+m+n+o+p+q+r+s+t+u+v+w+x+",
"y+z+A+B+C+D+E+F+G+H+I+J+K+L+M+N+O+P+Q+R+S+T+U+V+W+X+Y+Z+* `+ @> ",
".@+@@@#@$@%@&@*@=@-@;@>@,@'@)@!@~@{@]@^@/@(@_@:@<@[@}@|@1@r..@2@",
"3@4@5@6@7@8@9@0@a@b@c@d@e@f@g@h@i@j@k@l@m@n@o@p@q@r@s@t@u@v@w@x@",
"y@z@A@B@C@D@E@F@G@H@I@J@K@L@M@N@O@P@Q@R@S@T@U@V@W@X@Y@Z@`@ #.#+#",
"@#5 ##$#%#&#*#=#-#;#>#,#'#)#!#~#{#]#^#/#(#_#:#<#[#}#|#1#2#V 3 3#",
"4#p.5#6#7#8#9#0#a#b#c#d#e#f#g#h#i#j#k#l#m#n#o#p#q#r#s#t#u#v#w#x#",
"y#z#A#B#C#D#E#F#G#H#I#J#K#L#M#N#O#P#Q#R#S#T#U#V#W#X#Y#Z#`# $.$x#",
"+$@$#$$$%$&$*$=$-$;$>$,$'$)$!$~${$]$^$/$($_$:$<$[$}$|$1$2$3$q 4$",
"5$6$7$8$9$0$a$b$c$d$e$f$g$h$i$j$k$l$m$n$o$p$q$r$s$t$u$v$w$x$1@y$",
"z$9.A$B$C$D$E$F$G$H$I$J$K$L$M$N$O$P$Q$R$S$T$U$V$W$X$Y$Z$`$ %@#.%",
"+%6 @%#%$%%%&%*%=%-%;%>%,%'%)%!%~%{%]%^%/%(%_%:%<%[%}%|%1%2%4#3%",
"4%5%6%7%8%9%0%a%b%c%d%e%f%g%h%i%j%k%l%m%n%o%p%q%r%s%t%u%v%w%5 x%",
"y%@$z%A%B%C%D%E%F%G%H%I%J%K%L%M%N%O%P%Q%R%S%T%U%V%W%X%Y%Z%`%(. &",
".&+&@&#&$&%&&&*&=&-&;&>&,&'&)&!&~&{&]&^&/&(&_&:&<&[&}&|&1&2&3&4&",
"5&r `%6&7&8&&&9&0&a&b&c&d&e&f&g&h&i&k+j&k&l&m&n&o&p&q&r&s&t&u&v&",
"w&r x&y&z&A&B&C&D&E&F&G&H&I&J&K&L&M&N&O&P&Q&R&S&T&U&V&W&X&Y&Z&`&",
"4% *.*+*@*#*$*%*&***=*-*;*>*,*'*)*!*~*{*]*^*/*(*_*:*<*[*}*|*1*2*",
"3*y#5#4*5*6*7*8*9*0*a*b*c*d*e*f*g*h*i*j*k*l*m*n*o*p*q*r*s*t*u*v*",
"w*x*y*z*A*B*C*D*E*F*G*H*I*J*K*L*M*N*O*P*Q*R*S*T*U*V*W*X*Y*Z*`* =",
".=+=z@+&@=#=$=%=&=v r *===-=;=>=,='=)=!=~=@#{=]=^=/=(=_=1@:=<=[=",
"}=|=1=2=3=4=5=6=u 7=.$4#8=9=0=a=b=c=d=e=f=y$g=h=i=j=k=d=$ l=m=n=",
"o=}=p=q=r=s=@$7=r t=u=2 5 p.@$@#v=w=x=n n I y=B@5 4 1@* w.z=A=B=",
"#@C=D=E=F=G=w#w#H=I=* 0 J=2=y@K=L=M=N=O=P=X.Q=R=q [+$ S=T=U=V=W="};
