/* XPM */
static char * enemy_right_xpm[] = {
"32 32 914 2",
"  	c #000300",
". 	c #010200",
"+ 	c #020100",
"@ 	c #040001",
"# 	c #060002",
"$ 	c #0A0004",
"% 	c #0D0006",
"& 	c #0E020A",
"* 	c #0D0309",
"= 	c #050503",
"- 	c #000500",
"; 	c #000400",
"> 	c #050200",
", 	c #0C0000",
"' 	c #100000",
") 	c #110000",
"! 	c #0D0100",
"~ 	c #070200",
"{ 	c #050400",
"] 	c #020400",
"^ 	c #000201",
"/ 	c #010001",
"( 	c #020001",
"_ 	c #010400",
": 	c #040200",
"< 	c #080000",
"[ 	c #010300",
"} 	c #070001",
"| 	c #0B0002",
"1 	c #0D0004",
"2 	c #0E0208",
"3 	c #0C0409",
"4 	c #040605",
"5 	c #000602",
"6 	c #000401",
"7 	c #0C0200",
"8 	c #180000",
"9 	c #1F0000",
"0 	c #220000",
"a 	c #1A0000",
"b 	c #140000",
"c 	c #0B0100",
"d 	c #040301",
"e 	c #000301",
"f 	c #000200",
"g 	c #010100",
"h 	c #020000",
"i 	c #020200",
"j 	c #000402",
"k 	c #010303",
"l 	c #050103",
"m 	c #0A0003",
"n 	c #030000",
"o 	c #070000",
"p 	c #0B0001",
"q 	c #0D0002",
"r 	c #0B0104",
"s 	c #080207",
"t 	c #030308",
"u 	c #000307",
"v 	c #040204",
"w 	c #1C0102",
"x 	c #2E0000",
"y 	c #380000",
"z 	c #3D0000",
"A 	c #3C0000",
"B 	c #370000",
"C 	c #220002",
"D 	c #100103",
"E 	c #030203",
"F 	c #010302",
"G 	c #010201",
"H 	c #000403",
"I 	c #000306",
"J 	c #010109",
"K 	c #060009",
"L 	c #0B0009",
"M 	c #0D0000",
"N 	c #110001",
"O 	c #0F0002",
"P 	c #080004",
"Q 	c #000106",
"R 	c #100004",
"S 	c #40060A",
"T 	c #600D11",
"U 	c #6E0B12",
"V 	c #750812",
"W 	c #790A18",
"X 	c #760B1B",
"Y 	c #6B0B1B",
"Z 	c #540716",
"` 	c #2B0108",
" .	c #020002",
"..	c #000101",
"+.	c #050100",
"@.	c #030100",
"#.	c #000304",
"$.	c #000209",
"%.	c #01000D",
"&.	c #06000E",
"*.	c #0B000D",
"=.	c #000501",
"-.	c #120001",
";.	c #180001",
">.	c #1A0001",
",.	c #200102",
"'.	c #260102",
").	c #370203",
"!.	c #691014",
"~.	c #8F1A21",
"{.	c #A01821",
"].	c #A91322",
"^.	c #AF152A",
"/.	c #AE172F",
"(.	c #A0182F",
"_.	c #831226",
":.	c #52050E",
"<.	c #2F0000",
"[.	c #280101",
"}.	c #1C0100",
"|.	c #120000",
"1.	c #0A0000",
"2.	c #040101",
"3.	c #010204",
"4.	c #00010A",
"5.	c #01000E",
"6.	c #05000F",
"7.	c #0A000F",
"8.	c #000504",
"9.	c #000404",
"0.	c #000202",
"a.	c #090000",
"b.	c #160001",
"c.	c #200001",
"d.	c #200000",
"e.	c #3D0403",
"f.	c #64110D",
"g.	c #77130F",
"h.	c #810C0C",
"i.	c #9D1319",
"j.	c #B91B24",
"k.	c #C41724",
"l.	c #C91223",
"m.	c #CE1329",
"n.	c #CD162E",
"o.	c #C6182F",
"p.	c #B31526",
"q.	c #960C13",
"r.	c #820B08",
"s.	c #710D08",
"t.	c #500603",
"u.	c #260000",
"v.	c #0C0001",
"w.	c #040103",
"x.	c #010208",
"y.	c #01020C",
"z.	c #04010E",
"A.	c #08000E",
"B.	c #010507",
"C.	c #010506",
"D.	c #000203",
"E.	c #030101",
"F.	c #1C0000",
"G.	c #2B0000",
"H.	c #360000",
"I.	c #610C09",
"J.	c #961E19",
"K.	c #B0201B",
"L.	c #BA1615",
"M.	c #CA121A",
"N.	c #D91321",
"O.	c #DE0E1F",
"P.	c #DF071B",
"Q.	c #E0071C",
"R.	c #E00B1E",
"S.	c #E01120",
"T.	c #DA131D",
"U.	c #CD1215",
"V.	c #BE1612",
"W.	c #A81811",
"X.	c #7C0E09",
"Y.	c #440202",
"Z.	c #270000",
"`.	c #160000",
" +	c #0A0001",
".+	c #030204",
"++	c #020408",
"@+	c #020209",
"#+	c #04010B",
"$+	c #010306",
"%+	c #000103",
"&+	c #060001",
"*+	c #130000",
"=+	c #1E0000",
"-+	c #3B0101",
";+	c #630A06",
">+	c #8C150F",
",+	c #B51F18",
"'+	c #CB1F18",
")+	c #D51513",
"!+	c #E00F16",
"~+	c #EA0C1C",
"{+	c #ED061A",
"]+	c #ED0215",
"^+	c #EE0112",
"/+	c #EE0411",
"(+	c #ED0912",
"_+	c #EB0C11",
":+	c #E60E0F",
"<+	c #DB130F",
"[+	c #C71711",
"}+	c #A11611",
"|+	c #73110E",
"1+	c #480504",
"2+	c #060302",
"3+	c #020404",
"4+	c #000205",
"5+	c #010007",
"6+	c #000104",
"7+	c #010003",
"8+	c #5B0603",
"9+	c #8C140D",
"0+	c #B01B12",
"a+	c #C81B11",
"b+	c #D7170E",
"c+	c #E00F0A",
"d+	c #E80A0F",
"e+	c #EF0815",
"f+	c #F20514",
"g+	c #F30211",
"h+	c #F5030D",
"i+	c #F50309",
"j+	c #F30306",
"k+	c #F20304",
"l+	c #F10404",
"m+	c #E90A06",
"n+	c #D9120C",
"o+	c #BD1B16",
"p+	c #991B19",
"q+	c #680F0E",
"r+	c #350303",
"s+	c #1C0101",
"t+	c #020401",
"u+	c #000303",
"v+	c #020105",
"w+	c #000305",
"x+	c #050002",
"y+	c #340101",
"z+	c #670905",
"A+	c #91120A",
"B+	c #B2170E",
"C+	c #C81A0F",
"D+	c #D2180D",
"E+	c #D60B00",
"F+	c #D80000",
"G+	c #DD0000",
"H+	c #E50000",
"I+	c #ED0000",
"J+	c #F2090D",
"K+	c #F10609",
"L+	c #F20303",
"M+	c #F50600",
"N+	c #F80901",
"O+	c #F80800",
"P+	c #EF0000",
"Q+	c #DF0000",
"R+	c #C90000",
"S+	c #AC0500",
"T+	c #871412",
"U+	c #5E1314",
"V+	c #310606",
"W+	c #020601",
"X+	c #050806",
"Y+	c #080809",
"Z+	c #000506",
"`+	c #020305",
" @	c #0A0102",
".@	c #190000",
"+@	c #430201",
"@@	c #891009",
"#@	c #B8190F",
"$@	c #CE170C",
"%@	c #D6150A",
"&@	c #D4180F",
"*@	c #D12B28",
"=@	c #D13F3F",
"-@	c #D54647",
";@	c #DC4546",
">@	c #E53434",
",@	c #EA1814",
"'@	c #E80703",
")@	c #EB0501",
"!@	c #F50B00",
"~@	c #F90D00",
"{@	c #F6150C",
"]@	c #EF302E",
"^@	c #E24243",
"/@	c #D3474D",
"(@	c #BF424B",
"_@	c #A03339",
":@	c #782023",
"<@	c #400C0E",
"[@	c #030701",
"}@	c #0A0D09",
"|@	c #0E0E0D",
"1@	c #020706",
"2@	c #060506",
"3@	c #0F0202",
"4@	c #1D0000",
"5@	c #490101",
"6@	c #960E07",
"7@	c #C7160C",
"8@	c #D91308",
"9@	c #DB0B00",
"0@	c #D10B00",
"a@	c #D45958",
"b@	c #E28F90",
"c@	c #EAA2A4",
"d@	c #EB9DA0",
"e@	c #E07374",
"f@	c #D82018",
"g@	c #E90C00",
"h@	c #F00D00",
"i@	c #EC0000",
"j@	c #E21008",
"k@	c #E76A6B",
"l@	c #EF959A",
"m@	c #EC9EAC",
"n@	c #DA8FA2",
"o@	c #AF5C6B",
"p@	c #7C1725",
"q@	c #43040B",
"r@	c #000100",
"s@	c #040501",
"t@	c #090A08",
"u@	c #0D0B0C",
"v@	c #050705",
"w@	c #0A0605",
"x@	c #130202",
"y@	c #210000",
"z@	c #4E0100",
"A@	c #9D0A05",
"B@	c #CF1109",
"C@	c #DC0900",
"D@	c #DC2524",
"E@	c #D44A4D",
"F@	c #DE898D",
"G@	c #F5C1C5",
"H@	c #FED6DA",
"I@	c #FAD1D5",
"J@	c #E3A4A9",
"K@	c #D05C62",
"L@	c #DB2E31",
"M@	c #E61105",
"N@	c #E60D00",
"O@	c #DE2F2B",
"P@	c #D35C5C",
"Q@	c #E59EA1",
"R@	c #FBC8CF",
"S@	c #FFD1E1",
"T@	c #F0C1D7",
"U@	c #C590A2",
"V@	c #8F5863",
"W@	c #4F2A31",
"X@	c #0D0101",
"Y@	c #0B0408",
"Z@	c #0A060D",
"`@	c #060502",
" #	c #0C0402",
".#	c #150101",
"+#	c #250000",
"@#	c #530000",
"##	c #A30C09",
"$#	c #D41310",
"%#	c #D90000",
"&#	c #DA4C50",
"*#	c #E58F97",
"=#	c #F1BDC6",
"-#	c #FCDEE6",
";#	c #FFECF4",
">#	c #FFEAF1",
",#	c #F5D0DC",
"'#	c #E9A5B5",
")#	c #E36975",
"!#	c #DD1413",
"~#	c #D60A02",
"{#	c #DA6F6D",
"]#	c #E6ADAD",
"^#	c #F4D0D4",
"/#	c #FEE4ED",
"(#	c #FFE8F7",
"_#	c #FCE1F3",
":#	c #EACFDF",
"<#	c #C0A7B4",
"[#	c #6C5860",
"}#	c #120109",
"|#	c #090312",
"1#	c #080300",
"2#	c #100100",
"3#	c #1B0000",
"4#	c #640708",
"5#	c #A90F0F",
"6#	c #D51413",
"7#	c #D70000",
"8#	c #DB6267",
"9#	c #F2B5BE",
"0#	c #FEDDE8",
"a#	c #FDECF8",
"b#	c #F6EDF8",
"c#	c #EEE3EE",
"d#	c #ECD4E4",
"e#	c #E9B7CC",
"f#	c #E07888",
"g#	c #D5131C",
"h#	c #CC0F11",
"i#	c #DC8C8D",
"j#	c #F7D5D6",
"k#	c #FFEEF2",
"l#	c #FCF1FB",
"m#	c #F3E8F6",
"n#	c #ECDEEF",
"o#	c #EBDAEC",
"p#	c #CBBBCA",
"q#	c #7A656E",
"r#	c #300000",
"s#	c #2E0103",
"t#	c #1E000A",
"u#	c #0C0115",
"v#	c #0A0200",
"w#	c #510A0C",
"x#	c #7E1517",
"y#	c #B01314",
"z#	c #D20F0E",
"A#	c #E26B71",
"B#	c #F6C2CD",
"C#	c #FFE7F4",
"D#	c #F8EEFB",
"E#	c #DAD5E4",
"F#	c #ACA8B9",
"G#	c #A292A8",
"H#	c #B08299",
"I#	c #C65569",
"J#	c #D10D22",
"K#	c #D21B24",
"L#	c #E39196",
"M#	c #FADBE1",
"N#	c #FFF6FA",
"O#	c #F2F3F8",
"P#	c #CAC9D9",
"Q#	c #A49DB8",
"R#	c #A397B2",
"S#	c #97849A",
"T#	c #744C59",
"U#	c #570F13",
"V#	c #440509",
"W#	c #2D0009",
"X#	c #120014",
"Y#	c #0D0200",
"Z#	c #2D0000",
"`#	c #641013",
" $	c #951D20",
".$	c #BB1819",
"+$	c #D40E0A",
"@$	c #DC0000",
"#$	c #E66E73",
"$$	c #F7C5D0",
"%$	c #FFEAF7",
"&$	c #F7ECFB",
"*$	c #C6C2D4",
"=$	c #626384",
"-$	c #372660",
";$	c #722E5C",
">$	c #AF2044",
",$	c #CE0124",
"'$	c #D61E2C",
")$	c #E79099",
"!$	c #FADAE4",
"~$	c #FFF5FC",
"{$	c #EDEFF5",
"]$	c #A9ADC0",
"^$	c #45427D",
"/$	c #3C276E",
"($	c #5B3162",
"_$	c #722F45",
":$	c #6A2328",
"<$	c #4C0A0D",
"[$	c #310005",
"}$	c #170010",
"|$	c #0F0100",
"1$	c #340001",
"2$	c #721316",
"3$	c #A82125",
"4$	c #CB1E1E",
"5$	c #DF130A",
"6$	c #DE0000",
"7$	c #E2696D",
"8$	c #F5C0C8",
"9$	c #FFE6F1",
"0$	c #FAEBF9",
"a$	c #C9C0D4",
"b$	c #625B84",
"c$	c #35005F",
"d$	c #70185A",
"e$	c #AA0F42",
"f$	c #C90022",
"g$	c #D41A2C",
"h$	c #E78D99",
"i$	c #FAD4E4",
"j$	c #FFF0FC",
"k$	c #F1E9F5",
"l$	c #ACA6BE",
"m$	c #442F79",
"n$	c #3F026C",
"o$	c #622762",
"p$	c #7B3148",
"q$	c #70292C",
"r$	c #480C0F",
"s$	c #190006",
"t$	c #390000",
"u$	c #791316",
"v$	c #B02125",
"w$	c #D21D1E",
"x$	c #E41308",
"y$	c #E00000",
"z$	c #DE585A",
"A$	c #E7A4AA",
"B$	c #F3CFDA",
"C$	c #FAE4F4",
"D$	c #DDCCE3",
"E$	c #A38FB2",
"F$	c #7F5A88",
"G$	c #862962",
"H$	c #B20742",
"I$	c #CE0024",
"J$	c #D8142A",
"K$	c #E07784",
"L$	c #EAB8C8",
"M$	c #F7DBEC",
"N$	c #F6E3F6",
"O$	c #CBB8D5",
"P$	c #9378A6",
"Q$	c #764A82",
"R$	c #752D63",
"S$	c #843146",
"T$	c #74282A",
"U$	c #480B0D",
"V$	c #2A0000",
"W$	c #110100",
"X$	c #7A0F12",
"Y$	c #AF1B1F",
"Z$	c #D01818",
"`$	c #E20E05",
" %	c #E30300",
".%	c #DB3331",
"+%	c #CD6265",
"@%	c #D8A0AC",
"#%	c #F5D4E9",
"$%	c #F7DBF6",
"%%	c #E3C4E3",
"&%	c #BD8EB0",
"*%	c #A43664",
"=%	c #C4003B",
"-%	c #DC0429",
";%	c #E00E24",
">%	c #D5424D",
",%	c #C87582",
"'%	c #E0B4C8",
")%	c #F9DAF3",
"!%	c #F2D3F3",
"~%	c #D8B3D8",
"{%	c #A67199",
"]%	c #872556",
"^%	c #8C283B",
"/%	c #792122",
"(%	c #4F080A",
"_%	c #7A0D0F",
":%	c #AE181B",
"<%	c #CE1415",
"[%	c #E10A03",
"}%	c #E60A00",
"|%	c #DF0700",
"1%	c #C90D08",
"2%	c #CD6D7A",
"3%	c #E8ADC1",
"4%	c #F3C0D9",
"5%	c #EDB7D2",
"6%	c #D388A3",
"7%	c #C13257",
"8%	c #D70030",
"9%	c #E80924",
"0%	c #E8081B",
"a%	c #DA0000",
"b%	c #C72B35",
"c%	c #D78597",
"d%	c #EEB5CE",
"e%	c #F6BDDA",
"f%	c #E9A9C8",
"g%	c #C06C8B",
"h%	c #A11E44",
"i%	c #9B202F",
"j%	c #821B1C",
"k%	c #530607",
"l%	c #1A0100",
"m%	c #110200",
"n%	c #230000",
"o%	c #3E0000",
"p%	c #790D0F",
"q%	c #AD191B",
"r%	c #CD1515",
"s%	c #E00903",
"t%	c #EA0700",
"u%	c #E90800",
"v%	c #DB0C07",
"w%	c #D43B43",
"x%	c #D8606C",
"y%	c #D96A7A",
"z%	c #D86576",
"A%	c #D74A5C",
"B%	c #DB1B34",
"C%	c #E9041F",
"D%	c #F10514",
"E%	c #F0040C",
"F%	c #EA0100",
"G%	c #E2191B",
"H%	c #DD4852",
"I%	c #DC6371",
"J%	c #E2687A",
"K%	c #E05E72",
"L%	c #CE3C51",
"M%	c #BE182E",
"N%	c #AF1C24",
"O%	c #8E1617",
"P%	c #550405",
"Q%	c #160200",
"R%	c #100200",
"S%	c #780C0F",
"T%	c #AC171B",
"U%	c #CD1417",
"V%	c #E30B08",
"W%	c #F00905",
"X%	c #F20C07",
"Y%	c #E60E0A",
"Z%	c #DC0702",
"`%	c #E40002",
" &	c #EC0512",
".&	c #F2050E",
"+&	c #F60306",
"@&	c #F70503",
"#&	c #F50A05",
"$&	c #F00E05",
"%&	c #E90000",
"&&	c #E30000",
"*&	c #E40000",
"=&	c #DF0715",
"-&	c #D4161F",
";&	c #BF1B20",
">&	c #981518",
",&	c #580405",
"'&	c #290000",
")&	c #160300",
"!&	c #100300",
"~&	c #3A0000",
"{&	c #770C11",
"]&	c #AC161D",
"^&	c #CF141A",
"/&	c #E70E0F",
"(&	c #F50D0C",
"_&	c #F70E0B",
":&	c #EA0E0A",
"<&	c #E10D09",
"[&	c #E10C09",
"}&	c #E70709",
"|&	c #EF0108",
"1&	c #F40109",
"2&	c #F60209",
"3&	c #F60106",
"4&	c #F70304",
"5&	c #FA0804",
"6&	c #F90904",
"7&	c #F40702",
"8&	c #F30700",
"9&	c #F40600",
"0&	c #F20200",
"a&	c #EF0207",
"b&	c #EC0B12",
"c&	c #E1141B",
"d&	c #CA1B21",
"e&	c #9F151A",
"f&	c #5C0406",
"g&	c #180300",
"h&	c #130200",
"i&	c #3C0001",
"j&	c #7B0F16",
"k&	c #B11B26",
"l&	c #D31822",
"m&	c #E80E15",
"n&	c #F10A0C",
"o&	c #EE0A07",
"p&	c #E10C07",
"q&	c #D90E0A",
"r&	c #DC100D",
"s&	c #E50C0D",
"t&	c #F0030B",
"u&	c #F8020E",
"v&	c #FC020F",
"w&	c #FB020D",
"x&	c #F9030A",
"y&	c #F60505",
"z&	c #F20501",
"A&	c #EE0400",
"B&	c #F10801",
"C&	c #F40B03",
"D&	c #F50705",
"E&	c #F30508",
"F&	c #EE080F",
"G&	c #E00F17",
"H&	c #C8151E",
"I&	c #9D1018",
"J&	c #5D0305",
"K&	c #190300",
"L&	c #240000",
"M&	c #3E0001",
"N&	c #7E121B",
"O&	c #B5202C",
"P&	c #D41B28",
"Q&	c #E50E19",
"R&	c #E7060D",
"S&	c #E00707",
"T&	c #D1100A",
"U&	c #C9140E",
"V&	c #CB1310",
"W&	c #D60D10",
"X&	c #E6030F",
"Y&	c #F30214",
"Z&	c #FB0518",
"`&	c #FD0819",
" *	c #F80815",
".*	c #EC050A",
"+*	c #E20302",
"@*	c #DE0401",
"#*	c #E20C05",
"$*	c #EA120B",
"%*	c #F00E0D",
"&*	c #F0080F",
"**	c #E70612",
"=*	c #D70A18",
"-*	c #C0111F",
";*	c #980D18",
">*	c #5B0205",
",*	c #190201",
"'*	c #150100",
")*	c #3B0001",
"!*	c #761019",
"~*	c #AA1D2A",
"{*	c #CA1927",
"]*	c #DD0F1C",
"^*	c #E20E17",
"/*	c #DB1517",
"(*	c #C91F19",
"_*	c #B61F16",
":*	c #A9130F",
"<*	c #BB080E",
"[*	c #D60312",
"}*	c #E30113",
"|*	c #EC0517",
"1*	c #F41121",
"2*	c #F11522",
"3*	c #E21218",
"4*	c #CD0B0D",
"5*	c #BA0604",
"6*	c #C6160E",
"7*	c #DA1F17",
"8*	c #E21714",
"9*	c #E20912",
"0*	c #DB0817",
"a*	c #D01422",
"b*	c #BD1F2D",
"c*	c #961A25",
"d*	c #57050A",
"e*	c #280000",
"f*	c #170101",
"g*	c #130100",
"h*	c #340000",
"i*	c #660B14",
"j*	c #941723",
"k*	c #B81724",
"l*	c #D01420",
"m*	c #D8151F",
"n*	c #D21C1F",
"o*	c #BB271F",
"p*	c #9C241A",
"q*	c #7D0F0A",
"r*	c #960109",
"s*	c #BE0413",
"t*	c #CD0616",
"u*	c #D50D1C",
"v*	c #E01826",
"w*	c #DF1C28",
"x*	c #CE191F",
"y*	c #AE1013",
"z*	c #880706",
"A*	c #9E1A12",
"B*	c #C1251C",
"C*	c #CB1C19",
"D*	c #CD1017",
"E*	c #CB101D",
"F*	c #C31C29",
"G*	c #B22734",
"H*	c #8D202B",
"I*	c #4D080D",
"J*	c #130002",
"K*	c #100101",
"L*	c #4B040A",
"M*	c #740D17",
"N*	c #A21822",
"O*	c #C01D27",
"P*	c #C21A21",
"Q*	c #B41819",
"R*	c #941C16",
"S*	c #711810",
"T*	c #580804",
"U*	c #6F0003",
"V*	c #95050F",
"W*	c #B21623",
"X*	c #C11F2D",
"Y*	c #BE202A",
"Z*	c #B11C22",
"`*	c #9C1417",
" =	c #7D090B",
".=	c #5B0303",
"+=	c #6D100A",
"@=	c #8F1B14",
"#=	c #A91D1B",
"$=	c #B61D20",
"%=	c #B51C24",
"&=	c #A71D27",
"*=	c #8B1D27",
"==	c #67151D",
"-=	c #380407",
";=	c #120004",
">=	c #0B0102",
",=	c #4D0306",
"'=	c #85161D",
")=	c #A61F27",
"!=	c #A2191E",
"~=	c #8B0E0E",
"{=	c #600706",
"]=	c #390302",
"^=	c #390100",
"/=	c #480000",
"(=	c #640509",
"_=	c #921B27",
":=	c #A62432",
"<=	c #922027",
"[=	c #731717",
"}=	c #550A09",
"|=	c #2F0100",
"1=	c #300100",
"2=	c #4E0807",
"3=	c #7F1918",
"4=	c #982022",
"5=	c #972024",
"6=	c #83191F",
"7=	c #550B10",
"8=	c #2C0203",
"9=	c #130004",
"0=	c #110008",
"a=	c #060102",
"b=	c #0A0101",
"c=	c #0F0000",
"d=	c #320101",
"e=	c #5E0C10",
"f=	c #781318",
"g=	c #760E11",
"h=	c #650505",
"i=	c #3F0001",
"j=	c #320000",
"k=	c #480204",
"l=	c #691019",
"m=	c #761721",
"n=	c #611318",
"o=	c #430C0A",
"p=	c #260402",
"q=	c #100500",
"r=	c #250202",
"s=	c #560D0D",
"t=	c #6C1415",
"u=	c #6B1316",
"v=	c #5A0E11",
"w=	c #310203",
"x=	c #060000",
"y=	c #0A0100",
"z=	c #0D0206",
"A=	c #10020B",
"B=	c #030102",
"C=	c #060101",
"D=	c #400102",
"E=	c #450101",
"F=	c #3F0000",
"G=	c #3C0102",
"H=	c #3A0203",
"I=	c #2B0202",
"J=	c #0C0301",
"K=	c #040500",
"L=	c #020800",
"M=	c #030500",
"N=	c #2C0101",
"O=	c #380101",
"P=	c #370102",
"Q=	c #2E0101",
"R=	c #050201",
"S=	c #030403",
"T=	c #080407",
"U=	c #0C020B",
"  . + @ # $ % & * = - ; > , ' ) ! ~ { ] - ; ; ^ / ( + ; - _ : < ",
"; [ + @ } | 1 2 3 4 5 6 7 8 9 0 9 a b c d 6 e f g h i 6 j k l m ",
"- ; g n o p q r s t u v w x y z A B x C D E F ^ f g G H I J K L ",
"- ; f h o M N O P Q Q R S T U V W X Y Z `  .... +.@.G #.$.%.&.*.",
"=.6 f h < -.;.;.>.,.'.).!.~.{.].^./.(._.:.<.[.}.|.1.2.3.4.5.6.7.",
"8.9.0.+ a.b.c.d.e.f.g.h.i.j.k.l.m.n.o.p.q.r.s.t.u.b v.w.x.y.z.A.",
"B.C.D.E., F.G.H.I.J.K.L.M.N.O.P.Q.R.S.T.U.V.W.X.Y.Z.`. +.+++@+#+",
"$+I %+&+*+=+-+;+>+,+'+)+!+~+{+]+^+/+(+_+:+<+[+}+|+1+9 ' 2+3+4+5+",
"6+6+7+v.d.H.8+9+0+a+b+c+d+e+f+g+h+i+j+k+l+m+n+o+p+q+r+s+~ t+u+v+",
"w+6+x+*+y+z+A+B+C+D+E+F+G+H+I+J+K+L+M+N+O+P+Q+R+S+T+U+V+. W+X+Y+",
"Z+`+ @.@+@@@#@$@%@&@*@=@-@;@>@,@'@)@!@~@{@]@^@/@(@_@:@<@f [@}@|@",
"1@2@3@4@5@6@7@8@9@0@a@b@c@d@e@f@Q+g@h@i@j@k@l@m@n@o@p@q@r@s@t@u@",
"v@w@x@y@z@A@B@C@D@E@F@G@H@I@J@K@L@M@N@O@P@Q@R@S@T@U@V@W@o X@Y@Z@",
"`@ #.#+#@###$#%#&#*#=#-#;#>#,#'#)#!#~#{#]#^#/#(#_#:#<#[#1.>.}#|#",
"1#2#3#).4#5#6#7#8#9#0#a#b#c#d#e#f#g#h#i#j#k#l#m#n#o#p#q#r#s#t#u#",
"v#b +#w#x#y#z#%#A#B#C#D#E#F#G#H#I#J#K#L#M#N#O#P#Q#R#S#T#U#V#W#X#",
"Y#8 Z#`# $.$+$@$#$$$%$&$*$=$-$;$>$,$'$)$!$~${$]$^$/$($_$:$<$[$}$",
"|$F.1$2$3$4$5$6$7$8$9$0$a$b$c$d$e$f$g$h$i$j$k$l$m$n$o$p$q$r$G.s$",
"2#9 t$u$v$w$x$y$z$A$B$C$D$E$F$G$H$I$J$K$L$M$N$O$P$Q$R$S$T$U$V$a ",
"W$y@A X$Y$Z$`$ %.%+%@%#%$%%%&%*%=%-%;%>%,%'%)%!%~%{%]%^%/%(%<.F.",
"W$0 z _%:%<%[%}%|%1%2%3%4%5%6%7%8%9%0%a%b%c%d%e%f%g%h%i%j%k%<.l%",
"m%n%o%p%q%r%s%t%u%v%w%x%y%z%A%B%C%D%E%F%G%H%I%J%K%L%M%N%O%P%G.Q%",
"R%y@A S%T%U%V%W%X%Y%Z%%#%#G+`% &.&+&@&#&$&%&&&&&*&=&-&;&>&,&'&)&",
"!&d.~&{&]&^&/&(&_&:&<&[&}&|&1&2&3&4&5&6&7&8&9&0&a&b&c&d&e&f&V$g&",
"h&0 i&j&k&l&m&n&o&p&q&r&s&t&u&v&w&x&y&z&A&B&C&D&E&F&G&H&I&J&Z#K&",
"Q%L&M&N&O&P&Q&R&S&T&U&V&W&X&Y&Z&`& *.*+*@*#*$*%*&***=*-*;*>*x ,*",
"'*n%)*!*~*{*]*^*/*(*_*:*<*[*}*|*1*2*3*4*5*6*7*8*9*0*a*b*c*d*e*f*",
"g*9 h*i*j*k*l*m*n*o*p*q*r*s*t*u*v*w*x*y*z*A*B*C*D*E*F*G*H*I*=+J*",
"K*.@Z.L*M*N*O*P*Q*R*S*T*U*V*W*X*Y*Z*`* =.=+=@=#=$=%=&=*===-=;.;=",
">=N 8 G.,='=)=!=~={=]=^=/=(=_=:=<=[=}=-+|=1=2=3=4=5=6=7=8=s+9=0=",
"a=b=c=.@d=e=f=g=h=i=.@0 j=k=l=m=n=o=p=Y#q=: r=s=t=u=v=w=x=y=z=A=",
"B=C=1.*+d.d=D=E=F='&) |.u.B G=H=I=,*J=K=L=M=g*N=O=P=Q=8 R=S=T=U="};
