/* XPM */
static char * enemy_xpm[] = {
"32 32 110 2",
"  	c #4D9262",
". 	c #3E734E",
"+ 	c #3A4466",
"@ 	c #89817D",
"# 	c #B9A992",
"$ 	c #807979",
"% 	c #978C83",
"& 	c #6C6872",
"* 	c #968B82",
"= 	c #EAD4AA",
"- 	c #AB9D8B",
"; 	c #706C74",
"> 	c #7E869B",
", 	c #C1CBDB",
"' 	c #747C92",
") 	c #7AB055",
"! 	c #7D869B",
"~ 	c #C0CBDC",
"{ 	c #737C92",
"] 	c #A19B97",
"^ 	c #DDD1BE",
"/ 	c #6A6B79",
"( 	c #8D97AA",
"_ 	c #606982",
": 	c #677692",
"< 	c #8492A9",
"[ 	c #ACBACD",
"} 	c #C6BCAB",
"| 	c #C7B598",
"1 	c #384366",
"2 	c #3F4A6A",
"3 	c #687793",
"4 	c #8D9AB1",
"5 	c #CABCA5",
"6 	c #BDAD94",
"7 	c #71819D",
"8 	c #8795AE",
"9 	c #A5B3C7",
"0 	c #DACCB2",
"a 	c #DECAA4",
"b 	c #73839F",
"c 	c #8D9CB3",
"d 	c #E1CFAF",
"e 	c #D1BE9D",
"f 	c #CAC8C6",
"g 	c #CBC5BE",
"h 	c #394366",
"i 	c #CFCBC6",
"j 	c #BFBAB5",
"k 	c #394365",
"l 	c #B9C5D7",
"m 	c #B7C1D3",
"n 	c #364165",
"o 	c #3F496A",
"p 	c #BCC8D9",
"q 	c #ACB6C8",
"r 	c #374266",
"s 	c #6E7C96",
"t 	c #8796AF",
"u 	c #7484A0",
"v 	c #A7B5C8",
"w 	c #B0B8C5",
"x 	c #E2CDA6",
"y 	c #AC9E8B",
"z 	c #76849E",
"A 	c #8695AE",
"B 	c #A7B5C9",
"C 	c #B8BBC1",
"D 	c #9A8F84",
"E 	c #707E98",
"F 	c #8B9BB4",
"G 	c #ADB7C6",
"H 	c #DFD1BB",
"I 	c #A69F97",
"J 	c #7987A1",
"K 	c #8A9AB3",
"L 	c #B5BBC4",
"M 	c #958F8D",
"N 	c #A8B6CA",
"O 	c #909AAD",
"P 	c #ACB9CC",
"Q 	c #828B9F",
"R 	c #444F6E",
"S 	c #717F99",
"T 	c #8A99B3",
"U 	c #A8B6C9",
"V 	c #BEC9DB",
"W 	c #969EAE",
"X 	c #595A6D",
"Y 	c #8898B1",
"Z 	c #8A91A1",
"` 	c #505B78",
" .	c #7E8EA9",
"..	c #CCC5B9",
"+.	c #EBD5AA",
"@.	c #605F6F",
"#.	c #5B6782",
"$.	c #7B8BA6",
"%.	c #D4C9B6",
"&.	c #E9D3A9",
"*.	c #3B4566",
"=.	c #C1C2C5",
"-.	c #D8D0C4",
";.	c #5A5E73",
">.	c #C7C6C5",
",.	c #D6CEC3",
"'.	c #B3C0D2",
").	c #545D78",
"!.	c #B7C3D5",
"~.	c #BFCADB",
"                                                                ",
"                                            .                   ",
"                                          .   .                 ",
"                    +                       . +                 ",
"                + @ # $ +                 + % # &               ",
"                + * = @ +                 + - = ; +             ",
"                + > , ' +         )       + - = ; +             ",
"                + ! ~ { +         ) )     + ] ^ / +             ",
"            )   + ! ~ { +         ) )     + ( ~ _ +             ",
"            ) + : < [ } | 1         ) + 2 3 4 [ 5 6 +           ",
"            + + 7 8 9 0 a 1         . + 2 b c 9 d e +           ",
"            + + 7 8 9 0 a 1           + 2 b c 9 d e +           ",
"            + + 7 8 9 f g h           + 2 b c 9 i j +           ",
"            k k 7 8 9 l m n           k o b c 9 p q r           ",
"          + s t u 8 9 v w x y +     + z A b c 9 B C x D +       ",
")         + E F u 8 9 9 G H I +     + J K b c 9 9 L H M +       ",
"  )       + E F u 8 9 9 N ~ O +     + J K b c 9 9 P ~ Q +     ) ",
")         + E F u 8 9 9 N ~ O +     + J K b c 9 9 P ~ Q +       ",
"          R S T u 8 9 9 U V W X     R J Y b c 9 9 P V Z X       ",
"      + ` F  .b b 8 9 9 9 9 ..+.@.#.F $.b b c 9 9 9 9 %.&.*.+   ",
"      + ` F  .b b 8 9 9 9 9 =.-.;.#.F $.b b c 9 9 9 9 >.,.*.+   ",
"      + ` F  .b b 8 9 9 9 9 '.~ ).#.F $.b b c 9 9 9 9 !.~.*.+   ",
"      + ` F  .b b 8 9 9 9 9 '.~ ).#.F $.b b c 9 9 9 9 !.~.*.+   ",
"      + ` F  .b b 8 9 9 9 9 '.~ ).#.F $.b b c 9 9 9 9 !.~.*.    ",
"                                                  )             ",
"                                              )   )             ",
"                                              )   )             ",
"                                              )                 ",
"                                                                ",
"                          )                                     ",
"                        )   )                                   ",
"                          )                                     "};
