/* XPM */
static char * exit_xpm[] = {
"32 32 211 2",
"  	c #4D9262",
". 	c #3E734E",
"+ 	c #CA6039",
"@ 	c #ED9736",
"# 	c #FDAD34",
"$ 	c #FDB238",
"% 	c #FDC84A",
"& 	c #FDB33A",
"* 	c #FDC044",
"= 	c #FDC849",
"- 	c #FDAD35",
"; 	c #F09B36",
"> 	c #D57338",
", 	c #DA7C38",
"' 	c #F29E35",
") 	c #FEAE34",
"! 	c #E09B45",
"~ 	c #DE9A46",
"{ 	c #DE9E48",
"] 	c #DEB253",
"^ 	c #DEA049",
"/ 	c #DEAB4F",
"( 	c #FEAE35",
"_ 	c #F4A135",
": 	c #D57538",
"< 	c #DD8137",
"[ 	c #534D64",
"} 	c #3A4466",
"| 	c #3F4666",
"1 	c #FCAD35",
"2 	c #E18637",
"3 	c #D1924B",
"4 	c #B17F55",
"5 	c #386293",
"6 	c #26659A",
"7 	c #2574A6",
"8 	c #26699D",
"9 	c #266095",
"0 	c #2571A4",
"a 	c #2D5A86",
"b 	c #2E547F",
"c 	c #2474A6",
"d 	c #26679B",
"e 	c #2A6095",
"f 	c #B07E57",
"g 	c #CC8F4D",
"h 	c #A67858",
"i 	c #106DAB",
"j 	c #0977B4",
"k 	c #028BC5",
"l 	c #077CB9",
"m 	c #0B6FAE",
"n 	c #0388C2",
"o 	c #1F6699",
"p 	c #235D8D",
"q 	c #0879B6",
"r 	c #0C6FAE",
"s 	c #3A4567",
"t 	c #9A715B",
"u 	c #0986C0",
"v 	c #0389C3",
"w 	c #0D75B1",
"x 	c #0E6FAD",
"y 	c #C85C37",
"z 	c #DC7F36",
"A 	c #0A84BE",
"B 	c #0387C2",
"C 	c #0976B4",
"D 	c #0A71B0",
"E 	c #986F5B",
"F 	c #FAA935",
"G 	c #DF8338",
"H 	c #BE4A2F",
"I 	c #D67831",
"J 	c #8E635C",
"K 	c #EA923B",
"L 	c #D7773A",
"M 	c #C45634",
"N 	c #DA7D34",
"O 	c #394466",
"P 	c #B79083",
"Q 	c #A58B8B",
"R 	c #286F9F",
"S 	c #1C6FA8",
"T 	c #077CB8",
"U 	c #0978B5",
"V 	c #5982B4",
"W 	c #8B7194",
"X 	c #516FA6",
"Y 	c #946A5B",
"Z 	c #F4A138",
"` 	c #DC7F38",
" .	c #384366",
"..	c #F9AB38",
"+.	c #E19C45",
"@.	c #285F93",
"#.	c #0681BD",
"$.	c #077FBB",
"%.	c #7B77A1",
"&.	c #706595",
"*.	c #C14F31",
"=.	c #D16F34",
"-.	c #EE983A",
";.	c #9C6C59",
">.	c #82645F",
",.	c #756D7D",
"'.	c #1881B7",
").	c #1277B2",
"!.	c #9F94A1",
"~.	c #F3A033",
"{.	c #917E86",
"].	c #1C699B",
"^.	c #7AB055",
"/.	c #CF6B33",
"(.	c #EC953A",
"_.	c #9B6A59",
":.	c #374E74",
"<.	c #2F628E",
"[.	c #9F97A2",
"}.	c #F3A73B",
"|.	c #A08C7F",
"1.	c #5D7D91",
"2.	c #3B4567",
"3.	c #3A4465",
"4.	c #0889C2",
"5.	c #2176A9",
"6.	c #374366",
"7.	c #DAC762",
"8.	c #FEE761",
"9.	c #434A66",
"0.	c #1078B2",
"a.	c #1866A0",
"b.	c #0687C0",
"c.	c #1D7AAE",
"d.	c #31557D",
"e.	c #D9B762",
"f.	c #FDD152",
"g.	c #434966",
"h.	c #1A72A7",
"i.	c #245888",
"j.	c #0A85BE",
"k.	c #107FB5",
"l.	c #1E6896",
"m.	c #D89D60",
"n.	c #434765",
"o.	c #C75A36",
"p.	c #DB7F36",
"q.	c #FEAD34",
"r.	c #0988C1",
"s.	c #1B7FB4",
"t.	c #2E6895",
"u.	c #D79C60",
"v.	c #FBAC36",
"w.	c #434766",
"x.	c #E08637",
"y.	c #CE6933",
"z.	c #9A6959",
"A.	c #106EAC",
"B.	c #8C83A3",
"C.	c #D77644",
"D.	c #87585D",
"E.	c #3C4566",
"F.	c #D8773A",
"G.	c #C25232",
"H.	c #D37235",
"I.	c #F19C39",
"J.	c #9E6E59",
"K.	c #978593",
"L.	c #88849B",
"M.	c #1F7AAE",
"N.	c #1F6CA1",
"O.	c #1E6095",
"P.	c #0886BF",
"Q.	c #8780A2",
"R.	c #CF6A3D",
"S.	c #7F5C73",
"T.	c #305583",
"U.	c #92685B",
"V.	c #DA7C39",
"W.	c #A57858",
"X.	c #957973",
"Y.	c #2277AA",
"Z.	c #1873AC",
"`.	c #087AB7",
" +	c #4E7CAD",
".+	c #7B5E7B",
"++	c #476AA1",
"@+	c #325C86",
"#+	c #077DB9",
"$+	c #107FB4",
"%+	c #1E6795",
"&+	c #136DA7",
"*+	c #BF4C30",
"=+	c #D77931",
"-+	c #156CA8",
";+	c #0E75B2",
">+	c #1973A8",
",+	c #23598A",
"'+	c #0986BE",
")+	c #0485C0",
"!+	c #087CB8",
"~+	c #0A73B1",
"{+	c #8F645C",
"]+	c #EB943B",
"^+	c #D8783A",
"/+	c #1073AE",
"(+	c #136DA8",
"_+	c #0486C1",
":+	c #067DBA",
"<+	c #0974B2",
"[+	c #235D8E",
"                                                                ",
"                                            .                   ",
"              + + + + + + + + + + + + + + + + + + +             ",
"            + + + + + + + + + + + + + + + + + + + + +           ",
"          + @ # # # # # # # $ % % % & # # # # * = - ; +         ",
"        > , ' ) ! ~ ~ ~ ~ ~ { ] ] ] ^ ~ ~ ~ ~ / ] ( _ , :       ",
"      + < ) ) ) [ } } } } } } } } } } } } } } } | 1 ) ) 2 +     ",
"      + < ) 3 4 5 6 7 8 9 0 7 7 7 7 a b c 7 7 d e f g ) 2 +     ",
"      + < ) h } i j k l m n k k k k o p k k k q r s t ) 2 +     ",
"      + < ) h } u v k l m n k k k k w x k k k q r s t ) 2 +     ",
"      y z ) h } A B k l m n k k k k C D k k k q r s E F G +     ",
"      H I ) h } i j k l m n k k k k C D k k k q r s J K L +     ",
"      M N ) h O P Q R S m n k k k k T U k V W X r s Y Z ` +     ",
"      + < ) h  ...+.} @.m n k k k k #.$.k %.H &.r s t ) 2 +     ",
"      *.=.-.;.} >.,.'.).m n k k k k #.$.k !.~.{.].s t ) 2 +     ",
"^.    H /.(._.} :.<.k l m n k k k k #.$.k [.}.|.1.2.t ) 2 +     ",
"  ^.  H I ) h 3.4.k k l m n k k k k #.$.k 5.6.7.8.9.t ) 2 +   ^.",
"^.    H I ) h 3.4.k k 0.a.b.k k k k #.$.k c.d.e.f.g.t ) 2 +     ",
"      H I ) h 3.4.k k h.i.j.k k k k #.$.k k.l.m.- n.t ) 2 +     ",
"      o.p.) h 3.4.k k h.i.j.k k k k #.$.k k.l.m.- n.t ) 2 +     ",
"      + < q.h 3.r.k k h.i.j.k k k k #.$.k s.t.u.v.w.t q.x.+     ",
"      H y.K z.} A.j k h.i.j.k k k k #.$.k B.C.D.E.} J K F.+     ",
"      G.H.I.J.O K.L.M.N.O.P.k k k k #.$.k Q.R.S.T.} U.I.V.+     ",
"      + < ) h  ...+.} @.m n k k k k #.$.k %.H &.r s t ) 2 +     ",
"      + < ) h O W.X.Y.Z.m n k k k k `.j k  +.+++r s t ) 2 +     ",
"      + < ) h } } @+k #+m n k k k k C D k $+%+&+r s t ) 2 +     ",
"      *+=+) h } -+;+k >+,+'+k k k k C D k )+!+~+r s {+]+^++     ",
"      H I ) h } i j k h.i.j.k k k k /+(+k _+:+<+r s J K L +     ",
"      H I ) h } i j k h.i.j.k k k k o [+k _+:+<+r s J K L +     ",
"                          ^.                                    ",
"                        ^.  ^.                                  ",
"                          ^.                                    "};
