/* XPM */
static char * pac_player_xpm[] = {
"33 32 65 1",
" 	c #000000",
".	c #474500",
"+	c #5A5600",
"@	c #413E00",
"#	c #CCC500",
"$	c #FBF300",
"%	c #BBB500",
"&	c #CBC500",
"*	c #FAF200",
"=	c #BAB400",
"-	c #4B4800",
";	c #EFE700",
">	c #EEE600",
",	c #F6EE00",
"'	c #F4EC00",
")	c #EBE400",
"!	c #100F00",
"~	c #4F4C00",
"{	c #F7EF00",
"]	c #111000",
"^	c #7C7800",
"/	c #D1CA00",
"(	c #D5CE00",
"_	c #F9F100",
":	c #D1CB00",
"<	c #676300",
"[	c #959100",
"}	c #605D00",
"|	c #7F7B00",
"1	c #B3AD00",
"2	c #E0D800",
"3	c #6E6A00",
"4	c #BFB900",
"5	c #DCD500",
"6	c #F8F100",
"7	c #DBD400",
"8	c #494600",
"9	c #1E1D00",
"0	c #191800",
"a	c #423F00",
"b	c #807B00",
"c	c #1D1B00",
"d	c #A19B00",
"e	c #D8D100",
"f	c #C0BA00",
"g	c #C1BA00",
"h	c #302E00",
"i	c #999400",
"j	c #868200",
"k	c #B6B000",
"l	c #F2EA00",
"m	c #282600",
"n	c #959000",
"o	c #595600",
"p	c #A49E00",
"q	c #F8F000",
"r	c #9A9500",
"s	c #494700",
"t	c #3B3900",
"u	c #C1BB00",
"v	c #E7DF00",
"w	c #E1DA00",
"x	c #BEB800",
"y	c #0A0A00",
"z	c #A7A100",
"           .++++++++++@          ",
"           #$$$$$$$$$$%          ",
"           &**********=          ",
"      -;>>>,**********'>>>)!     ",
"      ~$******************{]     ",
"    ^/(*******************_:/<   ",
"    [************************^   ",
"    [************************^   ",
"    [************************^   ",
"  }|1*******************'22223   ",
"  4*********************5        ",
"  4***************_666667        ",
"  4***************8999990        ",
"  4***************a              ",
"  4********=|||||bc              ",
"  4********d                     ",
"  4********efffffgh              ",
"  4***************a              ",
"  4***************diiiiij        ",
"  4*********************5        ",
"  k>l*******************2++++m   ",
"    n********************$$$$^   ",
"    [************************^   ",
"    [************************^   ",
"    [************************^   ",
"    oip*******************qris   ",
"      ~$******************{]     ",
"      tufffv**********wfffxy     ",
"           #**********%          ",
"           k2222222222z          ",
"                                 ",
"                                 "};
