/* XPM */
static char * pac_mouth_closed_xpm[] = {
"32 32 832 2",
"  	c #000002",
". 	c #000003",
"+ 	c #020005",
"@ 	c #050107",
"# 	c #070107",
"$ 	c #070104",
"% 	c #060101",
"& 	c #060100",
"* 	c #0B0801",
"= 	c #1A1905",
"- 	c #26250A",
"; 	c #28280B",
"> 	c #25250B",
", 	c #23230A",
"' 	c #22230A",
") 	c #24240A",
"! 	c #27270B",
"~ 	c #26260C",
"{ 	c #22210B",
"] 	c #181706",
"^ 	c #0A0901",
"/ 	c #040300",
"( 	c #050300",
"_ 	c #040200",
": 	c #030100",
"< 	c #020003",
"[ 	c #010006",
"} 	c #010007",
"| 	c #000006",
"1 	c #000005",
"2 	c #000001",
"3 	c #010002",
"4 	c #030003",
"5 	c #060205",
"6 	c #040006",
"7 	c #000000",
"8 	c #040106",
"9 	c #56562B",
"0 	c #808041",
"a 	c #8D8D47",
"b 	c #8C8D44",
"c 	c #8A8C42",
"d 	c #8A8B40",
"e 	c #8B8B41",
"f 	c #8D8D44",
"g 	c #8F8F47",
"h 	c #8F8F49",
"i 	c #858545",
"j 	c #616132",
"k 	c #1F1D0F",
"l 	c #040102",
"m 	c #030005",
"n 	c #020006",
"o 	c #010005",
"p 	c #000100",
"q 	c #010001",
"r 	c #030001",
"s 	c #060102",
"t 	c #090202",
"u 	c #0C0602",
"v 	c #0F0B01",
"w 	c #333313",
"x 	c #898844",
"y 	c #C1C163",
"z 	c #D4D46C",
"A 	c #D3D468",
"B 	c #D1D365",
"C 	c #D0D263",
"D 	c #D1D264",
"E 	c #D4D568",
"F 	c #D6D66C",
"G 	c #D8D86F",
"H 	c #CACA69",
"I 	c #98984E",
"J 	c #46461F",
"K 	c #0E0C00",
"L 	c #0D0901",
"M 	c #080400",
"N 	c #050002",
"O 	c #040002",
"P 	c #030002",
"Q 	c #010000",
"R 	c #232105",
"S 	c #59591B",
"T 	c #787826",
"U 	c #818023",
"V 	c #8E8E29",
"W 	c #B8B94A",
"X 	c #E0E265",
"Y 	c #F0F26D",
"Z 	c #F1F36B",
"` 	c #EFF267",
" .	c #ECEF64",
"..	c #ECEF65",
"+.	c #F2F36A",
"@.	c #F5F56F",
"#.	c #F5F672",
"$.	c #E9EA6C",
"%.	c #C2C353",
"&.	c #91932F",
"*.	c #808124",
"=.	c #7D7D2A",
"-.	c #636221",
";.	c #302F0B",
">.	c #050100",
",.	c #040100",
"'.	c #434211",
").	c #929231",
"!.	c #C1C142",
"~.	c #D2D242",
"{.	c #D8D93D",
"].	c #E2E443",
"^.	c #EBF04B",
"/.	c #F2F74E",
"(.	c #F7FA4E",
"_.	c #F6F84B",
":.	c #EFF347",
"<.	c #EEF247",
"[.	c #F6F84D",
"}.	c #FBFC52",
"|.	c #F9FB53",
"1.	c #F2F551",
"2.	c #E3E746",
"3.	c #D5D83D",
"4.	c #D1D343",
"5.	c #C8C848",
"6.	c #A1A13A",
"7.	c #56561B",
"8.	c #080300",
"9.	c #070200",
"0.	c #050000",
"a.	c #020200",
"b.	c #2B2A08",
"c.	c #515117",
"d.	c #828329",
"e.	c #BEBE3D",
"f.	c #E6E749",
"g.	c #F5F648",
"h.	c #F7F940",
"i.	c #F5F935",
"j.	c #F1F829",
"k.	c #F4FA25",
"l.	c #FAFD29",
"m.	c #F9FB27",
"n.	c #F1F520",
"o.	c #F0F420",
"p.	c #F8FA29",
"q.	c #FCFD2E",
"r.	c #F9FB2D",
"s.	c #F4F92E",
"t.	c #F4F835",
"u.	c #F4F73E",
"v.	c #F4F64A",
"w.	c #EDED50",
"x.	c #CCCC47",
"y.	c #939332",
"z.	c #5F5F1F",
"A.	c #36350D",
"B.	c #030000",
"C.	c #080200",
"D.	c #050400",
"E.	c #4F4E16",
"F.	c #949533",
"G.	c #C3C341",
"H.	c #E2E243",
"I.	c #F5F63F",
"J.	c #F9FB38",
"K.	c #F6FA2D",
"L.	c #F5FA21",
"M.	c #F6FB13",
"N.	c #F9FD0E",
"O.	c #FCFE13",
"P.	c #FCFE12",
"Q.	c #F7FA0A",
"R.	c #F7FA09",
"S.	c #FBFD14",
"T.	c #FDFE18",
"U.	c #F8FB16",
"V.	c #F4F817",
"W.	c #F4F921",
"X.	c #F9FB3A",
"Y.	c #F8F945",
"Z.	c #EBEB4B",
"`.	c #D2D34A",
" +	c #A8A93E",
".+	c #646421",
"++	c #020000",
"@+	c #0B0400",
"#+	c #070700",
"$+	c #60601C",
"%+	c #B6B73E",
"&+	c #E6E74C",
"*+	c #F6F644",
"=+	c #F9FA30",
"-+	c #F6F91F",
";+	c #F2F711",
">+	c #F4F906",
",+	c #F9FD05",
"'+	c #FCFE06",
")+	c #FDFE07",
"!+	c #FDFD06",
"~+	c #FCFD03",
"{+	c #FCFD04",
"]+	c #FEFE09",
"^+	c #FDFE0B",
"/+	c #F9FB07",
"(+	c #F5F805",
"_+	c #F4F709",
":+	c #F5F816",
"<+	c #F9FB25",
"[+	c #FCFD35",
"}+	c #FBFC47",
"|+	c #F1F251",
"1+	c #C9CA47",
"2+	c #0D0500",
"3+	c #090900",
"4+	c #626117",
"5+	c #C0C13D",
"6+	c #F1F24B",
"7+	c #F8F93E",
"8+	c #F4F523",
"9+	c #F4F70E",
"0+	c #F7FA06",
"a+	c #FAFC04",
"b+	c #FCFE07",
"c+	c #FDFE06",
"d+	c #FCFB03",
"e+	c #FCFA01",
"f+	c #FCFB00",
"g+	c #FDFD00",
"h+	c #FEFE03",
"i+	c #FCFC01",
"j+	c #FAFA00",
"k+	c #F9FA02",
"l+	c #FAFB0B",
"m+	c #FBFC18",
"n+	c #FBFC26",
"o+	c #FBFC37",
"p+	c #F1F341",
"q+	c #C9CA39",
"r+	c #75751D",
"s+	c #0C0302",
"t+	c #070800",
"u+	c #22220C",
"v+	c #3E3E1D",
"w+	c #80802E",
"x+	c #CBCB3F",
"y+	c #F4F444",
"z+	c #F7F835",
"A+	c #F0F217",
"B+	c #F4F603",
"C+	c #FCFC09",
"D+	c #FEFF0B",
"E+	c #FEFE0C",
"F+	c #FDFC09",
"G+	c #FBF803",
"H+	c #FAF700",
"I+	c #FCF900",
"J+	c #FDFC01",
"K+	c #FEFD02",
"L+	c #FFFE03",
"M+	c #FFFD02",
"N+	c #FEFC02",
"O+	c #FEFD04",
"P+	c #FCFD0F",
"Q+	c #F9FB17",
"R+	c #F7F923",
"S+	c #EEEF2B",
"T+	c #CBCC28",
"U+	c #8A8B1C",
"V+	c #484810",
"W+	c #262406",
"X+	c #0D0403",
"Y+	c #020300",
"Z+	c #535326",
"`+	c #909148",
" @	c #BCBD55",
".@	c #DFE04D",
"+@	c #F4F53B",
"@@	c #F7F928",
"#@	c #F5F70F",
"$@	c #F9FA03",
"%@	c #FEFE0B",
"&@	c #FFFE0C",
"*@	c #FCF905",
"=@	c #FAF602",
"-@	c #FBF700",
";@	c #FDFA01",
">@	c #FFFD04",
",@	c #FEFD05",
"'@	c #FCFC06",
")@	c #F9FA0C",
"!@	c #F8FA18",
"~@	c #E2E32D",
"{@	c #C1C233",
"]@	c #97982E",
"^@	c #5E5E19",
"/@	c #140C03",
"(@	c #6D6D32",
"_@	c #BCBD5D",
":@	c #E5E66A",
"<@	c #F0F256",
"[@	c #F4F632",
"}@	c #FCFD0C",
"|@	c #FEFE08",
"1@	c #FDFC0A",
"2@	c #FBF904",
"3@	c #FAF701",
"4@	c #FBF601",
"5@	c #FCF801",
"6@	c #FEFC03",
"7@	c #FFFD03",
"8@	c #FFFC01",
"9@	c #FFFB01",
"0@	c #FFFE05",
"a@	c #FBFB02",
"b@	c #F9FB08",
"c@	c #FBFC14",
"d@	c #FBFC22",
"e@	c #F5F734",
"f@	c #E7E941",
"g@	c #C3C53C",
"h@	c #7C7C23",
"i@	c #191203",
"j@	c #717330",
"k@	c #C4C659",
"l@	c #EDF066",
"m@	c #F6F951",
"n@	c #F6F92C",
"o@	c #FBFC13",
"p@	c #FEFF0E",
"q@	c #FFFF09",
"r@	c #FCFB06",
"s@	c #FCF802",
"t@	c #FDFA03",
"u@	c #FEFD03",
"v@	c #FEF901",
"w@	c #FEF801",
"x@	c #FFFC05",
"y@	c #FFFE07",
"z@	c #FFFE06",
"A@	c #FDFD04",
"B@	c #FCFC07",
"C@	c #FBFD0E",
"D@	c #FAFD1A",
"E@	c #F7FB2E",
"F@	c #EEF23D",
"G@	c #CCCF39",
"H@	c #828321",
"I@	c #191402",
"J@	c #6E7128",
"K@	c #C0C44B",
"L@	c #EAEE56",
"M@	c #F5F945",
"N@	c #F8FB27",
"O@	c #FCFE16",
"P@	c #FEFE10",
"Q@	c #FDFC05",
"R@	c #FBFA02",
"S@	c #FAF802",
"T@	c #FFFB02",
"U@	c #FEF701",
"V@	c #FEF602",
"W@	c #FEFA06",
"X@	c #FFFE09",
"Y@	c #FFFE08",
"Z@	c #FEFE07",
"`@	c #FDFE08",
" #	c #FBFE07",
".#	c #F6FC0E",
"+#	c #F2F923",
"@#	c #EAF033",
"##	c #C8CD30",
"$#	c #7F821B",
"%#	c #181401",
"&#	c #6E7122",
"*#	c #C0C543",
"=#	c #E9EF4D",
"-#	c #F2F73D",
";#	c #F3F720",
">#	c #F8FA10",
",#	c #FBFD0C",
"'#	c #FCFD06",
")#	c #FCFB02",
"!#	c #FCFA02",
"~#	c #FBFA04",
"{#	c #FCFB05",
"]#	c #FEFE06",
"^#	c #FFFC02",
"/#	c #FFFA02",
"(#	c #FEF803",
"_#	c #FEF805",
":#	c #FFFA07",
"<#	c #FFFB08",
"[#	c #FDFB07",
"}#	c #FCFA05",
"|#	c #FCFC05",
"1#	c #FDFE05",
"2#	c #FBFE02",
"3#	c #F7FD07",
"4#	c #F4FB1F",
"5#	c #EBF32F",
"6#	c #C9D02C",
"7#	c #808419",
"8#	c #171401",
"9#	c #707320",
"0#	c #C2C63F",
"a#	c #E9EF48",
"b#	c #EEF438",
"c#	c #EDF119",
"d#	c #F2F605",
"e#	c #F8FB04",
"f#	c #FAFB01",
"g#	c #FBFB01",
"h#	c #FCFB04",
"i#	c #FDFD08",
"j#	c #FFF903",
"k#	c #FFFC0B",
"l#	c #FFFA0A",
"m#	c #FEF807",
"n#	c #FBF504",
"o#	c #F9F402",
"p#	c #FAF803",
"q#	c #FBFD04",
"r#	c #FBFF02",
"s#	c #F9FE07",
"t#	c #F7FD1F",
"u#	c #EEF62F",
"v#	c #CCD42C",
"w#	c #818719",
"x#	c #171501",
"y#	c #70731F",
"z#	c #C2C63D",
"A#	c #EBEF46",
"B#	c #F1F537",
"C#	c #F0F31D",
"D#	c #F5F70B",
"E#	c #F9FB04",
"F#	c #FBFB00",
"G#	c #FBFA01",
"H#	c #FEFD07",
"I#	c #FFFD07",
"J#	c #FFFB03",
"K#	c #FFFA03",
"L#	c #FFFA08",
"M#	c #FFFD10",
"N#	c #FFFD12",
"O#	c #FEF90E",
"P#	c #FDF507",
"Q#	c #FBF304",
"R#	c #F9F405",
"S#	c #FAF80B",
"T#	c #FCFD10",
"U#	c #FAFE0B",
"V#	c #F6FC09",
"W#	c #F5FD1F",
"X#	c #EEF830",
"Y#	c #CDD62D",
"Z#	c #83881A",
"`#	c #191701",
" $	c #717220",
".$	c #C2C63E",
"+$	c #EDF048",
"@$	c #F7FA3C",
"#$	c #F9FB26",
"$$	c #FCFD16",
"%$	c #FDFD09",
"&$	c #FDFB02",
"*$	c #FEFA02",
"=$	c #FFFC06",
"-$	c #FFFD0D",
";$	c #FFFF16",
">$	c #FEFD18",
",$	c #FDF712",
"'$	c #FCF209",
")$	c #FCF406",
"!$	c #FCF70B",
"~$	c #FDFB15",
"{$	c #FDFD1B",
"]$	c #F8FC14",
"^$	c #F1F90C",
"/$	c #F0FA21",
"($	c #EDF832",
"_$	c #CED730",
":$	c #84891B",
"<$	c #1C1A02",
"[$	c #727324",
"}$	c #C5C746",
"|$	c #EFF251",
"1$	c #FAFD43",
"2$	c #FCFE2A",
"3$	c #FEFF17",
"4$	c #FEFE0A",
"5$	c #FDFD02",
"6$	c #FDFB01",
"7$	c #FEFB01",
"8$	c #FEFA01",
"9$	c #FEFC05",
"0$	c #FEFD0C",
"a$	c #FEFC14",
"b$	c #FDFA17",
"c$	c #FCF613",
"d$	c #FCF50F",
"e$	c #FDF70D",
"f$	c #FEFA0F",
"g$	c #FCFB16",
"h$	c #F9FA1B",
"i$	c #F4FA15",
"j$	c #F0F910",
"k$	c #F0FB27",
"l$	c #EFFA39",
"m$	c #CFD936",
"n$	c #858A1F",
"o$	c #1B1A02",
"p$	c #72732B",
"q$	c #C6C851",
"r$	c #F0F35C",
"s$	c #F9FD4A",
"t$	c #F9FD2A",
"u$	c #FBFE13",
"v$	c #FDFE01",
"w$	c #FEFE02",
"x$	c #FEFB02",
"y$	c #FDF905",
"z$	c #FBF70A",
"A$	c #FBF60F",
"B$	c #FCF813",
"C$	c #FEFB15",
"D$	c #FFFC14",
"E$	c #FEFC11",
"F$	c #F8F810",
"G$	c #F2F510",
"H$	c #F1F70D",
"I$	c #F2FB15",
"J$	c #F4FE2E",
"K$	c #F0FA41",
"L$	c #D0D93D",
"M$	c #848A24",
"N$	c #181703",
"O$	c #656728",
"P$	c #B1B44C",
"Q$	c #DCDF57",
"R$	c #EDF247",
"S$	c #F6FB2A",
"T$	c #F9FE14",
"U$	c #FAFE05",
"V$	c #FCFE00",
"W$	c #FDFE02",
"X$	c #FFFF03",
"Y$	c #FFFF02",
"Z$	c #FEFD01",
"`$	c #FDF801",
" %	c #FAF502",
".%	c #FAF507",
"+%	c #FCFA11",
"@%	c #FFFE16",
"#%	c #FFFF15",
"$%	c #FEFE12",
"%%	c #F7F90E",
"&%	c #F0F40C",
"*%	c #F0F60F",
"=%	c #F1F91B",
"-%	c #ECF52F",
";%	c #DEE73D",
">%	c #BAC239",
",%	c #767B21",
"'%	c #131202",
")%	c #424318",
"!%	c #767832",
"~%	c #A6A93C",
"{%	c #D5D936",
"]%	c #F2F72A",
"^%	c #FAFF1B",
"/%	c #F9FD00",
"(%	c #F9FB00",
"_%	c #FBFC02",
":%	c #FEFE01",
"<%	c #FBF801",
"[%	c #FDFB0A",
"}%	c #FFFF0F",
"|%	c #FFFF11",
"1%	c #FEFF11",
"2%	c #FAFC12",
"3%	c #F5FA15",
"4%	c #F2F91C",
"5%	c #ECF422",
"6%	c #D4DC27",
"7%	c #ABB22A",
"8%	c #7F8424",
"9%	c #4D5113",
"0%	c #0E0D01",
"a%	c #020100",
"b%	c #050602",
"c%	c #0A0B07",
"d%	c #6C6E18",
"e%	c #C0C42C",
"f%	c #EFF434",
"g%	c #FAFF2A",
"h%	c #F9FE17",
"i%	c #F8FC09",
"j%	c #FAFB06",
"k%	c #FFFF06",
"l%	c #FCFD02",
"m%	c #FCFC02",
"n%	c #FBFB03",
"o%	c #FDFE0D",
"p%	c #FDFE13",
"q%	c #FCFE1D",
"r%	c #FAFE27",
"s%	c #F6FC32",
"t%	c #EAF138",
"u%	c #C4CA31",
"v%	c #7A7E1B",
"w%	c #232604",
"x%	c #050600",
"y%	c #0A0800",
"z%	c #5E6015",
"A%	c #BCBE37",
"B%	c #EEF044",
"C%	c #FBFE3C",
"D%	c #FCFE29",
"E%	c #FBFE1C",
"F%	c #F9FC13",
"G%	c #FBFD10",
"H%	c #FFFF0E",
"I%	c #FCFD05",
"J%	c #F7FA02",
"K%	c #F7F903",
"L%	c #FCFE08",
"M%	c #FBFD0A",
"N%	c #F8FC0D",
"O%	c #F8FB19",
"P%	c #FCFF3A",
"Q%	c #FBFE4A",
"R%	c #F0F454",
"S%	c #C7CB49",
"T%	c #737627",
"U%	c #090700",
"V%	c #5C5C1A",
"W%	c #AEAF3B",
"X%	c #DFE04A",
"Y%	c #F3F349",
"Z%	c #FBFB40",
"`%	c #FCFD34",
" &	c #F9FB1B",
".&	c #FCFD18",
"+&	c #FEFE15",
"@&	c #FEFF0F",
"#&	c #FBFD09",
"$&	c #F5F905",
"%&	c #F4F804",
"&&	c #F8FB08",
"*&	c #FBFD0B",
"=&	c #FAFD0C",
"-&	c #F7FC12",
";&	c #F4FA1A",
">&	c #F3F828",
",&	c #F7FA3A",
"'&	c #F9FA4A",
")&	c #F5F657",
"!&	c #E7E95D",
"~&	c #BEC150",
"{&	c #71732C",
"]&	c #080600",
"^&	c #424311",
"/&	c #7F8029",
"(&	c #B0AF3E",
"_&	c #DBDA52",
":&	c #F7F55C",
"<&	c #FAF951",
"[&	c #F3F439",
"}&	c #F2F427",
"|&	c #F5F71E",
"1&	c #F8FA17",
"2&	c #FCFE10",
"3&	c #FCFE0C",
"4&	c #FAFC09",
"5&	c #F7FA07",
"6&	c #F4F904",
"7&	c #F3F905",
"8&	c #F3FB0C",
"9&	c #F4FB1B",
"0&	c #F4FA2D",
"a&	c #F4F83E",
"b&	c #F4F750",
"c&	c #EFF05A",
"d&	c #DBDB58",
"e&	c #B9BA4D",
"f&	c #8E903C",
"g&	c #545420",
"h&	c #060400",
"i&	c #000200",
"j&	c #181802",
"k&	c #2B2C03",
"l&	c #6B6928",
"m&	c #B8B553",
"n&	c #E6E267",
"o&	c #EBE85D",
"p&	c #E1E141",
"q&	c #E4E530",
"r&	c #ECEF2C",
"s&	c #F3F727",
"t&	c #F8FC1F",
"u&	c #FBFE19",
"v&	c #F8FB14",
"w&	c #F0F711",
"x&	c #ECF617",
"y&	c #EFF922",
"z&	c #F1F92F",
"A&	c #EEF43B",
"B&	c #E9EC48",
"C&	c #E5E657",
"D&	c #D9D95F",
"E&	c #B4B451",
"F&	c #747430",
"G&	c #3A3A12",
"H&	c #222005",
"I&	c #0D0900",
"J&	c #060300",
"K&	c #040201",
"L&	c #010300",
"M&	c #020400",
"N&	c #373417",
"O&	c #888440",
"P&	c #B2AE52",
"Q&	c #B5B24A",
"R&	c #B2B035",
"S&	c #C8CA37",
"T&	c #E5E944",
"U&	c #F2F743",
"V&	c #F6FB38",
"W&	c #F5FA28",
"X&	c #F3F826",
"Y&	c #EFF72B",
"Z&	c #EEF936",
"`&	c #F4FD44",
" *	c #F1F84B",
".*	c #D9DE44",
"+*	c #BCBF3D",
"@*	c #B0B145",
"#*	c #A6A64A",
"$*	c #83833C",
"%*	c #403F1A",
"&*	c #0B0701",
"**	c #080603",
"=*	c #050404",
"-*	c #000300",
";*	c #1F1D07",
">*	c #44411B",
",*	c #595624",
"'*	c #56541D",
")*	c #64641B",
"!*	c #A2A439",
"~*	c #D6DA50",
"{*	c #E9EE52",
"]*	c #EAEF45",
"^*	c #E7EE39",
"/*	c #E3EA30",
"(*	c #E2EA30",
"_*	c #E4ED37",
":*	c #E9F144",
"<*	c #F0F755",
"[*	c #E7EB59",
"}*	c #B8BB45",
"|*	c #737424",
"1*	c #52511A",
"2*	c #525220",
"3*	c #414019",
"4*	c #232109",
"5*	c #060303",
"6*	c #060506",
"7*	c #060707",
"8*	c #000400",
"9*	c #010400",
"0*	c #1E1F06",
"a*	c #77792D",
"b*	c #ABAE43",
"c*	c #BCC045",
"d*	c #BCC13A",
"e*	c #B8BF30",
"f*	c #B4BB28",
"g*	c #B4BB27",
"h*	c #B8C02E",
"i*	c #BEC43A",
"j*	c #C4C848",
"k*	c #BABD4B",
"l*	c #8B8D38",
"m*	c #363611",
"n*	c #080301",
"o*	c #050203",
"p*	c #040205",
"q*	c #040307",
"r*	c #05060A",
"s*	c #010500",
"t*	c #030500",
"u*	c #040400",
"v*	c #131302",
"w*	c #3F4014",
"x*	c #5C5E20",
"y*	c #666821",
"z*	c #66691B",
"A*	c #646815",
"B*	c #626611",
"C*	c #626610",
"D*	c #666914",
"E*	c #696C1B",
"F*	c #6C6E23",
"G*	c #656725",
"H*	c #4B4B1A",
"I*	c #1E1D06",
"J*	c #110A03",
"K*	c #0F0802",
"L*	c #070301",
"M*	c #040203",
"N*	c #040206",
"O*	c #030207",
"P*	c #020207",
"Q*	c #03050C",
"R*	c #030600",
"S*	c #040700",
"T*	c #050500",
"U*	c #060500",
"V*	c #030200",
"W*	c #0F0804",
"X*	c #120C05",
"Y*	c #0E0904",
"Z*	c #050303",
"`*	c #030205",
" =	c #05050A",
".=	c #05050B",
"+=	c #020309",
"@=	c #02050C",
"  . . + @ # $ % & * = - ; > , ' ) ! ; ~ { ] ^ / ( _ : < [ } | 1 ",
"2   3 4 5 6   7 7 8 9 0 a b c d e f g h i j k 7 7 7 7 l m n o o ",
"p 2 q r s t u v 7 w x y z A B C D E F G H I J 7 K L M % N O P < ",
"p Q : 7 7 R S T U V W X Y Z `  ...+.@.#.$.%.&.*.=.-.;.7 7 & >.r ",
"7 Q ,.7 7 '.).!.~.{.].^./.(._.:.<.[.}.|.1.2.3.4.5.6.7.7 7 8.9.0.",
"a.Q 7 b.c.d.e.f.g.h.i.j.k.l.m.n.o.p.q.r.s.t.u.v.w.x.y.z.A.9.B.C.",
"D.7 7 E.F.G.H.I.J.K.L.M.N.O.P.Q.R.S.T.U.V.W.K.X.Y.Z.`. +.+++7 @+",
"#+7 7 $+%+&+*+=+-+;+>+,+'+)+!+~+{+]+^+/+(+_+:+<+[+}+|+1+T 7 7 2+",
"3+7 7 4+5+6+7+8+9+0+a+b+c+d+e+f+g+h+h+i+j+k+l+m+n+o+p+q+r+7 7 s+",
"t+u+v+w+x+y+z+A+B+C+D+E+F+G+H+I+J+K+L+M+N+O+]+P+Q+R+S+T+U+V+W+X+",
"Y+Z+`+ @.@+@@@#@$@%@&@F+*@=@-@;@N+M+M+M+L+>@,@'@)@!@8+~@{@]@^@/@",
"7 (@_@:@<@[@!@}@|@E+1@2@3@4@5@6@7@8@9@>@0@7@N+a@b@c@d@e@f@g@h@i@",
"7 j@k@l@m@n@o@p@q@]+r@3@3@s@t@u@M+v@w@x@y@z@O+A@B@C@D@E@F@G@H@I@",
"7 J@K@L@M@N@O@P@]+Q@R@3@S@Q@0@7@T@U@V@W@X@Y@Z@Z@`@ #.#+#@###$#%#",
"7 &#*#=#-#;#>#,#'#)#!#~#{#]#0@^#/#(#_#:#<#[#}#|#1#2#3#4#5#6#7#8#",
"7 9#0#a#b#c#d#e#f#g#h#i#|@z@7@/#j#<#k#l#m#n#o#p#q#r#s#t#u#v#w#x#",
"7 y#z#A#B#C#D#E#F#G#d+H#I#>@J#K#L#M#N#O#P#Q#R#S#T#U#V#W#X#Y#Z#`#",
"7  $.$+$@$#$$$%$i+g#e+&$*$v@*$=$-$;$>$,$'$)$!$~${$]$^$/$($_$:$<$",
"7 [$}$|$1$2$3$4$5$J+6$6$7$8$*$9$0$a$b$c$d$e$f$g$h$i$j$k$l$m$n$o$",
"7 p$q$r$s$t$u$b+v$w$w$w$M+M+N+x$y$z$A$B$C$D$E$F$G$H$I$J$K$L$M$N$",
"7 O$P$Q$R$S$T$U$V$W$h+X$X$Y$Z$7$`$ %.%+%@%#%$%%%&%*%=%-%;%>%,%'%",
"7 )%!%~%{%]%^%s#/%(%_%h+X$:%:%Z$6$<%p#[%}%|%1%2%3%4%5%6%7%8%9%0%",
"a%b%c%d%e%f%g%h%i%0+j%)+k%h+5$l%m%a@n%!+4$o%p%q%r%s%t%u%v%w%x%y%",
"a.7 7 z%A%B%C%D%E%F%G%P@H%]+I%J%K%j%i#L%M%N%O%l.P%Q%R%S%T%7 7 U%",
"p 7 7 V%W%X%Y%Z%`%<+ &.&+&@&#&$&%&&&*&=&-&;&>&,&'&)&!&~&{&7 7 ]&",
"p 7 7 ^&/&(&_&:&<&[&}&|&1&2&3&4&5&6&7&8&9&0&a&b&c&d&e&f&g&h&7 h&",
"i&p 7 j&k&l&m&n&o&p&q&r&s&t&u&$$v&w&x&y&z&A&B&C&D&E&F&G&H&I&J&K&",
"i&L&M&7 7 N&O&P&Q&R&S&T&U&V&E@W&X&Y&Z&`& *.*+*@*#*$*%*7 7 &***=*",
"-*-*-*L&7 ;*>*,*'*)*!*~*{*]*^*/*(*_*:*<*[*}*|*1*2*3*4*0.>.5*6*7*",
"-*8*8*9*#+: 7 7 7 0*a*b*c*d*e*f*g*h*i*j*k*l*m*7 7 7 B.n*o*p*q*r*",
"8*8*8*s*t*u*a%Q 7 v*w*x*y*z*A*B*C*D*E*F*G*H*I*++J*K*L*M*N*O*P*Q*",
"8*8*8*s*R*S*x%T*U*V*7 7 7 7 2 2 7 7 7 7 7 7 O W*X*Y*Z*`* =.=+=@="};
