/* XPM */
static char * pac_max_open_mouth_right_xpm[] = {
"32 32 848 2",
"  	c #070311",
". 	c #06020C",
"+ 	c #040106",
"@ 	c #040103",
"# 	c #060200",
"$ 	c #0A0500",
"% 	c #0D0800",
"& 	c #0D0900",
"* 	c #0B0600",
"= 	c #080400",
"- 	c #070300",
"; 	c #080500",
"> 	c #0A0700",
", 	c #0A0801",
"' 	c #090801",
") 	c #090800",
"! 	c #080800",
"~ 	c #080900",
"{ 	c #080A00",
"] 	c #090B00",
"^ 	c #0A0C00",
"/ 	c #0B0C00",
"( 	c #090A00",
"_ 	c #080700",
": 	c #060400",
"< 	c #050300",
"[ 	c #060111",
"} 	c #05000C",
"| 	c #060106",
"1 	c #070202",
"2 	c #090400",
"3 	c #0E0900",
"4 	c #0A0400",
"5 	c #000000",
"6 	c #0F0C06",
"7 	c #42421D",
"8 	c #666630",
"9 	c #7B7C3A",
"0 	c #83853D",
"a 	c #85873B",
"b 	c #848838",
"c 	c #838836",
"d 	c #838834",
"e 	c #828834",
"f 	c #828734",
"g 	c #828735",
"h 	c #818638",
"i 	c #81863C",
"j 	c #7F8340",
"k 	c #767A3E",
"l 	c #626533",
"m 	c #424420",
"n 	c #1B1A08",
"o 	c #040010",
"p 	c #06010B",
"q 	c #090306",
"r 	c #0C0602",
"s 	c #0D0700",
"t 	c #0C0800",
"u 	c #0B0800",
"v 	c #323211",
"w 	c #737335",
"x 	c #A6A750",
"y 	c #C6C860",
"z 	c #D2D564",
"A 	c #D4D861",
"B 	c #D3D95D",
"C 	c #D2D959",
"D 	c #D1D957",
"E 	c #D0D856",
"F 	c #CFD859",
"G 	c #CFD75D",
"H 	c #CED564",
"I 	c #CBD16A",
"J 	c #BEC367",
"K 	c #9FA357",
"L 	c #6D703A",
"M 	c #2E2E14",
"N 	c #070210",
"O 	c #09040C",
"P 	c #0C0608",
"Q 	c #0D0603",
"R 	c #060000",
"S 	c #383809",
"T 	c #5B5D16",
"U 	c #73761E",
"V 	c #7D801F",
"W 	c #80831B",
"X 	c #8C8F23",
"Y 	c #ABAE3C",
"Z 	c #CED253",
"` 	c #E7EB62",
" .	c #F2F766",
"..	c #F4F963",
"+.	c #F3F95F",
"@.	c #F1F95C",
"#.	c #EEF859",
"$.	c #ECF758",
"%.	c #ECF75A",
"&.	c #EDF75E",
"*.	c #EDF764",
"=.	c #EEF66E",
"-.	c #EBF276",
";.	c #DDE274",
">.	c #B9BD62",
",.	c #808342",
"'.	c #363718",
").	c #0C0612",
"!.	c #0E070F",
"~.	c #0D060A",
"{.	c #0C0504",
"].	c #030000",
"^.	c #262603",
"/.	c #636619",
"(.	c #979B2B",
"_.	c #BABE37",
":.	c #CBCF39",
"<.	c #D1D636",
"[.	c #D6DB33",
"}.	c #DEE437",
"|.	c #E9EF3F",
"1.	c #F1F845",
"2.	c #F6FD47",
"3.	c #F8FE46",
"4.	c #F7FE43",
"5.	c #F4FC41",
"6.	c #EFFA3E",
"7.	c #ECF93F",
"8.	c #ECF943",
"9.	c #EFFA4B",
"0.	c #F0FA55",
"a.	c #F2FA64",
"b.	c #EFF66F",
"c.	c #E1E66F",
"d.	c #BDC15E",
"e.	c #82853F",
"f.	c #383816",
"g.	c #0C060F",
"h.	c #0C040D",
"i.	c #000007",
"j.	c #130F05",
"k.	c #3A390F",
"l.	c #5B5C1E",
"m.	c #7C7E29",
"n.	c #A1A333",
"o.	c #C5C83B",
"p.	c #E0E43F",
"q.	c #EEF23F",
"r.	c #F3F83A",
"s.	c #F4FA33",
"t.	c #F5FC2D",
"u.	c #F5FD28",
"v.	c #F5FD23",
"w.	c #F5FD22",
"x.	c #F4FC24",
"y.	c #F2FB23",
"z.	c #EEFA23",
"A.	c #EDFA2A",
"B.	c #EFFB36",
"C.	c #F2FD43",
"D.	c #F1FA4E",
"E.	c #EAF158",
"F.	c #DDE35F",
"G.	c #C8CD5E",
"H.	c #A5A84F",
"I.	c #717434",
"J.	c #313111",
"K.	c #080208",
"L.	c #020004",
"M.	c #1D1B05",
"N.	c #61621F",
"O.	c #999A37",
"P.	c #C1C345",
"Q.	c #D9DC49",
"R.	c #EAEB46",
"S.	c #F4F63E",
"T.	c #F9FC37",
"U.	c #FAFE2E",
"V.	c #F9FE25",
"W.	c #F8FF1D",
"X.	c #F6FE16",
"Y.	c #F4FD11",
"Z.	c #F2FC0D",
"`.	c #EEFA0E",
" +	c #ECF912",
".+	c #EDF918",
"++	c #F0FB20",
"@+	c #F3FD2C",
"#+	c #F7FF3D",
"$+	c #F8FF4C",
"%+	c #F0F652",
"&+	c #D8DC4F",
"*+	c #B1B446",
"=+	c #878A3A",
"-+	c #63652D",
";+	c #42421C",
">+	c #1E1B07",
",+	c #070302",
"'+	c #161500",
")+	c #6E6F20",
"!+	c #AFB23A",
"~+	c #DBDF49",
"{+	c #F1F44C",
"]+	c #FAFC44",
"^+	c #FCFD37",
"/+	c #FDFE2C",
"(+	c #FBFD21",
"_+	c #F8FC16",
":+	c #F7FC0D",
"<+	c #F7FD09",
"[+	c #F6FD09",
"}+	c #F3FC09",
"|+	c #F0FA0C",
"1+	c #EDF914",
"2+	c #EFFA1F",
"3+	c #F2FC2A",
"4+	c #F3FB34",
"5+	c #EFF540",
"6+	c #E6EB49",
"7+	c #D5D84A",
"8+	c #B3B53F",
"9+	c #7E802A",
"0+	c #3B3B0E",
"a+	c #0A0101",
"b+	c #090002",
"c+	c #0B0901",
"d+	c #030100",
"e+	c #222303",
"f+	c #71741A",
"g+	c #B2B530",
"h+	c #DDE23C",
"i+	c #F3F73D",
"j+	c #FAFD36",
"k+	c #FBFE29",
"l+	c #FBFD1F",
"m+	c #F8FA16",
"n+	c #F6F80F",
"o+	c #F6F80B",
"p+	c #F8FB0D",
"q+	c #F9FD11",
"r+	c #F9FD17",
"s+	c #F8FD1D",
"t+	c #F7FC24",
"u+	c #F6FC2E",
"v+	c #F3FB38",
"w+	c #EAF23C",
"x+	c #D4DB3B",
"y+	c #B4B835",
"z+	c #8F912E",
"A+	c #6C6C23",
"B+	c #484713",
"C+	c #1D1900",
"D+	c #0A0001",
"E+	c #0A0004",
"F+	c #101002",
"G+	c #3A3B15",
"H+	c #5C5E29",
"I+	c #7E8036",
"J+	c #A2A53A",
"K+	c #C7CB39",
"L+	c #E3E835",
"M+	c #F2F72F",
"N+	c #F8FD26",
"O+	c #FAFE1C",
"P+	c #FAFD14",
"Q+	c #F9FA10",
"R+	c #F7F80F",
"S+	c #F8F811",
"T+	c #F9F916",
"U+	c #FBFB1C",
"V+	c #FCFC25",
"W+	c #FBFC2D",
"X+	c #F7F933",
"Y+	c #EFF237",
"Z+	c #E1E63A",
"`+	c #CCD338",
" @	c #ABB22F",
".@	c #7B8020",
"+@	c #3D3F0A",
"@@	c #120800",
"#@	c #100501",
"$@	c #0D0202",
"%@	c #0B0004",
"&@	c #080007",
"*@	c #151603",
"=@	c #5F6128",
"-@	c #9B9E47",
";@	c #C5C959",
">@	c #DCE05C",
",@	c #E7EC4F",
"'@	c #EDF239",
")@	c #F2F825",
"!@	c #F6FB19",
"~@	c #F8FE14",
"{@	c #FAFE11",
"]@	c #FBFD12",
"^@	c #FCFC16",
"/@	c #FCFB1A",
"(@	c #FBF920",
"_@	c #FAF827",
":@	c #F9F731",
"<@	c #F6F53A",
"[@	c #ECED3F",
"}@	c #D6D83B",
"|@	c #B4B731",
"1@	c #8C9024",
"2@	c #676C19",
"3@	c #44470C",
"4@	c #1B1901",
"5@	c #0B0101",
"6@	c #0C0203",
"7@	c #0A0105",
"8@	c #070009",
"9@	c #171903",
"0@	c #6C6F2C",
"a@	c #B0B44E",
"b@	c #DEE262",
"c@	c #F3F863",
"d@	c #F6FB54",
"e@	c #F3F938",
"f@	c #F2F91E",
"g@	c #F3FA0E",
"h@	c #F6FB0D",
"i@	c #F8FD10",
"j@	c #FBFE17",
"k@	c #FEFE1F",
"l@	c #FEFC25",
"m@	c #FCF82B",
"n@	c #F7F231",
"o@	c #EEEA36",
"p@	c #E1DE3B",
"q@	c #CDCD3B",
"r@	c #AEAF34",
"s@	c #808024",
"t@	c #45440D",
"u@	c #0C0400",
"v@	c #0B0201",
"w@	c #0B0202",
"x@	c #0B0103",
"y@	c #090105",
"z@	c #060009",
"A@	c #05000A",
"B@	c #6A6E27",
"C@	c #ADB145",
"D@	c #DAE057",
"E@	c #EFF658",
"F@	c #F4FB4B",
"G@	c #F3FA33",
"H@	c #F2FA1C",
"I@	c #F2F80C",
"J@	c #F2F80A",
"K@	c #F4F911",
"L@	c #F9FC1D",
"M@	c #FDFD27",
"N@	c #FDFB2F",
"O@	c #F9F436",
"P@	c #EFE839",
"Q@	c #D9D337",
"R@	c #B7B22F",
"S@	c #8E8D26",
"T@	c #6A691C",
"U@	c #484710",
"V@	c #231F03",
"W@	c #080001",
"X@	c #0B0203",
"Y@	c #0C0305",
"Z@	c #0C0307",
"`@	c #0A0208",
" #	c #070108",
".#	c #050008",
"+#	c #030009",
"@#	c #171A02",
"##	c #686C21",
"$#	c #A9AF3D",
"%#	c #D6DC4D",
"&#	c #ECF34F",
"*#	c #F4FB43",
"=#	c #F5FC2F",
"-#	c #F6FC1E",
";#	c #F4FA11",
">#	c #F4F80E",
",#	c #F5F813",
"'#	c #F8F91C",
")#	c #F8F825",
"!#	c #F2EF2C",
"~#	c #E5E032",
"{#	c #D1CA34",
"]#	c #B3AC2E",
"^#	c #857F21",
"/#	c #4A450D",
"(#	c #0E0400",
"_#	c #0E0401",
":#	c #0D0302",
"<#	c #0C0303",
"[#	c #0C0306",
"}#	c #0B0307",
"|#	c #080207",
"1#	c #050107",
"2#	c #030007",
"3#	c #020007",
"4#	c #181B02",
"5#	c #686C1F",
"6#	c #A9AE38",
"7#	c #D6DC47",
"8#	c #EDF34A",
"9#	c #F6FB40",
"0#	c #F9FD30",
"a#	c #FBFE22",
"b#	c #FBFE1A",
"c#	c #FAFC16",
"d#	c #FAFA14",
"e#	c #F8F716",
"f#	c #F2EF19",
"g#	c #DEDA1B",
"h#	c #BEB91E",
"i#	c #96901E",
"j#	c #716B19",
"k#	c #4E480F",
"l#	c #282203",
"m#	c #0A0000",
"n#	c #0E0403",
"o#	c #100605",
"p#	c #110706",
"q#	c #0F0606",
"r#	c #0B0304",
"s#	c #070203",
"t#	c #050103",
"u#	c #030003",
"v#	c #010004",
"w#	c #181C02",
"x#	c #676B1C",
"y#	c #A7AD34",
"z#	c #D4DA42",
"A#	c #EBF144",
"B#	c #F3F83C",
"C#	c #F6F92D",
"D#	c #F9FC22",
"E#	c #FCFE1C",
"F#	c #FEFE19",
"G#	c #FDFC16",
"H#	c #FBF913",
"I#	c #F2EF11",
"J#	c #DEDB11",
"K#	c #BDB911",
"L#	c #959110",
"M#	c #706C0C",
"N#	c #4D4904",
"O#	c #272200",
"P#	c #0A0100",
"Q#	c #0E0503",
"R#	c #100705",
"S#	c #110806",
"T#	c #0F0605",
"U#	c #0B0402",
"V#	c #070301",
"W#	c #050200",
"X#	c #040201",
"Y#	c #030102",
"Z#	c #020102",
"`#	c #191C01",
" $	c #666A19",
".$	c #A6AB30",
"+$	c #D1D73D",
"@$	c #E7EC3F",
"#$	c #EDF237",
"$$	c #EFF329",
"%$	c #F3F51E",
"&$	c #F8FA1A",
"*$	c #FDFD19",
"=$	c #FEFE17",
"-$	c #FEFD15",
";$	c #FAF915",
">$	c #F1F018",
",$	c #E4E11D",
"'$	c #D0CC1F",
")$	c #B2AE1B",
"!$	c #848112",
"~$	c #494605",
"{$	c #0F0700",
"]$	c #0E0601",
"^$	c #0D0502",
"/$	c #0C0502",
"($	c #0C0601",
"_$	c #0C0700",
":$	c #0A0600",
"<$	c #060301",
"[$	c #191B02",
"}$	c #696C20",
"|$	c #ABAE3A",
"1$	c #D7DB4A",
"2$	c #ECF04C",
"3$	c #F0F442",
"4$	c #EFF331",
"5$	c #F1F423",
"6$	c #F5F71B",
"7$	c #F9FA17",
"8$	c #FCFC14",
"9$	c #FEFE13",
"0$	c #FEFE15",
"a$	c #FCFC1B",
"b$	c #F9F721",
"c$	c #EFED28",
"d$	c #DAD82D",
"e$	c #B9B731",
"f$	c #929131",
"g$	c #6E6D2A",
"h$	c #4A491C",
"i$	c #221F06",
"j$	c #0B0700",
"k$	c #090500",
"l$	c #060300",
"m$	c #040200",
"n$	c #1A1A03",
"o$	c #6E6F2A",
"p$	c #B2B44A",
"q$	c #E1E25D",
"r$	c #F6F760",
"s$	c #FAFC54",
"t$	c #F7F940",
"u$	c #F5F82E",
"v$	c #F5F720",
"w$	c #F5F616",
"x$	c #F7F80E",
"y$	c #FAFB0B",
"z$	c #FDFE0F",
"A$	c #FFFE16",
"B$	c #FEFD1F",
"C$	c #FAF92C",
"D$	c #F2F13C",
"E$	c #E6E54B",
"F$	c #D3D351",
"G$	c #B4B349",
"H$	c #848334",
"I$	c #454416",
"J$	c #0D0B00",
"K$	c #0C0A00",
"L$	c #090600",
"M$	c #181503",
"N$	c #626228",
"O$	c #9F9F46",
"P$	c #CACA59",
"Q$	c #E2E25C",
"R$	c #EEEE53",
"S$	c #F3F443",
"T$	c #F6F733",
"U$	c #F6F726",
"V$	c #F5F619",
"W$	c #F7F80D",
"X$	c #FAFB07",
"Y$	c #FDFE0A",
"Z$	c #FEFF10",
"`$	c #FDFE19",
" %	c #FCFD28",
".%	c #FAFB3B",
"+%	c #F7F84C",
"@%	c #EEEF55",
"#%	c #D9DA52",
"$%	c #B8B946",
"%%	c #939438",
"&%	c #707029",
"*%	c #4C4B19",
"=%	c #202005",
"-%	c #070400",
";%	c #120B01",
">%	c #3C3A15",
",%	c #605F28",
"'%	c #828136",
")%	c #A5A53C",
"!%	c #C9C93E",
"~%	c #E4E43C",
"{%	c #F2F337",
"]%	c #F8F92D",
"^%	c #FAFA20",
"/%	c #FCFC15",
"(%	c #FDFE0D",
"_%	c #FEFE0A",
":%	c #FCFE0A",
"<%	c #FAFC0F",
"[%	c #F7FA1A",
"}%	c #F5F829",
"|%	c #F3F737",
"1%	c #EFF542",
"2%	c #E6E953",
"3%	c #D8D954",
"4%	c #B8B949",
"5%	c #858532",
"6%	c #424214",
"7%	c #0A0900",
"8%	c #0D0A00",
"9%	c #0F0C00",
"0%	c #0F0B00",
"a%	c #0D0201",
"b%	c #070000",
"c%	c #262203",
"d%	c #73711F",
"e%	c #B2B237",
"f%	c #DEDD45",
"g%	c #F2F245",
"h%	c #F9F93B",
"i%	c #FAFB2A",
"j%	c #FCFD1C",
"k%	c #FDFE15",
"l%	c #FDFF12",
"m%	c #FCFE0F",
"n%	c #F9FC0D",
"o%	c #F5FA10",
"p%	c #F2F817",
"q%	c #F0F821",
"r%	c #EFF82E",
"s%	c #F2FA40",
"t%	c #F6FC50",
"u%	c #F1F556",
"v%	c #DADE50",
"w%	c #B4B941",
"x%	c #898F30",
"y%	c #646920",
"z%	c #404411",
"A%	c #161801",
"B%	c #010000",
"C%	c #0E0A00",
"D%	c #0B0102",
"E%	c #1A1301",
"F%	c #717027",
"G%	c #B4B345",
"H%	c #E0E056",
"I%	c #F3F357",
"J%	c #F6F84A",
"K%	c #F4F736",
"L%	c #F6F827",
"M%	c #F9FB20",
"N%	c #FCFE1E",
"O%	c #FCFE1A",
"P%	c #FAFE16",
"Q%	c #F8FD14",
"R%	c #F5FC15",
"S%	c #F2FC19",
"T%	c #F0FB21",
"U%	c #F0FB2D",
"V%	c #EFFB38",
"W%	c #EDF841",
"X%	c #E6F147",
"Y%	c #DCE54A",
"Z%	c #C9D248",
"`%	c #A8B03D",
" &	c #767C28",
".&	c #373A0D",
"+&	c #040000",
"@&	c #1F1B05",
"#&	c #656426",
"$&	c #9F9E41",
"%&	c #C7C752",
"&&	c #DDDD56",
"*&	c #E8EA51",
"=&	c #EEF148",
"-&	c #F3F63F",
";&	c #F6F936",
">&	c #F7FA2C",
",&	c #F8FC25",
"'&	c #F9FE20",
")&	c #F9FF1D",
"!&	c #F8FF1B",
"~&	c #F6FE1B",
"{&	c #F4FD1C",
"]&	c #F0FC1D",
"^&	c #EBF920",
"/&	c #E9F82A",
"(&	c #EBF93A",
"_&	c #EDFA48",
":&	c #E6F14E",
"<&	c #CFD94A",
"[&	c #ACB340",
"}&	c #858B34",
"|&	c #626627",
"1&	c #414417",
"2&	c #1C1D05",
"3&	c #0E0404",
"4&	c #0B0200",
"5&	c #140E02",
"6&	c #3C3A13",
"7&	c #5E5D24",
"8&	c #818033",
"9&	c #A6A642",
"0&	c #CBCC51",
"a&	c #E6E759",
"b&	c #F0F357",
"c&	c #F0F34A",
"d&	c #EDF13A",
"e&	c #EFF42E",
"f&	c #F3F929",
"g&	c #F7FD28",
"h&	c #F9FF25",
"i&	c #FBFF23",
"j&	c #F9FE22",
"k&	c #F4FC1D",
"l&	c #EDF91A",
"m&	c #E8F81F",
"n&	c #E9FA2D",
"o&	c #EDFC3C",
"p&	c #EDFA47",
"q&	c #E7F350",
"r&	c #DBE556",
"s&	c #C7CF54",
"t&	c #A4AB46",
"u&	c #71752E",
"v&	c #30320E",
"w&	c #0E0604",
"x&	c #0C0500",
"y&	c #262508",
"z&	c #6A6A2A",
"A&	c #A2A245",
"B&	c #C6C654",
"C&	c #D2D354",
"D&	c #CFD248",
"E&	c #CDD137",
"F&	c #D5DB32",
"G&	c #E4EA36",
"H&	c #F1F73B",
"I&	c #F7FC39",
"J&	c #F9FD33",
"K&	c #F8FC2D",
"L&	c #F5FC2A",
"M&	c #F0FB29",
"N&	c #EDFB2D",
"O&	c #ECFB34",
"P&	c #EDFC3E",
"Q&	c #EFFC4A",
"R&	c #F1FD5A",
"S&	c #F1FA67",
"T&	c #E4EB68",
"U&	c #BFC559",
"V&	c #84893B",
"W&	c #393B14",
"X&	c #0A0502",
"Y&	c #080300",
"Z&	c #020000",
"`&	c #3C3C15",
" *	c #636328",
".*	c #7B7C32",
"+*	c #828332",
"@*	c #7F8129",
"#*	c #868923",
"$*	c #A5A930",
"%*	c #CACF42",
"&*	c #E4EA4D",
"**	c #EDF44B",
"=*	c #EEF542",
"-*	c #ECF539",
";*	c #EEF738",
">*	c #F1FA3C",
",*	c #F2FC42",
"'*	c #F0FA46",
")*	c #EDF84B",
"!*	c #ECF655",
"~*	c #EFF866",
"{*	c #F1F873",
"]*	c #E5EB75",
"^*	c #C1C664",
"/*	c #868943",
"(*	c #3A3C18",
"_*	c #060302",
":*	c #070401",
"<*	c #080600",
"[*	c #0B0900",
"}*	c #0D0C00",
"|*	c #30310B",
"1*	c #707328",
"2*	c #A2A73E",
"3*	c #C1C749",
"4*	c #CCD248",
"5*	c #CBD33F",
"6*	c #C9D335",
"7*	c #CED735",
"8*	c #D7DD40",
"9*	c #D5DB43",
"0*	c #D0D747",
"a*	c #CDD44F",
"b*	c #D0D75D",
"c*	c #D2D869",
"d*	c #C9CD6A",
"e*	c #A9AC5A",
"f*	c #75773C",
"g*	c #323315",
"h*	c #020101",
"i*	c #020100",
"j*	c #0B0A02",
"k*	c #404215",
"l*	c #636624",
"m*	c #787B2B",
"n*	c #7F832A",
"o*	c #7E8424",
"p*	c #7D841E",
"q*	c #81861E",
"r*	c #858922",
"s*	c #878B25",
"t*	c #868927",
"u*	c #828629",
"v*	c #80842F",
"w*	c #828638",
"x*	c #848740",
"y*	c #7E8040",
"z*	c #696B36",
"A*	c #484822",
"B*	c #1E1C0A",
"C*	c #000002",
"D*	c #010001",
"E*	c #030200",
"F*	c #030201",
"G*	c #050202",
"H*	c #050203",
"I*	c #060202",
"J*	c #080401",
"K*	c #0A0300",
"L*	c #090201",
"M*	c #080102",
"N*	c #080103",
"O*	c #070003",
"P*	c #070004",
"Q*	c #070005",
"R*	c #060008",
"S*	c #000103",
"T*	c #000003",
"U*	c #000001",
"V*	c #010101",
"W*	c #010100",
"X*	c #010102",
"Y*	c #020104",
"Z*	c #010006",
"`*	c #000006",
" =	c #000005",
".=	c #000008",
"+=	c #05000B",
"@=	c #06010E",
"#=	c #000202",
"$=	c #000102",
"%=	c #000101",
"&=	c #000201",
"*=	c #000200",
"==	c #000104",
"-=	c #010106",
";=	c #010107",
">=	c #020006",
",=	c #030005",
"'=	c #050003",
")=	c #060001",
"!=	c #080000",
"~=	c #070002",
"{=	c #060007",
"]=	c #06000A",
"  . + @ # $ % & * = - ; > > , , ' ' ) ! ! ~ ~ { ] ^ / / ( _ : < ",
"[ } | 1 2 % 3 4 5 5 5 5 6 7 8 9 0 a b c d e f g h i j k l m n 5 ",
"o p q r s % % t u u 5 5 v w x y z A B C D E E F G H I J K L M 5 ",
"N O P Q R 5 # S T U V W X Y Z `  ...+.@.#.$.%.&.*.=.-.;.>.,.'.5 ",
").!.~.{.].5 ^./.(._.:.<.[.}.|.1.2.3.4.5.6.7.8.9.0.a.b.c.d.e.f.5 ",
"g.h.i.j.k.l.m.n.o.p.q.r.s.t.u.v.w.w.x.y.z.A.B.C.D.E.F.G.H.I.J.5 ",
"K.L.5 M.N.O.P.Q.R.S.T.U.V.W.X.Y.Z.`. +.+++@+#+$+%+&+*+=+-+;+>+5 ",
",+5 5 '+)+!+~+{+]+^+/+(+_+:+<+[+}+|+1+2+3+4+5+6+7+8+9+0+5 5 a+b+",
"c+d+5 e+f+g+h+i+j+k+l+m+n+o+p+q+r+s+t+u+v+w+x+y+z+A+B+C+5 5 D+E+",
"F+G+H+I+J+K+L+M+N+O+P+Q+R+S+T+U+V+W+X+Y+Z+`+ @.@+@5 5 @@#@$@%@&@",
"*@=@-@;@>@,@'@)@!@~@{@]@^@/@(@_@:@<@[@}@|@1@2@3@4@5 5 5@6@7@&@8@",
"9@0@a@b@c@d@e@f@g@h@i@j@k@l@m@n@o@p@q@r@s@t@5 5 u@v@w@x@y@&@z@A@",
"9@B@C@D@E@F@G@H@I@J@K@L@M@N@O@P@Q@R@S@T@U@V@5 5 W@X@Y@Z@`@ #.#+#",
"@###$#%#&#*#=#-#;#>#,#'#)#!#~#{#]#^#/#5 5 (#_#:#<#Y@[#}#|#1#2#3#",
"4#5#6#7#8#9#0#a#b#c#d#e#f#g#h#i#j#k#l#5 5 m#n#o#p#q#r#s#t#u#L.v#",
"w#x#y#z#A#B#C#D#E#F#G#H#I#J#K#L#M#N#O#5 5 P#Q#R#S#T#U#V#W#X#Y#Z#",
"`# $.$+$@$#$$$%$&$*$=$-$;$>$,$'$)$!$~$5 5 {$]$^$/$r ($_$:$; <$X#",
"[$}$|$1$2$3$4$5$6$7$8$9$0$a$b$c$d$e$f$g$h$i$5 5 = _$% t j$k$l$m$",
"n$o$p$q$r$s$t$u$v$w$x$y$z$A$B$C$D$E$F$G$H$I$5 5 J$K$u L$= l$W#d+",
"M$N$O$P$Q$R$S$T$U$V$W$X$Y$Z$`$ %.%+%@%#%$%%%&%*%=%5 5 -%L$L$; l$",
";%>%,%'%)%!%~%{%]%^%/%(%_%:%<%[%}%|%1%2$2%3%4%5%6%5 5 7%8%9%0%j$",
"a%b%5 c%d%e%f%g%h%i%j%k%l%m%n%o%p%q%r%s%t%u%v%w%x%y%z%A%5 B%C%% ",
"D%5 5 E%F%G%H%I%J%K%L%M%N%O%P%Q%R%S%T%U%V%W%X%Y%Z%`% &.&5 5 > ; ",
"X@+&5 @&#&$&%&&&*&=&-&;&>&,&'&)&!&~&{&]&^&/&(&_&:&<&[&}&|&1&2&5 ",
"3&4&5 5&6&7&8&9&0&a&b&c&d&e&f&g&h&i&j&k&l&m&n&o&p&q&r&s&t&u&v&5 ",
"w&]$x&4 5 5 y&z&A&B&C&D&E&F&G&H&I&J&K&L&M&N&O&P&Q&R&S&T&U&V&W&5 ",
"X&* $ Y&5 5 Z&`& *.*+*@*#*$*%*&***=*-*;*>*,*'*)*!*~*{*]*^*/*(*5 ",
"_*:*l$< < < -%<*[*}*5 5 |*1*2*3*4*5*6*7*x+8*9*0*a*b*c*d*e*f*g*5 ",
"Z#h*h*i*d+m$d+5 5 5 5 5 j*k*l*m*n*o*p*q*r*s*t*u*v*w*x*y*z*A*B*5 ",
"C*C*C*D*D*D*i*i*d+E*F*X#G*G*H*I*,+J*2 4 $ 4 4 K*L*L*M*N*O*P*Q*R*",
"S*S*T*T*C*U*V*W*W*W*X*Y*Z*`* =T*C*5 5 5 5 5 5 5 5 5 5 5 T*.=+=@=",
"#=S*S*S*$=%=&=*=*=*=#===-=;=3#>=,='=)=b%b%b%!=W@~=O*Q*{=R*]=+=} "};
