/* XPM */
static char * pac_up_xpm[] = {
"32 32 836 2",
"  	c #010001",
". 	c #020003",
"+ 	c #030005",
"@ 	c #050005",
"# 	c #060003",
"$ 	c #070002",
"% 	c #080001",
"& 	c #070000",
"* 	c #060001",
"= 	c #040006",
"- 	c #03000C",
"; 	c #020011",
"> 	c #010013",
", 	c #000012",
"' 	c #00000F",
") 	c #00010C",
"! 	c #000109",
"~ 	c #000107",
"{ 	c #000106",
"] 	c #000105",
"^ 	c #000103",
"/ 	c #000102",
"( 	c #000201",
"_ 	c #000100",
": 	c #020100",
"< 	c #030000",
"[ 	c #050001",
"} 	c #070101",
"| 	c #080100",
"1 	c #000000",
"2 	c #010000",
"3 	c #070106",
"4 	c #05000C",
"5 	c #030011",
"6 	c #010015",
"7 	c #000014",
"8 	c #01010B",
"9 	c #000207",
"0 	c #000003",
"a 	c #030400",
"b 	c #010200",
"c 	c #010100",
"d 	c #030101",
"e 	c #060000",
"f 	c #242206",
"g 	c #3F3F11",
"h 	c #4E4E1A",
"i 	c #525221",
"j 	c #4E4D22",
"k 	c #3B3918",
"l 	c #1A1607",
"m 	c #06000A",
"n 	c #040011",
"o 	c #020015",
"p 	c #00000E",
"q 	c #000007",
"r 	c #000203",
"s 	c #232608",
"t 	c #404414",
"u 	c #4E5119",
"v 	c #505317",
"w 	c #494C12",
"x 	c #35370A",
"y 	c #141602",
"z 	c #030300",
"A 	c #030200",
"B 	c #030100",
"C 	c #050003",
"D 	c #070103",
"E 	c #4E4E18",
"F 	c #919335",
"G 	c #B2B448",
"H 	c #BCBD57",
"I 	c #B2B25A",
"J 	c #898844",
"K 	c #3F3E1B",
"L 	c #080109",
"M 	c #07020F",
"N 	c #030113",
"O 	c #010111",
"P 	c #000309",
"Q 	c #000001",
"R 	c #5A5F20",
"S 	c #989E3B",
"T 	c #B4BB45",
"U 	c #B9BE42",
"V 	c #AAAE37",
"W 	c #7C7F24",
"X 	c #292B03",
"Y 	c #060400",
"Z 	c #040200",
"` 	c #070105",
" .	c #050004",
"..	c #0D0302",
"+.	c #2D2C07",
"@.	c #505115",
"#.	c #898C2D",
"$.	c #C5C945",
"%.	c #E6EA59",
"&.	c #F1F46C",
"*.	c #E5E66F",
"=.	c #B0B055",
"-.	c #525224",
";.	c #090006",
">.	c #09030C",
",.	c #040110",
"'.	c #01020D",
").	c #000405",
"!.	c #757A28",
"~.	c #C3CB49",
"{.	c #E8EF55",
"].	c #EEF451",
"^.	c #DFE447",
"/.	c #B3B538",
"(.	c #717226",
"_.	c #3F3E16",
":.	c #212006",
"<.	c #0C0204",
"[.	c #160C02",
"}.	c #696B20",
"|.	c #A9AD39",
"1.	c #CFD544",
"2.	c #E6ED45",
"3.	c #F3FA4B",
"4.	c #FAFF5B",
"5.	c #EDF15F",
"6.	c #B4B748",
"7.	c #50511B",
"8.	c #000002",
"9.	c #090207",
"0.	c #04010A",
"a.	c #020208",
"b.	c #000403",
"c.	c #757A1C",
"d.	c #C7CE39",
"e.	c #EEF544",
"f.	c #F9FD42",
"g.	c #F4F642",
"h.	c #E3E34B",
"i.	c #C4C44D",
"j.	c #93923C",
"k.	c #494819",
"l.	c #0F0303",
"m.	c #150B00",
"n.	c #838527",
"o.	c #D0D644",
"p.	c #F2F94B",
"q.	c #F6FF3D",
"r.	c #F4FE33",
"s.	c #F6FF3E",
"t.	c #EBF243",
"u.	c #C0C538",
"v.	c #808224",
"w.	c #4C4C14",
"x.	c #282606",
"y.	c #040005",
"z.	c #070A02",
"A.	c #2C3015",
"B.	c #525727",
"C.	c #90952F",
"D.	c #CDD331",
"E.	c #EFF430",
"F.	c #F9FC2E",
"G.	c #FCFC38",
"H.	c #FAFA50",
"I.	c #EAEA5A",
"J.	c #B6B547",
"K.	c #5A591E",
"L.	c #070600",
"M.	c #0E0303",
"N.	c #81851E",
"O.	c #D1D738",
"P.	c #F3FB3D",
"Q.	c #F5FF2F",
"R.	c #F1FD20",
"S.	c #EFFB23",
"T.	c #E9F32E",
"U.	c #DEE53A",
"V.	c #C8CB3F",
"W.	c #9B9C32",
"X.	c #505015",
"Y.	c #151604",
"Z.	c #646831",
"`.	c #9EA450",
" +	c #C6CB57",
".+	c #E4E848",
"++	c #F5F737",
"@+	c #FAFB2D",
"#+	c #F9FA30",
"$+	c #F7F842",
"%+	c #E7E94A",
"&+	c #B3B43A",
"*+	c #565716",
"=+	c #070700",
"-+	c #181205",
";+	c #42401A",
">+	c #6D6C2C",
",+	c #A2A533",
"'+	c #D6DC33",
")+	c #F0F82D",
"!+	c #F3FD20",
"~+	c #F1FC10",
"{+	c #EFF908",
"]+	c #EEF61C",
"^+	c #F2F839",
"/+	c #EAEE46",
"(+	c #BBBD39",
"_+	c #626219",
":+	c #1C1C05",
"<+	c #7D813B",
"[+	c #C3C95F",
"}+	c #E6EB66",
"|+	c #F3F553",
"1+	c #F8F93A",
"2+	c #F9F92C",
"3+	c #F7F72A",
"4+	c #F4F533",
"5+	c #E8E93A",
"6+	c #C1C434",
"7+	c #888A28",
"8+	c #56581B",
"9+	c #2E300A",
"0+	c #262307",
"a+	c #7B7B34",
"b+	c #BABA52",
"c+	c #DADC54",
"d+	c #E9EE3F",
"e+	c #F1F825",
"f+	c #F5FC15",
"g+	c #F7FE0A",
"h+	c #F8FD03",
"i+	c #F8FC14",
"j+	c #F9FD2E",
"k+	c #EFF239",
"l+	c #BEC02F",
"m+	c #646413",
"n+	c #040000",
"o+	c #1E1E04",
"p+	c #858939",
"q+	c #CFD45B",
"r+	c #F0F461",
"s+	c #F7F84D",
"t+	c #F8F734",
"u+	c #F8F626",
"v+	c #F8F624",
"w+	c #F9F92E",
"x+	c #F5F638",
"y+	c #E6E842",
"z+	c #CBCF45",
"A+	c #9EA137",
"B+	c #56581A",
"C+	c #2A2808",
"D+	c #8F8F3C",
"E+	c #D6D65C",
"F+	c #F2F35E",
"G+	c #F4F844",
"H+	c #F4F922",
"I+	c #F7FD0F",
"J+	c #FAFF07",
"K+	c #FDFF03",
"L+	c #FDFE0F",
"M+	c #FBFD22",
"N+	c #EDEF2B",
"O+	c #BBBD21",
"P+	c #606008",
"Q+	c #141202",
"R+	c #868A2F",
"S+	c #D3D84E",
"T+	c #F4F853",
"U+	c #F9FA42",
"V+	c #F9F82C",
"W+	c #FAF821",
"X+	c #FAF91F",
"Y+	c #FBFB26",
"Z+	c #FAFC32",
"`+	c #F5F942",
" @	c #E5EA4A",
".@	c #B7BC3D",
"+@	c #64671D",
"@@	c #272507",
"#@	c #8D8D37",
"$@	c #D5D456",
"%@	c #F2F358",
"&@	c #F7FA40",
"*@	c #F7FD23",
"=@	c #F8FE0F",
"-@	c #F9FF04",
";@	c #FDFF01",
">@	c #FDFE0A",
",@	c #FAFA1A",
"'@	c #EBEA21",
")@	c #BAB91B",
"!@	c #65620B",
"~@	c #020002",
"{@	c #1B0B01",
"]@	c #282702",
"^@	c #898D1F",
"/@	c #D3D835",
"(@	c #F4F83A",
"_@	c #FBFD30",
":@	c #FDFD24",
"<@	c #FEFD1C",
"[@	c #FDFD19",
"}@	c #FAFD18",
"|@	c #F5FB20",
"1@	c #F1F832",
"2@	c #E3EA3C",
"3@	c #B6BC32",
"4@	c #636716",
"5@	c #252406",
"6@	c #8C8B34",
"7@	c #D3D351",
"8@	c #F2F354",
"9@	c #F9FB3F",
"0@	c #FAFE25",
"a@	c #F9FE11",
"b@	c #F9FD03",
"c@	c #FCFE00",
"d@	c #FEFE07",
"e@	c #FBFA14",
"f@	c #F1EE22",
"g@	c #D4D033",
"h@	c #A8A43D",
"i@	c #797533",
"j@	c #4D4819",
"k@	c #575608",
"l@	c #868815",
"m@	c #B7B91D",
"n@	c #E2E523",
"o@	c #F7FA24",
"p@	c #FBFB1F",
"q@	c #FCFB19",
"r@	c #FEFC14",
"s@	c #FEFD10",
"t@	c #FBFD09",
"u@	c #F6FC12",
"v@	c #F2F928",
"w@	c #E4EC33",
"x@	c #B7BE2B",
"y@	c #646812",
"z@	c #272606",
"A@	c #8D8D34",
"B@	c #D4D451",
"C@	c #F4F454",
"D@	c #FBFC40",
"E@	c #FCFD27",
"F@	c #FAFC14",
"G@	c #F9FB04",
"H@	c #FCFD00",
"I@	c #FEFC12",
"J@	c #FBF729",
"K@	c #F6F14B",
"L@	c #E7E25D",
"M@	c #BAB451",
"N@	c #736F2B",
"O@	c #878813",
"P@	c #C9CC24",
"Q@	c #EAEC28",
"R@	c #F7F822",
"S@	c #FBFB1B",
"T@	c #F9F712",
"U@	c #F9F509",
"V@	c #FCF807",
"W@	c #FEFC07",
"X@	c #FDFD04",
"Y@	c #FAFD10",
"Z@	c #F6FD27",
"`@	c #E8F132",
" #	c #BAC22A",
".#	c #666A12",
"+#	c #282706",
"@#	c #D4D452",
"##	c #F3F255",
"$#	c #F9F840",
"%#	c #FAF928",
"&#	c #FAFA17",
"*#	c #FBFB0A",
"=#	c #FDFD05",
"-#	c #FFFE0B",
";#	c #FFFC11",
">#	c #FEF928",
",#	c #FFF849",
"'#	c #F8EF5C",
")#	c #CAC150",
"!#	c #7E782A",
"~#	c #989814",
"{#	c #DFE124",
"]#	c #FAFC26",
"^#	c #FBFC1C",
"/#	c #F9F810",
"(#	c #F9F505",
"_#	c #FAF503",
":#	c #FDF90A",
"<#	c #FEFC0E",
"[#	c #FBFC07",
"}#	c #F7FB0F",
"|#	c #F5FC27",
"1#	c #EAF233",
"2#	c #BDC42B",
"3#	c #686B12",
"4#	c #292707",
"5#	c #D4D355",
"6#	c #F1F058",
"7#	c #F4F342",
"8#	c #F6F428",
"9#	c #FAF91A",
"0#	c #FEFD12",
"a#	c #FFFE0E",
"b#	c #FFFE0F",
"c#	c #FEFB11",
"d#	c #FDF620",
"e#	c #FDF239",
"f#	c #F3E647",
"g#	c #C5B93D",
"h#	c #7C741F",
"i#	c #99980F",
"j#	c #E0E01C",
"k#	c #F9F91D",
"l#	c #F6F711",
"m#	c #F5F504",
"n#	c #FAF701",
"o#	c #FEFA06",
"p#	c #FFFC13",
"q#	c #FDFC18",
"r#	c #F7FA0F",
"s#	c #F1F711",
"t#	c #F3F92A",
"u#	c #EBF137",
"v#	c #BFC42F",
"w#	c #696C15",
"x#	c #282609",
"y#	c #908F3F",
"z#	c #D8D761",
"A#	c #F4F364",
"B#	c #F5F44B",
"C#	c #F6F52E",
"D#	c #FBFA1F",
"E#	c #FFFD17",
"F#	c #FFFE10",
"G#	c #FEFC0F",
"H#	c #FDF90F",
"I#	c #FDF51A",
"J#	c #FDF330",
"K#	c #F5E83C",
"L#	c #C6BA33",
"M#	c #797119",
"N#	c #949207",
"O#	c #DCDB12",
"P#	c #F7F713",
"Q#	c #F8F80A",
"R#	c #F8F803",
"S#	c #FCFB01",
"T#	c #FEFB05",
"U#	c #FCF90E",
"V#	c #F8F713",
"W#	c #F6F810",
"X#	c #F4F91C",
"Y#	c #F7FC37",
"Z#	c #EFF345",
"`#	c #C1C63A",
" $	c #6A6D1B",
".$	c #24230A",
"+$	c #8B8A42",
"@$	c #D2D066",
"#$	c #EFEE69",
"$$	c #F5F451",
"%$	c #F7F733",
"&$	c #FCFC23",
"*$	c #FEFE19",
"=$	c #FDFC10",
"-$	c #FCFA0C",
";$	c #FCF80D",
">$	c #FDF718",
",$	c #FFF82B",
"'$	c #F9F035",
")$	c #CFC72E",
"!$	c #8D8816",
"~$	c #9E9C03",
"{$	c #DBD907",
"]$	c #F6F509",
"^$	c #FCFB08",
"/$	c #FEFE06",
"($	c #FFFF04",
"_$	c #FDFC03",
":$	c #F8F504",
"<$	c #F5F20B",
"[$	c #F7F615",
"}$	c #F8FA27",
"|$	c #F5F940",
"1$	c #E7EB4D",
"2$	c #BABD41",
"3$	c #65671F",
"4$	c #1A1806",
"5$	c #666531",
"6$	c #9F9E4D",
"7$	c #C7C653",
"8$	c #E6E646",
"9$	c #F7F735",
"0$	c #FBFC25",
"a$	c #FBFC15",
"b$	c #FAFA0C",
"c$	c #FAF80B",
"d$	c #FBF90E",
"e$	c #FEFA16",
"f$	c #FFFA21",
"g$	c #FCF628",
"h$	c #E7E223",
"i$	c #CDCA15",
"j$	c #D1CF09",
"k$	c #EAE806",
"l$	c #F8F705",
"m$	c #FDFD06",
"n$	c #FFFF06",
"o$	c #FFFF05",
"p$	c #FEFE05",
"q$	c #FBF908",
"r$	c #F8F514",
"s$	c #F7F522",
"t$	c #F0F02E",
"u$	c #D9DB38",
"v$	c #B7BA3C",
"w$	c #8A8D30",
"x$	c #4B4C16",
"y$	c #0B0601",
"z$	c #1A150B",
"A$	c #413F1A",
"B$	c #908F2A",
"C$	c #D5D539",
"D$	c #F6F63B",
"E$	c #FBFC2C",
"F$	c #F9FB19",
"G$	c #F8F810",
"H$	c #F8F70F",
"I$	c #FBFA12",
"J$	c #FEFD16",
"K$	c #FEFC18",
"L$	c #FDFA18",
"M$	c #FAF716",
"N$	c #F7F513",
"O$	c #F7F60F",
"P$	c #F8F809",
"Q$	c #FBFB06",
"R$	c #FEFF06",
"S$	c #FEFE0D",
"T$	c #FCFB27",
"U$	c #F8F63A",
"V$	c #E7E541",
"W$	c #B8B635",
"X$	c #6C6C1D",
"Y$	c #2B2B09",
"Z$	c #191803",
"`$	c #050000",
" %	c #7F7F23",
".%	c #D0D141",
"+%	c #F5F649",
"@%	c #FCFD3C",
"#%	c #FCFD2B",
"$%	c #FBFB20",
"%%	c #FAF919",
"&%	c #FCFC19",
"*%	c #FFFF19",
"=%	c #FFFE16",
"-%	c #FEFD11",
";%	c #FCFB0E",
">%	c #FAFA0B",
",%	c #FCFC0B",
"'%	c #FDFD0A",
")%	c #FCFE09",
"!%	c #FBFD08",
"~%	c #FBFB09",
"{%	c #FBFB18",
"]%	c #FEFD2A",
"^%	c #FEFD40",
"/%	c #FCFA59",
"(%	c #ECE862",
"_%	c #B6B24E",
":%	c #555220",
"<%	c #050100",
"[%	c #0F0901",
"}%	c #777727",
"|%	c #BFC044",
"1%	c #E5E64E",
"2%	c #F6F649",
"3%	c #FCFC40",
"4%	c #FBFB32",
"5%	c #F9F923",
"6%	c #FAFB1C",
"7%	c #FDFD1B",
"8%	c #FEFE17",
"9%	c #FEFE11",
"0%	c #FAFB0B",
"a%	c #F5F706",
"b%	c #F6F806",
"c%	c #FAFB0A",
"d%	c #FBFD0B",
"e%	c #FAFD0C",
"f%	c #F8FB11",
"g%	c #F8F81A",
"h%	c #F8F72B",
"i%	c #FBF93F",
"j%	c #FAF852",
"k%	c #F4F066",
"l%	c #E1DB6C",
"m%	c #AEA856",
"n%	c #575326",
"o%	c #050300",
"p%	c #0A0500",
"q%	c #4E4E17",
"r%	c #82822C",
"s%	c #B3B340",
"t%	c #E1E152",
"u%	c #F9F855",
"v%	c #F7F744",
"w%	c #F1F22A",
"x%	c #F2F41B",
"y%	c #F5F817",
"z%	c #F9FC12",
"A%	c #FDFE10",
"B%	c #FDFE0E",
"C%	c #FAFB0D",
"D%	c #F7FA09",
"E%	c #F3F906",
"F%	c #F2F905",
"G%	c #F4FB0C",
"H%	c #F6FB1E",
"I%	c #F8F831",
"J%	c #F8F543",
"K%	c #F6F257",
"L%	c #EBE660",
"M%	c #CDC85B",
"N%	c #A49F4F",
"O%	c #757139",
"P%	c #3C3818",
"Q%	c #020001",
"R%	c #060200",
"S%	c #1A1802",
"T%	c #73722B",
"U%	c #BDBC4D",
"V%	c #DEDE57",
"W%	c #DCDC45",
"X%	c #D8D92A",
"Y%	c #EFF227",
"Z%	c #F6F925",
"`%	c #FAFC22",
" &	c #FBFD1F",
".&	c #FAFC1D",
"+&	c #F5FA19",
"@&	c #EEF717",
"#&	c #EEF81E",
"$&	c #F3FA28",
"%&	c #F2F732",
"&&	c #E9EA3A",
"*&	c #E1DE47",
"=&	c #DCD558",
"-&	c #CAC25C",
";&	c #999246",
">&	c #4D481F",
",&	c #0B0000",
"'&	c #150E02",
")&	c #0C0600",
"!&	c #020300",
"~&	c #010002",
"{&	c #040100",
"]&	c #414016",
"^&	c #797830",
"/&	c #919037",
"(&	c #8E8E2A",
"_&	c #9B9C20",
":&	c #C8CA32",
"<&	c #EAED40",
"[&	c #F5F840",
"}&	c #F2F734",
"|&	c #EFF52D",
"1&	c #EDF52B",
"2&	c #EEF72E",
"3&	c #F2FB3A",
"4&	c #F7FD47",
"5&	c #E9ED48",
"6&	c #C0C139",
"7&	c #98962F",
"8&	c #8D8837",
"9&	c #837C3A",
"0&	c #5E5829",
"a&	c #1F1705",
"b&	c #0A0602",
"c&	c #070701",
"d&	c #050700",
"e&	c #050200",
"f&	c #090500",
"g&	c #0F0A00",
"h&	c #141102",
"i&	c #161402",
"j&	c #525313",
"k&	c #A0A132",
"l&	c #CDCF42",
"m&	c #D8DB42",
"n&	c #D5D93B",
"o&	c #D1D734",
"p&	c #CCD42E",
"q&	c #CDD52C",
"r&	c #D2DA30",
"s&	c #D9E03C",
"t&	c #DDE24A",
"u&	c #C9CC47",
"v&	c #8C8D2F",
"w&	c #343209",
"x&	c #1B1303",
"y&	c #150C03",
"z&	c #0F0403",
"A&	c #0A0106",
"B&	c #070108",
"C&	c #050306",
"D&	c #050602",
"E&	c #060A01",
"F&	c #60601B",
"G&	c #7E7F26",
"H&	c #858726",
"I&	c #838622",
"J&	c #80841D",
"K&	c #7D8219",
"L&	c #7F8317",
"M&	c #83881A",
"N&	c #878B22",
"O&	c #898B2B",
"P&	c #7B7C29",
"Q&	c #515119",
"R&	c #0C0400",
"S&	c #090002",
"T&	c #080008",
"U&	c #07000E",
"V&	c #050011",
"W&	c #04010D",
"X&	c #030305",
"Y&	c #050904",
"Z&	c #000200",
"`&	c #010201",
" *	c #040203",
".*	c #060204",
"+*	c #060203",
"@*	c #070102",
"#*	c #070202",
"$*	c #0B0501",
"%*	c #090301",
"&*	c #020000",
"**	c #140B00",
"=*	c #170D02",
"-*	c #100707",
";*	c #07010D",
">*	c #050114",
",*	c #060217",
"'*	c #040213",
")*	c #020309",
"!*	c #040806",
"~*	c #000300",
"{*	c #020303",
"]*	c #050507",
"^*	c #070509",
"/*	c #050307",
"(*	c #030105",
"_*	c #040105",
":*	c #020004",
"<*	c #000005",
"[*	c #000004",
"}*	c #070100",
"|*	c #0B0300",
"1*	c #0B0402",
"2*	c #070208",
"3*	c #060317",
"4*	c #08061B",
"5*	c #060617",
"6*	c #02050E",
"7*	c #010607",
"8*	c #000301",
"9*	c #020402",
"0*	c #040506",
"a*	c #050508",
"b*	c #030206",
"c*	c #010105",
"d*	c #030003",
"e*	c #030103",
"f*	c #050203",
"g*	c #070404",
"h*	c #070403",
"i*	c #050301",
"j*	c #020105",
"k*	c #030107",
"l*	c #050208",
"m*	c #060306",
"n*	c #060303",
"o*	c #030002",
"p*	c #020007",
"q*	c #01010E",
"r*	c #040315",
"s*	c #060518",
"t*	c #050615",
"u*	c #02050D",
"v*	c #000506",
"w*	c #000302",
"x*	c #000400",
"y*	c #000401",
"z*	c #010302",
"A*	c #010202",
"B*	c #000101",
"C*	c #010101",
"D*	c #020201",
"E*	c #020301",
"F*	c #040501",
"G*	c #040503",
"H*	c #020305",
"I*	c #010206",
"J*	c #030407",
"K*	c #050405",
"L*	c #050502",
"M*	c #050400",
"N*	c #020101",
"O*	c #010004",
"P*	c #000008",
"Q*	c #01010C",
"R*	c #02020F",
"S*	c #01030D",
"T*	c #000409",
"U*	c #000505",
"V*	c #010300",
"W*	c #020400",
"X*	c #030500",
"Y*	c #030601",
"Z*	c #020502",
"`*	c #010404",
" =	c #000305",
".=	c #030304",
"+=	c #030402",
"@=	c #020200",
"#=	c #000104",
"$=	c #010207",
"%=	c #02040A",
"&=	c #010408",
"  . + @ # $ $ % % & & * = - ; > , ' ) ! ~ { ] ^ / ( ( ( _ _ _ _ ",
": < [ } | 1 1 1 1 1 1 2 3 4 5 6 7 ' 8 9 0 1 1 1 1 1 1 a b b c c ",
"d [ e e & f g h i j k l . m n o > p q r s t u v w x y 1 z A B : ",
"C D % 1 1 E F G H I J K 1 L M N O P Q _ R S T U V W X 1 1 Y Z : ",
"`  ...+.@.#.$.%.&.*.=.-.1 ;.>.,.'.).1 1 !.~.{.].^./.(._.:.1 Z A ",
"<.Q [.}.|.1.2.3.4.5.6.7.1 8.9.0.a.b.1 1 c.d.e.f.g.h.i.j.k.1 B Y ",
"l.1 m.n.o.p.q.r.s.t.u.v.w.x.8.y.0 z.A.B.C.D.E.F.G.H.I.J.K.1 1 L.",
"M.1 1 N.O.P.Q.R.S.T.U.V.W.X.1   1 Y.Z.`. +.+++@+#+$+%+&+*+1 1 =+",
"-+;+>+,+'+)+!+~+{+]+^+/+(+_+1 2 1 :+<+[+}+|+1+2+3+4+5+6+7+8+9+1 ",
"0+a+b+c+d+e+f+g+h+i+j+k+l+m+1 n+1 o+p+q+r+s+t+u+v+w+x+y+z+A+B+1 ",
"C+D+E+F+G+H+I+J+K+L+M+N+O+P+1 & 1 Q+R+S+T+U+V+W+X+Y+Z+`+ @.@+@1 ",
"@@#@$@%@&@*@=@-@;@>@,@'@)@!@~@{@2 ]@^@/@(@_@:@<@[@}@|@1@2@3@4@1 ",
"5@6@7@8@9@0@a@b@c@d@e@f@g@h@i@j@k@l@m@n@o@p@q@r@s@t@u@v@w@x@y@1 ",
"z@A@B@C@D@E@F@G@H@d@I@J@K@L@M@N@O@P@Q@R@S@T@U@V@W@X@Y@Z@`@ #.#1 ",
"+#A@@###$#%#&#*#=#-#;#>#,#'#)#!#~#{#]#^#/#(#_#:#<#[#}#|#1#2#3#1 ",
"4##@5#6#7#8#9#0#a#b#c#d#e#f#g#h#i#j#k#l#m#n#o#p#q#r#s#t#u#v#w#1 ",
"x#y#z#A#B#C#D#E#F#G#H#I#J#K#L#M#N#O#P#Q#R#S#T#U#V#W#X#Y#Z#`# $1 ",
".$+$@$#$$$%$&$*$=$-$;$>$,$'$)$!$~${$]$^$/$($_$:$<$[$}$|$1$2$3$1 ",
"4$5$6$7$8$9$0$a$b$c$d$e$f$g$h$i$j$k$l$m$n$o$p$q$r$s$t$u$v$w$x$1 ",
"y$z$A$B$C$D$E$F$G$H$I$J$K$L$M$N$O$P$Q$m$R$/$S$*$T$U$V$W$X$Y$Z$< ",
"`$1 1  %.%+%@%#%$%%%&%*%=%-%;%b$>%,%'%)%!%~%{%]%^%/%(%_%:%1 1 Y ",
"<%1 [%}%|%1%2%3%4%5%6%7%8%9%0%a%b%c%d%e%f%g%h%i%j%k%l%m%n%1 1 o%",
"< 1 p%q%r%s%t%u%v%w%x%y%z%A%B%C%D%E%F%G%H%I%J%K%L%M%N%O%P%1 B A ",
"Q%< R%1 S%T%U%V%W%X%n@Y%Z%`% &.&+&@&#&$&%&&&*&=&-&;&>&,&'&)&Y !&",
"~&B {&1 1 ]&^&/&(&_&:&<&[&(@}&|&1&2&3&4&5&6&7&8&9&0&a&1 * b&c&d&",
"Q c : e&f&g&h&i&1 j&k&l&m&n&o&p&q&r&s&t&u&v&w&1 x&y&z&A&B&C&D&E&",
"_ _ c A e&2 1 1 1 4#F&G&H&I&J&K&L&M&N&O&P&Q&R&1 & S&T&U&V&W&X&Y&",
"Z&Z&Z&`& *.*+*@*#*[ Q 1 1 Q 1 1 < $*%*Q 1 &*R&**=*-*;*>*,*'*)*!*",
"~*Z&Z&{*]*^*/*(*_*:*0 8.8.0 8.1 Q 0 <*[*0 Q }*|*1*2*,.3*4*5*6*7*",
"8*~*~*9*0*a*b*c*:*. d*e*f*g*h*i* *j*k*l*m*n*R%{&o*p*q*r*s*t*u*v*",
"w*~*x*y*z*z*A*B*B*C*C*`&D*E*F*D&G*H*I*J*K*L*M*A N*O*P*Q*R*S*T*U*",
"r ~*x*x*8*( Z&_ b b b b V*W*X*Y*Z*`* =H*.=+=z @=c 8.#=$=%=&=).b."};
