/* XPM */
static char * pac_left_xpm[] = {
"32 32 888 2",
"  	c #000100",
". 	c #010200",
"+ 	c #030300",
"@ 	c #040400",
"# 	c #050300",
"$ 	c #050200",
"% 	c #080501",
"& 	c #151304",
"* 	c #222109",
"= 	c #28270C",
"- 	c #27260C",
"; 	c #25230B",
"> 	c #24220A",
", 	c #272409",
"' 	c #2A2709",
") 	c #2B280A",
"! 	c #29260B",
"~ 	c #1B1906",
"{ 	c #0E0C02",
"] 	c #040300",
"^ 	c #040200",
"/ 	c #030100",
"( 	c #030001",
"_ 	c #030003",
": 	c #030005",
"< 	c #020008",
"[ 	c #01000A",
"} 	c #010100",
"| 	c #020300",
"1 	c #040500",
"2 	c #020200",
"3 	c #000000",
"4 	c #414122",
"5 	c #72723D",
"6 	c #898949",
"7 	c #8D8D4A",
"8 	c #8C8B46",
"9 	c #8B8A43",
"0 	c #8B8941",
"a 	c #8D8A3F",
"b 	c #908D40",
"c 	c #928E41",
"d 	c #928F44",
"e 	c #888741",
"f 	c #6A6832",
"g 	c #313015",
"h 	c #030000",
"i 	c #050102",
"j 	c #030004",
"k 	c #030008",
"l 	c #02000C",
"m 	c #01000D",
"n 	c #050700",
"o 	c #090A01",
"p 	c #0D0D01",
"q 	c #171804",
"r 	c #6C6D38",
"s 	c #ADAE5E",
"t 	c #CDCF70",
"u 	c #D4D470",
"v 	c #D3D26B",
"w 	c #D2D167",
"x 	c #D2D063",
"y 	c #D4D162",
"z 	c #D8D462",
"A 	c #DAD663",
"B 	c #DAD767",
"C 	c #CECC64",
"D 	c #A3A24F",
"E 	c #5A5927",
"F 	c #0C0C01",
"G 	c #080701",
"H 	c #060300",
"I 	c #040100",
"J 	c #040002",
"K 	c #030007",
"L 	c #03000D",
"M 	c #020010",
"N 	c #212305",
"O 	c #55581D",
"P 	c #74782A",
"Q 	c #7C8128",
"R 	c #828825",
"S 	c #A3A840",
"T 	c #CFD461",
"U 	c #EAED72",
"V 	c #F1F372",
"W 	c #F1F26D",
"X 	c #F1F169",
"Y 	c #F1F066",
"Z 	c #F2F164",
"` 	c #F5F263",
" .	c #F6F365",
"..	c #F7F56A",
"+.	c #EDEC68",
"@.	c #CACA56",
"#.	c #9A9B3B",
"$.	c #7F8230",
"%.	c #7C7E36",
"&.	c #6E7033",
"*.	c #494A20",
"=.	c #0D0C02",
"-.	c #020000",
";.	c #050106",
">.	c #04000D",
",.	c #030011",
"'.	c #414413",
").	c #8C9136",
"!.	c #BAC148",
"~.	c #CBD248",
"{.	c #CED73E",
"].	c #D7E03F",
"^.	c #E4EC4A",
"/.	c #EEF552",
"(.	c #F4F952",
"_.	c #F8FB50",
":.	c #F9FB4E",
"<.	c #FAFB4B",
"[.	c #F9F949",
"}.	c #F8F847",
"|.	c #F8F749",
"1.	c #F9F94E",
"2.	c #F5F651",
"3.	c #E7E94E",
"4.	c #D6DA4C",
"5.	c #CED253",
"6.	c #C8CC5C",
"7.	c #B1B456",
"8.	c #7B7D3A",
"9.	c #292A0E",
"0.	c #060205",
"a.	c #04010B",
"b.	c #020100",
"c.	c #2E2F10",
"d.	c #515423",
"e.	c #7F8335",
"f.	c #B6BC48",
"g.	c #DEE654",
"h.	c #EDF651",
"i.	c #EFFA44",
"j.	c #F0FB38",
"k.	c #F0FA2E",
"l.	c #F1F928",
"m.	c #F4FB28",
"n.	c #F8FD2A",
"o.	c #F9FE2B",
"p.	c #FAFD2A",
"q.	c #F9FB27",
"r.	c #F7F923",
"s.	c #F6F824",
"t.	c #F7F92A",
"u.	c #F8FA34",
"v.	c #F5F940",
"w.	c #F2F64D",
"x.	c #F0F55B",
"y.	c #ECF166",
"z.	c #D8DC63",
"A.	c #ACAF4E",
"B.	c #777933",
"C.	c #4D4E1E",
"D.	c #27270C",
"E.	c #000002",
"F.	c #030009",
"G.	c #050011",
"H.	c #565825",
"I.	c #949846",
"J.	c #BEC356",
"K.	c #D9E057",
"L.	c #EAF451",
"M.	c #F0FC46",
"N.	c #F0FE37",
"O.	c #F1FE28",
"P.	c #F4FD1C",
"Q.	c #F6FC12",
"R.	c #F5FB11",
"S.	c #F3FB13",
"T.	c #F4FB14",
"U.	c #F5FB13",
"V.	c #F5F911",
"W.	c #F5F80C",
"X.	c #F5F80E",
"Y.	c #F8FB16",
"Z.	c #F9FC21",
"`.	c #F7FB2E",
" +	c #F3F93C",
".+	c #F4F94B",
"++	c #F4FA59",
"@+	c #EDF25F",
"#+	c #DBDF5E",
"$+	c #BFC255",
"%+	c #8F913F",
"&+	c #47481B",
"*+	c #000005",
"=+	c #08000F",
"-+	c #696C30",
";+	c #B4B957",
">+	c #DFE469",
",+	c #EDF562",
"'+	c #F1FA51",
")+	c #F0FC3F",
"!+	c #EDFB2B",
"~+	c #EFFB18",
"{+	c #F6FD10",
"]+	c #FAFE0D",
"^+	c #F6FC09",
"/+	c #F2FA06",
"(+	c #F2F905",
"_+	c #F4F905",
":+	c #F5F904",
"<+	c #F5F803",
"[+	c #F6F905",
"}+	c #F9FB0A",
"|+	c #FAFD11",
"1+	c #F6FA19",
"2+	c #F2F724",
"3+	c #F3F935",
"4+	c #F6FC46",
"5+	c #F7FC54",
"6+	c #F4F960",
"7+	c #E1E55F",
"8+	c #ABAF49",
"9+	c #555720",
"0+	c #0A010E",
"a+	c #6D6F33",
"b+	c #BABE5D",
"c+	c #E6EA70",
"d+	c #F5FA6B",
"e+	c #F8FE5A",
"f+	c #F4FD46",
"g+	c #EDF92E",
"h+	c #EEF915",
"i+	c #F6FC0E",
"j+	c #FBFF0D",
"k+	c #FBFE08",
"l+	c #F8FC04",
"m+	c #F8FC03",
"n+	c #F9FC04",
"o+	c #FAFC04",
"p+	c #FAFB04",
"q+	c #FAFB03",
"r+	c #F9FB06",
"s+	c #F7FB0C",
"t+	c #F6FB17",
"u+	c #F6FC25",
"v+	c #F6FD32",
"w+	c #F6FD40",
"x+	c #F3FA4C",
"y+	c #E1E64C",
"z+	c #AAAF3A",
"A+	c #505216",
"B+	c #0A000C",
"C+	c #666731",
"D+	c #AEB059",
"E+	c #D8DB6B",
"F+	c #E8EB68",
"G+	c #EDF05B",
"H+	c #EEF34B",
"I+	c #EBF438",
"J+	c #EEF627",
"K+	c #F6FA20",
"L+	c #FBFD1C",
"M+	c #FDFE17",
"N+	c #FDFE13",
"O+	c #FDFD0F",
"P+	c #FDFD0D",
"Q+	c #FDFC0B",
"R+	c #FDFD0B",
"S+	c #FCFC0A",
"T+	c #FAFB07",
"U+	c #F9FA06",
"V+	c #FAFD10",
"W+	c #F8FE17",
"X+	c #F6FD1E",
"Y+	c #F3FB26",
"Z+	c #F0F72E",
"`+	c #DFE530",
" @	c #B2B728",
".@	c #71731B",
"+@	c #3C3C0E",
"@@	c #232006",
"#@	c #09000B",
"$@	c #4C4D23",
"%@	c #848642",
"&@	c #A5A751",
"*@	c #B0B24E",
"=@	c #B9BB46",
"-@	c #CED144",
";@	c #E5EA45",
">@	c #F2F742",
",@	c #F8FA39",
"'@	c #FBFC30",
")@	c #FDFD2A",
"!@	c #FEFD25",
"~@	c #FBFA1B",
"{@	c #F7F60E",
"]@	c #F7F507",
"^@	c #F9F709",
"/@	c #FBF80C",
"(@	c #FBFA0C",
"_@	c #FBFB0B",
":@	c #FBFC0A",
"<@	c #FAFD09",
"[@	c #F8FD0A",
"}@	c #F5FC0E",
"|@	c #F4FB15",
"1@	c #F4FA1E",
"2@	c #EDF028",
"3@	c #D6D832",
"4@	c #B4B636",
"5@	c #8A8B2C",
"6@	c #525116",
"7@	c #060008",
"8@	c #050100",
"9@	c #22210B",
"0@	c #3D3D1A",
"a@	c #4D4E21",
"b@	c #4C4D1E",
"c@	c #626320",
"d@	c #9FA037",
"e@	c #D4D54B",
"f@	c #EBEC4E",
"g@	c #EDEE45",
"h@	c #EDED39",
"i@	c #F0EF32",
"j@	c #F1F02E",
"k@	c #F1EE2B",
"l@	c #F0EC29",
"m@	c #F2ED28",
"n@	c #F6F026",
"o@	c #F9F424",
"p@	c #FCF821",
"q@	c #FDFB1C",
"r@	c #FDFC15",
"s@	c #FBFC0C",
"t@	c #F8FC05",
"u@	c #F6FC06",
"v@	c #F6FD0E",
"w@	c #FAFD19",
"x@	c #F9FA29",
"y@	c #F2F33C",
"z@	c #DFE145",
"A@	c #B5B63A",
"B@	c #6B6B1F",
"C@	c #040005",
"D@	c #060100",
"E@	c #120E00",
"F@	c #707026",
"G@	c #A6A63C",
"H@	c #BBBB40",
"I@	c #BDBD38",
"J@	c #BCBB2E",
"K@	c #BCBB26",
"L@	c #C4C22B",
"M@	c #D8D440",
"N@	c #EEE852",
"O@	c #F9F156",
"P@	c #FCF350",
"Q@	c #FDF448",
"R@	c #FFF83E",
"S@	c #FFFB34",
"T@	c #FFFD27",
"U@	c #FDFD19",
"V@	c #FBFE0D",
"W@	c #F9FE07",
"X@	c #F9FE08",
"Y@	c #FAFE10",
"Z@	c #F9FC22",
"`@	c #F6F838",
" #	c #E9EA42",
".#	c #BEBF38",
"+#	c #71711D",
"@#	c #040004",
"##	c #040001",
"$#	c #050000",
"%#	c #060000",
"&#	c #070000",
"*#	c #140E01",
"=#	c #3B390F",
"-#	c #57561A",
";#	c #62611D",
">#	c #636218",
",#	c #636112",
"'#	c #5E5C05",
")#	c #777321",
"!#	c #B3AE4C",
"~#	c #E5DD68",
"{#	c #F8EE6E",
"]#	c #F9EE66",
"^#	c #F9ED5A",
"/#	c #F9EE4E",
"(#	c #FAF140",
"_#	c #FCF732",
":#	c #FDFC22",
"<#	c #FEFE14",
"[#	c #FEFE0C",
"}#	c #FCFE06",
"|#	c #F9FD06",
"1#	c #F6FA17",
"2#	c #F3F62D",
"3#	c #E6E837",
"4#	c #BCBD2F",
"5#	c #707018",
"6#	c #050003",
"7#	c #020003",
"8#	c #080203",
"9#	c #0A0204",
"0#	c #0B0302",
"a#	c #332B16",
"b#	c #867F40",
"c#	c #B9B15A",
"d#	c #CCC360",
"e#	c #CCC158",
"f#	c #CBBF4E",
"g#	c #CABF43",
"h#	c #D1C837",
"i#	c #E3DD2B",
"j#	c #F5F11F",
"k#	c #FDFA13",
"l#	c #FFFC0A",
"m#	c #FEFD03",
"n#	c #FBFD01",
"o#	c #F8FB12",
"p#	c #F6F828",
"q#	c #E9EA33",
"r#	c #BEBF2B",
"s#	c #727115",
"t#	c #010004",
"u#	c #030105",
"v#	c #070206",
"w#	c #090307",
"x#	c #090204",
"y#	c #080001",
"z#	c #040000",
"A#	c #0B0000",
"B#	c #271D08",
"C#	c #544E22",
"D#	c #736D32",
"E#	c #7E7835",
"F#	c #7E7730",
"G#	c #7D752A",
"H#	c #7A7323",
"I#	c #90891C",
"J#	c #C2BB18",
"K#	c #EBE415",
"L#	c #FBF510",
"M#	c #FEFA09",
"N#	c #FFFC04",
"O#	c #FEFE02",
"P#	c #FCFD12",
"Q#	c #FAFB28",
"R#	c #EDEE32",
"S#	c #C2C22B",
"T#	c #747315",
"U#	c #000103",
"V#	c #020104",
"W#	c #050206",
"X#	c #070306",
"Y#	c #070304",
"Z#	c #050001",
"`#	c #241C04",
" $	c #64621D",
".$	c #8C8B2C",
"+$	c #9B9A2E",
"@$	c #9B9B27",
"#$	c #99981E",
"$$	c #959315",
"%$	c #A39F0D",
"&$	c #CBC40E",
"*$	c #EEE512",
"=$	c #FCF415",
"-$	c #FEFA17",
";$	c #FEFC14",
">$	c #FAFA12",
",$	c #FAFA28",
"'$	c #EFEF32",
")$	c #C4C42B",
"!$	c #767415",
"~$	c #0B0001",
"{$	c #000201",
"]$	c #010301",
"^$	c #020302",
"/$	c #040402",
"($	c #040301",
"_$	c #060501",
":$	c #0F0D02",
"<$	c #171504",
"[$	c #1C1A04",
"}$	c #201D03",
"|$	c #201D02",
"1$	c #494811",
"2$	c #999932",
"3$	c #D0D046",
"4$	c #E4E448",
"5$	c #E5E53E",
"6$	c #E2E131",
"7$	c #DFDD25",
"8$	c #E0DD19",
"9$	c #ECE514",
"0$	c #F9F016",
"a$	c #FEF71D",
"b$	c #FFFC23",
"c$	c #FCFC20",
"d$	c #F8F813",
"e$	c #F5F613",
"f$	c #F7F829",
"g$	c #EFEF34",
"h$	c #C5C42C",
"i$	c #777516",
"j$	c #130000",
"k$	c #000300",
"l$	c #070804",
"m$	c #4C4D21",
"n$	c #737433",
"o$	c #838438",
"p$	c #858532",
"q$	c #85862B",
"r$	c #868725",
"s$	c #989928",
"t$	c #C5C63A",
"u$	c #EDEE48",
"v$	c #FDFE49",
"w$	c #FCFD3E",
"x$	c #FAFB31",
"y$	c #FAF925",
"z$	c #FAF81B",
"A$	c #FCF717",
"B$	c #FEF818",
"C$	c #FEF81D",
"D$	c #FCF923",
"E$	c #F9F820",
"F$	c #F7F716",
"G$	c #F6F61A",
"H$	c #F9F930",
"I$	c #F1F03B",
"J$	c #C7C632",
"K$	c #78761A",
"L$	c #120000",
"M$	c #000400",
"N$	c #2D2F0E",
"O$	c #7E7F38",
"P$	c #B4B653",
"Q$	c #CBCD5A",
"R$	c #CECF52",
"S$	c #CFD047",
"T$	c #D4D540",
"U$	c #DCDE3B",
"V$	c #E9EB3A",
"W$	c #F6F839",
"X$	c #F9FB34",
"Y$	c #F6F929",
"Z$	c #F5F81E",
"`$	c #F9FA18",
" %	c #FDFD15",
".%	c #FFFD15",
"+%	c #FFFC17",
"@%	c #FBF817",
"#%	c #F6F318",
"$%	c #F5F317",
"%%	c #F7F715",
"&%	c #F9FA23",
"*%	c #FCFC3A",
"=%	c #F2F145",
"-%	c #C7C63A",
";%	c #77751F",
">%	c #090000",
",%	c #34370F",
"'%	c #5E6122",
")%	c #75792A",
"!%	c #777B22",
"~%	c #818620",
"{%	c #ACAF3E",
"]%	c #D7D957",
"^%	c #EBED5E",
"/%	c #EFF056",
"(%	c #F1F24C",
"_%	c #F6F745",
":%	c #FAFB3D",
"<%	c #FBFD33",
"[%	c #FAFC28",
"}%	c #F7F91B",
"|%	c #F2F60F",
"1%	c #F2F505",
"2%	c #F8FA08",
"3%	c #FEFE0D",
"4%	c #FFFF11",
"5%	c #FFFE14",
"6%	c #FBF912",
"7%	c #F5F310",
"8%	c #F4F214",
"9%	c #F6F61B",
"0%	c #F5F629",
"a%	c #EEEE3A",
"b%	c #DCDB41",
"c%	c #B2B137",
"d%	c #6A681D",
"e%	c #5C5E21",
"f%	c #9EA23F",
"g%	c #C2C74B",
"h%	c #CAD042",
"i%	c #CBD232",
"j%	c #D7DC36",
"k%	c #E7EA43",
"l%	c #F2F347",
"m%	c #F7F843",
"n%	c #FAFB3C",
"o%	c #FDFC35",
"p%	c #FEFD2D",
"q%	c #FEFD24",
"r%	c #FDFD1A",
"s%	c #FAFC10",
"t%	c #F7F805",
"u%	c #F7F800",
"v%	c #FBFB03",
"w%	c #FEFF08",
"x%	c #FFFF0C",
"y%	c #FFFF0F",
"z%	c #FCFD11",
"A%	c #F8FA15",
"B%	c #F5F71D",
"C%	c #F3F627",
"D%	c #E7EA2D",
"E%	c #CACB2F",
"F%	c #A1A12C",
"G%	c #777623",
"H%	c #464410",
"I%	c #6E7027",
"J%	c #BBC04A",
"K%	c #E6EC57",
"L%	c #F1F74E",
"M%	c #F0F63A",
"N%	c #F1F52D",
"O%	c #F2F42B",
"P%	c #F5F62A",
"Q%	c #FAFB2B",
"R%	c #FEFD29",
"S%	c #FEFC22",
"T%	c #FDFB19",
"U%	c #FDFB12",
"V%	c #FDFC0F",
"W%	c #FBFB05",
"X%	c #FDFD04",
"Y%	c #FEFE06",
"Z%	c #FEFE07",
"`%	c #FDFE0C",
" &	c #FCFF16",
".&	c #FBFE21",
"+&	c #F8FC30",
"@&	c #F2F63E",
"#&	c #DFE240",
"$&	c #ACAF31",
"%&	c #5E6016",
"&&	c #100D01",
"*&	c #0E0A00",
"=&	c #090400",
"-&	c #707325",
";&	c #BFC446",
">&	c #EBF153",
",&	c #F9FD4B",
"'&	c #FAFE38",
")&	c #FAFC2A",
"!&	c #F8FA22",
"~&	c #F9FA1F",
"{&	c #FDFD20",
"]&	c #FFFF20",
"^&	c #FFFE1A",
"/&	c #FEFC12",
"(&	c #FCFA0B",
"_&	c #F9F807",
":&	c #FAF806",
"<&	c #FCFB07",
"[&	c #FDFD08",
"}&	c #FDFD07",
"|&	c #FCFD07",
"1&	c #FAFD06",
"2&	c #F7FC0E",
"3&	c #F8FD1F",
"4&	c #FAFF30",
"5&	c #FAFE45",
"6&	c #F7FA58",
"7&	c #E3E65C",
"8&	c #ACAE46",
"9&	c #50511D",
"0&	c #67691F",
"a&	c #B0B53B",
"b&	c #DCE148",
"c&	c #F0F444",
"d&	c #FAFB38",
"e&	c #FCFD2D",
"f&	c #FAFB24",
"g&	c #F9FA1E",
"h&	c #FBFC1E",
"i&	c #FDFD1D",
"j&	c #FEFE19",
"k&	c #FEFE13",
"l&	c #FBFA0D",
"m&	c #F8F608",
"n&	c #F8F607",
"o&	c #FAFA0A",
"p&	c #FCFC0B",
"q&	c #FAFC0D",
"r&	c #F6FB12",
"s&	c #F3FB1E",
"t&	c #F4FB2F",
"u&	c #F7FB40",
"v&	c #F5F852",
"w&	c #EEF162",
"x&	c #D8DB64",
"y&	c #A4A64D",
"z&	c #525322",
"A&	c #070302",
"B&	c #000004",
"C&	c #4A4C13",
"D&	c #818428",
"E&	c #AEB235",
"F&	c #D7DB3D",
"G&	c #F4F740",
"H&	c #FBFE3A",
"I&	c #F6F82C",
"J&	c #F3F520",
"K&	c #F5F61C",
"L&	c #F8F81A",
"M&	c #FCFC17",
"N&	c #FEFD12",
"O&	c #FBFA10",
"P&	c #F9F80C",
"Q&	c #F6F707",
"R&	c #F6F705",
"S&	c #F6F908",
"T&	c #F7FA15",
"U&	c #F5FB24",
"V&	c #F3FB33",
"W&	c #F2F944",
"X&	c #F0F552",
"Y&	c #E4E658",
"Z&	c #C9CB56",
"`&	c #A6A84D",
" *	c #797A39",
".*	c #3E3D18",
"+*	c #010002",
"@*	c #050105",
"#*	c #030006",
"$*	c #1A1903",
"%*	c #2D2F08",
"&*	c #6A6C1C",
"**	c #B2B634",
"=*	c #E1E542",
"-*	c #ECEF3E",
";*	c #E4E72F",
">*	c #E3E524",
",*	c #EBEC24",
"'*	c #F3F325",
")*	c #F9F923",
"!*	c #FEFE1E",
"~*	c #FCFC1D",
"{*	c #F8F919",
"]*	c #F2F415",
"^*	c #F0F317",
"/*	c #F3F621",
"(*	c #F4F82A",
"_*	c #F0F533",
":*	c #E9F03E",
"<*	c #E4EA4C",
"[*	c #DEE158",
"}*	c #C6C855",
"|*	c #94953F",
"1*	c #565723",
"2*	c #2C2B0F",
"3*	c #1E1906",
"4*	c #070108",
"5*	c #04000B",
"6*	c #040106",
"7*	c #373808",
"8*	c #838624",
"9*	c #AEB132",
"0*	c #B6B930",
"a*	c #B1B324",
"b*	c #C0C127",
"c*	c #DEDE37",
"d*	c #F2F23E",
"e*	c #F9F93C",
"f*	c #FAFA37",
"g*	c #FAFA31",
"h*	c #F7F82D",
"i*	c #F5F62C",
"j*	c #F3F42F",
"k*	c #F4F637",
"l*	c #F9FA44",
"m*	c #F5F84A",
"n*	c #DFE342",
"o*	c #C1C638",
"p*	c #B1B53C",
"q*	c #AAAD45",
"r*	c #959641",
"s*	c #646429",
"t*	c #130E01",
"u*	c #080003",
"v*	c #0D050B",
"w*	c #090210",
"x*	c #060112",
"y*	c #020006",
"z*	c #1F2003",
"A*	c #41430D",
"B*	c #575914",
"C*	c #575910",
"D*	c #5C5D0D",
"E*	c #8E8E27",
"F*	c #C8C840",
"G*	c #E8E84C",
"H*	c #EFEF49",
"I*	c #EDED42",
"J*	c #EAEA3B",
"K*	c #E7E735",
"L*	c #EAEB3C",
"M*	c #EFEF47",
"N*	c #F4F555",
"O*	c #ECEC59",
"P*	c #C3C449",
"Q*	c #818329",
"R*	c #545716",
"S*	c #52531C",
"T*	c #4A4A1C",
"U*	c #333210",
"V*	c #141003",
"W*	c #080107",
"X*	c #09010F",
"Y*	c #090114",
"Z*	c #090216",
"`*	c #030200",
" =	c #080700",
".=	c #5F5F1E",
"+=	c #9D9C36",
"@=	c #C1C13E",
"#=	c #BEBE37",
"$=	c #BBBB31",
"%=	c #B8B82C",
"&=	c #B9B92C",
"*=	c #BEBE32",
"==	c #C3C23C",
"-=	c #C7C749",
";=	c #BFBE4C",
">=	c #96963C",
",=	c #4C4B1B",
"'=	c #070102",
")=	c #090205",
"!=	c #070009",
"~=	c #07000E",
"{=	c #080112",
"]=	c #0A0314",
"^=	c #050500",
"/=	c #0A0400",
"(=	c #34320B",
"_=	c #555418",
":=	c #66651E",
"<=	c #69691D",
"[=	c #686719",
"}=	c #666616",
"|=	c #656413",
"1=	c #666513",
"2=	c #6A6816",
"3=	c #6C6B1C",
"4=	c #6E6D23",
"5=	c #686725",
"6=	c #51501C",
"7=	c #29270B",
"8=	c #010003",
"9=	c #0A0308",
"0=	c #0F0909",
"a=	c #0A0505",
"b=	c #060103",
"c=	c #060006",
"d=	c #06000A",
"e=	c #05010B",
"f=	c #08040E",
"g=	c #000101",
"h=	c #060601",
"i=	c #070500",
"j=	c #080500",
"k=	c #090200",
"l=	c #0B0508",
"m=	c #100B0C",
"n=	c #0F0B0B",
"o=	c #090506",
"p=	c #050103",
"q=	c #060206",
"r=	c #090409",
"s=	c #080308",
"t=	c #050306",
"u=	c #070508",
"  . + @ # $ $ % & * = - ; > > , ' ) ! > ~ { # ] ^ / ( _ : < [ [ ",
"} | 1 2 3 3 3 3 4 5 6 7 8 9 0 a b c d e f g 3 3 3 3 h i j k l m ",
"2 + @ n o p 3 q r s t u v w x y z A B C D E 3 3 F G H I J K L M ",
"+ 3 3 N O P Q R S T U V W X Y Z `  ...+.@.#.$.%.&.*.=.3 -.;.>.,.",
"@ 3 3 '.).!.~.{.].^./.(._.:.<.[.}.|.1.2.3.4.5.6.7.8.9.3 h 0.a.,.",
"b.c.d.e.f.g.h.i.j.k.l.m.n.o.p.q.r.s.t.u.v.w.x.y.z.A.B.C.D.E.F.G.",
"3 H.I.J.K.L.M.N.O.P.Q.R.S.T.U.V.W.X.Y.Z.`. +.+++@+#+$+%+&+3 *+=+",
"3 -+;+>+,+'+)+!+~+{+]+^+/+(+_+:+<+[+}+|+1+2+3+4+5+6+7+8+9+3 E.0+",
"3 a+b+c+d+e+f+g+h+i+j+k+l+m+n+o+o+p+q+r+s+t+u+v+w+x+y+z+A+3 3 B+",
"3 C+D+E+F+G+H+I+J+K+L+M+N+O+P+Q+R+S+T+U+}+V+W+X+Y+Z+`+ @.@+@@@#@",
"3 $@%@&@*@=@-@;@>@,@'@)@!@~@{@]@^@/@(@_@:@<@[@}@|@1@2@3@4@5@6@7@",
"8@9@0@a@b@c@d@e@f@g@h@i@j@k@l@m@n@o@p@q@r@s@t@u@v@w@x@y@z@A@B@C@",
"D@3 3 3 3 E@F@G@H@I@J@K@L@M@N@O@P@Q@R@S@T@U@V@W@X@Y@Z@`@ #.#+#@#",
"##$#%#&#3 *#=#-#;#>#,#'#)#!#~#{#]#^#/#(#_#:#<#[#}#|#1#2#3#4#5#6#",
"7#J 8#9#0#&#3 3 3 3 3 3 a#b#c#d#e#f#g#h#i#j#k#l#m#n#o#p#q#r#s#J ",
"t#u#v#w#x#y#%#z#z#&#A#$#B#C#D#E#F#G#H#I#J#K#L#M#N#O#P#Q#R#S#T###",
"U#V#W#X#Y#Z#3 3 3 3 3 3 `# $.$+$@$#$$$%$&$*$=$-$;$S+>$,$'$)$!$~$",
"{$]$^$/$($_$:$<$[$}$|$-.1$2$3$4$5$6$7$8$9$0$a$b$c$d$e$f$g$h$i$j$",
"k$3 3 3 3 l$m$n$o$p$q$r$s$t$u$v$w$x$y$z$A$B$C$D$E$F$G$H$I$J$K$L$",
"M$k$  3 3 N$O$P$Q$R$S$T$U$V$W$X$Y$Z$`$ %.%+%@%#%$%%%&%*%=%-%;%>%",
"3 ,%'%)%!%~%{%]%^%/%(%_%:%<%[%}%|%1%2%3%4%5%6%7%8%9%0%a%b%c%d%h ",
"3 e%f%g%h%i%j%k%l%m%n%o%p%q%r%s%t%u%v%w%x%y%z%A%B%C%D%E%F%G%H%%#",
"3 I%J%K%L%M%N%O%P%Q%R%S%T%U%V%S+W%v%X%Y%Z%`% &.&+&@&#&$&%&&&*&=&",
"3 -&;&>&,&'&)&!&~&{&]&^&/&(&_&:&<&[&}&|&1&2&3&4&5&6&7&8&9&3 3 =&",
"E.0&a&b&c&d&e&f&g&h&i&j&k&l&m&n&o&p&p&q&r&s&t&u&v&w&x&y&z&3 3 A&",
"B&C&D&E&F&G&H&I&J&K&L&M&<#N&O&P&Q&R&S&T&U&V&W&X&Y&Z&`& *.*3 +*@*",
"#*$*%*&***=*-*;*>*,*'*)*{&!*~*{*]*^*/*(*_*:*<*[*}*|*1*2*3*9#4*5*",
"6*3 3 7*8*9*0*a*b*c*d*e*f*g*h*i*j*k*l*m*n*o*p*q*r*s*t*3 u*v*w*x*",
"y*/ b.z*A*B*C*D*E*F*G*H*I*J*K*K*L*M*N*O*P*Q*R*S*T*U*V*J W*X*Y*Z*",
"t#`* =@ 3 3 3 3 .=+=H@@=#=$=%=&=*===-=;=>=,=3 3 3 3 '=)=!=~={=]=",
"E.} @ ^=] h 3 /=(=_=:=<=[=}=|=1=2=3=4=5=6=7=8=9=0=a=b=c=!=d=e=f=",
"g=. @ h=i=j==&k=3 3 3 3 3 3 3 3 3 3 3 3 3 B&l=m=n=o=p=q=r=s=t=u="};
