/* XPM */
static char * pac_mouth_max_open_xpm[] = {
"32 32 862 2",
"  	c #09040D",
". 	c #0C070B",
"+ 	c #0C0808",
"@ 	c #0B0904",
"# 	c #0A0A01",
"$ 	c #0A0C00",
"% 	c #0A0E00",
"& 	c #0A0F00",
"* 	c #0A1000",
"= 	c #0B1000",
"- 	c #0B0F00",
"; 	c #0B0E00",
"> 	c #0B0D00",
", 	c #0A0B00",
"' 	c #0B0900",
") 	c #0C0800",
"! 	c #0D0701",
"~ 	c #0D0602",
"{ 	c #0D0404",
"] 	c #0D0306",
"^ 	c #0D0208",
"/ 	c #0D020A",
"( 	c #0C010B",
"_ 	c #0A010A",
": 	c #080008",
"< 	c #060007",
"[ 	c #050006",
"} 	c #040005",
"| 	c #030003",
"1 	c #030001",
"2 	c #020000",
"3 	c #0A050B",
"4 	c #0C0709",
"5 	c #020003",
"6 	c #020001",
"7 	c #2E2F15",
"8 	c #56592F",
"9 	c #72763E",
"0 	c #7E8341",
"a 	c #808638",
"b 	c #7F872C",
"c 	c #808824",
"d 	c #818A21",
"e 	c #838B21",
"f 	c #848C25",
"g 	c #858B2A",
"h 	c #858A2F",
"i 	c #848734",
"j 	c #7E8035",
"k 	c #6B6C2E",
"l 	c #48481D",
"m 	c #140D07",
"n 	c #000000",
"o 	c #000003",
"p 	c #000005",
"q 	c #060002",
"r 	c #080101",
"s 	c #070100",
"t 	c #050100",
"u 	c #050000",
"v 	c #040000",
"w 	c #030000",
"x 	c #080309",
"y 	c #080304",
"z 	c #4C4F28",
"A 	c #8C9050",
"B 	c #B6BC68",
"C 	c #C9D06C",
"D 	c #CCD65E",
"E 	c #CBD64B",
"F 	c #CDD93E",
"G 	c #CFDC3A",
"H 	c #D1DD3A",
"I 	c #D3DE3F",
"J 	c #D4DD47",
"K 	c #D5DB4F",
"L 	c #D3D856",
"M 	c #CACD58",
"N 	c #AEB04D",
"O 	c #7B7C35",
"P 	c #373612",
"Q 	c #010000",
"R 	c #0D0203",
"S 	c #0C0102",
"T 	c #0A0101",
"U 	c #090100",
"V 	c #090200",
"W 	c #080200",
"X 	c #060100",
"Y 	c #070207",
"Z 	c #050102",
"` 	c #595B2E",
" .	c #A1A65B",
"..	c #D1D877",
"+.	c #E7F07A",
"@.	c #EAF66A",
"#.	c #E9F752",
"$.	c #EBF943",
"%.	c #EEFC3D",
"&.	c #F0FD3D",
"*.	c #F0FD41",
"=.	c #F1FC48",
"-.	c #F1FA50",
";.	c #F1F859",
">.	c #EAEF5B",
",.	c #D4D851",
"'.	c #AEB23A",
").	c #8C8F22",
"!.	c #818320",
"~.	c #828329",
"{.	c #777627",
"].	c #58571B",
"^.	c #292605",
"/.	c #080100",
"(.	c #040100",
"_.	c #070206",
":.	c #050101",
"<.	c #595C2D",
"[.	c #A1A659",
"}.	c #D1D974",
"|.	c #E7F177",
"1.	c #ECF965",
"2.	c #ECFC4A",
"3.	c #EFFE38",
"4.	c #F2FF30",
"5.	c #F3FF2D",
"6.	c #F1FD2C",
"7.	c #EEFC30",
"8.	c #EEFB36",
"9.	c #F1FC3E",
"0.	c #F2FA42",
"a.	c #EAF13D",
"b.	c #DCE333",
"c.	c #D2D92F",
"d.	c #D3D73B",
"e.	c #D1D346",
"f.	c #BFC044",
"g.	c #939333",
"h.	c #515017",
"i.	c #0A0300",
"j.	c #060200",
"k.	c #080306",
"l.	c #080303",
"m.	c #4C4F25",
"n.	c #8A8F4B",
"o.	c #B7BE62",
"p.	c #D1DB66",
"q.	c #E1EE5A",
"r.	c #EBFB47",
"s.	c #F0FF37",
"t.	c #F2FF2A",
"u.	c #F1FE1E",
"v.	c #EDFC15",
"w.	c #EAFA13",
"x.	c #ECFB18",
"y.	c #F2FD20",
"z.	c #F7FE26",
"A.	c #F5FC27",
"B.	c #F1F927",
"C.	c #EEF72E",
"D.	c #F1F83D",
"E.	c #F1F549",
"F.	c #E3E54C",
"G.	c #C3C448",
"H.	c #9A9A40",
"I.	c #747234",
"J.	c #4E4C21",
"K.	c #242109",
"L.	c #0A0507",
"M.	c #0C0707",
"N.	c #020002",
"O.	c #2D2F13",
"P.	c #50532A",
"Q.	c #75793B",
"R.	c #9FA744",
"S.	c #CAD54A",
"T.	c #E7F44A",
"U.	c #F0FF42",
"V.	c #EFFF32",
"W.	c #EDFD1F",
"X.	c #EBFC12",
"Y.	c #EBFC0D",
"Z.	c #EEFC0D",
"`.	c #F5FE13",
" +	c #FAFE17",
".+	c #F8FD17",
"++	c #F3FC16",
"@+	c #EFFA1C",
"#+	c #F2FB26",
"$+	c #F4FB34",
"%+	c #F3F746",
"&+	c #ECED59",
"*+	c #DDDC61",
"=+	c #BCBB57",
"-+	c #85833C",
";+	c #3B3915",
">+	c #050200",
",+	c #090408",
"'+	c #0C0708",
")+	c #0D0806",
"!+	c #0D0803",
"~+	c #0B0701",
"{+	c #1E2003",
"]+	c #686E1F",
"^+	c #A3AC36",
"/+	c #CAD543",
"(+	c #DEEA45",
"_+	c #E8F540",
":+	c #EDFC39",
"<+	c #EEFE2E",
"[+	c #EEFE1E",
"}+	c #F0FE10",
"|+	c #F6FE0C",
"1+	c #F9FF0C",
"2+	c #F8FE08",
"3+	c #F4FD03",
"4+	c #F1FC06",
"5+	c #F1FC0B",
"6+	c #F4FC1E",
"7+	c #F7FD3B",
"8+	c #FCFF56",
"9+	c #F6F663",
"0+	c #D6D55B",
"a+	c #97963E",
"b+	c #3F3E15",
"c+	c #070300",
"d+	c #050109",
"e+	c #080308",
"f+	c #0D0706",
"g+	c #110C04",
"h+	c #100A01",
"i+	c #383C08",
"j+	c #60651A",
"k+	c #878E2B",
"l+	c #B2BA3F",
"m+	c #D8E14F",
"n+	c #EEF853",
"o+	c #F3FE47",
"p+	c #F1FE31",
"q+	c #F1FE1A",
"r+	c #F3FF0C",
"s+	c #F5FF07",
"t+	c #F6FF02",
"u+	c #F6FE00",
"v+	c #F5FD02",
"w+	c #F4FC03",
"x+	c #F3FA12",
"y+	c #F5FB29",
"z+	c #F9FD40",
"A+	c #F4F64A",
"B+	c #D4D643",
"C+	c #97982E",
"D+	c #44440E",
"E+	c #0B0801",
"F+	c #04000B",
"G+	c #0A0506",
"H+	c #100A04",
"I+	c #130D02",
"J+	c #110B01",
"K+	c #0C0700",
"L+	c #393A10",
"M+	c #808332",
"N+	c #B6BA4A",
"O+	c #D6DC52",
"P+	c #E6ED4A",
"Q+	c #EEF739",
"R+	c #F2FD28",
"S+	c #F3FE1A",
"T+	c #F2FE0C",
"U+	c #F5FE02",
"V+	c #F8FF03",
"W+	c #F9FE05",
"X+	c #F8FD07",
"Y+	c #F6FA0D",
"Z+	c #F5FA1A",
"`+	c #F6FB27",
" @	c #F1F530",
".@	c #DCDF33",
"+@	c #B7B932",
"@@	c #8D8E2E",
"#@	c #676723",
"$@	c #414113",
"%@	c #151204",
"&@	c #04010F",
"*@	c #04010B",
"=@	c #060207",
"-@	c #0A0404",
";@	c #0C0501",
">@	c #0D0600",
",@	c #0C0500",
"'@	c #171304",
")@	c #47481A",
"!@	c #6F712B",
"~@	c #969A34",
"{@	c #C0C539",
"]@	c #E1E73A",
"^@	c #F0F835",
"/@	c #F2FB28",
"(@	c #F2FB16",
"_@	c #F5FC0A",
":@	c #FAFE0A",
"<@	c #FDFF0D",
"[@	c #FDFE0F",
"}@	c #FCFD11",
"|@	c #F9FC14",
"1@	c #F6FA18",
"2@	c #F2F623",
"3@	c #EDF037",
"4@	c #E5E747",
"5@	c #D2D44B",
"6@	c #AAAB3E",
"7@	c #6C6D25",
"8@	c #1E1C08",
"9@	c #060211",
"0@	c #04010D",
"a@	c #040009",
"b@	c #050005",
"c@	c #060102",
"d@	c #080201",
"e@	c #0A0301",
"f@	c #090202",
"g@	c #50520F",
"h@	c #919425",
"i@	c #BFC332",
"j@	c #D8DD34",
"k@	c #E6EB2C",
"l@	c #EEF321",
"m@	c #F6F91A",
"n@	c #FBFD16",
"o@	c #FEFE14",
"p@	c #FEFE12",
"q@	c #FDFD11",
"r@	c #FBFC10",
"s@	c #F8FA0F",
"t@	c #F5F81D",
"u@	c #F6F936",
"v@	c #F7F94B",
"w@	c #E9EB50",
"x@	c #BFC143",
"y@	c #7A7B28",
"z@	c #211F09",
"A@	c #060312",
"B@	c #05010E",
"C@	c #040007",
"D@	c #050004",
"E@	c #060103",
"F@	c #070103",
"G@	c #080104",
"H@	c #080106",
"I@	c #2A2802",
"J@	c #545510",
"K@	c #7A7C1C",
"L@	c #A2A323",
"M@	c #C8C929",
"N@	c #E5E52B",
"O@	c #F3F428",
"P@	c #FAFB21",
"Q@	c #FDFD19",
"R@	c #FDFD12",
"S@	c #FAFB0D",
"T@	c #F9FA0C",
"U@	c #FAFB10",
"V@	c #FAFB1C",
"W@	c #F8FA2F",
"X@	c #F3F53F",
"Y@	c #E2E443",
"Z@	c #B8BA37",
"`@	c #757620",
" #	c #201E05",
".#	c #060310",
"+#	c #05010C",
"@#	c #060108",
"##	c #080209",
"$#	c #0A030C",
"%#	c #0A030E",
"&#	c #09020F",
"*#	c #08010F",
"=#	c #09000C",
"-#	c #0C0106",
";#	c #0E0201",
">#	c #241F01",
",#	c #666410",
"'#	c #9E9C20",
")#	c #C5C328",
"!#	c #DFDD28",
"~#	c #F1F023",
"{#	c #FBFA1C",
"]#	c #FCFC14",
"^#	c #F9F90B",
"/#	c #F9F90A",
"(#	c #FCFC11",
"_#	c #FDFD1D",
":#	c #FBFC2C",
"<#	c #F4F539",
"[#	c #E1E33C",
"}#	c #B7B931",
"|#	c #75761C",
"1#	c #201F04",
"2#	c #04020D",
"3#	c #05020D",
"4#	c #05020C",
"5#	c #06020A",
"6#	c #08030B",
"7#	c #0D0610",
"8#	c #100815",
"9#	c #100817",
"0#	c #0D0418",
"a#	c #0A0116",
"b#	c #0C0212",
"c#	c #0F0309",
"d#	c #0E0101",
"e#	c #0A0000",
"f#	c #393605",
"g#	c #5E5C0F",
"h#	c #878516",
"i#	c #B7B41A",
"j#	c #E1DE1C",
"k#	c #F8F61B",
"l#	c #FDFB16",
"m#	c #FAF90D",
"n#	c #FAF90B",
"o#	c #FCFC10",
"p#	c #FEFE1D",
"q#	c #FEFF2E",
"r#	c #FAFC3D",
"s#	c #E9EC41",
"t#	c #BEC135",
"u#	c #7A7B1F",
"v#	c #232204",
"w#	c #030209",
"x#	c #05020A",
"y#	c #050209",
"z#	c #060208",
"A#	c #08030A",
"B#	c #0C0610",
"C#	c #0D0417",
"D#	c #0C0211",
"E#	c #0C0300",
"F#	c #403F06",
"G#	c #696813",
"H#	c #908F1A",
"I#	c #BBB91D",
"J#	c #E1DD1C",
"K#	c #F7F31A",
"L#	c #FCF915",
"M#	c #FBF90E",
"N#	c #FBFA0B",
"O#	c #FBFB0D",
"P#	c #FBFC19",
"Q#	c #FCFE2C",
"R#	c #FBFE3B",
"S#	c #ECEF40",
"T#	c #C1C435",
"U#	c #7C7D1E",
"V#	c #242303",
"W#	c #040405",
"X#	c #050305",
"Y#	c #050304",
"Z#	c #050203",
"`#	c #050104",
" $	c #09030C",
".$	c #08020E",
"+$	c #07010E",
"@$	c #08000B",
"#$	c #0B0105",
"$$	c #0D0401",
"%$	c #272401",
"&$	c #706F14",
"*$	c #ACAC26",
"=$	c #D4D42E",
"-$	c #E8E62C",
";$	c #F1ED23",
">$	c #F7F218",
",$	c #FBF712",
"'$	c #FCFA0F",
")$	c #FCFA0B",
"!$	c #F9F907",
"~$	c #F6F710",
"{$	c #F7F824",
"]$	c #F7F934",
"^$	c #E9EB38",
"/$	c #BFC12F",
"($	c #7B7B1A",
"_$	c #242202",
":$	c #030402",
"<$	c #040302",
"[$	c #040201",
"}$	c #040001",
"|$	c #050003",
"1$	c #070105",
"2$	c #060005",
"3$	c #000002",
"4$	c #2A2806",
"5$	c #555317",
"6$	c #7D7B23",
"7$	c #A8A72B",
"8$	c #D3D331",
"9$	c #F0F033",
"0$	c #FAF92E",
"a$	c #FAF724",
"b$	c #F9F619",
"c$	c #FCF814",
"d$	c #FEFB12",
"e$	c #FCFB0D",
"f$	c #F7F806",
"g$	c #F3F40E",
"h$	c #F4F625",
"i$	c #F5F737",
"j$	c #E9EA3C",
"k$	c #BFC032",
"l$	c #7B7B1C",
"m$	c #242104",
"n$	c #010201",
"o$	c #020200",
"p$	c #030100",
"q$	c #060001",
"r$	c #090101",
"s$	c #0B0202",
"t$	c #525014",
"u$	c #94922D",
"v$	c #C2C13D",
"w$	c #DCDA3F",
"x$	c #E8E837",
"y$	c #F0F02A",
"z$	c #F6F522",
"A$	c #FAF91E",
"B$	c #FCFB1C",
"C$	c #FEFD19",
"D$	c #FEFE16",
"E$	c #FCFC13",
"F$	c #F8F80D",
"G$	c #F4F517",
"H$	c #F5F62F",
"I$	c #F6F742",
"J$	c #E9EA48",
"K$	c #C0C03C",
"L$	c #7B7B23",
"M$	c #232006",
"N$	c #020100",
"O$	c #080000",
"P$	c #1B1302",
"Q$	c #494215",
"R$	c #706924",
"S$	c #989332",
"T$	c #C5C13F",
"U$	c #E6E447",
"V$	c #F5F345",
"W$	c #F4F337",
"X$	c #F1F123",
"Y$	c #F4F418",
"Z$	c #FAFA19",
"`$	c #FEFE1A",
" %	c #FEFF19",
".%	c #FDFE18",
"+%	c #FBFC1A",
"@%	c #F8F920",
"#%	c #F4F528",
"$%	c #EDEE36",
"%%	c #E3E441",
"&%	c #CFD043",
"*%	c #A7A837",
"=%	c #6B6A20",
"-%	c #1E1A07",
";%	c #050400",
">%	c #0C0200",
",%	c #3D360D",
"'%	c #827A2B",
")%	c #B7AE40",
"!%	c #D9D04B",
"~%	c #ECE54B",
"{%	c #F7F347",
"]%	c #FBF93F",
"^%	c #F9F831",
"/%	c #F6F621",
"(%	c #F7F816",
"_%	c #FBFC14",
":%	c #FDFE15",
"<%	c #FBFD14",
"[%	c #F9FC17",
"}%	c #F8FB24",
"|%	c #F9FC33",
"1%	c #F4F53B",
"2%	c #DEDE3B",
"3%	c #B7B733",
"4%	c #8B8B2A",
"5%	c #64641E",
"6%	c #3F3D0F",
"7%	c #130C04",
"8%	c #0A0700",
"9%	c #0A0600",
"0%	c #090500",
"a%	c #3A330B",
"b%	c #625A1E",
"c%	c #8A822D",
"d%	c #B6AD3C",
"e%	c #DDD348",
"f%	c #F4EB4D",
"g%	c #FBF448",
"h%	c #FBF73E",
"i%	c #FBF934",
"j%	c #FAF929",
"k%	c #F9F91F",
"l%	c #FAFB17",
"m%	c #FBFE14",
"n%	c #F9FD16",
"o%	c #F6FB1F",
"p%	c #F6FB31",
"q%	c #FAFD45",
"r%	c #F3F54F",
"s%	c #D4D447",
"t%	c #969730",
"u%	c #434310",
"v%	c #0A0003",
"w%	c #0E0C00",
"x%	c #110E01",
"y%	c #100C01",
"z%	c #0B0600",
"A%	c #060000",
"B%	c #1E1903",
"C%	c #696321",
"D%	c #A59C3A",
"E%	c #CDC347",
"F%	c #E3DA49",
"G%	c #F1E843",
"H%	c #F8F03C",
"I%	c #F9F234",
"J%	c #F6F22B",
"K%	c #F7F424",
"L%	c #F9F81F",
"M%	c #FBFC1C",
"N%	c #FBFE19",
"O%	c #FAFF17",
"P%	c #F9FE1A",
"Q%	c #F7FD20",
"R%	c #F5FB2C",
"S%	c #F6FA40",
"T%	c #F7FB55",
"U%	c #EFF15F",
"V%	c #CFD055",
"W%	c #92923B",
"X%	c #3C3C13",
"Y%	c #080003",
"Z%	c #0D0B00",
"`%	c #110F01",
" &	c #2F3014",
".&	c #54582B",
"+&	c #7A7D3D",
"@&	c #A4A447",
"#&	c #CFCB4E",
"$&	c #EDE650",
"%&	c #F8F149",
"&&	c #F9F43A",
"*&	c #F8F42A",
"=&	c #F7F320",
"-&	c #F6F31C",
";&	c #F7F51A",
">&	c #F9FA1A",
",&	c #FBFE1B",
"'&	c #FAFF1C",
")&	c #F7FE1F",
"!&	c #F5FD27",
"~&	c #F4FC32",
"{&	c #F3F93E",
"]&	c #EEF34A",
"^&	c #E4E856",
"/&	c #D4D65A",
"(&	c #B3B550",
"_&	c #7E7F36",
":&	c #383813",
"<&	c #070002",
"[&	c #060600",
"}&	c #090900",
"|&	c #4F5226",
"1&	c #90954C",
"2&	c #BEC464",
"3&	c #DADF69",
"4&	c #ECEE5E",
"5&	c #F7F74D",
"6&	c #FAFA3D",
"7&	c #F8F92D",
"8&	c #F6F81E",
"9&	c #F8F91A",
"0&	c #FAFA1D",
"a&	c #FBFC1E",
"b&	c #FAFD1D",
"c&	c #F9FE1D",
"d&	c #F5FC21",
"e&	c #EDF633",
"f&	c #EEF643",
"g&	c #ECF24E",
"h&	c #DDE150",
"i&	c #BDC048",
"j&	c #94963C",
"k&	c #6E6F2F",
"l&	c #4A4A1D",
"m&	c #222107",
"n&	c #030500",
"o&	c #030700",
"p&	c #595D2C",
"q&	c #A3A956",
"r&	c #D5DD70",
"s&	c #EDF574",
"t&	c #F6FB64",
"u&	c #F8FC4C",
"v&	c #F7FC39",
"w&	c #F5FB2A",
"x&	c #F3FA1F",
"y&	c #F5FA1D",
"z&	c #F7FB21",
"A&	c #F8FC25",
"B&	c #F8FE28",
"C&	c #F4FC2B",
"D&	c #EAF32B",
"E&	c #DBE42A",
"F&	c #CFD731",
"G&	c #CDD43F",
"H&	c #CBD14A",
"I&	c #B9BD47",
"J&	c #8D9136",
"K&	c #4D4F19",
"L&	c #080700",
"M&	c #060500",
"N&	c #040300",
"O&	c #030101",
"P&	c #040700",
"Q&	c #040900",
"R&	c #555A29",
"S&	c #9CA351",
"T&	c #CCD56A",
"U&	c #E4EC6E",
"V&	c #ECF461",
"W&	c #EEF64D",
"X&	c #EFF73E",
"Y&	c #EEF733",
"Z&	c #EDF62A",
"`&	c #EBF424",
" *	c #E9F324",
".*	c #EAF42A",
"+*	c #EEF835",
"@*	c #EBF53B",
"#*	c #D5DF36",
"$*	c #AFB729",
"%*	c #8A911E",
"&*	c #7E8324",
"**	c #7E822B",
"=*	c #727529",
"-*	c #55571D",
";*	c #262807",
">*	c #030300",
",*	c #040400",
"'*	c #020300",
")*	c #010200",
"!*	c #060A00",
"~*	c #070D00",
"{*	c #474C20",
"]*	c #838A43",
"^*	c #ADB558",
"/*	c #C2CA5C",
"(*	c #C9D252",
"_*	c #CCD443",
":*	c #CED738",
"<*	c #CED72F",
"[*	c #CDD728",
"}*	c #C9D421",
"|*	c #C6D11F",
"1*	c #C7D226",
"2*	c #CCD732",
"3*	c #CAD338",
"4*	c #B0B932",
"5*	c #7E8421",
"6*	c #3A3F08",
"7*	c #000100",
"8*	c #060900",
"9*	c #050700",
"0*	c #050600",
"a*	c #040500",
"b*	c #010400",
"c*	c #000300",
"d*	c #070B00",
"e*	c #0A0F01",
"f*	c #000500",
"g*	c #292E10",
"h*	c #505526",
"i*	c #6B7134",
"j*	c #797F36",
"k*	c #7E8330",
"l*	c #7F8527",
"m*	c #81871F",
"n*	c #82881A",
"o*	c #818715",
"p*	c #7E8511",
"q*	c #7B830F",
"r*	c #7B8314",
"s*	c #7F861C",
"t*	c #7E8420",
"u*	c #6D721C",
"v*	c #4A4E10",
"w*	c #161902",
"x*	c #060801",
"y*	c #060901",
"z*	c #040800",
"A*	c #020600",
"B*	c #090D01",
"C*	c #070C00",
"D*	c #030900",
"E*	c #020800",
"F*	c #050C00",
"G*	c #091000",
"H*	c #0B1100",
"I*	c #0D0F00",
"J*	c #111300",
"K*	c #121500",
"L*	c #101200",
"M*	c #080A00",
"N*	c #070900",
"O*	c #070901",
"P*	c #060701",
"Q*	c #050502",
"R*	c #040303",
"S*	c #030305",
"T*	c #030206",
"U*	c #020206",
"V*	c #010105",
"W*	c #010204",
"X*	c #020403",
"Y*	c #050702",
"Z*	c #050801",
"`*	c #010600",
" =	c #030600",
".=	c #010500",
"+=	c #000200",
"@=	c #000006",
"#=	c #000009",
"$=	c #02010D",
"%=	c #02010F",
"&=	c #01010F",
"*=	c #01010D",
"==	c #00020B",
"-=	c #010307",
";=	c #020501",
">=	c #010502",
",=	c #010402",
"'=	c #010401",
")=	c #000301",
"!=	c #050300",
"~=	c #050301",
"{=	c #050402",
"]=	c #060503",
"^=	c #070606",
"/=	c #080708",
"(=	c #06050A",
"_=	c #03020A",
":=	c #01010C",
"<=	c #00010E",
"[=	c #010111",
"}=	c #010211",
"|=	c #01020F",
"1=	c #00020C",
"2=	c #000208",
"3=	c #000305",
"4=	c #000303",
"5=	c #000402",
"  . + @ # $ % & * * = - ; > , ' ) ! ~ { ] ^ / ( _ : < [ } | 1 2 ",
"3 4 5 6 7 8 9 0 a b c d e f g h i j k l m n o p o q r s t u v w ",
"x y n n z A B C D E F G H I J K L M N O P n Q R S T U V W X t w ",
"Y Z n n `  ...+.@.#.$.%.&.*.=.-.;.>.,.'.).!.~.{.].^.n n /.W X (.",
"_.:.n n <.[.}.|.1.2.3.4.5.6.7.8.9.0.a.b.c.d.e.f.g.h.n n i.W s j.",
"k.l.n n m.n.o.p.q.r.s.t.u.v.w.x.y.z.A.B.C.D.E.F.G.H.I.J.K.n Q j.",
"L.M.N.1 O.P.Q.R.S.T.U.V.W.X.Y.Z.`. +.+++@+#+$+%+&+*+=+-+;+n n >+",
",+'+)+!+~+n {+]+^+/+(+_+:+<+[+}+|+1+2+3+4+5+6+7+8+9+0+a+b+n n c+",
"d+e+f+g+h+n 2 i+j+k+l+m+n+o+p+q+r+s+t+u+v+w+x+y+z+A+B+C+D+n n E+",
"F+d+G+H+I+J+K+n n L+M+N+O+P+Q+R+S+T+U+V+W+X+Y+Z+`+ @.@+@@@#@$@%@",
"&@*@=@-@;@>@,@n n '@)@!@~@{@]@^@/@(@_@:@<@[@}@|@1@2@3@4@5@6@7@8@",
"9@0@a@b@c@d@e@e@f@f@n n g@h@i@j@k@l@m@n@o@p@q@r@s@t@u@v@w@x@y@z@",
"A@B@F+C@D@E@F@G@H@< o n I@J@K@L@M@N@O@P@Q@R@S@T@U@V@W@X@Y@Z@`@ #",
".#B@+#d+@###$#%#&#*#=#-#;#n >#,#'#)#!#~#{#]#^#/#(#_#:#<#[#}#|#1#",
"2#3#4#5#6#7#8#9#0#a#b#c#d#n e#f#g#h#i#j#k#l#m#n#o#p#q#r#s#t#u#v#",
"w#x#y#z#A#B#8#9#C#a#D#c#d#n E#F#G#H#I#J#K#L#M#N#O#P#Q#R#S#T#U#V#",
"W#X#Y#Z#`#Y A# $.$+$@$#$$$n %$&$*$=$-$;$>$,$'$)$!$~${$]$^$/$($_$",
":$<$[$(.v }$}$|$1$2$3$n 4$5$6$7$8$9$0$a$b$c$d$e$f$g$h$i$j$k$l$m$",
"n$o$p$(.(.u u q$r$s$n n t$u$v$w$x$y$z$A$B$C$D$E$F$G$H$I$J$K$L$M$",
"o$N$p$(.t s O$n n P$Q$R$S$T$U$V$W$X$Y$Z$`$ %.%+%@%#%$%%%&%*%=%-%",
";%(.v u X U >%2 n ,%'%)%!%~%{%]%^%/%(%_%:%<%[%}%|%1%2%3%4%5%6%7%",
"8%9%0%W w n Q a%b%c%d%e%f%g%h%i%j%k%l%<%m%n%o%p%q%r%s%t%u%n n v%",
"w%x%y%z%A%n B%C%D%E%F%G%H%I%J%K%L%M%N%O%P%Q%R%S%T%U%V%W%X%n n Y%",
"Z%`%j.(. &.&+&@&#&$&%&&&*&=&-&;&>&,&'&)&!&~&{&]&^&/&(&_&:&n n <&",
"[&}&n n |&1&2&3&4&5&6&7&8&9&0&a&b&c&d&B.e&f&g&h&i&j&k&l&m&n Q :.",
"n&o&n n p&q&r&s&t&u&v&w&x&y&z&A&B&C&D&E&F&G&H&I&J&K&n n L&M&N&O&",
"P&Q&n n R&S&T&U&V&W&X&Y&Z&`& *.*+*@*#*$*%*&***=*-*;*n n >*,*'*)*",
"!*~*n n {*]*^*/*(*_*:*<*[*}*|*1*2*3*4*5*6*n 7*8*9*9*0*0*a*n&b*c*",
"d*e*f*f*g*h*i*j*k*l*m*n*o*p*q*r*s*t*u*v*w*n n n n n a*x*y*z*A*f*",
"!*B*C*D*E*F*G*H*% $ I*J*K*L*> M*N*O*P*Q*R*S*T*U*V*W*X*Y*Z*z*`*f*",
"A* = =.=+=n n n n n n n n n n n n n o @=#=$=%=&=*===-=X*;=.=.=f*",
">=,='=)=c*c*c*b*a*[&M&;%!=~={=]=^=/=(=_=:=<=[=}=|=1=2=3=4=5=5=5="};
