/* XPM */
static char * pac_down_xpm[] = {
"32 32 853 2",
"  	c #000404",
". 	c #010504",
"+ 	c #020502",
"@ 	c #060702",
"# 	c #0D0C06",
"$ 	c #100B0A",
"% 	c #0D040C",
"& 	c #0B010A",
"* 	c #0A0005",
"= 	c #0A0001",
"- 	c #0D0301",
"; 	c #191303",
"> 	c #231F07",
", 	c #242106",
"' 	c #222104",
") 	c #242403",
"! 	c #262603",
"~ 	c #232503",
"{ 	c #212303",
"] 	c #212305",
"^ 	c #1E1E04",
"/ 	c #131002",
"( 	c #100701",
"_ 	c #170E04",
": 	c #160D03",
"< 	c #0B0401",
"[ 	c #040000",
"} 	c #020001",
"| 	c #020104",
"1 	c #010207",
"2 	c #010206",
"3 	c #000304",
"4 	c #010406",
"5 	c #010405",
"6 	c #0D0B06",
"7 	c #100B09",
"8 	c #0E0409",
"9 	c #000006",
"0 	c #000000",
"a 	c #0E0404",
"b 	c #605F29",
"c 	c #8A8A3C",
"d 	c #8F8F38",
"e 	c #88892B",
"f 	c #898B27",
"g 	c #8A8E27",
"h 	c #888D25",
"i 	c #878D28",
"j 	c #8A8F31",
"k 	c #7C7F2F",
"l 	c #4A4B1A",
"m 	c #020000",
"n 	c #060000",
"o 	c #070401",
"p 	c #060403",
"q 	c #030206",
"r 	c #010107",
"s 	c #000208",
"t 	c #010507",
"u 	c #030507",
"v 	c #010304",
"w 	c #010302",
"x 	c #030301",
"y 	c #080502",
"z 	c #0B0503",
"A 	c #0B0203",
"B 	c #0B0202",
"C 	c #0C0401",
"D 	c #312E0D",
"E 	c #979642",
"F 	c #D2D25E",
"G 	c #D9DA58",
"H 	c #CFD144",
"I 	c #D0D33F",
"J 	c #D1D73F",
"K 	c #CFD73D",
"L 	c #CFD741",
"M 	c #D3D94E",
"N 	c #BFC34B",
"O 	c #797C2D",
"P 	c #111000",
"Q 	c #030000",
"R 	c #0F0A01",
"S 	c #0C0700",
"T 	c #0B0803",
"U 	c #0B0A06",
"V 	c #070607",
"W 	c #000408",
"X 	c #020809",
"Y 	c #010203",
"Z 	c #010101",
"` 	c #030100",
" .	c #060200",
"..	c #484712",
"+.	c #777724",
"@.	c #7E7E1F",
"#.	c #81821B",
"$.	c #BEBF46",
"%.	c #F2F362",
"&.	c #F8F95B",
"*.	c #EEF147",
"=.	c #EEF341",
"-.	c #EFF641",
";.	c #EEF63F",
">.	c #EEF744",
",.	c #F0F851",
"'.	c #DEE54E",
").	c #A8AE34",
"!.	c #7D8222",
"~.	c #7B7E2D",
"{.	c #676A29",
"].	c #33340F",
"^.	c #080705",
"/.	c #070706",
"(.	c #010205",
"_.	c #000507",
":.	c #020908",
"<.	c #030405",
"[.	c #040100",
"}.	c #090400",
"|.	c #7A7A25",
"1.	c #C1C23F",
"2.	c #CFD13C",
"3.	c #C6C927",
"4.	c #DDDE37",
"5.	c #F9FA4A",
"6.	c #FCFE44",
"7.	c #F5FA34",
"8.	c #F3FA2F",
"9.	c #F3FB2E",
"0.	c #F6FC2F",
"a.	c #F6FD33",
"b.	c #F3FC3B",
"c.	c #E9F23B",
"d.	c #D5DD33",
"e.	c #CAD13D",
"f.	c #C8CF4F",
"g.	c #A9AE48",
"h.	c #595B22",
"i.	c #040602",
"j.	c #000402",
"k.	c #000503",
"l.	c #010703",
"m.	c #020303",
"n.	c #020101",
"o.	c #050202",
"p.	c #070102",
"q.	c #070100",
"r.	c #343508",
"s.	c #626519",
"t.	c #A9AB32",
"u.	c #E6E846",
"v.	c #F4F742",
"w.	c #E9ED29",
"x.	c #EEF123",
"y.	c #F9FA2B",
"z.	c #FAFD27",
"A.	c #F7FD1D",
"B.	c #F5FC18",
"C.	c #F7FD1B",
"D.	c #F8FE1E",
"E.	c #F4FC1F",
"F.	c #EFF924",
"G.	c #EDF62D",
"H.	c #EEF643",
"I.	c #EEF459",
"J.	c #D1D656",
"K.	c #8F933C",
"L.	c #515323",
"M.	c #27280D",
"N.	c #060D00",
"O.	c #030A00",
"P.	c #000600",
"Q.	c #040101",
"R.	c #0D0705",
"S.	c #0B0106",
"T.	c #000001",
"U.	c #63651A",
"V.	c #AAAE33",
"W.	c #D5DB3C",
"X.	c #F1F73A",
"Y.	c #F8FF30",
"Z.	c #F4F91E",
"`.	c #F2F614",
" +	c #F3F616",
".+	c #F6FA15",
"++	c #F9FE13",
"@+	c #F8FE12",
"#+	c #F7FE12",
"$+	c #F5FC16",
"%+	c #F2FC20",
"&+	c #F4FC37",
"*+	c #F8FD4E",
"=+	c #EBED58",
"-+	c #C9CD59",
";+	c #979B47",
">+	c #4A4C1F",
",+	c #121A00",
"'+	c #0B1300",
")+	c #010700",
"!+	c #020100",
"~+	c #070302",
"{+	c #110A07",
"]+	c #0A0007",
"^+	c #7A7D21",
"/+	c #CED33E",
"(+	c #EFF63F",
"_+	c #F4FC29",
":+	c #F6FE15",
"<+	c #F8FE10",
"[+	c #F5F90D",
"}+	c #F1F50E",
"|+	c #F5F713",
"1+	c #FAFD19",
"2+	c #FCFE1D",
"3+	c #FBFF1E",
"4+	c #F9FE18",
"5+	c #F7FD10",
"6+	c #F7FD0F",
"7+	c #F3FB10",
"8+	c #F5FB25",
"9+	c #FBFD3C",
"0+	c #F9FA52",
"a+	c #E9ED61",
"b+	c #B9BE52",
"c+	c #5B5E24",
"d+	c #151E00",
"e+	c #0E1600",
"f+	c #020700",
"g+	c #060400",
"h+	c #0C0701",
"i+	c #100804",
"j+	c #7C7F1A",
"k+	c #D6DB3A",
"l+	c #F5FB3B",
"m+	c #F3FC20",
"n+	c #F5FD08",
"o+	c #FBFF11",
"p+	c #FAFD16",
"q+	c #F8F91A",
"r+	c #F8F81F",
"s+	c #FAF926",
"t+	c #FDFD2E",
"u+	c #FFFF31",
"v+	c #FBFD26",
"w+	c #F7FB18",
"x+	c #F7FB12",
"y+	c #F6FB0D",
"z+	c #F3F907",
"A+	c #F5FA18",
"B+	c #FCFD2D",
"C+	c #FBFE41",
"D+	c #EEF44E",
"E+	c #BEC442",
"F+	c #5A5E1B",
"G+	c #0B1400",
"H+	c #0A1200",
"I+	c #010600",
"J+	c #090700",
"K+	c #0D0801",
"L+	c #080100",
"M+	c #211C0E",
"N+	c #423E22",
"O+	c #909230",
"P+	c #DADE39",
"Q+	c #F4FB33",
"R+	c #F3FA1B",
"S+	c #F6FB09",
"T+	c #FCFE14",
"U+	c #FEFE1C",
"V+	c #FDFD23",
"W+	c #FCF82A",
"X+	c #F9F331",
"Y+	c #F6F338",
"Z+	c #F4F438",
"`+	c #F6F62E",
" @	c #F8FA16",
".@	c #F6FA0F",
"+@	c #F4F807",
"@@	c #F6F90F",
"#@	c #FCFD1E",
"$@	c #FBFE2A",
"%@	c #EFF631",
"&@	c #C5CC2A",
"*@	c #767B17",
"=@	c #323607",
"-@	c #181D02",
";@	c #000300",
">@	c #010501",
",@	c #090600",
"'@	c #4F4C29",
")@	c #928F52",
"!@	c #C2C15A",
"~@	c #E6EA46",
"{@	c #F6FB2D",
"]@	c #F6FC16",
"^@	c #F9FD08",
"/@	c #FDFE12",
"(@	c #FEFD1A",
"_@	c #FDFA24",
":@	c #FCF631",
"<@	c #F5ED39",
"[@	c #DAD535",
"}@	c #C9C72E",
"|@	c #E1E028",
"1@	c #F6F522",
"2@	c #FAFB1A",
"3@	c #FAFC12",
"4@	c #F9FB0A",
"5@	c #FAFB0A",
"6@	c #FDFE13",
"7@	c #FDFF1A",
"8@	c #F5FA20",
"9@	c #DCE327",
"0@	c #B3B92A",
"a@	c #7F8420",
"b@	c #373B08",
"c@	c #080400",
"d@	c #696636",
"e@	c #BFBC69",
"f@	c #E6E570",
"g@	c #F2F54F",
"h@	c #F7FC28",
"i@	c #F9FD13",
"j@	c #FBFE07",
"k@	c #FDFD0D",
"l@	c #FDFA15",
"m@	c #FCF621",
"n@	c #FDF435",
"o@	c #F2E73E",
"p@	c #BAB130",
"q@	c #8B8819",
"r@	c #CAC81D",
"s@	c #F6F423",
"t@	c #FDFD1D",
"u@	c #FEFE14",
"v@	c #FEFE0D",
"w@	c #FEFE09",
"x@	c #FFFF0D",
"y@	c #FEFF14",
"z@	c #FBFE1E",
"A@	c #F1F52E",
"B@	c #DCE138",
"C@	c #A8AD2D",
"D@	c #4A4D0E",
"E@	c #030601",
"F@	c #070300",
"G@	c #6D6C32",
"H@	c #C7C661",
"I@	c #EEEE69",
"J@	c #F7F94A",
"K@	c #F9FC27",
"L@	c #F9FC13",
"M@	c #F9FB04",
"N@	c #FAFA07",
"O@	c #FBF911",
"P@	c #FCF821",
"Q@	c #FFF738",
"R@	c #F3E842",
"S@	c #AFA630",
"T@	c #706C0F",
"U@	c #C4C318",
"V@	c #F8F721",
"W@	c #FFFF1A",
"X@	c #FEFF10",
"Y@	c #FFFE09",
"Z@	c #FFFE07",
"`@	c #FFFF0C",
" #	c #FFFF15",
".#	c #FDFF20",
"+#	c #F6F930",
"@#	c #E4E73A",
"##	c #B0B22E",
"$#	c #4E500E",
"%#	c #070900",
"&#	c #050200",
"*#	c #6B6C26",
"=#	c #C3C44C",
"-#	c #ECEE53",
";#	c #F9FA3F",
">#	c #FBFC28",
",#	c #F6FA13",
"'#	c #F5F701",
")#	c #F7F704",
"!#	c #FAF910",
"~#	c #FDFA21",
"{#	c #FFF93A",
"]#	c #F4E945",
"^#	c #B2A834",
"/#	c #767212",
"(#	c #C8C719",
"_#	c #FAFA21",
":#	c #FFFF17",
"<#	c #FFFD03",
"[#	c #FFFC05",
"}#	c #FFFE0E",
"|#	c #FFFF18",
"1#	c #FEFE23",
"2#	c #F6F632",
"3#	c #E2E23A",
"4#	c #AEAD2E",
"5#	c #4E4D0E",
"6#	c #0A0A00",
"7#	c #050100",
"8#	c #6D6F21",
"9#	c #C6CA43",
"0#	c #EEF24A",
"a#	c #F7FA39",
"b#	c #F8FB23",
"c#	c #F4F810",
"d#	c #F4F704",
"e#	c #F8F90C",
"f#	c #FAF912",
"g#	c #FBF920",
"h#	c #FEF73C",
"i#	c #F2E74A",
"j#	c #B0A637",
"k#	c #767315",
"l#	c #C9C91F",
"m#	c #FBFC27",
"n#	c #FFFF1B",
"o#	c #FEFE0B",
"p#	c #FFFC04",
"q#	c #FFFB05",
"r#	c #FFFA0B",
"s#	c #FFFB15",
"t#	c #FEFB22",
"u#	c #F9F737",
"v#	c #EAE945",
"w#	c #B5B438",
"x#	c #525013",
"y#	c #0A0801",
"z#	c #717422",
"A#	c #CDD145",
"B#	c #F2F84B",
"C#	c #F5FA36",
"D#	c #F3F91D",
"E#	c #F2F80D",
"F#	c #F6F90B",
"G#	c #FBFC14",
"H#	c #FBFA17",
"I#	c #F8F521",
"J#	c #F7EF3D",
"K#	c #E8DD4B",
"L#	c #A89E38",
"M#	c #726F16",
"N#	c #C3C424",
"O#	c #F5F62D",
"P#	c #FDFE23",
"Q#	c #FFFC0B",
"R#	c #FFF905",
"S#	c #FFF506",
"T#	c #FEF50C",
"U#	c #FDF71D",
"V#	c #FDFA3D",
"W#	c #F5F450",
"X#	c #C0BF42",
"Y#	c #565518",
"Z#	c #080503",
"`#	c #070207",
" $	c #717423",
".$	c #CDD246",
"+$	c #F2F84C",
"@$	c #F2FA35",
"#$	c #F2F91B",
"$$	c #F5F912",
"%$	c #F6F910",
"&$	c #F7F914",
"*$	c #F9F91D",
"=$	c #F7F529",
"-$	c #E6E139",
";$	c #C8BF41",
">$	c #8C832F",
",$	c #605D12",
"'$	c #A4A51F",
")$	c #D6D82A",
"!$	c #EFF028",
"~$	c #FBFA21",
"{$	c #FEFA14",
"]$	c #FFF707",
"^$	c #FFF504",
"/$	c #FEF507",
"($	c #FDF819",
"_$	c #FFFC3C",
":$	c #F7F651",
"<$	c #C2C143",
"[$	c #575618",
"}$	c #09020D",
"|$	c #030001",
"1$	c #6F7123",
"2$	c #CACE48",
"3$	c #EFF54E",
"4$	c #F1F936",
"5$	c #F4FA1F",
"6$	c #F9FC1A",
"7$	c #F6F913",
"8$	c #F0F30F",
"9$	c #F5F723",
"0$	c #CFCD31",
"a$	c #8A8527",
"b$	c #514818",
"c$	c #3B3707",
"d$	c #61610E",
"e$	c #9B9C1E",
"f$	c #D7D82D",
"g$	c #F6F42F",
"h$	c #FDF61E",
"i$	c #FEF60A",
"j$	c #FFF705",
"k$	c #FFF906",
"l$	c #FEFB16",
"m$	c #FEFB37",
"n$	c #F4F24A",
"o$	c #BFBD3D",
"p$	c #555316",
"q$	c #07010D",
"r$	c #08020E",
"s$	c #6E7027",
"t$	c #C8CC4D",
"u$	c #EDF353",
"v$	c #F1F93A",
"w$	c #F5FC21",
"x$	c #FBFE1B",
"y$	c #F7FA13",
"z$	c #EFF40E",
"A$	c #F3F726",
"B$	c #F3F436",
"C$	c #BFBE2B",
"D$	c #54510C",
"E$	c #110200",
"F$	c #6D6D1B",
"G$	c #CACB3B",
"H$	c #F4F340",
"I$	c #FCF72C",
"J$	c #FFF813",
"K$	c #FEFC09",
"L$	c #FDFB16",
"M$	c #FCFB37",
"N$	c #F3F04B",
"O$	c #BEBB3E",
"P$	c #545216",
"Q$	c #000003",
"R$	c #070111",
"S$	c #04000C",
"T$	c #6E6F2A",
"U$	c #C7CA54",
"V$	c #EDF25A",
"W$	c #F2FA40",
"X$	c #F5FD23",
"Y$	c #FAFE18",
"Z$	c #F9FD10",
"`$	c #F4FA11",
" %	c #F5FA28",
".%	c #EFF037",
"+%	c #B9B92B",
"@%	c #4E4C09",
"#%	c #090000",
"$%	c #6A6A23",
"%%	c #CBCC4B",
"&%	c #F5F552",
"*%	c #FDFB39",
"=%	c #FFFC1C",
"-%	c #FFFD12",
";%	c #FDFC0E",
">%	c #FAF91A",
",%	c #FAF93D",
"'%	c #F2F052",
")%	c #BDBC44",
"!%	c #545219",
"~%	c #000004",
"{%	c #060113",
"]%	c #04010B",
"^%	c #050102",
"/%	c #626327",
"(%	c #B2B54E",
"_%	c #DBE055",
":%	c #EBF43D",
"<%	c #F4FD23",
"[%	c #F8FF15",
"}%	c #F8FF0C",
"|%	c #F5FD12",
"1%	c #F6FC2C",
"2%	c #EEF13C",
"3%	c #B9B930",
"4%	c #51500E",
"5%	c #0C0100",
"6%	c #6C6D2A",
"7%	c #C9CC55",
"8%	c #F3F55D",
"9%	c #FBFC41",
"0%	c #FDFD20",
"a%	c #FCFD15",
"b%	c #FAFB18",
"c%	c #F6F626",
"d%	c #EEEE3F",
"e%	c #DDDC4E",
"f%	c #AAA940",
"g%	c #4B4917",
"h%	c #000005",
"i%	c #040013",
"j%	c #07040D",
"k%	c #080405",
"l%	c #414118",
"m%	c #7A7B34",
"n%	c #ADB23B",
"o%	c #DAE530",
"p%	c #F1FC22",
"q%	c #F5FE08",
"r%	c #F1FC12",
"s%	c #F5FD32",
"t%	c #F1F645",
"u%	c #BCBE37",
"v%	c #515111",
"w%	c #0B0300",
"x%	c #686B2C",
"y%	c #C2C75A",
"z%	c #ECF162",
"A%	c #F6F944",
"B%	c #F8FB20",
"C%	c #F7F915",
"D%	c #F6F823",
"E%	c #F1F235",
"F%	c #D6D73B",
"G%	c #A6A637",
"H%	c #727129",
"I%	c #32300D",
"J%	c #030010",
"K%	c #09050C",
"L%	c #0A0606",
"M%	c #090402",
"N%	c #0E0903",
"O%	c #1E1D09",
"P%	c #7F871C",
"Q%	c #CFDA2D",
"R%	c #EFFB2E",
"S%	c #F3FE1F",
"T%	c #F2FD13",
"U%	c #ECF919",
"V%	c #EBF534",
"W%	c #E2E844",
"X%	c #AFB236",
"Y%	c #4B4B11",
"Z%	c #5C6029",
"`%	c #ADB354",
" &	c #D9DF5D",
".&	c #EDF244",
"+&	c #F5F929",
"@&	c #F4F822",
"#&	c #F4F737",
"$&	c #EFF14B",
"%&	c #C4C543",
"&&	c #696A20",
"*&	c #0A0501",
"=&	c #110D02",
"-&	c #030005",
";&	c #02010B",
">&	c #060207",
",&	c #080403",
"'&	c #0D0702",
")&	c #787E20",
"!&	c #CFD93F",
"~&	c #EFFB42",
"{&	c #F1FE2F",
"]&	c #F0FD23",
"^&	c #E9F726",
"/&	c #D3DE2D",
"(&	c #AEB431",
"_&	c #7D7F25",
":&	c #363609",
"<&	c #070400",
"[&	c #3F421B",
"}&	c #7A803B",
"|&	c #B0B646",
"1&	c #E0E740",
"2&	c #F6FC39",
"3&	c #F7FC36",
"4&	c #F7FB4E",
"5&	c #F1F466",
"6&	c #C3C558",
"7&	c #5B5C26",
"8&	c #020208",
"9&	c #030102",
"0&	c #060201",
"a&	c #0D0701",
"b&	c #747926",
"c&	c #C4CC45",
"d&	c #E5F04D",
"e&	c #ECF846",
"f&	c #EEFB43",
"g&	c #E8F443",
"h&	c #BEC736",
"i&	c #6B711A",
"j&	c #252604",
"k&	c #181801",
"l&	c #060300",
"m&	c #050401",
"n&	c #000301",
"o&	c #0F1505",
"p&	c #252B10",
"q&	c #83892A",
"r&	c #D4DC43",
"s&	c #F5FD4B",
"t&	c #F7FD4A",
"u&	c #F3F75B",
"v&	c #E6E96E",
"w&	c #B8BA5F",
"x&	c #5B5C2B",
"y&	c #080700",
"z&	c #040401",
"A&	c #020305",
"B&	c #040200",
"C&	c #090401",
"D&	c #55581A",
"E&	c #949A34",
"F&	c #C1C84E",
"G&	c #E2E964",
"H&	c #F0F76C",
"I&	c #E9F169",
"J&	c #BAC052",
"K&	c #545722",
"L&	c #070503",
"M&	c #030305",
"N&	c #060B06",
"O&	c #747A2A",
"P&	c #CED753",
"Q&	c #F0FA61",
"R&	c #F1F95F",
"S&	c #DFE55D",
"T&	c #BABD5A",
"U&	c #898B48",
"V&	c #43441F",
"W&	c #050600",
"X&	c #020400",
"Y&	c #040500",
"Z&	c #030200",
"`&	c #050000",
" *	c #1F1F01",
".*	c #434512",
"+*	c #8E9047",
"@*	c #CECF70",
"#*	c #E4E77D",
"$*	c #DEE279",
"%*	c #B3B660",
"&*	c #55572A",
"**	c #030107",
"=*	c #03040C",
"-*	c #070D0B",
";*	c #010A06",
">*	c #6E7430",
",*	c #C0C95A",
"'*	c #DFE968",
")*	c #DEE766",
"!*	c #BFC657",
"~*	c #797C37",
"{*	c #363618",
"]*	c #1B1C07",
"^*	c #000200",
"/*	c #010400",
"(*	c #060500",
"_*	c #050400",
":*	c #605E35",
"<*	c #9F9E5A",
"[*	c #B3B466",
"}*	c #AFB063",
"|*	c #8C8D4D",
"1*	c #424221",
"2*	c #030105",
"3*	c #030411",
"4*	c #050815",
"5*	c #060C0F",
"6*	c #010805",
"7*	c #545925",
"8*	c #959C47",
"9*	c #AEB654",
"0*	c #ACB452",
"a*	c #8F9542",
"b*	c #45491B",
"c*	c #040501",
"d*	c #010300",
"e*	c #020601",
"f*	c #040902",
"g*	c #080500",
"h*	c #0B0601",
"i*	c #090500",
"j*	c #302F16",
"k*	c #504F29",
"l*	c #5B5B30",
"m*	c #58592E",
"n*	c #454623",
"o*	c #1E1E0B",
"p*	c #02030A",
"q*	c #050916",
"r*	c #070D1A",
"s*	c #040911",
"t*	c #010403",
"u*	c #000100",
"v*	c #272B0D",
"w*	c #4A4F1F",
"x*	c #575C26",
"y*	c #575B25",
"z*	c #484B1D",
"A*	c #23250A",
"B*	c #010102",
"C*	c #000101",
"D*	c #010301",
"E*	c #040803",
"F*	c #060C04",
"G*	c #0A0300",
"H*	c #090300",
"I*	c #080601",
"J*	c #090701",
"K*	c #01050B",
"L*	c #030A14",
"M*	c #050C17",
"N*	c #02070E",
"O*	c #010202",
"P*	c #020300",
"Q*	c #020302",
"R*	c #000204",
"S*	c #030605",
"T*	c #050804",
"U*	c #0B0100",
"V*	c #090100",
"W*	c #060100",
"X*	c #030400",
"Y*	c #030500",
"Z*	c #010408",
"`*	c #00080B",
" =	c #010A0E",
".=	c #010A0D",
"+=	c #010506",
"@=	c #000102",
"#=	c #000008",
"$=	c #000009",
"%=	c #020205",
"&=	c #0C0000",
"*=	c #010500",
"==	c #020500",
"-=	c #040302",
";=	c #040104",
">=	c #030007",
",=	c #00040A",
"'=	c #00080A",
")=	c #000909",
"!=	c #000706",
"~=	c #080000",
"{=	c #070000",
"]=	c #060001",
"^=	c #050001",
"/=	c #010001",
"(=	c #00000B",
"_=	c #00000A",
":=	c #010007",
"  . + @ # $ % & * = - ; > , ' ) ! ~ { ] ^ / ( _ : < [ } | 1 2 3 ",
"4 5 + @ 6 7 8 9 0 0 a b c d e f g h i j k l 0 0 m n o p q r s t ",
"u v w x y z A B C 0 D E F G H I J K L M N O P Q R S T U V 2 W X ",
"u Y Z `  .0 0 ..+.@.#.$.%.&.*.=.-.;.>.,.'.).!.~.{.].0 ^./.(._.:.",
"<.Z m [.}.0 0 |.1.2.3.4.5.6.7.8.9.0.a.b.c.d.e.f.g.h.0 Z i.j.k.l.",
"m.n.o.p.q.r.s.t.u.v.w.x.y.z.A.B.B.C.D.E.F.G.H.I.J.K.L.M.0 N.O.P.",
"Z Q.R.S.T.U.V.W.X.Y.Z.`. +.+++++@+@+@+#+$+%+&+*+=+-+;+>+0 ,+'+)+",
"!+~+{+]+0 ^+/+(+_+:+<+[+}+|+1+2+3+4+5+<+6+7+8+9+0+a+b+c+0 d+e+f+",
"g+h+i+T.0 j+k+l+m+n+o+p+q+r+s+t+u+v+w+x+y+z+A+B+C+D+E+F+0 G+H+I+",
"J+K+L+M+N+O+P+Q+R+S+T+U+V+W+X+Y+Z+`+r+ @.@+@@@#@$@%@&@*@=@-@;@>@",
",@}.0 '@)@!@~@{@]@^@/@(@_@:@<@[@}@|@1@2@3@4@5@6@7@8@9@0@a@b@0 >@",
"c@[ 0 d@e@f@g@h@i@j@k@l@m@n@o@p@q@r@s@t@u@v@w@x@y@z@A@B@C@D@0 E@",
"F@Q 0 G@H@I@J@K@L@M@N@O@P@Q@R@S@T@U@V@W@X@Y@Z@`@ #.#+#@###$#0 %#",
"&#Q 0 *#=#-#;#>#,#'#)#!#~#{#]#^#/#(#_#:#w@<#[#}#|#1#2#3#4#5#0 6#",
"7#[.0 8#9#0#a#b#c#d#e#f#g#h#i#j#k#l#m#n#o#p#q#r#s#t#u#v#w#x#0 y#",
"o.` 0 z#A#B#C#D#E#F#G#H#I#J#K#L#M#N#O#P#u@Q#R#S#T#U#V#W#X#Y#0 Z#",
"`#Q 0  $.$+$@$#$$$%$&$*$=$-$;$>$,$'$)$!$~${$]$^$/$($_$:$<$[$0 `#",
"}$|$0 1$2$3$4$5$6$7$8$9$2#0$a$b$c$d$e$f$g$h$i$j$k$l$m$n$o$p$0 q$",
"r$} 0 s$t$u$v$w$x$y$z$A$B$C$D$0 E$0 F$G$H$I$J$r#K$L$M$N$O$P$Q$R$",
"S$Q 0 T$U$V$W$X$Y$Z$`$ %.%+%@%0 #%0 $%%%&%*%=%-%;%>%,%'%)%!%~%{%",
"]%^%0 /%(%_%:%<%[%}%|%1%2%3%4%0 5%0 6%7%8%9%0%a%b%c%d%e%f%g%h%i%",
"j%k%0 l%m%n%o%p%:+q%r%s%t%u%v%0 w%0 x%y%z%A%B%C%D%E%F%G%H%I%9 J%",
"K%L%M%N%O%P%Q%R%S%T%U%V%W%X%Y%0 }.0 Z%`% &.&+&@&#&$&%&&&*&=&-&;&",
">&,&'&0 0 )&!&~&{&]&^&/&(&_&:&0 <&0 [&}&|&1&2&3&4&5&6&7&0 [.p 8&",
"9&0&a&n 0 b&c&d&e&f&g&h&i&j&k&l&m&n&o&p&q&r&s&t&u&v&w&x&0 y&z&A&",
"x B&C&n 0 D&E&F&G&H&I&J&K&0 l&L&M&N&T.0 O&P&Q&R&S&T&U&V&0 W&X&w ",
"Y&Z&[.`&`& *.*+*@*#*$*%*&*0 o.**=*-*;*0 >*,*'*)*!*~*{*]*^*X&/*>@",
"(*_*[.7#C&0 0 :*<*[*}*|*1*0 2*3*4*5*6*0 7*8*9*0*a*b*0 0 c*d*e*f*",
"g*<&&# .h*i*F@j*k*l*m*n*o*T.p*q*r*s*t*u*v*w*x*y*z*A*0 B*C*D*E*F*",
"G*H* .&#I*J*(*0 0 0 0 0 0 <.K*L*M*N*O*P*0 0 0 0 0 0 Q*~%~%R*S*T*",
"U*V*W*B&X*Y*Y*^*0 0 0 T.~%Z*`* =.=+=Z [.[ 0 0 0 0 0 @=h%#=$=1 %=",
"&=#%W*Z&d*/**=====-=;=>=$=,='=)=!=t*` n ~={=]=^=|$/=Q$9 $=(=_=:="};
