/* XPM */
static char * player_A_1_xpm[] = {
"32 32 454 2",
"  	c #4D9262",
". 	c #4D9161",
"+ 	c #4C9161",
"@ 	c #4C9061",
"# 	c #407B52",
"$ 	c #376B47",
"% 	c #366B47",
"& 	c #325E3F",
"* 	c #4B8E5F",
"= 	c #4B8F60",
"- 	c #478156",
"; 	c #4C5235",
"> 	c #5E140E",
", 	c #711E17",
"' 	c #751F18",
") 	c #6C1D15",
"! 	c #55180F",
"~ 	c #320705",
"{ 	c #295236",
"] 	c #3A6C49",
"^ 	c #417D54",
"/ 	c #444E33",
"( 	c #882215",
"_ 	c #BC1414",
": 	c #DF2525",
"< 	c #E52828",
"[ 	c #D32020",
"} 	c #A60808",
"| 	c #660202",
"1 	c #1E3E29",
"2 	c #48895C",
"3 	c #565739",
"4 	c #88170F",
"5 	c #C41616",
"6 	c #EC2424",
"7 	c #FD2C2C",
"8 	c #F22626",
"9 	c #CF1A1A",
"0 	c #971811",
"a 	c #5F5034",
"b 	c #3D764E",
"c 	c #498B5D",
"d 	c #48885B",
"e 	c #448156",
"f 	c #2A5235",
"g 	c #701206",
"h 	c #B50B08",
"i 	c #E21F20",
"j 	c #F62929",
"k 	c #F12727",
"l 	c #CF1717",
"m 	c #980804",
"n 	c #4D2616",
"o 	c #386A46",
"p 	c #468659",
"q 	c #47885B",
"r 	c #346543",
"s 	c #254B31",
"t 	c #29492F",
"u 	c #33381F",
"v 	c #7A240F",
"w 	c #B30A05",
"x 	c #C60E0E",
"y 	c #CD1414",
"z 	c #C71212",
"A 	c #A50607",
"B 	c #771606",
"C 	c #452D14",
"D 	c #2B4329",
"E 	c #264C31",
"F 	c #295135",
"G 	c #407A51",
"H 	c #47875A",
"I 	c #396C48",
"J 	c #303925",
"K 	c #372A2A",
"L 	c #534F4A",
"M 	c #7C7669",
"N 	c #927366",
"O 	c #9D4844",
"P 	c #AD2021",
"Q 	c #AE0000",
"R 	c #9D0000",
"S 	c #850000",
"T 	c #712808",
"U 	c #674513",
"V 	c #49300E",
"W 	c #2B0207",
"X 	c #2D0D0B",
"Y 	c #345538",
"Z 	c #74A851",
"` 	c #282B1C",
" .	c #3C0409",
"..	c #523C3B",
"+.	c #716C65",
"@.	c #A0998B",
"#.	c #A29B8D",
"$.	c #8A776F",
"%.	c #A34A41",
"&.	c #A31F00",
"*.	c #832103",
"=.	c #792003",
"-.	c #7B3B09",
";.	c #7A5412",
">.	c #643A0E",
",.	c #4B0009",
"'.	c #44040B",
").	c #300D0C",
"!.	c #2C4C32",
"~.	c #448056",
"{.	c #547B3A",
"].	c #3C050A",
"^.	c #430009",
"/.	c #4A2C25",
"(.	c #574C3F",
"_.	c #6E6555",
":.	c #8F887A",
"<.	c #A89E8F",
"[.	c #9F795E",
"}.	c #8F5205",
"|.	c #835310",
"1.	c #825310",
"2.	c #785012",
"3.	c #624414",
"4.	c #66290C",
"5.	c #640005",
"6.	c #4C0009",
"7.	c #3F0109",
"8.	c #372116",
"9.	c #2D4D33",
"0.	c #3F7A51",
"a.	c #4D9162",
"b.	c #47875B",
"c.	c #3D5A29",
"d.	c #3D0205",
"e.	c #5B0006",
"f.	c #5C0006",
"g.	c #573029",
"h.	c #5B5449",
"i.	c #787263",
"j.	c #938D7F",
"k.	c #9F998B",
"l.	c #84755B",
"m.	c #6E530E",
"n.	c #6F5415",
"o.	c #705515",
"p.	c #694A14",
"q.	c #5D2D0F",
"r.	c #6C1306",
"s.	c #6F0001",
"t.	c #5F0005",
"u.	c #5D0006",
"v.	c #510106",
"w.	c #26150D",
"x.	c #386E49",
"y.	c #3F5C2A",
"z.	c #4D0203",
"A.	c #730000",
"B.	c #7C0000",
"C.	c #7A3C39",
"D.	c #816B65",
"E.	c #A9998B",
"F.	c #A8988B",
"G.	c #827068",
"H.	c #694B3E",
"I.	c #5E3411",
"J.	c #5E3514",
"K.	c #5D3614",
"L.	c #692C10",
"M.	c #7B1104",
"N.	c #7F0100",
"O.	c #7F0000",
"P.	c #7E0001",
"Q.	c #7A0001",
"R.	c #660101",
"S.	c #301B10",
"T.	c #396E49",
"U.	c #4D0202",
"V.	c #7D0000",
"W.	c #9C0000",
"X.	c #A62322",
"Y.	c #A7423F",
"Z.	c #B36158",
"`.	c #B25E56",
" +	c #A43D39",
".+	c #9E241E",
"++	c #9D1706",
"@+	c #9D1807",
"#+	c #A01205",
"$+	c #A50100",
"%+	c #A60000",
"&+	c #A70000",
"*+	c #A50000",
"=+	c #8F0000",
"-+	c #690101",
";+	c #311B10",
">+	c #254A30",
",+	c #420204",
"'+	c #700003",
")+	c #970001",
"!+	c #AC0000",
"~+	c #BA0000",
"{+	c #CE0407",
"]+	c #D70F11",
"^+	c #D71515",
"/+	c #D71818",
"(+	c #D71919",
"_+	c #D71819",
":+	c #D51818",
"<+	c #C50D0D",
"[+	c #B30000",
"}+	c #860002",
"|+	c #5B0104",
"1+	c #2A150D",
"2+	c #2B5538",
"3+	c #2F1B12",
"4+	c #4F0409",
"5+	c #6F0003",
"6+	c #900000",
"7+	c #B60809",
"8+	c #E12121",
"9+	c #F22929",
"0+	c #EE2727",
"a+	c #CD1717",
"b+	c #A30001",
"c+	c #810001",
"d+	c #600005",
"e+	c #3F0F0E",
"f+	c #253220",
"g+	c #3B724C",
"h+	c #7AB055",
"i+	c #438055",
"j+	c #345D3D",
"k+	c #31150F",
"l+	c #4E0107",
"m+	c #650001",
"n+	c #A60D12",
"o+	c #B61211",
"p+	c #B40304",
"q+	c #B40910",
"r+	c #B40E16",
"s+	c #B40F16",
"t+	c #B41117",
"u+	c #B51317",
"v+	c #B11216",
"w+	c #95080E",
"x+	c #730007",
"y+	c #5C0007",
"z+	c #3F0206",
"A+	c #2D3C27",
"B+	c #3D724C",
"C+	c #427E54",
"D+	c #2F5638",
"E+	c #342B1C",
"F+	c #71543D",
"G+	c #967556",
"H+	c #754732",
"I+	c #7B565A",
"J+	c #A28685",
"K+	c #AC7760",
"L+	c #AE662E",
"M+	c #AD652F",
"N+	c #A55728",
"O+	c #A04C23",
"P+	c #9B4922",
"Q+	c #6F2F16",
"R+	c #360108",
"S+	c #36050A",
"T+	c #303F29",
"U+	c #366A46",
"V+	c #498C5E",
"W+	c #458358",
"X+	c #284B31",
"Y+	c #9B805D",
"Z+	c #D7B282",
"`+	c #987752",
" @	c #998E8B",
".@	c #DCCEC7",
"+@	c #EAB792",
"@@	c #EC9F4B",
"#@	c #EA9C4E",
"$@	c #DA8743",
"%@	c #D0773C",
"&@	c #C9743A",
"*@	c #894C25",
"=@	c #120D09",
"-@	c #1E311F",
";@	c #3B704A",
">@	c #4A8D5F",
",@	c #285034",
"'@	c #856143",
")@	c #C79163",
"!@	c #CD8F51",
"~@	c #DBA573",
"{@	c #F0BE98",
"]@	c #EBA772",
"^@	c #E69248",
"/@	c #E39048",
"(@	c #CE7B3F",
"_@	c #C06B39",
":@	c #BA6837",
"<@	c #7C4423",
"[@	c #1C3D27",
"}@	c #3A714B",
"|@	c #498A5D",
"1@	c #43764F",
"2@	c #484A2F",
"3@	c #6A341D",
"4@	c #96542C",
"5@	c #C48040",
"6@	c #D69147",
"7@	c #D48C43",
"8@	c #D1783A",
"9@	c #D06B35",
"0@	c #CC6934",
"a@	c #B0572D",
"b@	c #964829",
"c@	c #8B492A",
"d@	c #604F31",
"e@	c #4A8C5E",
"f@	c #373E27",
"g@	c #6C3E25",
"h@	c #6A3920",
"i@	c #492513",
"j@	c #633319",
"k@	c #6F3B1D",
"l@	c #79391B",
"m@	c #A63015",
"n@	c #BB2911",
"o@	c #B72B12",
"p@	c #9E3116",
"q@	c #7D3518",
"r@	c #5F3E21",
"s@	c #4D6F48",
"t@	c #488A5C",
"u@	c #3A704A",
"v@	c #342113",
"w@	c #733E24",
"x@	c #6A3A21",
"y@	c #2A0906",
"z@	c #4F0000",
"A@	c #600000",
"B@	c #6D0000",
"C@	c #A00000",
"D@	c #B70000",
"E@	c #B9200A",
"F@	c #C76D33",
"G@	c #CD8842",
"H@	c #C18542",
"I@	c #857140",
"J@	c #4A8D5E",
"K@	c #407C52",
"L@	c #3A5336",
"M@	c #633C24",
"N@	c #59301B",
"O@	c #320D07",
"P@	c #640000",
"Q@	c #770000",
"R@	c #9A0000",
"S@	c #A30000",
"T@	c #A83114",
"U@	c #DD8B44",
"V@	c #F7A954",
"W@	c #9C6631",
"X@	c #274F33",
"Y@	c #468257",
"Z@	c #24180D",
"`@	c #290906",
" #	c #630101",
".#	c #780000",
"+#	c #6E0000",
"@#	c #683015",
"##	c #C98742",
"$#	c #EC9D4E",
"%#	c #D68442",
"&#	c #8C5228",
"*#	c #274F34",
"=#	c #4C9060",
"-#	c #417D53",
";#	c #2D5A3B",
">#	c #1F1A11",
",#	c #4E0005",
"'#	c #690003",
")#	c #760000",
"!#	c #5F0000",
"~#	c #381F0D",
"{#	c #875D2C",
"]#	c #A36A33",
"^#	c #915529",
"/#	c #5D3217",
"(#	c #275034",
"_#	c #468559",
":#	c #3B6743",
"<#	c #352F17",
"[#	c #45220D",
"}#	c #5C220C",
"|#	c #6E2007",
"1#	c #6C1003",
"2#	c #560102",
"3#	c #210604",
"4#	c #171307",
"5#	c #221809",
"6#	c #2A1F0A",
"7#	c #354B2E",
"8#	c #669346",
"9#	c #305E3E",
"0#	c #3A3B1E",
"a#	c #544116",
"b#	c #594215",
"c#	c #5D4215",
"d#	c #5E3E14",
"e#	c #45250A",
"f#	c #250B08",
"g#	c #171D10",
"h#	c #2D2612",
"i#	c #382B11",
"j#	c #3C2E11",
"k#	c #4D3B14",
"l#	c #4B3E19",
"m#	c #3D5124",
"n#	c #3E774F",
"o#	c #3B2C0D",
"p#	c #5B4516",
"q#	c #5E4817",
"r#	c #584416",
"s#	c #34290C",
"t#	c #1E4029",
"u#	c #356543",
"v#	c #30482D",
"w#	c #392B0F",
"x#	c #4F3D15",
"y#	c #5B4517",
"z#	c #503D13",
"A#	c #25200A",
"B#	c #336342",
"C#	c #3F502F",
"D#	c #575D33",
"E#	c #5B5E33",
"F#	c #5B5F33",
"G#	c #575C33",
"H#	c #3C4F2F",
"I#	c #356845",
"J#	c #3A4F2F",
"K#	c #565C33",
"L#	c #4F5831",
"M#	c #315133",
"N#	c #3F7951",
"O#	c #4A875A",
"P#	c #4F885A",
"Q#	c #50895A",
"R#	c #76A44E",
"S#	c #49875A",
"T#	c #4D885A",
"U#	c #48875A",
"                              . + + + + + + .                   ",
"                            @ # $ $ $ $ $ % & *                 ",
"                          = - ; > , ' ) ! ~ { ]                 ",
"                          ^ / ( _ : < [ } | 1 2                 ",
"                      @ # 3 4 5 6 7 8 9 0 a b =                 ",
"                + c d e f g h i j k l m n o p q *               ",
"                c r s t u v w x y z A B C D E F G               ",
"              H I J K L M N O P Q R S T U V W X Y # =           ",
"          + Z I `  ...+.@.#.$.%.&.*.=.-.;.>.,.'.).!.~.=         ",
"          c {.J ].^./.(._.:.<.[.}.|.1.2.3.4.5.6.7.8.9.0.a.      ",
"          b.c.d.e.f.g.h.i.j.k.l.m.n.o.p.q.r.s.t.u.v.w.x..       ",
"          q y.z.A.B.C.D.E.F.G.H.I.J.K.L.M.N.O.P.Q.R.S.T..       ",
"          q E U.V.W.X.Y.Z.`. +.+++@+@+#+$+%+&+*+=+-+;+T..       ",
"          b.>+,+'+)+!+~+{+]+^+/+(+_+_+(+:+<+[+*+}+|+1+x..       ",
"          2 2+3+4+5+6+7+8+9+9+9+9+9+9+9+0+a+b+c+d+e+f+g+a.      ",
"h+        = i+j+k+l+m+O.n+o+p+q+r+s+t+u+v+w+x+y+z+A+B+d         ",
"  h+          C+D+E+F+G+H+I+J+K+L+M+N+O+P+Q+R+S+T+U+V+        h+",
"h+            + W+X+Y+Z+`+ @.@+@@@#@$@%@&@*@=@-@;@>@.           ",
"                c ,@'@)@!@~@{@]@^@/@(@_@:@<@[@}@2               ",
"              |@1@2@3@4@5@6@7@8@9@0@a@b@c@d@% e@                ",
"              b f@g@h@i@j@k@l@m@n@o@p@q@r@s@t@+                 ",
"              u@v@w@x@y@z@A@B@C@D@E@F@G@H@I@}@J@                ",
"              K@L@M@N@O@P@Q@V.R@S@T@U@V@#@W@X@2                 ",
"              = Y@L@Z@`@ #Q@.#O.+#@###$#%#&#*#2                 ",
"                =#-#;#>#,#'#)#.#!#~#{#]#^#/#(#|@  h+            ",
"                @ _#:#<#[#}#|#1#2#3#4#5#5#6#7#8#V+h+            ",
"                |@9#0#a#b#c#d#e#f#g#h#i#j#k#l#m#n#h+            ",
"                2 s o#p#q#q#r#s#t#u#v#w#x#y#z#A#u@              ",
"                c B#C#D#E#F#G#H#I#d $ J#K#F#L#M#N#              ",
"                @ 2 O#P#Q#R#P#O#|@@ c S#P#Q#T#U#>@              ",
"                        h+  h+                                  ",
"                          h+                                    "};
