/* XPM */
static char * player_A_0_xpm[] = {
"32 32 456 2",
"  	c #4D9262",
". 	c #4D9162",
"+ 	c #4C9161",
"@ 	c #47875A",
"# 	c #396F4A",
"$ 	c #376B47",
"% 	c #396E49",
"& 	c #468559",
"* 	c #3E734E",
"= 	c #498A5D",
"- 	c #496E49",
"; 	c #532D1C",
"> 	c #6A1712",
", 	c #751F17",
"' 	c #721E17",
") 	c #611A12",
"! 	c #440E08",
"~ 	c #222C1B",
"{ 	c #305C3D",
"] 	c #4A8C5E",
"^ 	c #346543",
"/ 	c #693622",
"( 	c #A60F0B",
"_ 	c #D21F1F",
": 	c #E52828",
"< 	c #DF2525",
"[ 	c #BD1515",
"} 	c #870101",
"| 	c #3B2617",
"1 	c #3C744D",
"2 	c #47875B",
"3 	c #466B47",
"4 	c #6E3A25",
"5 	c #A80F0E",
"6 	c #DC1E1E",
"7 	c #F82A2A",
"8 	c #FB2A2A",
"9 	c #E32121",
"0 	c #B31010",
"a 	c #793823",
"b 	c #476543",
"c 	c #4B8E5F",
"d 	c #47885B",
"e 	c #386E48",
"f 	c #472E1B",
"g 	c #980400",
"h 	c #CE1515",
"i 	c #F02626",
"j 	c #F72929",
"k 	c #B40B0A",
"l 	c #720C05",
"m 	c #334E32",
"n 	c #437E54",
"o 	c #498B5D",
"p 	c #407A51",
"q 	c #295135",
"r 	c #254B31",
"s 	c #284228",
"t 	c #542C15",
"u 	c #9D1808",
"v 	c #C00809",
"w 	c #CA1212",
"x 	c #CC1313",
"y 	c #B90C0D",
"z 	c #8D0803",
"A 	c #5D230D",
"B 	c #323920",
"C 	c #294A30",
"D 	c #4B8F60",
"E 	c #407B52",
"F 	c #335537",
"G 	c #311D1B",
"H 	c #433D3B",
"I 	c #69665C",
"J 	c #8B7C6D",
"K 	c #975E55",
"L 	c #A63332",
"M 	c #B1060B",
"N 	c #A60000",
"O 	c #910000",
"P 	c #780B01",
"Q 	c #6C3D0F",
"R 	c #5A4012",
"S 	c #351709",
"T 	c #2A0006",
"U 	c #303925",
"V 	c #396C48",
"W 	c #448056",
"X 	c #435D2B",
"Y 	c #2F0B05",
"Z 	c #482323",
"` 	c #5F5552",
" .	c #8B867B",
"..	c #A9A192",
"+.	c #928A7F",
"@.	c #95615A",
"#.	c #AA2F1E",
"$.	c #921E00",
"%.	c #7B2003",
"&.	c #7A2905",
"*.	c #7C4D10",
"=.	c #714D12",
"-.	c #531C0A",
";.	c #470009",
">.	c #3C050A",
",.	c #282B1C",
"'.	c #3F7A51",
").	c #2D4D33",
"!.	c #3B2A13",
"~.	c #400006",
"{.	c #471717",
"].	c #4F3E33",
"^.	c #62594A",
"/.	c #7D7566",
"(.	c #A09A8B",
"_.	c #A6917E",
":.	c #965D2F",
"<.	c #885101",
"[.	c #825310",
"}.	c #805210",
"|.	c #6C4B14",
"1.	c #623911",
"2.	c #691306",
"3.	c #580007",
"4.	c #43000A",
"5.	c #4D9161",
"6.	c #386E49",
"7.	c #26150D",
"8.	c #510106",
"9.	c #5D0002",
"0.	c #5A1A18",
"a.	c #55443B",
"b.	c #696457",
"c.	c #868071",
"d.	c #9D988A",
"e.	c #958C79",
"f.	c #735D30",
"g.	c #6E520B",
"h.	c #705515",
"i.	c #6E5215",
"j.	c #613C12",
"k.	c #631E0B",
"l.	c #720702",
"m.	c #670003",
"n.	c #5C0006",
"o.	c #5B0006",
"p.	c #3D0205",
"q.	c #254A30",
"r.	c #301B10",
"s.	c #660101",
"t.	c #7A0000",
"u.	c #7C2220",
"v.	c #795551",
"w.	c #96867B",
"x.	c #B1A091",
"y.	c #95847A",
"z.	c #735C54",
"A.	c #613C23",
"B.	c #5D3410",
"C.	c #5D3614",
"D.	c #613313",
"E.	c #732009",
"F.	c #7F0401",
"G.	c #7F0100",
"H.	c #7F0000",
"I.	c #7C0001",
"J.	c #730001",
"K.	c #4D0203",
"L.	c #264C31",
"M.	c #311B10",
"N.	c #690101",
"O.	c #8F0000",
"P.	c #A51211",
"Q.	c #A63432",
"R.	c #AD544E",
"S.	c #B6655C",
"T.	c #AA4D48",
"U.	c #A02E2B",
"V.	c #9D1C10",
"W.	c #9D1706",
"X.	c #9D1807",
"Y.	c #9E1707",
"Z.	c #A30902",
"`.	c #A70000",
" +	c #9C0000",
".+	c #7D0000",
"++	c #4D0202",
"@+	c #2A150D",
"#+	c #5B0104",
"$+	c #860002",
"%+	c #A50000",
"&+	c #B30000",
"*+	c #C50001",
"=+	c #D40A0E",
"-+	c #D71214",
";+	c #D71717",
">+	c #D71819",
",+	c #D71919",
"'+	c #D7191A",
")+	c #CE1414",
"!+	c #BA0403",
"~+	c #AC0000",
"{+	c #970001",
"]+	c #700003",
"^+	c #420204",
"/+	c #3B724C",
"(+	c #253220",
"_+	c #3F0F0E",
":+	c #600005",
"<+	c #810001",
"[+	c #A30001",
"}+	c #CD1717",
"|+	c #EE2727",
"1+	c #F22929",
"2+	c #E12121",
"3+	c #B60809",
"4+	c #900000",
"5+	c #6F0003",
"6+	c #4F0409",
"7+	c #2F1B12",
"8+	c #2B5538",
"9+	c #48895C",
"0+	c #7AB055",
"a+	c #48885B",
"b+	c #3D724C",
"c+	c #2D3C27",
"d+	c #3F0207",
"e+	c #5B0005",
"f+	c #700000",
"g+	c #940009",
"h+	c #B21415",
"i+	c #B50908",
"j+	c #B40408",
"k+	c #B40D15",
"l+	c #B40E16",
"m+	c #B41016",
"n+	c #B41317",
"o+	c #B51317",
"p+	c #A60F13",
"q+	c #810209",
"r+	c #660006",
"s+	c #4E0107",
"t+	c #31150F",
"u+	c #345D3D",
"v+	c #438055",
"w+	c #498C5E",
"x+	c #366A46",
"y+	c #2B4029",
"z+	c #503225",
"A+	c #8D6F51",
"B+	c #8A6448",
"C+	c #6B3736",
"D+	c #93787A",
"E+	c #A98379",
"F+	c #AD6A3E",
"G+	c #AE662D",
"H+	c #A95F2C",
"I+	c #A14F25",
"J+	c #A04C23",
"K+	c #8A3F1D",
"L+	c #4B160D",
"M+	c #330007",
"N+	c #34281A",
"O+	c #2F5639",
"P+	c #427F55",
"Q+	c #4A8D5F",
"R+	c #376C47",
"S+	c #5E5139",
"T+	c #C9A77A",
"U+	c #C09C6F",
"V+	c #7D6758",
"W+	c #C3BBB8",
"X+	c #E7C9B7",
"Y+	c #EBA462",
"Z+	c #EC9E4A",
"`+	c #E39349",
" @	c #D27B3E",
".@	c #D0773C",
"+@	c #B16532",
"@@	c #4D2913",
"#@	c #08180E",
"$@	c #2E5437",
"%@	c #468459",
"&@	c #4C9061",
"*@	c #3B724B",
"=@	c #51402B",
"-@	c #B1815A",
";@	c #CD925C",
">@	c #D09458",
",@	c #E9B78E",
"'@	c #F0B68C",
")@	c #E79754",
"!@	c #E69247",
"~@	c #DA8744",
"{@	c #C36F3B",
"]@	c #C06B39",
"^@	c #A25A2F",
"/@	c #432E1A",
"(@	c #305E3E",
"_@	c #438156",
":@	c #417D54",
"<@	c #445839",
"[@	c #7B492B",
"}@	c #AD6B36",
"|@	c #D08C45",
"1@	c #D59045",
"2@	c #D2833F",
"3@	c #CF6E36",
"4@	c #CF6B35",
"5@	c #C06232",
"6@	c #A14F2B",
"7@	c #944B2A",
"8@	c #804325",
"9@	c #563620",
"0@	c #436542",
"a@	c #448358",
"b@	c #4C9060",
"c@	c #498055",
"d@	c #555534",
"e@	c #6A3F1E",
"f@	c #7B4723",
"g@	c #78401F",
"h@	c #933519",
"i@	c #B62B12",
"j@	c #BC2A11",
"k@	c #AA260F",
"l@	c #821D0D",
"m@	c #581B0D",
"n@	c #572D19",
"o@	c #754025",
"p@	c #543721",
"q@	c #2D5A3B",
"r@	c #438056",
"s@	c #596942",
"t@	c #AC7E40",
"u@	c #C78843",
"v@	c #C27E3E",
"w@	c #A64822",
"x@	c #A10000",
"y@	c #B40000",
"z@	c #B70000",
"A@	c #790000",
"B@	c #410000",
"C@	c #4B2716",
"D@	c #7B4327",
"E@	c #572E1A",
"F@	c #254C31",
"G@	c #3A714B",
"H@	c #5F4523",
"I@	c #CF8944",
"J@	c #F6A653",
"K@	c #EFA150",
"L@	c #BF622E",
"M@	c #9F0000",
"N@	c #A80000",
"O@	c #9A0000",
"P@	c #780000",
"Q@	c #450002",
"R@	c #402212",
"S@	c #693B22",
"T@	c #50472D",
"U@	c #356744",
"V@	c #563A1F",
"W@	c #BB7037",
"X@	c #E6944A",
"Y@	c #E49B4D",
"Z@	c #98602D",
"`@	c #5E0000",
" #	c #7E0000",
".#	c #820000",
"+#	c #740000",
"@#	c #4C0202",
"##	c #210C07",
"$#	c #312B1A",
"%#	c #406E49",
"&#	c #392C19",
"*#	c #7D4622",
"=#	c #9D6230",
"-#	c #A06A33",
";#	c #78401D",
">#	c #630000",
",#	c #750000",
"'#	c #770000",
")#	c #760000",
"!#	c #680001",
"~#	c #4C0001",
"{#	c #1D2416",
"]#	c #3D764F",
"^#	c #172314",
"/#	c #291E09",
"(#	c #29200A",
"_#	c #311809",
":#	c #5D1606",
"<#	c #6C0F04",
"[#	c #690301",
"}#	c #6B1103",
"|#	c #712007",
"1#	c #722207",
"2#	c #622208",
"3#	c #3C2F17",
"4#	c #3A6843",
"5#	c #468659",
"6#	c #78AD54",
"7#	c #232816",
"8#	c #493711",
"9#	c #4D3B14",
"0#	c #3E2E11",
"a#	c #462C11",
"b#	c #43230D",
"c#	c #320C07",
"d#	c #2F140C",
"e#	c #452C12",
"f#	c #5D3E14",
"g#	c #624115",
"h#	c #5F4215",
"i#	c #554116",
"j#	c #3A3A1E",
"k#	c #74A750",
"l#	c #3A704B",
"m#	c #242512",
"n#	c #503D13",
"o#	c #5A4517",
"p#	c #513E15",
"q#	c #443514",
"r#	c #2F260F",
"s#	c #0B1D11",
"t#	c #2E5B3C",
"u#	c #385F3D",
"v#	c #3F3817",
"w#	c #534015",
"x#	c #5E4818",
"y#	c #5B4516",
"z#	c #3B2C0D",
"A#	c #72A54F",
"B#	c #3F7951",
"C#	c #315133",
"D#	c #4F5831",
"E#	c #5B5F33",
"F#	c #575D33",
"G#	c #4B5632",
"H#	c #384D2F",
"I#	c #2C5336",
"J#	c #428055",
"K#	c #305436",
"L#	c #4B5631",
"M#	c #3F502F",
"N#	c #336342",
"O#	c #48875A",
"P#	c #4D885A",
"Q#	c #50895A",
"R#	c #50885A",
"S#	c #4C885A",
"T#	c #71A24E",
"U#	c #4C875A",
"V#	c #4F885A",
"W#	c #4A875A",
"                          . + + + + + + + .                     ",
"                          @ # $ $ $ $ $ % & *                   ",
"                      + = - ; > , ' ) ! ~ {   *                 ",
"                      ] ^ / ( _ : < [ } | 1 *                   ",
"                    2 3 4 5 6 7 8 9 0 a b &                     ",
"              c d d e f g h i j 9 k l m n 2 o +                 ",
"              p q r s t u v w x y z A B C r ^ o                 ",
"          D E F G H I J K L M N O P Q R S T U V @               ",
"        D W X Y Z `  ...+.@.#.$.%.&.*.=.-.;.>.,.V o +           ",
"      . '.).!.~.{.].^./.(._.:.<.[.}.|.1.2.3.4.>.U ^ o           ",
"      5.6.7.8.9.0.a.b.c.d.e.f.g.h.i.j.k.l.m.n.o.p.q.2           ",
"      5.% r.s.t.u.v.w.x.y.z.A.B.C.D.E.F.G.H.I.J.K.L.d           ",
"      5.% M.N.O.P.Q.R.S.T.U.V.W.X.Y.Z.N N `. +.+++L.d           ",
"      5.6.@+#+$+%+&+*+=+-+;+>+,+>+,+'+)+!+~+{+]+^+q.2           ",
"      . /+(+_+:+<+[+}+|+1+1+1+1+1+1+1+2+3+4+5+6+7+8+9+          ",
"0+      a+b+c+d+e+f+g+h+i+j+k+l+m+n+o+p+q+r+s+t+u+v+D           ",
"  0+      w+x+y+z+A+B+C+D+E+F+G+H+I+J+K+L+M+N+O+P+            0+",
"0+        5.Q+R+S+T+U+V+W+X+Y+Z+`+ @.@+@@@#@$@%@&@              ",
"              *@=@-@;@>@,@'@)@!@~@{@]@^@/@(@_@&@                ",
"              :@<@[@}@|@1@2@3@4@5@6@7@8@9@0@a@b@                ",
"              c c@d@e@f@g@h@i@j@k@l@m@n@o@p@q@=                 ",
"              r@s@t@u@v@w@x@y@z@%+A@B@C@D@E@F@9+                ",
"              G@H@I@J@K@L@M@`.N@O@P@Q@R@S@T@U@w+                ",
"              G@V@W@X@Y@Z@`@ #.#H.+#@###$#%#w++                 ",
"              G@&#*#=#-#;#>#,#'#'#)#!#~#{#]#      0+            ",
"              G@^#/#(#_#:#<#[#!#}#|#1#2#3#4#5#6#  0+            ",
"              G@7#8#9#0#a#b#c#d#e#f#g#h#i#j#(@k#  0+            ",
"              l#m#n#o#p#q#r#s#t#u#v#w#x#y#z#r A#                ",
"              B#C#D#E#F#G#H#I#J#J#K#L#E#F#M#N#o                 ",
"              Q+O#P#Q#R#S#T#@ D D @ U#Q#V#W#9+&@                ",
"                        0+  0+                                  ",
"                          0+                                    "};
