/* XPM */
static char * player_S_1_xpm[] = {
"32 32 425 2",
"  	c #4D9262",
". 	c #4D9161",
"+ 	c #4C9161",
"@ 	c #4D9162",
"# 	c #4C9061",
"$ 	c #407B52",
"% 	c #366A46",
"& 	c #396F4A",
"* 	c #47875A",
"= 	c #3E734E",
"- 	c #4B8F60",
"; 	c #478156",
"> 	c #4D5235",
", 	c #510705",
"' 	c #502C1C",
") 	c #496E49",
"! 	c #498A5D",
"~ 	c #417D54",
"{ 	c #444E33",
"] 	c #8A2215",
"^ 	c #A50202",
"/ 	c #9F0905",
"( 	c #6B3622",
"_ 	c #346543",
": 	c #4A8C5E",
"< 	c #565739",
"[ 	c #88170F",
"} 	c #C31616",
"| 	c #DE1D1D",
"1 	c #D71B1B",
"2 	c #A80F0F",
"3 	c #6E3A25",
"4 	c #466B47",
"5 	c #47875B",
"6 	c #498B5D",
"7 	c #48885B",
"8 	c #448156",
"9 	c #2B5335",
"0 	c #701308",
"a 	c #B60C0A",
"b 	c #E92323",
"c 	c #FF2D2D",
"d 	c #F82A2A",
"e 	c #D31818",
"f 	c #980602",
"g 	c #472F1D",
"h 	c #386E49",
"i 	c #47885B",
"j 	c #4B8E5F",
"k 	c #254A31",
"l 	c #29492F",
"m 	c #33371E",
"n 	c #78230C",
"o 	c #B90E09",
"p 	c #EB2424",
"q 	c #FF2E2E",
"r 	c #FB2B2B",
"s 	c #D61819",
"t 	c #9D1606",
"u 	c #532B12",
"v 	c #274128",
"w 	c #254B31",
"x 	c #295135",
"y 	c #407A51",
"z 	c #396C48",
"A 	c #303925",
"B 	c #2A0006",
"C 	c #351709",
"D 	c #5A4012",
"E 	c #7E3D0D",
"F 	c #A40C00",
"G 	c #D1060D",
"H 	c #E51216",
"I 	c #E01014",
"J 	c #BC0003",
"K 	c #912801",
"L 	c #6D4512",
"M 	c #48300E",
"N 	c #2B0207",
"O 	c #2D0D0B",
"P 	c #345538",
"Q 	c #74A851",
"R 	c #282B1C",
"S 	c #3C050A",
"T 	c #470009",
"U 	c #531C0A",
"V 	c #714D11",
"W 	c #7B4D1A",
"X 	c #823026",
"Y 	c #A93D38",
"Z 	c #BD4740",
"` 	c #B8453E",
" .	c #963330",
"..	c #7B3C20",
"+.	c #7B5416",
"@.	c #643A0D",
"#.	c #4B0009",
"$.	c #44040B",
"%.	c #300D0C",
"&.	c #2C4C32",
"*.	c #448056",
"=.	c #547B3A",
"-.	c #43000A",
";.	c #580007",
">.	c #691306",
",.	c #62390F",
"'.	c #614D37",
").	c #78635D",
"!.	c #A88D81",
"~.	c #BDA091",
"{.	c #B79B8C",
"].	c #917A71",
"^.	c #69564B",
"/.	c #604624",
"(.	c #672906",
"_.	c #640005",
":.	c #4C0009",
"<.	c #3F0109",
"[.	c #372116",
"}.	c #2D4D33",
"|.	c #3F7A51",
"1.	c #3D5A29",
"2.	c #3D0205",
"3.	c #5B0006",
"4.	c #5C0006",
"5.	c #670003",
"6.	c #720702",
"7.	c #621C05",
"8.	c #735F55",
"9.	c #938D82",
"0.	c #9B9587",
"a.	c #9C9585",
"b.	c #9B9585",
"c.	c #999487",
"d.	c #877D72",
"e.	c #633D31",
"f.	c #6B0900",
"g.	c #6F0001",
"h.	c #5F0005",
"i.	c #5D0006",
"j.	c #510106",
"k.	c #26150D",
"l.	c #3F5C2A",
"m.	c #4D0203",
"n.	c #730001",
"o.	c #7C0001",
"p.	c #7F0000",
"q.	c #7E0000",
"r.	c #966F64",
"s.	c #ABA193",
"t.	c #888171",
"u.	c #645A48",
"v.	c #6F6656",
"w.	c #9F9889",
"x.	c #A79486",
"y.	c #853E37",
"z.	c #7E0001",
"A.	c #7A0001",
"B.	c #660101",
"C.	c #301B10",
"D.	c #396E49",
"E.	c #264C31",
"F.	c #4D0202",
"G.	c #7D0000",
"H.	c #9C0000",
"I.	c #A70000",
"J.	c #A60000",
"K.	c #9D544E",
"L.	c #91877D",
"M.	c #9C988A",
"N.	c #A49E8D",
"O.	c #A29C8C",
"P.	c #959286",
"Q.	c #95746C",
"R.	c #A32E2A",
"S.	c #A50000",
"T.	c #8F0000",
"U.	c #690101",
"V.	c #311B10",
"W.	c #254A30",
"X.	c #420204",
"Y.	c #700003",
"Z.	c #970001",
"`.	c #AC0000",
" +	c #BB0303",
".+	c #CF1212",
"++	c #CC3837",
"@+	c #BD5F5A",
"#+	c #D0887D",
"$+	c #DD9A8C",
"%+	c #D99588",
"&+	c #C4766E",
"*+	c #C14C4A",
"=+	c #D22625",
"-+	c #C60708",
";+	c #B30000",
">+	c #860002",
",+	c #5B0104",
"'+	c #2A150D",
")+	c #48895C",
"!+	c #2B5538",
"~+	c #2F1B12",
"{+	c #4F0409",
"]+	c #6F0003",
"^+	c #900000",
"/+	c #B60809",
"(+	c #E12121",
"_+	c #F12D2C",
":+	c #EF3433",
"<+	c #F13F3C",
"[+	c #F24440",
"}+	c #F2433F",
"|+	c #F03A38",
"1+	c #F03030",
"2+	c #EE2928",
"3+	c #CD1717",
"4+	c #A30001",
"5+	c #810001",
"6+	c #600005",
"7+	c #3F0F0E",
"8+	c #253220",
"9+	c #3B724C",
"0+	c #7AB055",
"a+	c #438055",
"b+	c #345D3D",
"c+	c #31150F",
"d+	c #4E0107",
"e+	c #660007",
"f+	c #810006",
"g+	c #A50001",
"h+	c #B50808",
"i+	c #B61011",
"j+	c #B40007",
"k+	c #B40000",
"l+	c #B5080E",
"m+	c #B60F0F",
"n+	c #B10102",
"o+	c #950003",
"p+	c #730007",
"q+	c #5C0007",
"r+	c #3F0206",
"s+	c #2D3C27",
"t+	c #3D724C",
"u+	c #427F55",
"v+	c #2F5739",
"w+	c #2E2C1C",
"x+	c #2C0000",
"y+	c #4C3133",
"z+	c #917A7B",
"A+	c #917476",
"B+	c #6C3530",
"C+	c #97674A",
"D+	c #AF815E",
"E+	c #A97A59",
"F+	c #7F4A34",
"G+	c #785153",
"H+	c #9C8484",
"I+	c #745F60",
"J+	c #320006",
"K+	c #360E0D",
"L+	c #31412A",
"M+	c #498C5E",
"N+	c #477F55",
"O+	c #454F32",
"P+	c #320000",
"Q+	c #594E4E",
"R+	c #BEB8B7",
"S+	c #BAB2B1",
"T+	c #7D6451",
"U+	c #CBA474",
"V+	c #F1C790",
"W+	c #E7BE89",
"X+	c #A17F56",
"Y+	c #918480",
"Z+	c #CDC6C5",
"`+	c #999090",
" @	c #310000",
".@	c #1E1D11",
"+@	c #4A8D5F",
"@@	c #428055",
"#@	c #52623E",
"$@	c #9C6536",
"%@	c #984F21",
"&@	c #783F37",
"*@	c #AE8B84",
"=@	c #C89C84",
"-@	c #CF9254",
";@	c #EBAD66",
">@	c #FABC76",
",@	c #F6B872",
"'@	c #DD9E58",
")@	c #C9946A",
"!@	c #C49D90",
"~@	c #AB6B66",
"{@	c #362114",
"]@	c #3B734D",
"^@	c #3A704B",
"/@	c #51331B",
"(@	c #B16533",
"_@	c #B15E30",
":@	c #7B2511",
"<@	c #8D3A1B",
"[@	c #B76D36",
"}@	c #D99148",
"|@	c #DD954A",
"1@	c #DC9449",
"2@	c #DC944A",
"3@	c #DD954B",
"4@	c #CC8442",
"5@	c #A75329",
"6@	c #AC2510",
"7@	c #741A0E",
"8@	c #505F3E",
"9@	c #3C744D",
"0@	c #463B23",
"a@	c #95512C",
"b@	c #914929",
"c@	c #5C160E",
"d@	c #701108",
"e@	c #883A1D",
"f@	c #94552E",
"g@	c #965830",
"h@	c #96582F",
"i@	c #8D4B28",
"j@	c #832812",
"k@	c #A5240D",
"l@	c #B92C11",
"m@	c #B02B11",
"n@	c #792B17",
"o@	c #2D5739",
"p@	c #46704A",
"q@	c #624B2F",
"r@	c #592B18",
"s@	c #3E0908",
"t@	c #660000",
"u@	c #781108",
"v@	c #782414",
"w@	c #792616",
"x@	c #6A190F",
"y@	c #63220E",
"z@	c #B86B33",
"A@	c #E28842",
"B@	c #DC8440",
"C@	c #97592A",
"D@	c #274A30",
"E@	c #2A5136",
"F@	c #1C3C26",
"G@	c #250D08",
"H@	c #5B0103",
"I@	c #710002",
"J@	c #770000",
"K@	c #780000",
"L@	c #610000",
"M@	c #4D2912",
"N@	c #C07F3E",
"O@	c #F3A452",
"P@	c #F1A552",
"Q@	c #A77237",
"R@	c #284B31",
"S@	c #2C5539",
"T@	c #1E2316",
"U@	c #410107",
"V@	c #5F0006",
"W@	c #760000",
"X@	c #750000",
"Y@	c #740000",
"Z@	c #5F0000",
"`@	c #47210E",
" #	c #AC6733",
".#	c #E18E47",
"+#	c #E99E4E",
"@#	c #A47137",
"##	c #2B5135",
"$#	c #3D754E",
"%#	c #1D2518",
"&#	c #390008",
"*#	c #500008",
"=#	c #5A0105",
"-#	c #500203",
";#	c #4F0202",
">#	c #3F0002",
",#	c #2E1308",
"'#	c #73401E",
")#	c #985D2D",
"!#	c #A16D35",
"~#	c #797142",
"{#	c #669446",
"]#	c #1D2618",
"^#	c #38100A",
"/#	c #45140D",
"(#	c #44130C",
"_#	c #40080A",
":#	c #372B1D",
"<#	c #29482F",
"[#	c #264C32",
"}#	c #274C31",
"|#	c #44632D",
"1#	c #407A52",
"2#	c #1C2918",
"3#	c #36250E",
"4#	c #422E12",
"5#	c #3F2B11",
"6#	c #2B180A",
"7#	c #2E5135",
"8#	c #448257",
"9#	c #72A44F",
"0#	c #3C734D",
"a#	c #1F2514",
"b#	c #443411",
"c#	c #523F16",
"d#	c #4D3B14",
"e#	c #2E230B",
"f#	c #2B5639",
"g#	c #4A8D5E",
"h#	c #305134",
"i#	c #4E5731",
"j#	c #5B5F33",
"k#	c #575C33",
"l#	c #3C4F2F",
"m#	c #356845",
"n#	c #48875A",
"o#	c #4D885A",
"p#	c #76A44E",
"q#	c #4F885A",
"r#	c #4A875A",
"                              . + + @                           ",
"                            # $ % & *       =                   ",
"                          - ; > , ' ) ! + =   =                 ",
"                          ~ { ] ^ / ( _ :   =                   ",
"                      # $ < [ } | 1 2 3 4 5                     ",
"                + 6 7 8 9 0 a b c d e f g h i i j               ",
"                6 _ k l m n o p q r s t u v w x y               ",
"              * z A B C D E F G H I J K L M N O P $ -           ",
"          + Q z R S T U V W X Y Z `  ...+.@.#.$.%.&.*.-         ",
"          6 =.A S -.;.>.,.'.).!.~.{.].^./.(._.:.<.[.}.|.@       ",
"          5 1.2.3.4.5.6.7.8.9.0.a.b.c.d.e.f.g.h.i.j.k.h .       ",
"          i l.m.n.o.p.p.q.r.s.t.u.v.w.x.y.q.p.z.A.B.C.D..       ",
"          i E.F.G.H.I.J.J.K.L.M.N.O.P.Q.R.J.I.S.T.U.V.D..       ",
"          5 W.X.Y.Z.`. +.+++@+#+$+%+&+*+=+-+;+S.>+,+'+h .       ",
"          )+!+~+{+]+^+/+(+_+:+<+[+}+|+1+2+3+4+5+6+7+8+9+@       ",
"0+        - a+b+c+d+e+f+g+h+i+j+;+k+l+m+n+o+p+q+r+s+t+7         ",
"  0+          u+v+w+x+y+z+A+B+C+D+E+F+G+H+I+J+K+L+% M+        0+",
"0+            j N+O+P+Q+R+S+T+U+V+W+X+Y+Z+`+ @.@z +@.           ",
"              @@#@$@%@&@*@=@-@;@>@,@'@)@!@~@p.{@]@              ",
"              ^@/@(@_@:@<@[@}@|@1@2@3@4@5@6@S.7@8@8 -           ",
"              9@0@a@b@c@d@e@f@g@h@h@g@i@j@k@l@m@n@o@)+          ",
"              5 p@q@r@s@t@u@v@w@w@w@w@x@y@z@A@B@C@D@5           ",
"                M+E@F@G@H@I@J@K@J@K@K@L@M@N@O@P@Q@R@i           ",
"                + M+S@T@U@V@n.W@X@Y@X@Z@`@ #.#+#@###i           ",
"                    $#%#&#*#i.V@=#-#;#>#,#'#)#!#~#{#j           ",
"                    9@]#^#/#(#_#:#<#[#E.E.}#R@|#1#0+            ",
"                    9@2#3#4#5#6#7#8#)+i i i i 9#j 0+            ",
"                    0#a#b#c#d#e#f#g#          0+                ",
"                    $ h#i#j#k#l#m#+@                            ",
"                    +@n#o#p#q#r#! +                             ",
"                        0+  0+                                  ",
"                          0+                                    "};
