/* XPM */
static char * player_W_1_xpm[] = {
"32 32 390 2",
"  	c #4D9262",
". 	c #4D9161",
"+ 	c #4C9161",
"@ 	c #4D9162",
"# 	c #4C9061",
"$ 	c #407B52",
"% 	c #366A46",
"& 	c #396F4A",
"* 	c #47875A",
"= 	c #3E734E",
"- 	c #4B8F60",
"; 	c #478156",
"> 	c #4D5235",
", 	c #510705",
"' 	c #502C1C",
") 	c #496E49",
"! 	c #498A5D",
"~ 	c #417D54",
"{ 	c #444E33",
"] 	c #8A2215",
"^ 	c #A50202",
"/ 	c #9F0905",
"( 	c #6B3622",
"_ 	c #346543",
": 	c #4A8C5E",
"< 	c #565739",
"[ 	c #88170F",
"} 	c #C31616",
"| 	c #DE1D1D",
"1 	c #D71B1B",
"2 	c #A80F0F",
"3 	c #6E3A25",
"4 	c #466B47",
"5 	c #47875B",
"6 	c #498B5D",
"7 	c #48885B",
"8 	c #448156",
"9 	c #2B5335",
"0 	c #701308",
"a 	c #B60C0A",
"b 	c #E92323",
"c 	c #FF2D2D",
"d 	c #F82A2A",
"e 	c #D31818",
"f 	c #980602",
"g 	c #472F1D",
"h 	c #386E49",
"i 	c #47885B",
"j 	c #4B8E5F",
"k 	c #254A31",
"l 	c #29492F",
"m 	c #33371E",
"n 	c #78230C",
"o 	c #B90E09",
"p 	c #EB2424",
"q 	c #FF2E2E",
"r 	c #FB2B2B",
"s 	c #D61819",
"t 	c #9D1606",
"u 	c #532B12",
"v 	c #274128",
"w 	c #254B31",
"x 	c #295135",
"y 	c #407A51",
"z 	c #396C48",
"A 	c #303925",
"B 	c #2A0006",
"C 	c #351709",
"D 	c #5A4012",
"E 	c #7E3D0F",
"F 	c #A40F06",
"G 	c #D11319",
"H 	c #E61E21",
"I 	c #E01C1F",
"J 	c #BD0710",
"K 	c #912807",
"L 	c #6D4513",
"M 	c #48300E",
"N 	c #2B0207",
"O 	c #2D0D0B",
"P 	c #345538",
"Q 	c #74A851",
"R 	c #282B1C",
"S 	c #3C050A",
"T 	c #470009",
"U 	c #531C0A",
"V 	c #714D12",
"W 	c #7D4D0F",
"X 	c #842905",
"Y 	c #A52105",
"Z 	c #B72307",
"` 	c #B22307",
" .	c #952004",
"..	c #7D3B09",
"+.	c #7B5412",
"@.	c #633A0E",
"#.	c #4B0009",
"$.	c #44040B",
"%.	c #300D0C",
"&.	c #2C4C32",
"*.	c #448056",
"=.	c #547B3A",
"-.	c #43000A",
";.	c #580007",
">.	c #691306",
",.	c #623911",
"'.	c #6B4B14",
").	c #815210",
"!.	c #8F530F",
"~.	c #94530F",
"{.	c #93530F",
"].	c #89530F",
"^.	c #775012",
"/.	c #624414",
"(.	c #66290C",
"_.	c #640005",
":.	c #4C0009",
"<.	c #3F0109",
"[.	c #372116",
"}.	c #2D4D33",
"|.	c #3F7A51",
"1.	c #3D5A29",
"2.	c #3D0205",
"3.	c #5B0006",
"4.	c #5C0006",
"5.	c #670003",
"6.	c #720702",
"7.	c #631E0B",
"8.	c #613C12",
"9.	c #6E5215",
"0.	c #6F5515",
"a.	c #6E5415",
"b.	c #694A14",
"c.	c #5D2D0F",
"d.	c #6C1306",
"e.	c #6F0001",
"f.	c #5F0005",
"g.	c #5D0006",
"h.	c #510106",
"i.	c #26150D",
"j.	c #3F5C2A",
"k.	c #4D0203",
"l.	c #730001",
"m.	c #7C0001",
"n.	c #7F0000",
"o.	c #7F0100",
"p.	c #7F0401",
"q.	c #732009",
"r.	c #613313",
"s.	c #5D3614",
"t.	c #5E3514",
"u.	c #692C10",
"v.	c #7B1104",
"w.	c #7E0001",
"x.	c #7A0001",
"y.	c #660101",
"z.	c #301B10",
"A.	c #396E49",
"B.	c #264C31",
"C.	c #4D0202",
"D.	c #7D0000",
"E.	c #9C0000",
"F.	c #A70000",
"G.	c #A60000",
"H.	c #A30902",
"I.	c #9E1707",
"J.	c #9D1807",
"K.	c #A01205",
"L.	c #A50100",
"M.	c #A50000",
"N.	c #8F0000",
"O.	c #690101",
"P.	c #311B10",
"Q.	c #254A30",
"R.	c #420204",
"S.	c #700003",
"T.	c #970001",
"U.	c #AC0000",
"V.	c #BA0403",
"W.	c #CE1414",
"X.	c #D7191A",
"Y.	c #D71919",
"Z.	c #D71819",
"`.	c #D51818",
" +	c #C50D0D",
".+	c #B30000",
"++	c #860002",
"@+	c #5B0104",
"#+	c #2A150D",
"$+	c #48895C",
"%+	c #2B5538",
"&+	c #2F1B12",
"*+	c #4F0409",
"=+	c #6F0003",
"-+	c #900000",
";+	c #B60809",
">+	c #E12121",
",+	c #F22929",
"'+	c #EE2727",
")+	c #CD1717",
"!+	c #A30001",
"~+	c #810001",
"{+	c #600005",
"]+	c #3F0F0E",
"^+	c #253220",
"/+	c #3B724C",
"(+	c #7AB055",
"_+	c #438055",
":+	c #345D3D",
"<+	c #31150F",
"[+	c #4E0107",
"}+	c #660006",
"|+	c #810309",
"1+	c #A71314",
"2+	c #B61818",
"3+	c #B51818",
"4+	c #B21717",
"5+	c #960C0F",
"6+	c #730007",
"7+	c #5C0007",
"8+	c #3F0206",
"9+	c #2D3C27",
"0+	c #3D724C",
"a+	c #427F55",
"b+	c #2F5739",
"c+	c #2E2C1C",
"d+	c #300007",
"e+	c #3B0007",
"f+	c #590003",
"g+	c #640000",
"h+	c #630000",
"i+	c #620001",
"j+	c #4A0005",
"k+	c #320108",
"l+	c #360F0E",
"m+	c #31412A",
"n+	c #498C5E",
"o+	c #477F55",
"p+	c #454F32",
"q+	c #3A1B0C",
"r+	c #320906",
"s+	c #4D110C",
"t+	c #5C1B11",
"u+	c #612113",
"v+	c #612213",
"w+	c #5F1F12",
"x+	c #58160F",
"y+	c #480B09",
"z+	c #320304",
"A+	c #201F13",
"B+	c #4A8D5F",
"C+	c #428055",
"D+	c #52623E",
"E+	c #9C6536",
"F+	c #9A5227",
"G+	c #6E220F",
"H+	c #823B21",
"I+	c #9F562E",
"J+	c #B36634",
"K+	c #B66834",
"L+	c #AB6032",
"M+	c #944B2A",
"N+	c #932C18",
"O+	c #7F0202",
"P+	c #362114",
"Q+	c #3B734D",
"R+	c #3A704B",
"S+	c #51331B",
"T+	c #B16533",
"U+	c #B15E30",
"V+	c #7E2612",
"W+	c #9D3D22",
"X+	c #BD5A2F",
"Y+	c #CE6A35",
"Z+	c #D16C36",
"`+	c #D06C35",
" @	c #C76433",
".@	c #B44E2A",
"+@	c #B42A16",
"@@	c #741A0E",
"#@	c #505F3E",
"$@	c #3C744D",
"%@	c #463B23",
"&@	c #95512C",
"*@	c #904929",
"=@	c #66160F",
"-@	c #9B130A",
";@	c #B5220E",
">@	c #B72911",
",@	c #B72A11",
"'@	c #B52610",
")@	c #B11F0D",
"!@	c #B7260F",
"~@	c #B92C11",
"{@	c #B02B11",
"]@	c #792B17",
"^@	c #2D5739",
"/@	c #46704A",
"(@	c #624B2F",
"_@	c #582B18",
":@	c #460908",
"<@	c #950000",
"[@	c #930000",
"}@	c #890000",
"|@	c #841F0B",
"1@	c #C06C33",
"2@	c #E28842",
"3@	c #DC8440",
"4@	c #97592A",
"5@	c #274A30",
"6@	c #2A5136",
"7@	c #1C3C26",
"8@	c #250D08",
"9@	c #5B0103",
"0@	c #710002",
"a@	c #760000",
"b@	c #770000",
"c@	c #780000",
"d@	c #600000",
"e@	c #4D2912",
"f@	c #BF7F3E",
"g@	c #F3A452",
"h@	c #F1A552",
"i@	c #A77237",
"j@	c #284B31",
"k@	c #2C5539",
"l@	c #1E2316",
"m@	c #410107",
"n@	c #5F0006",
"o@	c #750000",
"p@	c #740000",
"q@	c #5F0000",
"r@	c #46210E",
"s@	c #AC6733",
"t@	c #E18E47",
"u@	c #E99E4E",
"v@	c #A47137",
"w@	c #2B5135",
"x@	c #3D754E",
"y@	c #1D2518",
"z@	c #390008",
"A@	c #500008",
"B@	c #5A0105",
"C@	c #500203",
"D@	c #4F0202",
"E@	c #3F0002",
"F@	c #2E1308",
"G@	c #73401E",
"H@	c #985D2D",
"I@	c #A16D35",
"J@	c #797142",
"K@	c #669446",
"L@	c #1D2618",
"M@	c #38100A",
"N@	c #45140D",
"O@	c #44130C",
"P@	c #40080A",
"Q@	c #372B1D",
"R@	c #29482F",
"S@	c #264C32",
"T@	c #274C31",
"U@	c #44632D",
"V@	c #407A52",
"W@	c #1C2918",
"X@	c #36250E",
"Y@	c #422E12",
"Z@	c #3F2B11",
"`@	c #2B180A",
" #	c #2E5135",
".#	c #448257",
"+#	c #72A44F",
"@#	c #3C734D",
"##	c #1F2514",
"$#	c #443411",
"%#	c #523F16",
"&#	c #4D3B14",
"*#	c #2E230B",
"=#	c #2B5639",
"-#	c #4A8D5E",
";#	c #305134",
">#	c #4E5731",
",#	c #5B5F33",
"'#	c #575C33",
")#	c #3C4F2F",
"!#	c #356845",
"~#	c #48875A",
"{#	c #4D885A",
"]#	c #76A44E",
"^#	c #4F885A",
"/#	c #4A875A",
"                              . + + @                           ",
"                            # $ % & *       =                   ",
"                          - ; > , ' ) ! + =   =                 ",
"                          ~ { ] ^ / ( _ :   =                   ",
"                      # $ < [ } | 1 2 3 4 5                     ",
"                + 6 7 8 9 0 a b c d e f g h i i j               ",
"                6 _ k l m n o p q r s t u v w x y               ",
"              * z A B C D E F G H I J K L M N O P $ -           ",
"          + Q z R S T U V W X Y Z `  ...+.@.#.$.%.&.*.-         ",
"          6 =.A S -.;.>.,.'.).!.~.{.].^./.(._.:.<.[.}.|.@       ",
"          5 1.2.3.4.5.6.7.8.9.0.a.a.0.b.c.d.e.f.g.h.i.h .       ",
"          i j.k.l.m.n.o.p.q.r.s.t.t.s.u.v.o.n.w.x.y.z.A..       ",
"          i B.C.D.E.F.G.G.H.I.J.J.J.J.K.L.G.F.M.N.O.P.A..       ",
"          5 Q.R.S.T.U.V.W.X.Y.Z.Z.Z.Z.Y.`. +.+M.++@+#+h .       ",
"          $+%+&+*+=+-+;+>+,+,+,+,+,+,+,+'+)+!+~+{+]+^+/+@       ",
"(+        - _+:+<+[+}+|+1+2+3+3+3+3+3+2+4+5+6+7+8+9+0+7         ",
"  (+          a+b+c+d+e+f+g+h+h+h+h+h+g+i+j+k+l+m+% n+        (+",
"(+            j o+p+q+r+s+t+u+v+v+v+v+w+x+y+z+A+z B+.           ",
"              C+D+E+F+G+H+I+J+K+K+K+K+L+M+N+O+P+Q+              ",
"              R+S+T+U+V+W+X+Y+Z+`+`+Z+ @.@+@M.@@#@8 -           ",
"              $@%@&@*@=@-@;@>@,@,@,@,@'@)@!@~@{@]@^@$+          ",
"              5 /@(@_@:@n.<@[@[@[@[@[@}@|@1@2@3@4@5@5           ",
"                n+6@7@8@9@0@a@b@b@b@c@d@e@f@g@h@i@j@i           ",
"                + n+k@l@m@n@l.a@o@p@o@q@r@s@t@u@v@w@i           ",
"                    x@y@z@A@g.n@B@C@D@E@F@G@H@I@J@K@j           ",
"                    $@L@M@N@O@P@Q@R@S@B.B.T@j@U@V@(+            ",
"                    $@W@X@Y@Z@`@ #.#$+i i i i +#j (+            ",
"                    @###$#%#&#*#=#-#          (+                ",
"                    $ ;#>#,#'#)#!#B+                            ",
"                    B+~#{#]#^#/#! +                             ",
"                        (+  (+                                  ",
"                          (+                                    "};
