/* XPM */
static char * player_W_0_xpm[] = {
"32 32 383 2",
"  	c #4D9262",
". 	c #4D9162",
"+ 	c #4C9161",
"@ 	c #4D9161",
"# 	c #47875A",
"$ 	c #396F4A",
"% 	c #366A46",
"& 	c #407B52",
"* 	c #4C9061",
"= 	c #3E734E",
"- 	c #498A5D",
"; 	c #496E49",
"> 	c #502C1C",
", 	c #510705",
"' 	c #4D5235",
") 	c #478156",
"! 	c #4B8F60",
"~ 	c #4A8C5E",
"{ 	c #346543",
"] 	c #6B3622",
"^ 	c #9F0905",
"/ 	c #A50202",
"( 	c #8A2215",
"_ 	c #444E33",
": 	c #417D54",
"< 	c #47875B",
"[ 	c #466B47",
"} 	c #6E3A25",
"| 	c #A80F0F",
"1 	c #D71B1B",
"2 	c #DE1D1D",
"3 	c #C31616",
"4 	c #88170F",
"5 	c #565739",
"6 	c #4B8E5F",
"7 	c #47885B",
"8 	c #386E49",
"9 	c #472F1D",
"0 	c #980602",
"a 	c #D31818",
"b 	c #F82A2A",
"c 	c #FF2D2D",
"d 	c #E92323",
"e 	c #B60C0A",
"f 	c #701308",
"g 	c #2B5335",
"h 	c #448156",
"i 	c #48885B",
"j 	c #498B5D",
"k 	c #407A51",
"l 	c #295135",
"m 	c #254B31",
"n 	c #274128",
"o 	c #532B12",
"p 	c #9D1606",
"q 	c #D61819",
"r 	c #FB2B2B",
"s 	c #FF2E2E",
"t 	c #EB2424",
"u 	c #B90E09",
"v 	c #78230C",
"w 	c #33371E",
"x 	c #29492F",
"y 	c #254A31",
"z 	c #345538",
"A 	c #2D0D0B",
"B 	c #2B0207",
"C 	c #48300E",
"D 	c #6D4513",
"E 	c #912807",
"F 	c #BD0710",
"G 	c #E01C1F",
"H 	c #E61E21",
"I 	c #D11319",
"J 	c #A40F06",
"K 	c #7E3D0F",
"L 	c #5A4012",
"M 	c #351709",
"N 	c #2A0006",
"O 	c #303925",
"P 	c #396C48",
"Q 	c #448056",
"R 	c #435D2B",
"S 	c #300D0C",
"T 	c #44040B",
"U 	c #4B0009",
"V 	c #633A0E",
"W 	c #7B5412",
"X 	c #7D3B09",
"Y 	c #952004",
"Z 	c #B22307",
"` 	c #B72307",
" .	c #A52105",
"..	c #842905",
"+.	c #7D4D0F",
"@.	c #714D12",
"#.	c #531C0A",
"$.	c #470009",
"%.	c #3C050A",
"&.	c #282B1C",
"*.	c #3F7A51",
"=.	c #2D4D33",
"-.	c #3B2A13",
";.	c #3F0109",
">.	c #4C0009",
",.	c #640005",
"'.	c #66290C",
").	c #624414",
"!.	c #775012",
"~.	c #89530F",
"{.	c #93530F",
"].	c #94530F",
"^.	c #8F530F",
"/.	c #815210",
"(.	c #6B4B14",
"_.	c #623911",
":.	c #691306",
"<.	c #580007",
"[.	c #43000A",
"}.	c #26150D",
"|.	c #510106",
"1.	c #5D0006",
"2.	c #5F0005",
"3.	c #6F0001",
"4.	c #6C1306",
"5.	c #5D2D0F",
"6.	c #694A14",
"7.	c #6F5515",
"8.	c #6E5415",
"9.	c #6E5215",
"0.	c #613C12",
"a.	c #631E0B",
"b.	c #720702",
"c.	c #670003",
"d.	c #5C0006",
"e.	c #5B0006",
"f.	c #3D0205",
"g.	c #254A30",
"h.	c #396E49",
"i.	c #301B10",
"j.	c #660101",
"k.	c #7A0001",
"l.	c #7E0001",
"m.	c #7F0000",
"n.	c #7F0100",
"o.	c #7B1104",
"p.	c #692C10",
"q.	c #5D3614",
"r.	c #5E3514",
"s.	c #613313",
"t.	c #732009",
"u.	c #7F0401",
"v.	c #7C0001",
"w.	c #730001",
"x.	c #4D0203",
"y.	c #264C31",
"z.	c #311B10",
"A.	c #690101",
"B.	c #8F0000",
"C.	c #A50000",
"D.	c #A70000",
"E.	c #A60000",
"F.	c #A50100",
"G.	c #A01205",
"H.	c #9D1807",
"I.	c #9E1707",
"J.	c #A30902",
"K.	c #9C0000",
"L.	c #7D0000",
"M.	c #4D0202",
"N.	c #2A150D",
"O.	c #5B0104",
"P.	c #860002",
"Q.	c #B30000",
"R.	c #C50D0D",
"S.	c #D51818",
"T.	c #D71919",
"U.	c #D71819",
"V.	c #D7191A",
"W.	c #CE1414",
"X.	c #BA0403",
"Y.	c #AC0000",
"Z.	c #970001",
"`.	c #700003",
" +	c #420204",
".+	c #3B724C",
"++	c #253220",
"@+	c #3F0F0E",
"#+	c #600005",
"$+	c #810001",
"%+	c #A30001",
"&+	c #CD1717",
"*+	c #EE2727",
"=+	c #F22929",
"-+	c #E12121",
";+	c #B60809",
">+	c #900000",
",+	c #6F0003",
"'+	c #4F0409",
")+	c #2F1B12",
"!+	c #2B5538",
"~+	c #48895C",
"{+	c #7AB055",
"]+	c #3D724C",
"^+	c #2D3C27",
"/+	c #3F0206",
"(+	c #5C0007",
"_+	c #730007",
":+	c #960C0F",
"<+	c #B21717",
"[+	c #B61818",
"}+	c #B51818",
"|+	c #A71314",
"1+	c #810309",
"2+	c #660006",
"3+	c #4E0107",
"4+	c #31150F",
"5+	c #345D3D",
"6+	c #438055",
"7+	c #498C5E",
"8+	c #31412A",
"9+	c #360F0E",
"0+	c #320108",
"a+	c #4A0005",
"b+	c #620001",
"c+	c #640000",
"d+	c #630000",
"e+	c #590003",
"f+	c #3B0007",
"g+	c #300007",
"h+	c #2E2C1C",
"i+	c #2F5739",
"j+	c #427F55",
"k+	c #4A8D5F",
"l+	c #201F13",
"m+	c #320304",
"n+	c #480B09",
"o+	c #58160F",
"p+	c #5F1F12",
"q+	c #612213",
"r+	c #612113",
"s+	c #5C1B11",
"t+	c #4D110C",
"u+	c #320906",
"v+	c #3A1B0C",
"w+	c #454F32",
"x+	c #477F55",
"y+	c #3B734D",
"z+	c #362114",
"A+	c #7F0202",
"B+	c #932C18",
"C+	c #944B2A",
"D+	c #AB6032",
"E+	c #B66834",
"F+	c #B36634",
"G+	c #9F562E",
"H+	c #823B21",
"I+	c #6E220F",
"J+	c #9A5227",
"K+	c #9C6536",
"L+	c #52623E",
"M+	c #428055",
"N+	c #505F3E",
"O+	c #741A0E",
"P+	c #B42A16",
"Q+	c #B44E2A",
"R+	c #C76433",
"S+	c #D16C36",
"T+	c #D06C35",
"U+	c #CE6A35",
"V+	c #BD5A2F",
"W+	c #9D3D22",
"X+	c #7E2612",
"Y+	c #B15E30",
"Z+	c #B16533",
"`+	c #51331B",
" @	c #3A704B",
".@	c #2D5739",
"+@	c #792B17",
"@@	c #B02B11",
"#@	c #B92C11",
"$@	c #B7260F",
"%@	c #B11F0D",
"&@	c #B52610",
"*@	c #B72A11",
"=@	c #B72911",
"-@	c #B5220E",
";@	c #9B130A",
">@	c #66160F",
",@	c #904929",
"'@	c #95512C",
")@	c #463B23",
"!@	c #3C744D",
"~@	c #274A30",
"{@	c #97592A",
"]@	c #DC8440",
"^@	c #E28842",
"/@	c #C06C33",
"(@	c #841F0B",
"_@	c #890000",
":@	c #930000",
"<@	c #950000",
"[@	c #460908",
"}@	c #582B18",
"|@	c #624B2F",
"1@	c #46704A",
"2@	c #284B31",
"3@	c #A77237",
"4@	c #F1A552",
"5@	c #F3A452",
"6@	c #BF7F3E",
"7@	c #4D2912",
"8@	c #600000",
"9@	c #780000",
"0@	c #770000",
"a@	c #760000",
"b@	c #710002",
"c@	c #5B0103",
"d@	c #25110A",
"e@	c #1C3C26",
"f@	c #356744",
"g@	c #2B5135",
"h@	c #A47137",
"i@	c #E99E4E",
"j@	c #E18E47",
"k@	c #AC6733",
"l@	c #46210E",
"m@	c #5F0000",
"n@	c #750000",
"o@	c #740000",
"p@	c #5F0006",
"q@	c #410107",
"r@	c #1E2316",
"s@	c #386D48",
"t@	c #407A52",
"u@	c #797142",
"v@	c #A16D35",
"w@	c #985D2D",
"x@	c #73401E",
"y@	c #2E1308",
"z@	c #3F0002",
"A@	c #4F0202",
"B@	c #500203",
"C@	c #5A0105",
"D@	c #500008",
"E@	c #390008",
"F@	c #1D2518",
"G@	c #3D754E",
"H@	c #274C31",
"I@	c #264C32",
"J@	c #29482F",
"K@	c #372B1D",
"L@	c #40080A",
"M@	c #44130C",
"N@	c #45140D",
"O@	c #38100A",
"P@	c #1D2618",
"Q@	c #448257",
"R@	c #2E5135",
"S@	c #2B180A",
"T@	c #3F2B11",
"U@	c #422E12",
"V@	c #36250E",
"W@	c #1C2918",
"X@	c #4A8D5E",
"Y@	c #2B5639",
"Z@	c #2E230B",
"`@	c #4D3B14",
" #	c #523F16",
".#	c #443411",
"+#	c #1F2514",
"@#	c #3C734D",
"##	c #356845",
"$#	c #3C4F2F",
"%#	c #575C33",
"&#	c #5B5F33",
"*#	c #4E5731",
"=#	c #305134",
"-#	c #4A875A",
";#	c #4F885A",
">#	c #50895A",
",#	c #4D885A",
"'#	c #48875A",
"                          . + + @                               ",
"                          # $ % & *         =                   ",
"                      + - ; > , ' ) !     =   =                 ",
"                      ~ { ] ^ / ( _ :       =                   ",
"                    < [ } | 1 2 3 4 5 & *                       ",
"              6 7 7 8 9 0 a b c d e f g h i j +                 ",
"              k l m n o p q r s t u v w x y { j                 ",
"          ! & z A B C D E F G H I J K L M N O P #               ",
"        ! Q R S T U V W X Y Z `  ...+.@.#.$.%.&.P j +           ",
"      . *.=.-.;.>.,.'.).!.~.{.].^./.(._.:.<.[.%.O { j           ",
"      @ 8 }.|.1.2.3.4.5.6.7.8.8.7.9.0.a.b.c.d.e.f.g.<           ",
"      @ h.i.j.k.l.m.n.o.p.q.r.r.q.s.t.u.n.m.v.w.x.y.7           ",
"      @ h.z.A.B.C.D.E.F.G.H.H.H.H.I.J.E.E.D.K.L.M.y.7           ",
"      @ 8 N.O.P.C.Q.R.S.T.U.U.U.U.T.V.W.X.Y.Z.`. +g.<           ",
"      . .+++@+#+$+%+&+*+=+=+=+=+=+=+=+-+;+>+,+'+)+!+~+          ",
"{+      i ]+^+/+(+_+:+<+[+}+}+}+}+}+[+|+1+2+3+4+5+6+!           ",
"  {+      7+% 8+9+0+a+b+c+d+d+d+d+d+c+e+f+g+h+i+j+            {+",
"{+        @ k+P l+m+n+o+p+q+q+q+q+r+s+t+u+v+w+x+6               ",
"              y+z+A+B+C+D+E+E+E+E+F+G+H+I+J+K+L+M+              ",
"          ! h N+O+C.P+Q+R+S+T+T+S+U+V+W+X+Y+Z+`+ @              ",
"          ~+.@+@@@#@$@%@&@*@*@*@*@=@-@;@>@,@'@)@!@              ",
"          < ~@{@]@^@/@(@_@:@:@:@:@:@<@m.[@}@|@1@<               ",
"          7 2@3@4@5@6@7@8@9@0@0@0@a@b@c@d@e@f@7+                ",
"          7 g@h@i@j@k@l@m@n@o@n@a@w.p@q@r@s@7++                 ",
"          6 t@u@v@w@x@y@z@A@B@C@p@1.D@E@F@G@      {+            ",
"              t@g@2@H@y.y.I@J@K@L@M@N@O@P@!@  {+  {+            ",
"              6 7 7 7 7 7 ~+Q@R@S@T@U@V@W@!@  {+  {+            ",
"                            X@Y@Z@`@ #.#+#@#  {+                ",
"                            k+##$#%#&#*#=#&                     ",
"                          {++ - -#;#>#,#'#k+                    ",
"                        {+  {+                                  ",
"                          {+                                    "};
