/* XPM */
static char * player_S_0_xpm[] = {
"32 32 418 2",
"  	c #4D9262",
". 	c #4D9162",
"+ 	c #4C9161",
"@ 	c #4D9161",
"# 	c #47875A",
"$ 	c #396F4A",
"% 	c #366A46",
"& 	c #407B52",
"* 	c #4C9061",
"= 	c #3E734E",
"- 	c #498A5D",
"; 	c #496E49",
"> 	c #502C1C",
", 	c #510705",
"' 	c #4D5235",
") 	c #478156",
"! 	c #4B8F60",
"~ 	c #4A8C5E",
"{ 	c #346543",
"] 	c #6B3622",
"^ 	c #9F0905",
"/ 	c #A50202",
"( 	c #8A2215",
"_ 	c #444E33",
": 	c #417D54",
"< 	c #47875B",
"[ 	c #466B47",
"} 	c #6E3A25",
"| 	c #A80F0F",
"1 	c #D71B1B",
"2 	c #DE1D1D",
"3 	c #C31616",
"4 	c #88170F",
"5 	c #565739",
"6 	c #4B8E5F",
"7 	c #47885B",
"8 	c #386E49",
"9 	c #472F1D",
"0 	c #980602",
"a 	c #D31818",
"b 	c #F82A2A",
"c 	c #FF2D2D",
"d 	c #E92323",
"e 	c #B60C0A",
"f 	c #701308",
"g 	c #2B5335",
"h 	c #448156",
"i 	c #48885B",
"j 	c #498B5D",
"k 	c #407A51",
"l 	c #295135",
"m 	c #254B31",
"n 	c #274128",
"o 	c #532B12",
"p 	c #9D1606",
"q 	c #D61819",
"r 	c #FB2B2B",
"s 	c #FF2E2E",
"t 	c #EB2424",
"u 	c #B90E09",
"v 	c #78230C",
"w 	c #33371E",
"x 	c #29492F",
"y 	c #254A31",
"z 	c #345538",
"A 	c #2D0D0B",
"B 	c #2B0207",
"C 	c #48300E",
"D 	c #6D4512",
"E 	c #912801",
"F 	c #BC0003",
"G 	c #E01014",
"H 	c #E51216",
"I 	c #D1060D",
"J 	c #A40C00",
"K 	c #7E3D0D",
"L 	c #5A4012",
"M 	c #351709",
"N 	c #2A0006",
"O 	c #303925",
"P 	c #396C48",
"Q 	c #448056",
"R 	c #435D2B",
"S 	c #300D0C",
"T 	c #44040B",
"U 	c #4B0009",
"V 	c #643A0D",
"W 	c #7B5416",
"X 	c #7B3C20",
"Y 	c #963330",
"Z 	c #B8453E",
"` 	c #BD4740",
" .	c #A93D38",
"..	c #823026",
"+.	c #7B4D1A",
"@.	c #714D11",
"#.	c #531C0A",
"$.	c #470009",
"%.	c #3C050A",
"&.	c #282B1C",
"*.	c #3F7A51",
"=.	c #2D4D33",
"-.	c #3B2A13",
";.	c #3F0109",
">.	c #4C0009",
",.	c #640005",
"'.	c #672906",
").	c #604624",
"!.	c #69564B",
"~.	c #917A71",
"{.	c #B79B8C",
"].	c #BDA091",
"^.	c #A88D81",
"/.	c #78635D",
"(.	c #614D37",
"_.	c #62390F",
":.	c #691306",
"<.	c #580007",
"[.	c #43000A",
"}.	c #26150D",
"|.	c #510106",
"1.	c #5D0006",
"2.	c #5F0005",
"3.	c #6F0001",
"4.	c #6B0900",
"5.	c #633D31",
"6.	c #877D72",
"7.	c #999487",
"8.	c #9B9585",
"9.	c #9C9585",
"0.	c #9B9587",
"a.	c #938D82",
"b.	c #735F55",
"c.	c #621C05",
"d.	c #720702",
"e.	c #670003",
"f.	c #5C0006",
"g.	c #5B0006",
"h.	c #3D0205",
"i.	c #254A30",
"j.	c #396E49",
"k.	c #301B10",
"l.	c #660101",
"m.	c #7A0001",
"n.	c #7E0001",
"o.	c #7F0000",
"p.	c #7E0000",
"q.	c #853E37",
"r.	c #A79486",
"s.	c #9F9889",
"t.	c #6F6656",
"u.	c #645A48",
"v.	c #888171",
"w.	c #ABA193",
"x.	c #966F64",
"y.	c #7C0001",
"z.	c #730001",
"A.	c #4D0203",
"B.	c #264C31",
"C.	c #311B10",
"D.	c #690101",
"E.	c #8F0000",
"F.	c #A50000",
"G.	c #A70000",
"H.	c #A60000",
"I.	c #A32E2A",
"J.	c #95746C",
"K.	c #959286",
"L.	c #A29C8C",
"M.	c #A49E8D",
"N.	c #9C988A",
"O.	c #91877D",
"P.	c #9D544E",
"Q.	c #9C0000",
"R.	c #7D0000",
"S.	c #4D0202",
"T.	c #2A150D",
"U.	c #5B0104",
"V.	c #860002",
"W.	c #B30000",
"X.	c #C60708",
"Y.	c #D22625",
"Z.	c #C14C4A",
"`.	c #C4766E",
" +	c #D99588",
".+	c #DD9A8C",
"++	c #D0887D",
"@+	c #BD5F5A",
"#+	c #CC3837",
"$+	c #CF1212",
"%+	c #BB0303",
"&+	c #AC0000",
"*+	c #970001",
"=+	c #700003",
"-+	c #420204",
";+	c #3B724C",
">+	c #253220",
",+	c #3F0F0E",
"'+	c #600005",
")+	c #810001",
"!+	c #A30001",
"~+	c #CD1717",
"{+	c #EE2928",
"]+	c #F03030",
"^+	c #F03A38",
"/+	c #F2433F",
"(+	c #F24440",
"_+	c #F13F3C",
":+	c #EF3433",
"<+	c #F12D2C",
"[+	c #E12121",
"}+	c #B60809",
"|+	c #900000",
"1+	c #6F0003",
"2+	c #4F0409",
"3+	c #2F1B12",
"4+	c #2B5538",
"5+	c #48895C",
"6+	c #7AB055",
"7+	c #3D724C",
"8+	c #2D3C27",
"9+	c #3F0206",
"0+	c #5C0007",
"a+	c #730007",
"b+	c #950003",
"c+	c #B10102",
"d+	c #B60F0F",
"e+	c #B5080E",
"f+	c #B40000",
"g+	c #B40007",
"h+	c #B61011",
"i+	c #B50808",
"j+	c #A50001",
"k+	c #810006",
"l+	c #660007",
"m+	c #4E0107",
"n+	c #31150F",
"o+	c #345D3D",
"p+	c #438055",
"q+	c #498C5E",
"r+	c #31412A",
"s+	c #360E0D",
"t+	c #320006",
"u+	c #745F60",
"v+	c #9C8484",
"w+	c #785153",
"x+	c #7F4A34",
"y+	c #A97A59",
"z+	c #AF815E",
"A+	c #97674A",
"B+	c #6C3530",
"C+	c #917476",
"D+	c #917A7B",
"E+	c #4C3133",
"F+	c #2C0000",
"G+	c #2E2C1C",
"H+	c #2F5739",
"I+	c #427F55",
"J+	c #4A8D5F",
"K+	c #1E1D11",
"L+	c #310000",
"M+	c #999090",
"N+	c #CDC6C5",
"O+	c #918480",
"P+	c #A17F56",
"Q+	c #E7BE89",
"R+	c #F1C790",
"S+	c #CBA474",
"T+	c #7D6451",
"U+	c #BAB2B1",
"V+	c #BEB8B7",
"W+	c #594E4E",
"X+	c #320000",
"Y+	c #454F32",
"Z+	c #477F55",
"`+	c #3B734D",
" @	c #362114",
".@	c #AB6B66",
"+@	c #C49D90",
"@@	c #C9946A",
"#@	c #DD9E58",
"$@	c #F6B872",
"%@	c #FABC76",
"&@	c #EBAD66",
"*@	c #CF9254",
"=@	c #C89C84",
"-@	c #AE8B84",
";@	c #783F37",
">@	c #984F21",
",@	c #9C6536",
"'@	c #52623E",
")@	c #428055",
"!@	c #505F3E",
"~@	c #741A0E",
"{@	c #AC2510",
"]@	c #A75329",
"^@	c #CC8442",
"/@	c #DD954B",
"(@	c #DC944A",
"_@	c #DC9449",
":@	c #DD954A",
"<@	c #D99148",
"[@	c #B76D36",
"}@	c #8D3A1B",
"|@	c #7B2511",
"1@	c #B15E30",
"2@	c #B16533",
"3@	c #51331B",
"4@	c #3A704B",
"5@	c #2D5739",
"6@	c #792B17",
"7@	c #B02B11",
"8@	c #B92C11",
"9@	c #A5240D",
"0@	c #832812",
"a@	c #8D4B28",
"b@	c #965830",
"c@	c #96582F",
"d@	c #94552E",
"e@	c #883A1D",
"f@	c #701108",
"g@	c #5C160E",
"h@	c #914929",
"i@	c #95512C",
"j@	c #463B23",
"k@	c #3C744D",
"l@	c #274A30",
"m@	c #97592A",
"n@	c #DC8440",
"o@	c #E28842",
"p@	c #B86B33",
"q@	c #63220E",
"r@	c #6A190F",
"s@	c #792616",
"t@	c #782414",
"u@	c #781108",
"v@	c #660000",
"w@	c #3E0908",
"x@	c #592B18",
"y@	c #624B2F",
"z@	c #46704A",
"A@	c #284B31",
"B@	c #A77237",
"C@	c #F1A552",
"D@	c #F3A452",
"E@	c #C07F3E",
"F@	c #4D2912",
"G@	c #610000",
"H@	c #780000",
"I@	c #770000",
"J@	c #710002",
"K@	c #5B0103",
"L@	c #25110A",
"M@	c #1C3C26",
"N@	c #356744",
"O@	c #2B5135",
"P@	c #A47137",
"Q@	c #E99E4E",
"R@	c #E18E47",
"S@	c #AC6733",
"T@	c #47210E",
"U@	c #5F0000",
"V@	c #750000",
"W@	c #740000",
"X@	c #760000",
"Y@	c #5F0006",
"Z@	c #410107",
"`@	c #1E2316",
" #	c #386D48",
".#	c #407A52",
"+#	c #797142",
"@#	c #A16D35",
"##	c #985D2D",
"$#	c #73401E",
"%#	c #2E1308",
"&#	c #3F0002",
"*#	c #4F0202",
"=#	c #500203",
"-#	c #5A0105",
";#	c #500008",
">#	c #390008",
",#	c #1D2518",
"'#	c #3D754E",
")#	c #274C31",
"!#	c #264C32",
"~#	c #29482F",
"{#	c #372B1D",
"]#	c #40080A",
"^#	c #44130C",
"/#	c #45140D",
"(#	c #38100A",
"_#	c #1D2618",
":#	c #448257",
"<#	c #2E5135",
"[#	c #2B180A",
"}#	c #3F2B11",
"|#	c #422E12",
"1#	c #36250E",
"2#	c #1C2918",
"3#	c #4A8D5E",
"4#	c #2B5639",
"5#	c #2E230B",
"6#	c #4D3B14",
"7#	c #523F16",
"8#	c #443411",
"9#	c #1F2514",
"0#	c #3C734D",
"a#	c #356845",
"b#	c #3C4F2F",
"c#	c #575C33",
"d#	c #5B5F33",
"e#	c #4E5731",
"f#	c #305134",
"g#	c #4A875A",
"h#	c #4F885A",
"i#	c #50895A",
"j#	c #4D885A",
"k#	c #48875A",
"                          . + + @                               ",
"                          # $ % & *         =                   ",
"                      + - ; > , ' ) !     =   =                 ",
"                      ~ { ] ^ / ( _ :       =                   ",
"                    < [ } | 1 2 3 4 5 & *                       ",
"              6 7 7 8 9 0 a b c d e f g h i j +                 ",
"              k l m n o p q r s t u v w x y { j                 ",
"          ! & z A B C D E F G H I J K L M N O P #               ",
"        ! Q R S T U V W X Y Z `  ...+.@.#.$.%.&.P j +           ",
"      . *.=.-.;.>.,.'.).!.~.{.].^./.(._.:.<.[.%.O { j           ",
"      @ 8 }.|.1.2.3.4.5.6.7.8.9.0.a.b.c.d.e.f.g.h.i.<           ",
"      @ j.k.l.m.n.o.p.q.r.s.t.u.v.w.x.p.o.o.y.z.A.B.7           ",
"      @ j.C.D.E.F.G.H.I.J.K.L.M.N.O.P.H.H.G.Q.R.S.B.7           ",
"      @ 8 T.U.V.F.W.X.Y.Z.`. +.+++@+#+$+%+&+*+=+-+i.<           ",
"      . ;+>+,+'+)+!+~+{+]+^+/+(+_+:+<+[+}+|+1+2+3+4+5+          ",
"6+      i 7+8+9+0+a+b+c+d+e+f+W.g+h+i+j+k+l+m+n+o+p+!           ",
"  6+      q+% r+s+t+u+v+w+x+y+z+A+B+C+D+E+F+G+H+I+            6+",
"6+        @ J+P K+L+M+N+O+P+Q+R+S+T+U+V+W+X+Y+Z+6               ",
"              `+ @o..@+@@@#@$@%@&@*@=@-@;@>@,@'@)@              ",
"          ! h !@~@F.{@]@^@/@(@_@:@<@[@}@|@1@2@3@4@              ",
"          5+5@6@7@8@9@0@a@b@c@c@b@d@e@f@g@h@i@j@k@              ",
"          < l@m@n@o@p@q@r@s@s@s@s@t@u@v@w@x@y@z@<               ",
"          7 A@B@C@D@E@F@G@H@H@I@H@I@J@K@L@M@N@q+                ",
"          7 O@P@Q@R@S@T@U@V@W@V@X@z.Y@Z@`@ #q++                 ",
"          6 .#+#@###$#%#&#*#=#-#Y@1.;#>#,#'#      6+            ",
"              .#O@A@)#B.B.!#~#{#]#^#/#(#_#k@  6+  6+            ",
"              6 7 7 7 7 7 5+:#<#[#}#|#1#2#k@  6+  6+            ",
"                            3#4#5#6#7#8#9#0#  6+                ",
"                            J+a#b#c#d#e#f#&                     ",
"                          6++ - g#h#i#j#k#J+                    ",
"                        6+  6+                                  ",
"                          6+                                    "};
