/* XPM */
static char * player_xpm[] = {
"32 32 99 2",
"  	c #4D9262",
". 	c #A22633",
"+ 	c #B82D38",
"@ 	c #E43B44",
"# 	c #3E734E",
"$ 	c #A52734",
"% 	c #AB2935",
"& 	c #AA2935",
"* 	c #9E2837",
"= 	c #9F2937",
"- 	c #A62F34",
"; 	c #A32D34",
"> 	c #9E2634",
", 	c #A22A34",
"' 	c #A52F34",
") 	c #A02834",
"! 	c #A52E34",
"~ 	c #262B44",
"{ 	c #394365",
"] 	c #5E4C63",
"^ 	c #D87643",
"/ 	c #BA6743",
"( 	c #252B44",
"_ 	c #9A5744",
": 	c #D77643",
"< 	c #6C4344",
"[ 	c #282C44",
"} 	c #D47543",
"| 	c #2B324D",
"1 	c #88675D",
"2 	c #986D5B",
"3 	c #E18640",
"4 	c #CC7C40",
"5 	c #876041",
"6 	c #B77340",
"7 	c #9F6941",
"8 	c #886041",
"9 	c #DF8540",
"0 	c #E28740",
"a 	c #7AB055",
"b 	c #3A4466",
"c 	c #394466",
"d 	c #F8AA38",
"e 	c #FEAE34",
"f 	c #333B5A",
"g 	c #323B5A",
"h 	c #C88D4E",
"i 	c #D3934B",
"j 	c #394364",
"k 	c #6B5862",
"l 	c #FFAE34",
"m 	c #81354E",
"n 	c #8E414B",
"o 	c #D07A33",
"p 	c #D07933",
"q 	c #A92835",
"r 	c #D63740",
"s 	c #D63640",
"t 	c #B72D38",
"u 	c #CD343E",
"v 	c #CA333D",
"w 	c #BE2F3A",
"x 	c #D93741",
"y 	c #D2353F",
"z 	c #E03A43",
"A 	c #E13A43",
"B 	c #E33B44",
"C 	c #CF343E",
"D 	c #DC3942",
"E 	c #A12633",
"F 	c #B32B37",
"G 	c #C97F4D",
"H 	c #80A1AC",
"I 	c #8B99A2",
"J 	c #BB5439",
"K 	c #C26238",
"L 	c #F2B665",
"M 	c #27E8F6",
"N 	c #2CE8F5",
"O 	c #60DDE6",
"P 	c #D77541",
"Q 	c #E48B3F",
"R 	c #2AE8F5",
"S 	c #26D0E4",
"T 	c #1DADCE",
"U 	c #29DEEE",
"V 	c #48E3EF",
"W 	c #21BDD8",
"X 	c #0B6FAE",
"Y 	c #28D7E9",
"Z 	c #28DAEB",
"` 	c #47DCE9",
" .	c #46DDE9",
"..	c #3A6AA6",
"+.	c #44CCDE",
"@.	c #A2222F",
"#.	c #A2212F",
"$.	c #A22531",
"%.	c #A22230",
"                        . + @ @ @ @ @ @ @ @                     ",
"                        . + @ @ @ @ @ @ @ @ @                   ",
"                    . . . + @ @ @ @ @ @ @ @ @ #                 ",
"                    . . . + @ @ @ @ @ @ @ @ @                   ",
"                    . . . $ % % % % % % % % & . .               ",
"                    * = - ; > , ' ' ' ) > ' ! . .               ",
"                ~ ~ { ] ^ / ( _ : : : < [ } :                   ",
"                | | 1 2 3 4 5 6 3 3 3 7 8 9 0                   ",
"            a   b c d e e e e e e e e e e e e e e               ",
"            a   f g h i e e e e e e e e e e e e e               ",
"            a   ~ ~ j k l e e e e e e e e e e e e               ",
"            a   a   m n o p p p p p p p p p p p p               ",
"                a   . . . . . . . . . . . . . . .               ",
"                . . . q r s s s s t . u s s s s v .             ",
"                . . . % @ @ @ @ @ w . x @ @ @ @ y . .           ",
"a               . . . % @ @ @ @ @ w . x @ @ @ @ y . .           ",
"  a             . . . & z A @ @ @ w . x @ @ B z C . .         a ",
"a               . . . . . + @ @ @ w . x @ @ D E . . .           ",
"                . . . . . F s s s t . u s s C . . . .           ",
"                . . . . . . . . . . . . . . . . . . .           ",
"                p p p G H H H H H H H H H H I J K p p           ",
"                e e e L M N N N N N N N N N O P Q e e           ",
"                  #   # R N N S T T T U N N V                   ",
"                    #   N N N W X X X Y N N N                   ",
"                    N N N N N Z   X X Y N N N     a             ",
"                    N N N N N N   X X Y N N N a   a             ",
"                    N N N N       X X Y N     a   a             ",
"                    `  . . .      ....+. .    a                 ",
"                . . @.#.#.#.      $.$.%.#.. .                   ",
"                . . . . . .         . . . . .                   ",
"                        a   a                                   ",
"                          a                                     "};
