/* XPM */
static char * player_D_1_xpm[] = {
"32 32 452 2",
"  	c #4D9262",
". 	c #4D9162",
"+ 	c #4C9161",
"@ 	c #468559",
"# 	c #396E49",
"$ 	c #376B47",
"% 	c #396F4A",
"& 	c #47875A",
"* 	c #3E734E",
"= 	c #3C754E",
"- 	c #222C1B",
"; 	c #440E08",
"> 	c #611A12",
", 	c #721E17",
"' 	c #751F17",
") 	c #6A1712",
"! 	c #532D1C",
"~ 	c #496E49",
"{ 	c #498A5D",
"] 	c #3C744D",
"^ 	c #3B2617",
"/ 	c #870101",
"( 	c #BD1515",
"_ 	c #DF2525",
": 	c #E52828",
"< 	c #D21F1F",
"[ 	c #A60F0B",
"} 	c #693622",
"| 	c #346543",
"1 	c #4A8C5E",
"2 	c #476543",
"3 	c #793823",
"4 	c #B31010",
"5 	c #E32121",
"6 	c #FB2A2A",
"7 	c #F82A2A",
"8 	c #DC1E1E",
"9 	c #A80F0E",
"0 	c #6E3A25",
"a 	c #466B47",
"b 	c #47875B",
"c 	c #498B5D",
"d 	c #437E54",
"e 	c #334E32",
"f 	c #720C05",
"g 	c #B40B0A",
"h 	c #F72929",
"i 	c #F02626",
"j 	c #CE1515",
"k 	c #980400",
"l 	c #472E1B",
"m 	c #386E48",
"n 	c #47885B",
"o 	c #4B8E5F",
"p 	c #254B31",
"q 	c #294A30",
"r 	c #323920",
"s 	c #5D230D",
"t 	c #8D0803",
"u 	c #B90C0D",
"v 	c #CC1313",
"w 	c #CA1212",
"x 	c #C00809",
"y 	c #9D1808",
"z 	c #542C15",
"A 	c #284228",
"B 	c #295135",
"C 	c #407A51",
"D 	c #396C48",
"E 	c #303925",
"F 	c #2A0006",
"G 	c #351709",
"H 	c #5A4012",
"I 	c #6C3D0F",
"J 	c #780B01",
"K 	c #910000",
"L 	c #A60000",
"M 	c #B1060B",
"N 	c #A63332",
"O 	c #975E55",
"P 	c #8B7C6D",
"Q 	c #69665C",
"R 	c #433D3B",
"S 	c #311D1B",
"T 	c #335537",
"U 	c #407B52",
"V 	c #4B8F60",
"W 	c #74A851",
"X 	c #282B1C",
"Y 	c #3C050A",
"Z 	c #470009",
"` 	c #531C0A",
" .	c #714D12",
"..	c #7C4D10",
"+.	c #7A2905",
"@.	c #7B2003",
"#.	c #921E00",
"$.	c #AA2F1E",
"%.	c #95615A",
"&.	c #928A7F",
"*.	c #A9A192",
"=.	c #8B867B",
"-.	c #5F5552",
";.	c #482323",
">.	c #2F0B05",
",.	c #2C4C32",
"'.	c #448056",
").	c #547B3A",
"!.	c #43000A",
"~.	c #580007",
"{.	c #691306",
"].	c #623911",
"^.	c #6C4B14",
"/.	c #805210",
"(.	c #825310",
"_.	c #885101",
":.	c #965D2F",
"<.	c #A6917E",
"[.	c #A09A8B",
"}.	c #7D7566",
"|.	c #62594A",
"1.	c #4F3E33",
"2.	c #471717",
"3.	c #400006",
"4.	c #372116",
"5.	c #2D4D33",
"6.	c #3F7A51",
"7.	c #3D5A29",
"8.	c #3D0205",
"9.	c #5B0006",
"0.	c #5C0006",
"a.	c #670003",
"b.	c #720702",
"c.	c #631E0B",
"d.	c #613C12",
"e.	c #6E5215",
"f.	c #705515",
"g.	c #6E520B",
"h.	c #735D30",
"i.	c #958C79",
"j.	c #9D988A",
"k.	c #868071",
"l.	c #696457",
"m.	c #55443B",
"n.	c #5A1A18",
"o.	c #5D0002",
"p.	c #510106",
"q.	c #26150D",
"r.	c #386E49",
"s.	c #4D9161",
"t.	c #3F5C2A",
"u.	c #4D0203",
"v.	c #730001",
"w.	c #7C0001",
"x.	c #7F0000",
"y.	c #7F0100",
"z.	c #7F0401",
"A.	c #732009",
"B.	c #613313",
"C.	c #5D3614",
"D.	c #5D3410",
"E.	c #613C23",
"F.	c #735C54",
"G.	c #95847A",
"H.	c #B1A091",
"I.	c #96867B",
"J.	c #795551",
"K.	c #7C2220",
"L.	c #7A0000",
"M.	c #660101",
"N.	c #301B10",
"O.	c #264C31",
"P.	c #4D0202",
"Q.	c #7D0000",
"R.	c #9C0000",
"S.	c #A70000",
"T.	c #A30902",
"U.	c #9E1707",
"V.	c #9D1807",
"W.	c #9D1706",
"X.	c #9D1C10",
"Y.	c #A02E2B",
"Z.	c #AA4D48",
"`.	c #B6655C",
" +	c #AD544E",
".+	c #A63432",
"++	c #A51211",
"@+	c #8F0000",
"#+	c #690101",
"$+	c #311B10",
"%+	c #254A30",
"&+	c #420204",
"*+	c #700003",
"=+	c #970001",
"-+	c #AC0000",
";+	c #BA0403",
">+	c #CE1414",
",+	c #D7191A",
"'+	c #D71919",
")+	c #D71819",
"!+	c #D71717",
"~+	c #D71214",
"{+	c #D40A0E",
"]+	c #C50001",
"^+	c #B30000",
"/+	c #A50000",
"(+	c #860002",
"_+	c #5B0104",
":+	c #2A150D",
"<+	c #48895C",
"[+	c #2B5538",
"}+	c #2F1B12",
"|+	c #4F0409",
"1+	c #6F0003",
"2+	c #900000",
"3+	c #B60809",
"4+	c #E12121",
"5+	c #F22929",
"6+	c #EE2727",
"7+	c #CD1717",
"8+	c #A30001",
"9+	c #810001",
"0+	c #600005",
"a+	c #3F0F0E",
"b+	c #253220",
"c+	c #3B724C",
"d+	c #7AB055",
"e+	c #438055",
"f+	c #345D3D",
"g+	c #31150F",
"h+	c #4E0107",
"i+	c #660006",
"j+	c #810209",
"k+	c #A60F13",
"l+	c #B51317",
"m+	c #B41317",
"n+	c #B41016",
"o+	c #B40E16",
"p+	c #B40D15",
"q+	c #B40408",
"r+	c #B50908",
"s+	c #B21415",
"t+	c #940009",
"u+	c #700000",
"v+	c #5B0005",
"w+	c #3F0207",
"x+	c #2D3C27",
"y+	c #3D724C",
"z+	c #48885B",
"A+	c #427F55",
"B+	c #2F5639",
"C+	c #34281A",
"D+	c #330007",
"E+	c #4B160D",
"F+	c #8A3F1D",
"G+	c #A04C23",
"H+	c #A14F25",
"I+	c #A95F2C",
"J+	c #AE662D",
"K+	c #AD6A3E",
"L+	c #A98379",
"M+	c #93787A",
"N+	c #6B3736",
"O+	c #8A6448",
"P+	c #8D6F51",
"Q+	c #503225",
"R+	c #2B4029",
"S+	c #366A46",
"T+	c #498C5E",
"U+	c #4C9061",
"V+	c #468459",
"W+	c #2E5437",
"X+	c #08180E",
"Y+	c #4D2913",
"Z+	c #B16532",
"`+	c #D0773C",
" @	c #D27B3E",
".@	c #E39349",
"+@	c #EC9E4A",
"@@	c #EBA462",
"#@	c #E7C9B7",
"$@	c #C3BBB8",
"%@	c #7D6758",
"&@	c #C09C6F",
"*@	c #C9A77A",
"=@	c #5E5139",
"-@	c #376C47",
";@	c #4A8D5F",
">@	c #428055",
",@	c #2F5C3D",
"'@	c #442C17",
")@	c #A25A2F",
"!@	c #C06B39",
"~@	c #C36F3B",
"{@	c #DA8744",
"]@	c #E69247",
"^@	c #E79754",
"/@	c #EFB68C",
"(@	c #E8B78E",
"_@	c #D09458",
":@	c #CD925C",
"<@	c #B1815A",
"[@	c #50412C",
"}@	c #3B734C",
"|@	c #415A3A",
"1@	c #794B2D",
"2@	c #914829",
"3@	c #9F4C2A",
"4@	c #C06131",
"5@	c #CF6A35",
"6@	c #D06F37",
"7@	c #D78741",
"8@	c #DD9549",
"9@	c #D99249",
"0@	c #B46F39",
"a@	c #814224",
"b@	c #57351F",
"c@	c #436240",
"d@	c #448156",
"e@	c #498156",
"f@	c #545836",
"g@	c #6D3619",
"h@	c #8C3417",
"i@	c #AD2E13",
"j@	c #BB2910",
"k@	c #B82F15",
"l@	c #A44B27",
"m@	c #965830",
"n@	c #92552E",
"o@	c #6A3C1F",
"p@	c #552C18",
"q@	c #744024",
"r@	c #573821",
"s@	c #2D5739",
"t@	c #366645",
"u@	c #556943",
"v@	c #A97C41",
"w@	c #CA8843",
"x@	c #CD803E",
"y@	c #C04E23",
"z@	c #B70000",
"A@	c #B20000",
"B@	c #931B0F",
"C@	c #792616",
"D@	c #752515",
"E@	c #49120A",
"F@	c #472515",
"G@	c #7A4226",
"H@	c #5A301B",
"I@	c #24482E",
"J@	c #593E20",
"K@	c #CB8742",
"L@	c #F5A653",
"M@	c #F0A250",
"N@	c #C26731",
"O@	c #A00000",
"P@	c #A40000",
"Q@	c #8B0000",
"R@	c #770000",
"S@	c #740000",
"T@	c #4B0001",
"U@	c #3E2011",
"V@	c #683921",
"W@	c #52472C",
"X@	c #305B3D",
"Y@	c #503A20",
"Z@	c #B76E36",
"`@	c #E59349",
" #	c #E69C4D",
".#	c #9C6430",
"+#	c #5B0000",
"@#	c #7C0000",
"##	c #720001",
"$#	c #4B0202",
"%#	c #180F09",
"&#	c #31321F",
"*#	c #416D48",
"=#	c #3D754E",
"-#	c #352E1B",
";#	c #7B4521",
">#	c #9D612F",
",#	c #9F6B33",
"'#	c #62441F",
")#	c #400001",
"!#	c #710000",
"~#	c #780000",
"{#	c #710001",
"]#	c #5F0005",
"^#	c #3A0004",
"/#	c #1C3D27",
"(#	c #468659",
"_#	c #3C6843",
":#	c #2F2F17",
"<#	c #251B09",
"[#	c #211809",
"}#	c #211709",
"|#	c #0F0D06",
"1#	c #3D0203",
"2#	c #640502",
"3#	c #6F1A05",
"4#	c #682209",
"5#	c #50220D",
"6#	c #3B220C",
"7#	c #354B2E",
"8#	c #669346",
"9#	c #305E3E",
"0#	c #3B3B1E",
"a#	c #513F16",
"b#	c #453513",
"c#	c #392C11",
"d#	c #352910",
"e#	c #212111",
"f#	c #1A140C",
"g#	c #331307",
"h#	c #543410",
"i#	c #604215",
"j#	c #5B4115",
"k#	c #584215",
"l#	c #4B3E19",
"m#	c #3D5124",
"n#	c #3E774F",
"o#	c #3B2C0D",
"p#	c #5A4416",
"q#	c #574216",
"r#	c #463512",
"s#	c #2F2C15",
"t#	c #2E5B3C",
"u#	c #172111",
"v#	c #493912",
"w#	c #5D4817",
"x#	c #5E4817",
"y#	c #503D13",
"z#	c #25200A",
"A#	c #3A704A",
"B#	c #336342",
"C#	c #3F502F",
"D#	c #575D33",
"E#	c #5B5F33",
"F#	c #4B5531",
"G#	c #305436",
"H#	c #2F5436",
"I#	c #5A5E33",
"J#	c #4F5831",
"K#	c #315133",
"L#	c #3F7951",
"M#	c #4A875A",
"N#	c #4F885A",
"O#	c #50895A",
"P#	c #73A34E",
"Q#	c #48875A",
"R#	c #4C875A",
"S#	c #4D885A",
"                    . + + + + + + + .                           ",
"                    @ # $ $ $ $ $ % &       *                   ",
"                    = - ; > , ' ) ! ~ { + *   *                 ",
"                    ] ^ / ( _ : < [ } | 1   *                   ",
"                    @ 2 3 4 5 6 7 8 9 0 a b                     ",
"                + c b d e f g 5 h i j k l m n n o               ",
"                c | p q r s t u v w x y z A p B C               ",
"              & D E F G H I J K L M N O P Q R S T U V           ",
"          + W D X Y Z `  ...+.@.#.$.%.&.*.=.-.;.>.,.'.V         ",
"          c ).E Y !.~.{.].^./.(._.:.<.[.}.|.1.2.3.4.5.6..       ",
"          b 7.8.9.0.a.b.c.d.e.f.g.h.i.j.k.l.m.n.o.p.q.r.s.      ",
"          n t.u.v.w.x.y.z.A.B.C.D.E.F.G.H.I.J.K.L.M.N.# s.      ",
"          n O.P.Q.R.S.L L T.U.V.W.X.Y.Z.`. +.+++@+#+$+# s.      ",
"          b %+&+*+=+-+;+>+,+'+)+'+)+!+~+{+]+^+/+(+_+:+r.s.      ",
"          <+[+}+|+1+2+3+4+5+5+5+5+5+5+5+6+7+8+9+0+a+b+c+.       ",
"d+        V e+f+g+h+i+j+k+l+m+n+o+p+q+r+s+t+u+v+w+x+y+z+        ",
"  d+          A+B+C+D+E+F+G+H+I+J+K+L+M+N+O+P+Q+R+S+T+        d+",
"d+            U+V+W+X+Y+Z+`+ @.@+@@@#@$@%@&@*@=@-@;@s.          ",
"                U+>@,@'@)@!@~@{@]@^@/@(@_@:@<@[@}@              ",
"                    A+|@1@2@3@4@5@6@7@8@9@0@a@b@c@d@V           ",
"                    V e@f@g@h@i@j@k@l@m@n@o@p@q@r@s@<+          ",
"                    t@u@v@w@x@y@z@A@B@C@D@E@F@G@H@I@b           ",
"                  * ] J@K@L@M@N@O@P@Q@R@S@T@U@V@W@| c           ",
"                    X@Y@Z@`@ #.#+#Q.@#R@##$#%#&#*#c +           ",
"                    =#-#;#>#,#'#)#!#~#{#]#^#/#r.n d+            ",
"                U+(#_#:#<#[#}#|#1#2#3#4#5#6#7#8#T+d+            ",
"                { 9#0#a#b#c#d#e#f#g#h#i#j#k#l#m#n#d+            ",
"                <+p o#p#q#r#s#f+t#u#v#w#w#x#y#z#A#              ",
"                c B#C#D#E#F#G#>@>@H#F#I#I#E#J#K#L#              ",
"                U+<+M#N#O#P#Q#V V Q#R#O#O#O#S#Q#;@              ",
"                        d+  d+                                  ",
"                          d+                                    "};
