/* XPM */
static char * wall_xpm[] = {
"32 32 415 2",
"  	c #8891AD",
". 	c #8E99B6",
"+ 	c #8C9AB7",
"@ 	c #8C9BB5",
"# 	c #8B9BB5",
"$ 	c #8D9AB5",
"% 	c #8E99B5",
"& 	c #8E98B4",
"* 	c #404C68",
"= 	c #394565",
"- 	c #394664",
"; 	c #394663",
"> 	c #8592AD",
", 	c #8E99B7",
"' 	c #8F99B7",
") 	c #8E9AB6",
"! 	c #8C9CB3",
"~ 	c #8B9AB3",
"{ 	c #8C9BB6",
"] 	c #8C9BB7",
"^ 	c #899CB5",
"/ 	c #8A9BB5",
"( 	c #626C88",
"_ 	c #647291",
": 	c #637292",
"< 	c #637390",
"[ 	c #647290",
"} 	c #65738F",
"| 	c #65738D",
"1 	c #8290AB",
"2 	c #5F6A88",
"3 	c #414C6D",
"4 	c #586385",
"5 	c #657191",
"6 	c #637290",
"7 	c #647292",
"8 	c #657393",
"9 	c #72809D",
"0 	c #53617A",
"a 	c #5B6987",
"b 	c #647293",
"c 	c #637391",
"d 	c #617490",
"e 	c #63738E",
"f 	c #586482",
"g 	c #596989",
"h 	c #596888",
"i 	c #5A6987",
"j 	c #5B6A87",
"k 	c #72819D",
"l 	c #72819C",
"m 	c #6A7995",
"n 	c #5B6A86",
"o 	c #8A98B4",
"p 	c #646F8E",
"q 	c #444F72",
"r 	c #5C698B",
"s 	c #5A6889",
"t 	c #586987",
"u 	c #596988",
"v 	c #5A6989",
"w 	c #7A88A3",
"x 	c #4C5A78",
"y 	c #556282",
"z 	c #5B698A",
"A 	c #586988",
"B 	c #596986",
"C 	c #576483",
"D 	c #5A698A",
"E 	c #5A6988",
"F 	c #5E6D88",
"G 	c #8999B2",
"H 	c #8A9AB4",
"I 	c #7C8CA7",
"J 	c #5B6A88",
"K 	c #8794B3",
"L 	c #626E8C",
"M 	c #424F72",
"N 	c #596A87",
"O 	c #59698A",
"P 	c #596885",
"Q 	c #5D6C89",
"R 	c #5C6B88",
"S 	c #596886",
"T 	c #5D6B89",
"U 	c #4B5777",
"V 	c #435072",
"W 	c #606F8C",
"X 	c #7C8BA7",
"Y 	c #556480",
"Z 	c #4F5E7D",
"` 	c #7B88A5",
" .	c #5B6786",
"..	c #5B6A89",
"+.	c #7B8AA8",
"@.	c #62708E",
"#.	c #4A5978",
"$.	c #61708C",
"%.	c #8292AC",
"&.	c #53617C",
"*.	c #4C5B7A",
"=.	c #5B6A8B",
"-.	c #5A688B",
";.	c #818FAC",
">.	c #5E6A89",
",.	c #8897B6",
"'.	c #404F6D",
").	c #586381",
"!.	c #5B6985",
"~.	c #5C6984",
"{.	c #596A88",
"].	c #5B6B89",
"^.	c #485675",
"/.	c #424F70",
"(.	c #5A6888",
"_.	c #596A86",
":.	c #5A6A87",
"<.	c #596987",
"[.	c #5C6B89",
"}.	c #8998B6",
"|.	c #64728E",
"1.	c #404F6C",
"2.	c #5A6984",
"3.	c #596385",
"4.	c #5C6889",
"5.	c #5C6887",
"6.	c #435071",
"7.	c #3D476B",
"8.	c #3C466A",
"9.	c #434D70",
"0.	c #596487",
"a.	c #4D5C7D",
"b.	c #445373",
"c.	c #657495",
"d.	c #5C6A8B",
"e.	c #566585",
"f.	c #5B6989",
"g.	c #59698B",
"h.	c #5A698B",
"i.	c #4E587B",
"j.	c #505C7F",
"k.	c #515C7D",
"l.	c #4F5C7F",
"m.	c #505D7F",
"n.	c #3B476A",
"o.	c #3B4368",
"p.	c #3B4367",
"q.	c #3B4468",
"r.	c #4F587C",
"s.	c #445173",
"t.	c #3C496C",
"u.	c #505D7E",
"v.	c #505D7D",
"w.	c #4F5D7C",
"x.	c #4F5C7C",
"y.	c #4F5D80",
"z.	c #4F5D7F",
"A.	c #505C7E",
"B.	c #505D81",
"C.	c #3C4767",
"D.	c #3B4867",
"E.	c #3C4765",
"F.	c #3A4768",
"G.	c #394666",
"H.	c #3B4766",
"I.	c #3B4866",
"J.	c #3B4869",
"K.	c #394667",
"L.	c #384566",
"M.	c #384565",
"N.	c #3A4767",
"O.	c #394767",
"P.	c #394868",
"Q.	c #3A4868",
"R.	c #3C4766",
"S.	c #3A4869",
"T.	c #848EAB",
"U.	c #8997B3",
"V.	c #8997B2",
"W.	c #8A97B4",
"X.	c #8A97B3",
"Y.	c #8998B3",
"Z.	c #8898B2",
"`.	c #53607C",
" +	c #394464",
".+	c #384464",
"++	c #384564",
"@+	c #7683A2",
"#+	c #8896B4",
"$+	c #8897B3",
"%+	c #8898B3",
"&+	c #8A97B1",
"*+	c #8997B4",
"=+	c #707A97",
"-+	c #74819E",
";+	c #73829E",
">+	c #73829D",
",+	c #72819B",
"'+	c #8494AF",
")+	c #8494AE",
"!+	c #71809B",
"~+	c #72829C",
"{+	c #707F9B",
"]+	c #5F6B88",
"^+	c #3A4766",
"/+	c #4D5B7A",
"(+	c #677795",
"_+	c #7383A0",
":+	c #73829C",
"<+	c #71819B",
"[+	c #72819A",
"}+	c #71819C",
"|+	c #72829E",
"1+	c #596380",
"2+	c #5B6887",
"3+	c #5A6986",
"4+	c #7A89A6",
"5+	c #7A88A5",
"6+	c #5A6A85",
"7+	c #8191AB",
"8+	c #75819E",
"9+	c #63728C",
"0+	c #5B6C88",
"a+	c #5B6889",
"b+	c #596984",
"c+	c #8292AB",
"d+	c #74809C",
"e+	c #5A6887",
"f+	c #677594",
"g+	c #8B9AB5",
"h+	c #8292A9",
"i+	c #74809B",
"j+	c #596A89",
"k+	c #5D6C8C",
"l+	c #697894",
"m+	c #5B6B8B",
"n+	c #596383",
"o+	c #5B688A",
"p+	c #5A688A",
"q+	c #596985",
"r+	c #8292AA",
"s+	c #5C6A87",
"t+	c #5B6888",
"u+	c #5A678A",
"v+	c #586786",
"w+	c #60718E",
"x+	c #53607E",
"y+	c #3C496B",
"z+	c #3F4C6E",
"A+	c #596788",
"B+	c #5B6988",
"C+	c #8291AD",
"D+	c #74809D",
"E+	c #6B7B99",
"F+	c #8594B3",
"G+	c #5F6D8C",
"H+	c #596384",
"I+	c #5D6E8B",
"J+	c #7784A1",
"K+	c #576383",
"L+	c #4B5879",
"M+	c #4C597B",
"N+	c #515E7E",
"O+	c #4B5877",
"P+	c #4C5878",
"Q+	c #596686",
"R+	c #667491",
"S+	c #5B6785",
"T+	c #4B5978",
"U+	c #556583",
"V+	c #7583A2",
"W+	c #5C6B8A",
"X+	c #576081",
"Y+	c #586686",
"Z+	c #576784",
"`+	c #596585",
" @	c #596586",
".@	c #586487",
"+@	c #596587",
"@@	c #586687",
"#@	c #596787",
"$@	c #485274",
"%@	c #384365",
"&@	c #3A4567",
"*@	c #556081",
"=@	c #586683",
"-@	c #586684",
";@	c #586585",
">@	c #414E6F",
",@	c #3A4667",
"'@	c #394567",
")@	c #4F5D7D",
"!@	c #576686",
"~@	c #596687",
"{@	c #586586",
"]@	c #576687",
"^@	c #586787",
"/@	c #394162",
"(@	c #394564",
"_@	c #384663",
":@	c #384567",
"<@	c #374365",
"[@	c #374466",
"}@	c #384466",
"|@	c #374467",
"1@	c #384467",
"2@	c #3A4466",
"3@	c #757E9D",
"4@	c #7985A4",
"5@	c #7887A1",
"6@	c #7986A1",
"7@	c #7987A2",
"8@	c #75829D",
"9@	c #7683A1",
"0@	c #7886A1",
"a@	c #7986A2",
"b@	c #7885A3",
"c@	c #7784A3",
"d@	c #7886A2",
"e@	c #7A85A4",
"f@	c #7886A4",
"g@	c #7986A4",
"h@	c #7C87A6",
"i@	c #808EAD",
"j@	c #7F8FAA",
"k@	c #8090A9",
"l@	c #8090AA",
"m@	c #7F8EA8",
"n@	c #566280",
"o@	c #434F6F",
"p@	c #3D4A69",
"q@	c #43506F",
"r@	c #7D8BA9",
"s@	c #808FAA",
"t@	c #808FAD",
"u@	c #808FAB",
"v@	c #8999B4",
"w@	c #8595AF",
"x@	c #7C8CA5",
"y@	c #7F8FAB",
"z@	c #8090AC",
"A@	c #566382",
"B@	c #586886",
"C@	c #576984",
"D@	c #586985",
"E@	c #5C6D8A",
"F@	c #8E9CB9",
"G@	c #5B6883",
"H@	c #44526F",
"I@	c #5A6886",
"J@	c #586983",
"K@	c #8091AA",
"L@	c #384965",
"M@	c #576885",
"N@	c #586885",
"O@	c #596883",
"P@	c #576983",
"Q@	c #576582",
"R@	c #5C6C8A",
"S@	c #8D9CB9",
"T@	c #5B6984",
"U@	c #455372",
"V@	c #596889",
"W@	c #5E6D8B",
"X@	c #576684",
"Y@	c #5A6A88",
"Z@	c #576482",
"`@	c #667694",
" #	c #6E7D99",
".#	c #7988A5",
"+#	c #515F7C",
"@#	c #455373",
"##	c #71809E",
"$#	c #7381A0",
"%#	c #6B7A98",
"&#	c #4D5B78",
"*#	c #576787",
"=#	c #5A6A8A",
"-#	c #566381",
";#	c #7584A2",
">#	c #8392AF",
",#	c #596887",
"'#	c #435272",
")#	c #5B6A8A",
"!#	c #8695B4",
"~#	c #8A99B8",
"{#	c #7D8CAA",
"]#	c #3A4866",
"^#	c #546484",
"/#	c #435172",
"(#	c #445372",
"_#	c #5D6C8B",
":#	c #576381",
"<#	c #445272",
"[#	c #5B6986",
"}#	c #586382",
"|#	c #576281",
"1#	c #5C6787",
"2#	c #5D6888",
"3#	c #556283",
"4#	c #546183",
"5#	c #566685",
"6#	c #5C6886",
"7#	c #576486",
"8#	c #536684",
"9#	c #384667",
"0#	c #556384",
"a#	c #394568",
"b#	c #394468",
"c#	c #3A4568",
"d#	c #5A6689",
"e#	c #5B688B",
"f#	c #5B698B",
"g#	c #455274",
"h#	c #455474",
"  . + @ @ # # $ % % & * = - ; > $ $ $ $ . , , ' ) ! ~ { ] # ^ / ",
"( _ : < < < < [ [ } | 1 2 3 4 5 6 < < < _ 7 7 8 9 ~ 0 a b c d e ",
"f g g h h i j k l m n o p q r s t t t t u v v v 6 w x y z h A B ",
"C g i D E j F G H I J K L M D N E E E E E E E E E E E E E a O g ",
"C O i i E j P Q R J S T U V D N E E E E E E E E E E E E E a O g ",
"C O W X Y Z E D v E i `  .M D N E E E E E E E E E ..+.@.#.a O g ",
"C v $.%.&.*.=.-.D v i ;.>.V D N E E E E E E E E E ..,.[ '.a O g ",
").!.~.N N N N {.{.N N ].^./.(.E N _.:.N {.{.{.{.<.[.}.|.1.2.{.N ",
"3.4.5.D D D D D D D D 6.7.8.9.0.a.b.D D v E E E E =.c.d.e.f.g.h.",
"i.j.k.l.l.l.l.l.l.m.l.n.o.p.q.r.s.t.m.m.u.v.v.w.x.y.y.z.l.A.y.B.",
"C.D.E.F.F.F.F.F.F.F.F.G.H.H.I.H.F.F.J.K.L.G.M.N.O.P.P.P.Q.R.S.F.",
"T.U.V.U.U.U.U.W.X.X.X.Y.Z.Z.Z.Z.U.U.W.`. +.+++@+#+$+$+%+%+&+*+*+",
"=+-+;+>+>+>+>+,+'+)+!+~+>+>+>+>+>+>+;+{+]+^+/+(+_+>+:+<+<+[+}+|+",
"1+2+h S S S S 3+4+5+P i S S S S S S 6+7+8+N.(.u N S S 3+R 9+0+{.",
"1+a+D E E E E E E E E E E E E E v i b+c+d+^+e+E {.E E E f+g+c g ",
"1+a+-.D D D D D D D D D D D D D D i b+h+i+^+e+E j+D D =.k+l+m+O ",
"n+D {.a (.o+p+v E E E E {.{.{.j+-.v q+r+d+^+e+E {.v ..E E i O g ",
"n+D N s+t+o+u+v E E E E E E E E D v q+c+d+^+e+E {.E v+E E a O g ",
"n+D w+*+x+y+z+A+E E E E (.t+B+B+v E S C+D+N.e+E E+F+G+E E a O g ",
"H+D I+J+K+L+M+v E E E E N+O+P+Q+i i S R+S+^+T+U+c V+W+E E a O j+",
"X+Y+Z+`+ @.@+@@@@@Y+#@ @$@%@&@*@=@-@;@>@,@'@'@)@!@~@{@Y+{@ @]@^@",
"/@(@_@L.:@<@K.:@:@:@[@:@}@}@}@}@_@M.}@|@1@L.}@:@}@:@:@:@:@2@L.K.",
"3@4@5@6@6@7@8@F.:@:@:@9@6@0@0@6@a@4@b@c@d@6@0@0@0@6@6@6@6@e@f@g@",
"h@i@j@k@k@l@m@n@o@p@q@r@k@k@k@s@t@u@u@v@w@x@l@k@k@k@k@k@k@u@y@z@",
"A@B@C@D@D@_.E@F@G@H@s+I@D@D@D@D@t D@J@K@~+L@M@D@D@D@D@D@N@O@P@J@",
"Q@<.:.E E u R@S@T@U@=.V@E E E E E E <.W W@X@E E E ..E ..Y@a j+u ",
"Z@`@ #E E ..W+.#+#@#=.s E E E E E E E E E E E E E ..##$#%#&#*#=#",
"-#;#>#E E E ,#v '#U@)#E E E E E E E E E E E E E E W+!#~#{#]#^#g ",
"Z@<.J E E E E D /#(#J 3+E E E E E E E E E E E E E E W+_#..3+O g ",
":#:.q+2+2+2+2+z <#U@a i v v v v v v v v E i :.<.Y@v h v v [#v E ",
"}#_.C@|#1#2#2#3#/./.4#s O O O O O O O O j+{.{.U+5#D D D v 6#v f.",
"7#O 8#9#0#z @@a#b#b#c#d#o+o+o+o+o+o+o+o+o+e#f#g#h#{.{.{.{.s g.g."};
