/* XPM */
static char * cinco_xpm[] = {
"32 32 217 2",
"  	c #000000",
". 	c #000100",
"+ 	c #000300",
"@ 	c #002800",
"# 	c #004500",
"$ 	c #005B00",
"% 	c #006700",
"& 	c #006F00",
"* 	c #007400",
"= 	c #007600",
"- 	c #007700",
"; 	c #007300",
"> 	c #006800",
", 	c #005600",
"' 	c #004200",
") 	c #003000",
"! 	c #001E00",
"~ 	c #000900",
"{ 	c #000B00",
"] 	c #004F00",
"^ 	c #008200",
"/ 	c #00A700",
"( 	c #00BD00",
"_ 	c #00CB00",
": 	c #00D300",
"< 	c #00D700",
"[ 	c #00D800",
"} 	c #00D100",
"| 	c #00BE00",
"1 	c #009F00",
"2 	c #007C00",
"3 	c #005D00",
"4 	c #003E00",
"5 	c #001900",
"6 	c #001000",
"7 	c #005F00",
"8 	c #009B00",
"9 	c #00C600",
"0 	c #00E000",
"a 	c #00EF00",
"b 	c #00F900",
"c 	c #00FE00",
"d 	c #00FF00",
"e 	c #00F800",
"f 	c #00E100",
"g 	c #009400",
"h 	c #007000",
"i 	c #004B00",
"j 	c #002000",
"k 	c #009C00",
"l 	c #00C700",
"m 	c #00F100",
"n 	c #00FB00",
"o 	c #00E200",
"p 	c #009500",
"q 	c #00DE00",
"r 	c #00EB00",
"s 	c #00F000",
"t 	c #00E900",
"u 	c #00DC00",
"v 	c #00DB00",
"w 	c #00DD00",
"x 	c #00D500",
"y 	c #00C100",
"z 	c #00A200",
"A 	c #007F00",
"B 	c #003F00",
"C 	c #001A00",
"D 	c #00E300",
"E 	c #00B600",
"F 	c #007B00",
"G 	c #007E00",
"H 	c #007A00",
"I 	c #006E00",
"J 	c #004600",
"K 	c #003300",
"L 	c #000A00",
"M 	c #00D900",
"N 	c #00DF00",
"O 	c #00C400",
"P 	c #009900",
"Q 	c #005900",
"R 	c #00C500",
"S 	c #000200",
"T 	c #005E00",
"U 	c #000D00",
"V 	c #009800",
"W 	c #00DA00",
"X 	c #005300",
"Y 	c #005000",
"Z 	c #004E00",
"` 	c #004A00",
" .	c #004400",
"..	c #003900",
"+.	c #001100",
"@.	c #00E800",
"#.	c #00E600",
"$.	c #00C900",
"%.	c #00C000",
"&.	c #00BF00",
"*.	c #00BA00",
"=.	c #00B100",
"-.	c #00A300",
";.	c #008A00",
">.	c #006200",
",.	c #002500",
"'.	c #00FC00",
").	c #00FA00",
"!.	c #00F200",
"~.	c #007200",
"{.	c #005200",
"].	c #004100",
"^.	c #003600",
"/.	c #002600",
"(.	c #001700",
"_.	c #000700",
":.	c #006000",
"<.	c #00C800",
"[.	c #00F300",
"}.	c #00CA00",
"|.	c #00B300",
"1.	c #005500",
"2.	c #003800",
"3.	c #001600",
"4.	c #000E00",
"5.	c #005700",
"6.	c #008F00",
"7.	c #00B800",
"8.	c #00D000",
"9.	c #00E700",
"0.	c #00EC00",
"a.	c #00ED00",
"b.	c #00F400",
"c.	c #00F600",
"d.	c #00E500",
"e.	c #00AA00",
"f.	c #008900",
"g.	c #006300",
"h.	c #003A00",
"i.	c #001300",
"j.	c #000400",
"k.	c #000600",
"l.	c #008B00",
"m.	c #00A000",
"n.	c #009E00",
"o.	c #009D00",
"p.	c #00A400",
"q.	c #00B700",
"r.	c #00FD00",
"s.	c #00EE00",
"t.	c #009200",
"u.	c #002100",
"v.	c #000500",
"w.	c #000F00",
"x.	c #001D00",
"y.	c #001F00",
"z.	c #001800",
"A.	c #003700",
"B.	c #00E400",
"C.	c #00F500",
"D.	c #008400",
"E.	c #003D00",
"F.	c #005C00",
"G.	c #009A00",
"H.	c #00B500",
"I.	c #00CD00",
"J.	c #00A500",
"K.	c #008100",
"L.	c #005800",
"M.	c #005A00",
"N.	c #008300",
"O.	c #006A00",
"P.	c #002F00",
"Q.	c #001400",
"R.	c #008700",
"S.	c #00A900",
"T.	c #003400",
"U.	c #006500",
"V.	c #00B900",
"W.	c #00A800",
"X.	c #007500",
"Y.	c #000800",
"Z.	c #006100",
"`.	c #00AD00",
" +	c #00CE00",
".+	c #00D600",
"++	c #009600",
"@+	c #002D00",
"#+	c #002B00",
"$+	c #005400",
"%+	c #002400",
"&+	c #006400",
"*+	c #004700",
"=+	c #003B00",
"-+	c #007100",
";+	c #009100",
">+	c #00AF00",
",+	c #008E00",
"'+	c #00AE00",
")+	c #00B000",
"!+	c #00B200",
"~+	c #00CC00",
"{+	c #003100",
"]+	c #001B00",
"^+	c #000C00",
"/+	c #002900",
"(+	c #006900",
"_+	c #009700",
":+	c #004D00",
"<+	c #003C00",
"[+	c #003500",
"}+	c #002700",
"|+	c #008800",
"1+	c #00A600",
"2+	c #00AC00",
"3+	c #002C00",
"4+	c #003200",
"    .                                                           ",
"      + @ # $ % & * = - - - - - - - - - - - - - ; > , ' ) ! ~   ",
"      { ] ^ / ( _ : < [ [ < < < < < < < < < [ [ } | 1 2 3 4 5   ",
"      6 7 8 9 0 a b c d d d d d d d d d d d d d e f ( g h i j   ",
"      6 7 k l f m n d d d d d d d d d d d d d d b o ( p h i j   ",
"      6 7 k 9 q r m s t 0 u v v u u u u u u w u x y z A 7 B C   ",
"      6 7 k 9 v D 0 : E g A F G G G G G G G A G H I $ J K j L   ",
"      6 7 k 9 M N M O P Q                                       ",
"      6 7 k 9 M N M R 8 3 S                                     ",
"      6 7 k 9 M N M R 8 T U                                     ",
"      6 7 k 9 M N M R 8 T U                                     ",
"      6 7 k 9 M N [ O V ,                   . .                 ",
"      6 7 k 9 W 0 u _ / - X i Y Z `  ...@ +.                    ",
"      6 7 k 9 w @.r #.[ $.y %.&.*.=.-.;.>.,.                    ",
"      6 7 8 9 0 a e '.'.).b b e !.t W y k ~.{.].^./.(._.        ",
"      6 :.k <.o !.'.d d d d d d d n [.t v }.|.p * 1.2.3.        ",
"      4.5.6.7.8.q 9.0.a.0.0.0.a.s b.e n '.c.d.}.e.f.g.h.i.j.+   ",
"      k.2.7 F l.p k 1 m.1 n.o.p.q.8.d.!.n r.b s.u | t.:.2.u.4.  ",
"        v.w.3.C x.y.j j j z.{ A.I o.&.x B.s e '.C.u |.D.3 E.C   ",
"    .                           2.F.2 G.H.I.o [.c.9.<.J.K.L./.  ",
"                                    @ M.N./ }.9.C.s.M ( G.O.P.  ",
"                                    Q.E.:.R.q.N b.[.B.I.S.= T.  ",
"                                    5 ' U.l.V.0 b.[.D _ W.X.K   ",
"    . S j.k.Y.Y.v.S           .     P.Z.;.`. +t C.a..+V.++> @+  ",
"  _.i.x.,.@+) #+(.              6 ^.T l.|.} 9.C.c.d.R m.F $+%+  ",
"  w.y.P.' , g.&+L.*+=+2.h.2.^.].5.-+;+H.[ a n r.b.W >+G , 2.z.  ",
"  6 5 ^.Z.,+'+*.V.|.)+)+)+)+)+!+q.%.~+q m '.n m N %.t.F.{+]+^+  ",
"  ^+. ^.X.!+u m C.b.[.[.[.[.[.[.b.C.c.e e b.9.: V.P I =+.   S   ",
"  j.  /+h >+u [.r.d d d d d d d d d d !.u O '+G.N.(+*+x.        ",
"      Q.3 _+%.[ #.a [.b.b.b.b.b.C.C.s..+e.X.:+<+[+}+z._.        ",
"      v.4 (+|+G.1+`.=.!+=.=.=.=.!+|.2+_+h h.            .       ",
"      . 6 j 3+K A...=+=+=+=+=+=+=+<+..4+%++.+   .               "};
