/* XPM */
static char * dois_xpm[] = {
"32 32 219 2",
"  	c #000000",
". 	c #000900",
"+ 	c #002B00",
"@ 	c #004400",
"# 	c #005600",
"$ 	c #006500",
"% 	c #007100",
"& 	c #007600",
"* 	c #007700",
"= 	c #006D00",
"- 	c #005B00",
"; 	c #002F00",
"> 	c #001900",
", 	c #002100",
"' 	c #005800",
") 	c #008100",
"! 	c #00A000",
"~ 	c #00BA00",
"{ 	c #00CE00",
"] 	c #00D700",
"^ 	c #00D800",
"/ 	c #00D900",
"( 	c #00D600",
"_ 	c #00C700",
": 	c #00A800",
"< 	c #008200",
"[ 	c #005E00",
"} 	c #003A00",
"| 	c #000800",
"1 	c #000B00",
"2 	c #003400",
"3 	c #005400",
"4 	c #007500",
"5 	c #009700",
"6 	c #00B600",
"7 	c #00D000",
"8 	c #00E600",
"9 	c #00F700",
"0 	c #00FF00",
"a 	c #00FE00",
"b 	c #00F100",
"c 	c #00B900",
"d 	c #009E00",
"e 	c #008600",
"f 	c #005000",
"g 	c #002E00",
"h 	c #001B00",
"i 	c #006000",
"j 	c #009500",
"k 	c #00D200",
"l 	c #00E300",
"m 	c #00F000",
"n 	c #00F800",
"o 	c #00FD00",
"p 	c #00FB00",
"q 	c #00F400",
"r 	c #00E900",
"s 	c #00DD00",
"t 	c #00CD00",
"u 	c #008F00",
"v 	c #000D00",
"w 	c #00AE00",
"x 	c #00D300",
"y 	c #00E000",
"z 	c #00E100",
"A 	c #00DF00",
"B 	c #00DC00",
"C 	c #00DB00",
"D 	c #00F500",
"E 	c #00FC00",
"F 	c #00FA00",
"G 	c #00EF00",
"H 	c #00B500",
"I 	c #007E00",
"J 	c #004800",
"K 	c #002500",
"L 	c #001600",
"M 	c #00CC00",
"N 	c #00C900",
"O 	c #00B100",
"P 	c #009900",
"Q 	c #008B00",
"R 	c #008300",
"S 	c #007D00",
"T 	c #008700",
"U 	c #009600",
"V 	c #00F600",
"W 	c #00ED00",
"X 	c #004F00",
"Y 	c #002A00",
"Z 	c #005D00",
"` 	c #009000",
" .	c #009D00",
"..	c #007A00",
"+.	c #002D00",
"@.	c #000400",
"#.	c #001F00",
"$.	c #004C00",
"%.	c #00DA00",
"&.	c #00EE00",
"*.	c #003500",
"=.	c #004A00",
"-.	c #005700",
";.	c #005100",
">.	c #003E00",
",.	c #002600",
"'.	c #001300",
").	c #000100",
"!.	c #002900",
"~.	c #005900",
"{.	c #008400",
"].	c #00A900",
"^.	c #00EB00",
"/.	c #00F300",
"(.	c #00E200",
"_.	c #00C200",
":.	c #007300",
"<.	c #003C00",
"[.	c #004000",
"}.	c #006700",
"|.	c #00BF00",
"1.	c #00E500",
"2.	c #00C600",
"3.	c #00A400",
"4.	c #001200",
"5.	c #004700",
"6.	c #00C400",
"7.	c #00E700",
"8.	c #00E400",
"9.	c #00A100",
"0.	c #003D00",
"a.	c #001500",
"b.	c #005A00",
"c.	c #008D00",
"d.	c #00BB00",
"e.	c #006B00",
"f.	c #003800",
"g.	c #00AB00",
"h.	c #00D400",
"i.	c #00AA00",
"j.	c #008000",
"k.	c #004500",
"l.	c #00C100",
"m.	c #00F200",
"n.	c #008C00",
"o.	c #003700",
"p.	c #001E00",
"q.	c #000300",
"r.	c #000500",
"s.	c #001800",
"t.	c #009F00",
"u.	c #002300",
"v.	c #001700",
"w.	c #006800",
"x.	c #009C00",
"y.	c #00BD00",
"z.	c #001400",
"A.	c #002700",
"B.	c #004100",
"C.	c #007B00",
"D.	c #00C800",
"E.	c #00E800",
"F.	c #00C500",
"G.	c #004300",
"H.	c #000200",
"I.	c #003200",
"J.	c #007900",
"K.	c #00A500",
"L.	c #005300",
"M.	c #001000",
"N.	c #002200",
"O.	c #00AD00",
"P.	c #00CA00",
"Q.	c #00EA00",
"R.	c #008500",
"S.	c #004B00",
"T.	c #000700",
"U.	c #004E00",
"V.	c #00B000",
"W.	c #006E00",
"X.	c #004900",
"Y.	c #001A00",
"Z.	c #000A00",
"`.	c #005F00",
" +	c #009A00",
".+	c #007400",
"++	c #006C00",
"@+	c #009300",
"#+	c #00BE00",
"$+	c #00AF00",
"%+	c #008800",
"&+	c #003B00",
"*+	c #001D00",
"=+	c #00A300",
"-+	c #004600",
";+	c #007000",
">+	c #00A600",
",+	c #00F900",
"'+	c #00B400",
")+	c #001C00",
"!+	c #000600",
"~+	c #00B300",
"{+	c #00BC00",
"]+	c #008900",
"^+	c #00CF00",
"/+	c #006F00",
"(+	c #002800",
"_+	c #002000",
":+	c #003600",
"<+	c #00D100",
"[+	c #00EC00",
"}+	c #009B00",
"|+	c #002400",
"1+	c #003F00",
"2+	c #009100",
"3+	c #00B200",
"4+	c #001100",
"5+	c #003900",
"6+	c #003300",
"                                                                ",
"            . + @ # $ % & * * * * * * & = - @ ; >               ",
"            , ' ) ! ~ { ] ^ ] ] ] ^ / ( _ : < [ } |             ",
"      1 2 3 4 5 6 7 8 9 0 0 0 0 0 0 0 a b ] c d e = f g         ",
"      h i j ~ k l m n o 0 0 0 0 0 0 0 0 p q r s t 6 u ' v       ",
"      , % w x y z y A s B C B C B B s z r D E F G C H I J K L   ",
"      , % w M N O P Q R I S I S I ) T U 6 B V 0 E W t ! 4 X Y   ",
"      > Z ` :  ...f +.@.            #.$.R 6 %.&.n q B H u $ *.  ",
"      | g =.-.;.>.,.'.).              !.~.{.].{ ^./.(._.d :.<.  ",
"    ).                                1 [.}.` |.8 /.1.2.3.* >.  ",
"                                      4.5.% P 6.7./.8.6.9.4 0.  ",
"                                      a.b.c.H ( G /.A d.j e.f.  ",
"                                  ).  Y % g.k r q m h.i.j.' g   ",
"                                  1 4.k.e l.1.m.b (.|.n.- o.p.  ",
"                            q.r.s.} ' S i.^ m.m.z _ t.$ u.  r.  ",
"                              v.f.w.x.6.A /.n 1.y.` }.<.        ",
"                      ).z.A.B.Z C.t.D.E.D q 7.F.n.G.    ).      ",
"                      H.I.3 J.9.6.%.1.7.s F.K.) L.4.      ).    ",
"                  M.N.[.}.c.O.P.z Q.z { O R.S.T.  H.            ",
"                  + U.:.x.F.s (./ N V.` W.X.Y.      ).          ",
"            Z., } `.T i.F.B 8 %.y. +.+5..                       ",
"            , J ++@+#+B 8.B P.$+%+[ &+*+                        ",
"      H.Z.v.@ * =+F.l D &.{ =+C.f Y.                            ",
"      . Y -+;+>+x &.F ,+8.'+:.} )+!+                            ",
").    L ~.Q ~+h.&.n m B {+]+<.                                  ",
"      Y S |.7.,+o /.] O.e $ X.o.o.} } } } } } } } f.I.Y , a.T.  ",
"  4.z.X.` ^+V 0 0 9 l N c ~+O V.V.V.V.V.V.V.V.O O i.x.T /+f (+  ",
"  _+:+i  +<+D 0 0 a F 9 D q /././././././././.q q [+^ {+}+% &+  ",
"  |+0.$ d h.9 0 0 0 0 0 0 0 0 0 0 0 0 0 0 0 0 0 0 p 8 N >+J.1+  ",
"  , f.`.j N Q.D D q q q q q q q q q q q q q q D q [+^ {+}+% &+  ",
"  a.,.G.e.2+i.3+3+O O O O O O O O O O O O O O 3+O g. .%+/+f (+  ",
"  H.!+4+_+; f.&+&+&+&+&+&+&+&+&+&+&+&+&+&+&+&+&+&+5+6++ N.L T.  "};
