/* XPM */
static char * nove_xpm[] = {
"32 32 214 2",
"  	c #000000",
". 	c #002A00",
"+ 	c #005200",
"@ 	c #007800",
"# 	c #00A100",
"$ 	c #00C700",
"% 	c #00DC00",
"& 	c #00E100",
"* 	c #00DF00",
"= 	c #00E000",
"- 	c #00DA00",
"; 	c #00BB00",
"> 	c #008100",
", 	c #003A00",
"' 	c #000A00",
") 	c #002B00",
"! 	c #004B00",
"~ 	c #006C00",
"{ 	c #008E00",
"] 	c #00AF00",
"^ 	c #00CF00",
"/ 	c #00EC00",
"( 	c #00FD00",
"_ 	c #00FF00",
": 	c #00FC00",
"< 	c #00E300",
"[ 	c #00B800",
"} 	c #006D00",
"| 	c #003600",
"1 	c #001E00",
"2 	c #000200",
"3 	c #001500",
"4 	c #00A600",
"5 	c #00C600",
"6 	c #00F000",
"7 	c #00FA00",
"8 	c #00F700",
"9 	c #00EA00",
"0 	c #00D400",
"a 	c #00B200",
"b 	c #008900",
"c 	c #006200",
"d 	c #003B00",
"e 	c #001300",
"f 	c #002500",
"g 	c #004900",
"h 	c #007C00",
"i 	c #00AC00",
"j 	c #00E800",
"k 	c #00F800",
"l 	c #00EB00",
"m 	c #00DE00",
"n 	c #00E500",
"o 	c #00EF00",
"p 	c #00F900",
"q 	c #00F400",
"r 	c #00DD00",
"s 	c #00BA00",
"t 	c #009200",
"u 	c #005E00",
"v 	c #001F00",
"w 	c #002700",
"x 	c #004E00",
"y 	c #007600",
"z 	c #00A500",
"A 	c #00D100",
"B 	c #00ED00",
"C 	c #00FB00",
"D 	c #00E700",
"E 	c #00BC00",
"F 	c #009300",
"G 	c #008800",
"H 	c #008B00",
"I 	c #008F00",
"J 	c #009500",
"K 	c #00C900",
"L 	c #00BF00",
"M 	c #008000",
"N 	c #000900",
"O 	c #003700",
"P 	c #006E00",
"Q 	c #009B00",
"R 	c #00C300",
"S 	c #00E600",
"T 	c #00F500",
"U 	c #00C200",
"V 	c #008600",
"W 	c #003300",
"X 	c #006300",
"Y 	c #009E00",
"Z 	c #00F600",
"` 	c #00D600",
" .	c #009800",
"..	c #005600",
"+.	c #001700",
"@.	c #004400",
"#.	c #00DB00",
"$.	c #00F100",
"%.	c #00F300",
"&.	c #00D800",
"*.	c #00AA00",
"=.	c #003C00",
"-.	c #007200",
";.	c #00A000",
">.	c #00C500",
",.	c #00AB00",
"'.	c #007700",
").	c #004D00",
"!.	c #009D00",
"~.	c #00D200",
"{.	c #00EE00",
"].	c #00C400",
"^.	c #002300",
"/.	c #000400",
"(.	c #001C00",
"_.	c #004600",
":.	c #006F00",
"<.	c #009900",
"[.	c #006B00",
"}.	c #005500",
"|.	c #007100",
"1.	c #000D00",
"2.	c #002400",
"3.	c #00CD00",
"4.	c #00B900",
"5.	c #004000",
"6.	c #000300",
"7.	c #000E00",
"8.	c #003900",
"9.	c #008300",
"0.	c #00CA00",
"a.	c #00F200",
"b.	c #00D000",
"c.	c #004A00",
"d.	c #008700",
"e.	c #001100",
"f.	c #002900",
"g.	c #004F00",
"h.	c #008D00",
"i.	c #005000",
"j.	c #004700",
"k.	c #00B400",
"l.	c #008A00",
"m.	c #005C00",
"n.	c #002100",
"o.	c #002600",
"p.	c #006000",
"q.	c #00B700",
"r.	c #005300",
"s.	c #00B100",
"t.	c #00D300",
"u.	c #004500",
"v.	c #000100",
"w.	c #009100",
"x.	c #00C800",
"y.	c #006700",
"z.	c #009400",
"A.	c #00BE00",
"B.	c #00FE00",
"C.	c #008C00",
"D.	c #009A00",
"E.	c #00B500",
"F.	c #003400",
"G.	c #005F00",
"H.	c #009F00",
"I.	c #00D900",
"J.	c #00E200",
"K.	c #00B600",
"L.	c #000500",
"M.	c #007000",
"N.	c #00AD00",
"O.	c #007A00",
"P.	c #008400",
"Q.	c #003800",
"R.	c #00CE00",
"S.	c #00A300",
"T.	c #006100",
"U.	c #000F00",
"V.	c #005900",
"W.	c #001B00",
"X.	c #00D500",
"Y.	c #009000",
"Z.	c #000800",
"`.	c #004C00",
" +	c #000C00",
".+	c #001A00",
"++	c #002C00",
"@+	c #003D00",
"#+	c #004100",
"$+	c #003100",
"%+	c #000700",
"&+	c #00E900",
"*+	c #003000",
"=+	c #007300",
"-+	c #002800",
";+	c #004800",
">+	c #007B00",
",+	c #002200",
"'+	c #001900",
")+	c #00AE00",
"!+	c #007E00",
"~+	c #001000",
"{+	c #000B00",
"]+	c #007500",
"^+	c #00B000",
"/+	c #004200",
"(+	c #009600",
"_+	c #00BD00",
":+	c #008200",
"<+	c #002000",
"[+	c #003E00",
"}+	c #006400",
"|+	c #004300",
"1+	c #006800",
"            . + @ # $ % & * * * = & - ; > ,   '                 ",
"        ) ! ~ { ] ^ / ( _ _ _ _ _ _ : < [ { } + | 1 2           ",
"      3 + > 4 5 = 6 7 _ _ _ _ _ _ _ _ 8 9 0 a b c d '           ",
"  e f g h i ^ j k k l & m * * * = & n o p q r s t u v   2       ",
"  w x y z A B C C D E F G H H H I J 4 K / C 8 n L M |   N       ",
"  O P Q R S k T < U V W         1 | X Y ^ / p Z `  ...) +.      ",
"  @.b ; #.$.%.&.*.h x '             =.-.;.>.S %.m ,.'.).f       ",
"  x !.~.{.7 $.].@ ^.  /.            (._.:.# ` $.S U <.[.W       ",
"  }.*.& 7 _ $.U |.                  1.2.! H 3.$.$.- 4.V 5.      ",
"  }.*.& 7 _ $.].'.v   6.            N 7.8.9.0.a.p / b.<.c.      ",
"  x !.~.B p a.0.d.g f 7.            e.f.g.h.3.q _ p * 4 i.      ",
"  j.I U = %.q % k.l.m.n.            o.p.{ q.m k _ _ D i r.      ",
"  5.> s.t.B p Z S 5 h.u.v.N     N /.g w.x.D T : _ _ D i r.      ",
"  W y.z.A.n : _ B.j L <.C.C.H H h.{ D.E.t.j T : _ _ D i r.      ",
"  (.F.G.H.I.p _ _ k l J.* * * * = & m 3.K.s % k _ _ D i r.      ",
"      n.@ [ % j {.q C _ _ _ _ _ : a.= A.I w.0.q _ _ D i r.      ",
"      L.u.M.w.N.5 r a.B._ _ _ _ %.~.z O.G.P.x.q _ _ D i r.      ",
"            Q.} J E.R.r = * & = b.S.T.2.=.P.K %._ p * 4 i.      ",
"    v.      U.=.V.:.M l.C.C.C.C.> c O w x h.3.%.p / b.<.c.      ",
"                                    W._.P ;.X.%.6 - 4.V 5.      ",
"                                    f T.Y.4.= %.S U <.[.W       ",
"                                    W h a X.{.T r ,.'.).f       ",
"                                Z.  `. .~.6 : 8 `  ...) +.      ",
"  /. +.+++@+#+$+%+            v j.} z.U &+C 7 9 ].9.O   N       ",
"  ' .+*+g.[.=+G.F.        1.-+;+>+s.&.{.p 8 D 3.z [.,+  2       ",
"  1.'+d P Q )+4 z.H H C.H h.w.Q k.- 8 _ 7 l 3.4 !+g.~+          ",
"  1.{+5.d.R J.D & * * * * * = J.&+q : p B ` i ]+j.-+L.          ",
"  '   , P.U S Z ( _ _ _ _ _ _ _ : a.S I.0.^+9./+                ",
"  6.  f X (+_+m Z _ _ _ _ _ _ _ q ` ] F :+} ).<+                ",
"      7.[+}+l.k.t.= = * * * = = A *.=+|+o.Z.                    ",
"      6.<+Q.+ P 9.C.C.C.C.C.C.C.:+1+#+W.                        ",
"                                                                "};
