/* XPM */
static char * oito_xpm[] = {
"32 32 233 2",
"  	c #000000",
". 	c #000100",
"+ 	c #000C00",
"@ 	c #000900",
"# 	c #002800",
"$ 	c #006500",
"% 	c #00A300",
"& 	c #00CF00",
"* 	c #00E200",
"= 	c #00E400",
"- 	c #00E300",
"; 	c #00D700",
"> 	c #00C200",
", 	c #00A600",
"' 	c #008600",
") 	c #005C00",
"! 	c #000400",
"~ 	c #001D00",
"{ 	c #003300",
"] 	c #004C00",
"^ 	c #008000",
"/ 	c #00A400",
"( 	c #00F000",
"_ 	c #00FF00",
": 	c #00F600",
"< 	c #00E500",
"[ 	c #00B500",
"} 	c #009600",
"| 	c #007500",
"1 	c #005400",
"2 	c #003200",
"3 	c #000500",
"4 	c #003700",
"5 	c #005A00",
"6 	c #007D00",
"7 	c #00C600",
"8 	c #00DF00",
"9 	c #00EF00",
"0 	c #00FB00",
"a 	c #00FD00",
"b 	c #00F700",
"c 	c #00ED00",
"d 	c #00CD00",
"e 	c #00B300",
"f 	c #008D00",
"g 	c #005700",
"h 	c #000F00",
"i 	c #001500",
"j 	c #008500",
"k 	c #00AC00",
"l 	c #00CE00",
"m 	c #00EA00",
"n 	c #00F800",
"o 	c #00F500",
"p 	c #00EC00",
"q 	c #00E800",
"r 	c #00E600",
"s 	c #00E700",
"t 	c #00D600",
"u 	c #006D00",
"v 	c #002000",
"w 	c #000200",
"x 	c #001E00",
"y 	c #007100",
"z 	c #00AF00",
"A 	c #00D800",
"B 	c #00FA00",
"C 	c #00BC00",
"D 	c #00A500",
"E 	c #009F00",
"F 	c #00A000",
"G 	c #00BF00",
"H 	c #00E100",
"I 	c #00BD00",
"J 	c #007B00",
"K 	c #003100",
"L 	c #000800",
"M 	c #002A00",
"N 	c #008200",
"O 	c #00C700",
"P 	c #00FE00",
"Q 	c #00C400",
"R 	c #004A00",
"S 	c #003600",
"T 	c #004E00",
"U 	c #008800",
"V 	c #00F900",
"W 	c #00FC00",
"X 	c #008300",
"Y 	c #003900",
"Z 	c #000D00",
"` 	c #000600",
" .	c #00CC00",
"..	c #00F300",
"+.	c #00DD00",
"@.	c #00B200",
"#.	c #006F00",
"$.	c #001200",
"%.	c #006200",
"&.	c #009A00",
"*.	c #00C100",
"=.	c #00F200",
"-.	c #00C800",
";.	c #003B00",
">.	c #000E00",
",.	c #000A00",
"'.	c #003C00",
").	c #008900",
"!.	c #00CB00",
"~.	c #00F100",
"{.	c #001600",
"].	c #007700",
"^.	c #00E900",
"/.	c #008400",
"(.	c #003400",
"_.	c #008700",
":.	c #00B600",
"<.	c #007200",
"[.	c #001800",
"}.	c #007800",
"|.	c #00A100",
"1.	c #00CA00",
"2.	c #00EB00",
"3.	c #008100",
"4.	c #002C00",
"5.	c #002700",
"6.	c #007F00",
"7.	c #00C300",
"8.	c #009100",
"9.	c #001100",
"0.	c #002D00",
"a.	c #009200",
"b.	c #00D400",
"c.	c #00BE00",
"d.	c #001C00",
"e.	c #006A00",
"f.	c #00C900",
"g.	c #00A900",
"h.	c #002100",
"i.	c #005900",
"j.	c #008A00",
"k.	c #00B800",
"l.	c #00D900",
"m.	c #00BB00",
"n.	c #009500",
"o.	c #001300",
"p.	c #004D00",
"q.	c #007900",
"r.	c #00C500",
"s.	c #005F00",
"t.	c #005300",
"u.	c #006900",
"v.	c #00AD00",
"w.	c #00D200",
"x.	c #00D300",
"y.	c #00A700",
"z.	c #007300",
"A.	c #004B00",
"B.	c #003000",
"C.	c #004F00",
"D.	c #009C00",
"E.	c #00DC00",
"F.	c #00AA00",
"G.	c #003500",
"H.	c #000300",
"I.	c #001400",
"J.	c #002400",
"K.	c #004600",
"L.	c #00B700",
"M.	c #00DE00",
"N.	c #003E00",
"O.	c #002200",
"P.	c #006C00",
"Q.	c #002500",
"R.	c #004500",
"S.	c #005E00",
"T.	c #002E00",
"U.	c #004100",
"V.	c #006B00",
"W.	c #009400",
"X.	c #00DB00",
"Y.	c #00E000",
"Z.	c #008C00",
"`.	c #008F00",
" +	c #009300",
".+	c #00B100",
"++	c #007000",
"@+	c #001F00",
"#+	c #00AB00",
"$+	c #005500",
"%+	c #001B00",
"&+	c #003800",
"*+	c #006400",
"=+	c #00F400",
"-+	c #00A800",
";+	c #007E00",
">+	c #004900",
",+	c #004800",
"'+	c #009000",
")+	c #00DA00",
"!+	c #006100",
"~+	c #004700",
"{+	c #006E00",
"]+	c #000700",
"^+	c #007C00",
"/+	c #004200",
"(+	c #005000",
"_+	c #00EE00",
":+	c #00BA00",
"<+	c #008B00",
"[+	c #009B00",
"}+	c #002F00",
"|+	c #007A00",
"1+	c #009E00",
"2+	c #005600",
"3+	c #001900",
"4+	c #001700",
"5+	c #005800",
"6+	c #002B00",
"7+	c #009D00",
"8+	c #00B900",
"9+	c #003D00",
"0+	c #00B000",
"a+	c #006000",
"b+	c #00AE00",
"c+	c #006300",
"d+	c #003F00",
"e+	c #000B00",
"f+	c #006600",
"g+	c #00A200",
"h+	c #005100",
"i+	c #009700",
"j+	c #007400",
"          . + @ # $ % & * = - - - - = * ; > , ' ) #             ",
"      ! ~ { ] $ ^ / & ( _ _ _ _ _ _ _ _ : < & [ } | 1 2 3       ",
"      + 4 5 6 % 7 8 9 0 _ _ _ _ _ _ _ _ a b c 8 d e f g h       ",
"      i 1 j k l m n o p q r s r r s r q c : 0 b p t k u v   w   ",
"      x y z A 9 B : 8 C D E F E E F F , G H n _ B s I J K   L   ",
"      M N O ( P a p Q ' R K S 2 2 S 2 T U > q V W 9 7 X Y   Z   ",
"  `   4 U  ...W ..+.@.#.L             $.%.&.*.8 =.9 -.j ;.  >.  ",
"  ,.  '.).!.~.V c t k u ~   .         {.] ].E -.^.c -./.4   +   ",
"  !   (._.!...P : H :.<.[.            ! R }.|.1.2.9 -.3.4.  3   ",
"      5.6.7.p W a 9 1.8.5 4 # 9.` @ . 0.%.a.:.b.q < c.].~       ",
"      d.e., l q b n r f.g.N 1 h.    0.i.j.k.b.l.& m.n.) h       ",
"      o.p.q.F r.< : B =.+.:.j s.p.t.u.U v.w.= x.y.z.A.0.3       ",
"      @ B.C.z.D.*.E.9 V ..E.*.@.v.z k.> f. .r.F.}.G.            ",
"      H.I.J.K.#.n.L.l.=.0 b ( c p c ( 9 M.k.U s.N.d.            ",
"    .       O.P.F Q H : _ _ _ _ _ _ _ _ ^.I N T Q.        .     ",
"      .     R.8.1.m : 0 P P P P _ _ _ P 9 w.k _.S.T.  .         ",
"      w U.V.W.*.s n ..< +.X.+.M.Y.r ~.B : s w.I , Z.e.N.        ",
"      x #.v.t c n ..; k `.).`. +D..+b.( 0 n ( 2.= w.g.u.I.      ",
"  ~ B.i.n.& =.B ~.X..+++h.  @+2 p.q.#+x.^.: W _ _ ~.1.`.$+0.%+  ",
"  &+*+f :.8 =+2.d -+;+>+        v ,+P.'+L.M.n _ _ : )+@.).!+(.  ",
"  ~+^ #+d ^.=.E.F.{+U.5.!     H.]+h   G.6 m.- o 0 b < 1.-+^+/+  ",
"  (+`.C X.( ..A D.T   H..               t.j.@.b.c b _+A :+<+R   ",
"  g [+!.s : o ; &.>+    .             @ }+T |+@.H : ..H 7.a.T   ",
"  s.F.E.o P b A 1+2+3+>.              H.,.4+i.% E.: =+- 7 n.C.  ",
"  !+v.Y.n _ V 8 @.3.5+4 h   .         L 6+,+| z Y.o ~.+.G `.]   ",
"  5+7+d q : V 9 )+I W.) 3               2+`.8+A 9 : s !.g.^+/+  ",
"  ~+^ #+ .s n P V q > j.i.~+>+~+~+~+9+C.U 7.^.V W =.A 0+U a+{   ",
"  2 5 N b+)+n _ _ B - 7 e z z z z z k .+7 < B _ V s r. +c+d+O.  ",
"  i ~ A.Z.f.9 a P 0 b =.9 _+_+_+_+_+_+_+~.: n ..q w.#+z.4 e+Z   ",
"      $.f+g+-.)+- 2.o P _ _ _ _ _ _ _ _ B p X.d c.g.' h+!       ",
"      3 4 5 |+i+e !.* =+a P P a a P _ W p 1.g+' j+c+A.6+.       ",
"    .       x g 3.F m.& l.)+l.l.l.l.X.A r.1+V.N.@+              "};
