/* XPM */
static char * quatro_xpm[] = {
"32 32 170 2",
"  	c #000000",
". 	c #000100",
"+ 	c #000800",
"@ 	c #003300",
"# 	c #005900",
"$ 	c #007000",
"% 	c #007800",
"& 	c #007700",
"* 	c #006C00",
"= 	c #005200",
"- 	c #002B00",
"; 	c #000600",
"> 	c #000300",
", 	c #001D00",
"' 	c #006400",
") 	c #00A500",
"! 	c #00CC00",
"~ 	c #00DA00",
"{ 	c #00D800",
"] 	c #00C600",
"^ 	c #009800",
"/ 	c #005500",
"( 	c #001500",
"_ 	c #000400",
": 	c #001300",
"< 	c #003F00",
"[ 	c #006600",
"} 	c #009900",
"| 	c #00CF00",
"1 	c #00F300",
"2 	c #00FF00",
"3 	c #00E900",
"4 	c #00B400",
"5 	c #001A00",
"6 	c #000200",
"7 	c #002A00",
"8 	c #00A600",
"9 	c #00CB00",
"0 	c #00E700",
"a 	c #00FA00",
"b 	c #00EB00",
"c 	c #00B600",
"d 	c #006700",
"e 	c #001B00",
"f 	c #001600",
"g 	c #002700",
"h 	c #005600",
"i 	c #009500",
"j 	c #00CA00",
"k 	c #00F600",
"l 	c #00FD00",
"m 	c #00EA00",
"n 	c #00B500",
"o 	c #003100",
"p 	c #005A00",
"q 	c #008400",
"r 	c #00DF00",
"s 	c #00FE00",
"t 	c #004F00",
"u 	c #008D00",
"v 	c #00B700",
"w 	c #00D000",
"x 	c #00E100",
"y 	c #00F000",
"z 	c #00F900",
"A 	c #00FC00",
"B 	c #001200",
"C 	c #007200",
"D 	c #00E000",
"E 	c #00E400",
"F 	c #00D200",
"G 	c #00C900",
"H 	c #00EE00",
"I 	c #00F800",
"J 	c #001100",
"K 	c #007D00",
"L 	c #00A100",
"M 	c #00B800",
"N 	c #00D500",
"O 	c #00F700",
"P 	c #007B00",
"Q 	c #00B200",
"R 	c #00D600",
"S 	c #00BA00",
"T 	c #008600",
"U 	c #007600",
"V 	c #003700",
"W 	c #006200",
"X 	c #009E00",
"Y 	c #00D100",
"Z 	c #00D400",
"` 	c #00B100",
" .	c #008900",
"..	c #005700",
"+.	c #006000",
"@.	c #00EC00",
"#.	c #003800",
"$.	c #006800",
"%.	c #009100",
"&.	c #00BC00",
"*.	c #00BF00",
"=.	c #003D00",
"-.	c #001F00",
";.	c #00A400",
">.	c #005400",
",.	c #009A00",
"'.	c #00C700",
").	c #00C300",
"!.	c #005F00",
"~.	c #002900",
"{.	c #004900",
"].	c #00DE00",
"^.	c #008E00",
"/.	c #006500",
"(.	c #005C00",
"_.	c #009000",
":.	c #00C100",
"<.	c #009400",
"[.	c #005E00",
"}.	c #003600",
"|.	c #000D00",
"1.	c #000F00",
"2.	c #008300",
"3.	c #00B300",
"4.	c #009200",
"5.	c #002800",
"6.	c #005D00",
"7.	c #002300",
"8.	c #004600",
"9.	c #006F00",
"0.	c #008B00",
"a.	c #00A200",
"b.	c #009D00",
"c.	c #00DC00",
"d.	c #00C800",
"e.	c #008100",
"f.	c #007100",
"g.	c #000500",
"h.	c #005B00",
"i.	c #00EF00",
"j.	c #00DB00",
"k.	c #00ED00",
"l.	c #00DD00",
"m.	c #009600",
"n.	c #001000",
"o.	c #00E800",
"p.	c #00B000",
"q.	c #006100",
"r.	c #001400",
"s.	c #00D900",
"t.	c #00D700",
"u.	c #00F200",
"v.	c #005000",
"w.	c #002C00",
"x.	c #005300",
"y.	c #006D00",
"z.	c #007500",
"A.	c #00B900",
"B.	c #006B00",
"C.	c #001700",
"D.	c #00D300",
"E.	c #00AE00",
"F.	c #001900",
"G.	c #00A300",
"H.	c #00AC00",
"I.	c #004500",
"J.	c #002200",
"K.	c #002F00",
"L.	c #003900",
"M.	c #003500",
"                                                                ",
"                          .   + @ # $ % & * = - ; .             ",
"                          >   , ' ) ! ~ { ] ^ / ( _ .           ",
"                          : < [ } | 1 2 2 3 4 [ 5 ; 6           ",
"                          7 $ 8 9 0 a 2 2 b c d e ; 6           ",
"                      f g h i j 3 k l 2 2 m n d e ; 6           ",
"                      o p q 4 r k l s 2 2 m n d e ; 6           ",
"                      t u v w x b y 1 z A m n d e ; 6           ",
"                ; B o C v D E F G F D H I 3 c d e ; 6           ",
"                J t K 8 w 0 ~ 4 L M N b O 3 c d e ; 6           ",
"            _   @ P Q w ~ R S T U 8 F b O 3 c d e ; 6           ",
"            , V W X Y E Z `  ...+.L Y @.O 3 c d e ; 6           ",
"            #.$.%.&.r E *.K =.-.+.;.F @.O 3 c d e ; 6           ",
"      .     >.,.'.R Z ).^ /     !.;.F @.O 3 c d e ; 6           ",
"      + ~.{.K &.x ].S ^./.#.    !.;.F @.O 3 c d e ; 6           ",
"      J (._.` G F :.<.[.}.,     !.;.F @.O 3 c d e ; 6           ",
"  |.1.< 2.&.Z ! 3.4.' 5.        6.;.Y b O 3 c [ (               ",
"  7.8.9.;.N E ] 0./ 5.          p a.Y b O 3 n W                 ",
"  < U a.G 3 y Y b.K P K K K P K <.&.c.y z H d.^ e.K f.>.- g.6   ",
": h.a.Z H z a i.x ~ ~ j.j.j.j.j.D 3 1 a l z k.x l.j.'.m.= n.; . ",
"e $.c b 2 2 2 2 2 2 2 2 2 2 2 2 2 2 2 2 2 2 2 2 2 2 o.p.q.( + . ",
"5 d n m 2 2 s 2 2 2 2 2 2 2 2 2 2 2 2 2 2 2 2 2 2 2 0 p.q.( + . ",
"r.h } ] { s.{ { { { { { { { t.{ l.0 u.z l I b ].~ t.).<.v.n.; . ",
"; w.x.y.& % & & & & & & & & z.U _.A.j.i.z H ] <.P & B.t ~.g.6   ",
"                                # a.Y b O 3 4 q.                ",
"                                [.;.Y b O 3 c [ C.              ",
"                                !.;.F @.O 3 c d e ; 6           ",
"                                !.;.F @.O 3 c d e ; 6           ",
"                                !.8 D.H z b M $.e ; 6           ",
"                                p b.d.x @.r E.W F.g.6           ",
"                                < $ %.G.H.a.K I.1.> .           ",
"                                1.J.K.}.L.M.g B 6               "};
