/* XPM */
static char * sete_xpm[] = {
"32 32 191 2",
"  	c #000100",
". 	c #000000",
"+ 	c #001900",
"@ 	c #004100",
"# 	c #005F00",
"$ 	c #007100",
"% 	c #007700",
"& 	c #007800",
"* 	c #007500",
"= 	c #006900",
"- 	c #005200",
"; 	c #003200",
"> 	c #001200",
", 	c #003600",
"' 	c #007A00",
") 	c #00AE00",
"! 	c #00CD00",
"~ 	c #00D800",
"{ 	c #00D900",
"] 	c #00D700",
"^ 	c #00D500",
"/ 	c #00C100",
"( 	c #009900",
"_ 	c #006100",
": 	c #002900",
"< 	c #004200",
"[ 	c #009200",
"} 	c #00CF00",
"| 	c #00F400",
"1 	c #00FF00",
"2 	c #00FE00",
"3 	c #00FB00",
"4 	c #00E400",
"5 	c #00B500",
"6 	c #007400",
"7 	c #00D000",
"8 	c #00FD00",
"9 	c #00E500",
"0 	c #00B600",
"a 	c #003700",
"b 	c #007D00",
"c 	c #00B200",
"d 	c #00D100",
"e 	c #00DC00",
"f 	c #00DD00",
"g 	c #00DB00",
"h 	c #00E300",
"i 	c #00EF00",
"j 	c #00F900",
"k 	c #00FC00",
"l 	c #00EE00",
"m 	c #00A800",
"n 	c #006A00",
"o 	c #002A00",
"p 	c #001C00",
"q 	c #004500",
"r 	c #006500",
"s 	c #007E00",
"t 	c #007F00",
"u 	c #008900",
"v 	c #00A700",
"w 	c #00E700",
"x 	c #005300",
"y 	c #001400",
"z 	c #001D00",
"A 	c #00EC00",
"B 	c #00D400",
"C 	c #00AB00",
"D 	c #008500",
"E 	c #006000",
"F 	c #003800",
"G 	c #004600",
"H 	c #007600",
"I 	c #009C00",
"J 	c #00BD00",
"K 	c #008100",
"L 	c #004700",
"M 	c #002000",
"N 	c #001700",
"O 	c #001500",
"P 	c #009B00",
"Q 	c #00C400",
"R 	c #00D600",
"S 	c #00DA00",
"T 	c #00D300",
"U 	c #00BE00",
"V 	c #009500",
"W 	c #005800",
"X 	c #002100",
"Y 	c #00B900",
"Z 	c #00DF00",
"` 	c #00CB00",
" .	c #00A100",
"..	c #007900",
"+.	c #005600",
"@.	c #003400",
"#.	c #000400",
"$.	c #003C00",
"%.	c #006800",
"&.	c #008E00",
"*.	c #001100",
"=.	c #000200",
"-.	c #001600",
";.	c #005A00",
">.	c #00BF00",
",.	c #00C500",
"'.	c #009F00",
").	c #006700",
"!.	c #002500",
"~.	c #00AF00",
"{.	c #007000",
"].	c #000A00",
"^.	c #002D00",
"/.	c #004F00",
"(.	c #007200",
"_.	c #009800",
":.	c #00E100",
"<.	c #00C200",
"[.	c #008A00",
"}.	c #005000",
"|.	c #002600",
"1.	c #004C00",
"2.	c #008B00",
"3.	c #00B800",
"4.	c #00C900",
"5.	c #00A500",
"6.	c #006C00",
"7.	c #000C00",
"8.	c #002B00",
"9.	c #00DE00",
"0.	c #00E200",
"a.	c #00A400",
"b.	c #001B00",
"c.	c #002200",
"d.	c #003F00",
"e.	c #008C00",
"f.	c #00F000",
"g.	c #003D00",
"h.	c #006D00",
"i.	c #00B400",
"j.	c #008800",
"k.	c #000800",
"l.	c #000300",
"m.	c #000700",
"n.	c #00C700",
"o.	c #00C300",
"p.	c #00A000",
"q.	c #005500",
"r.	c #00F100",
"s.	c #009D00",
"t.	c #003100",
"u.	c #00EB00",
"v.	c #006E00",
"w.	c #000E00",
"x.	c #00B000",
"y.	c #00ED00",
"z.	c #00E600",
"A.	c #000500",
"B.	c #002300",
"C.	c #005E00",
"D.	c #009E00",
"E.	c #00E900",
"F.	c #00B300",
"G.	c #007C00",
"H.	c #001E00",
"I.	c #008700",
"J.	c #003000",
"K.	c #006400",
"L.	c #008F00",
"M.	c #00B100",
"N.	c #00D200",
"O.	c #00F300",
"P.	c #00F700",
"Q.	c #00AD00",
"R.	c #003500",
"S.	c #004900",
"T.	c #00CE00",
"U.	c #00F200",
"V.	c #005C00",
"W.	c #002800",
"X.	c #000900",
"Y.	c #005400",
"Z.	c #000600",
"`.	c #00CC00",
" +	c #00E800",
".+	c #001000",
"++	c #009400",
"@+	c #00AA00",
"#+	c #009100",
"$+	c #003900",
"%+	c #002F00",
"  . . . . . . . . . . . . . . . . . . . . . . . . . . . . . . . ",
". + @ # $ % % % % % % % % % % % % % % % % % % % % % & * = - ; > ",
". , ' ) ! ~ { ] ] ] ] ] ] ] ] ] ] ] ] ] ] ] ] ] ] ~ { ^ / ( _ : ",
". < [ } | 1 1 1 1 1 1 1 1 1 1 1 1 1 1 1 1 1 1 1 2 1 1 3 4 5 6 ; ",
". < [ 7 | 1 1 1 1 1 1 1 1 1 1 1 1 1 1 1 1 1 1 1 1 1 1 8 9 0 * ; ",
". a b c d e f e e e e e e e e e e e e e g f h i j k j l ^ m n o ",
". p q r & s t s s s s s s s s s s s s t t u v 7 l | w } c u x y ",
"  . . . . . . . . . . . . . . . . . . z @ = ( ! A l B C D E F . ",
". . . . . . . . . . . . . . . . . . . G H I J e l 9 J K L M N . ",
". . . . . . . . . . . . . . . . . . O # P Q R S T U V W . . . . ",
". . . . . . . . . . . . . . . . N X G s Y Z 4 `  ...+.@.#.. . . ",
". . . . . . . . . . . . . . . . $.%.&.) } h f Y s < O *.  . . . ",
". . . . . . . . . . . . . =.. -.;.V >.B S R ,.'.).!.. . . . . . ",
". . . . . . . . . . . . . *.*.a $ ~.~ 4 B 5 V {.q ].. . . . . . ",
". . . . . . . . . . . . . ^./.(._.Q :.h <.[.}.|.+ #.. . . . . . ",
". . . . . . . . . . . . . 1.2.3.7 { ~ 4.5.6.|.. . . . . . . . . ",
". . . . . . . . . . 7.. 8.6.~.9.l 0.Q a.t - b.. . . . . . . . . ",
". . . . . . . . . . c.d.E e./ w f.] v H }.; 7.. . . . . . . . . ",
". . . . . . . =.. . g.h.V i.d 4 :./ j.G 7.k.l.. . . . . . . . . ",
". . . . . . . m.. b.;.( n.9.:.] o.p.6.^.. .   . . . . . . . . . ",
". . . . . . . p , q.K 3.0.r.h <.s.../.p . . . . . . . . . . . . ",
". . . . . . . t.E j.C 7 u.f.^ a.v.G 8.w.. . . . . . . . . . . . ",
". . . . =.. . q K x.} h y.z.,.e.q . . l.. . . . . . . . . . . . ",
". . . . ].A.B.C.D.7 u.f.E.R F.G.a . .   . . . . . . . . . . . . ",
". . . . H.d.# I.Y :.| l { J ( %.o . . . . . . . . . . . . . . . ",
". . . . J.K.L.M.N.u.O.0./ P % /.M . . . . . . . . . . . . . . . ",
". . . . g.K i.R u.P.| S Q.' - R.O . . . . . . . . . . . . . . . ",
".   . . S.V T.f.8 2 U.d I V.W.y X.. . . . . . . . . . . . . . . ",
". #.. . Y.D.] P.1 j w o.e.G . . =.. . . . . . . . . . . . . . . ",
". Z.. O q._.`. +A :.! C ..F . . . . . . . . . . . . . . . . . . ",
". l.  .+$.h.++m @+ .#+& x c.. . . . . . . . . . . . . . . . . . ",
". . . =.w.X J.F $+R.%+|.N Z.. . . . . . . . . . . . . . . . . . "};
