/* XPM */
static char * sies_xpm[] = {
"32 32 232 2",
"  	c #000000",
". 	c #001100",
"+ 	c #002A00",
"@ 	c #004900",
"# 	c #006300",
"$ 	c #007300",
"% 	c #007700",
"& 	c #006500",
"* 	c #005000",
"= 	c #003A00",
"- 	c #002600",
"; 	c #001300",
"> 	c #002E00",
", 	c #005600",
"' 	c #008900",
") 	c #00B700",
"! 	c #00D100",
"~ 	c #00D900",
"{ 	c #00D800",
"] 	c #00D700",
"^ 	c #00B900",
"/ 	c #009500",
"( 	c #007000",
"_ 	c #004E00",
": 	c #002C00",
"< 	c #001F00",
"[ 	c #004500",
"} 	c #008700",
"| 	c #009D00",
"1 	c #00BF00",
"2 	c #00E300",
"3 	c #00FA00",
"4 	c #00FF00",
"5 	c #00F900",
"6 	c #00E600",
"7 	c #00C900",
"8 	c #00A700",
"9 	c #007E00",
"0 	c #004C00",
"a 	c #001000",
"b 	c #000200",
"c 	c #003F00",
"d 	c #007D00",
"e 	c #00A900",
"f 	c #00C400",
"g 	c #00D400",
"h 	c #00E100",
"i 	c #00EC00",
"j 	c #00F700",
"k 	c #00FE00",
"l 	c #00EE00",
"m 	c #00AA00",
"n 	c #006900",
"o 	c #000700",
"p 	c #000800",
"q 	c #001B00",
"r 	c #003500",
"s 	c #006700",
"t 	c #00A100",
"u 	c #00CF00",
"v 	c #00E900",
"w 	c #00FC00",
"x 	c #00F800",
"y 	c #00ED00",
"z 	c #00DE00",
"A 	c #00DD00",
"B 	c #00DC00",
"C 	c #00DB00",
"D 	c #00E200",
"E 	c #00E400",
"F 	c #00D500",
"G 	c #00AB00",
"H 	c #006C00",
"I 	c #000900",
"J 	c #000A00",
"K 	c #001900",
"L 	c #004300",
"M 	c #006800",
"N 	c #009100",
"O 	c #00BE00",
"P 	c #00FB00",
"Q 	c #00E800",
"R 	c #00C500",
"S 	c #00A000",
"T 	c #008B00",
"U 	c #008300",
"V 	c #007F00",
"W 	c #008400",
"X 	c #009600",
"Y 	c #00A500",
"Z 	c #005700",
"` 	c #002F00",
" .	c #001700",
"..	c #003000",
"+.	c #009E00",
"@.	c #00C200",
"#.	c #00DF00",
"$.	c #00F300",
"%.	c #00F000",
"&.	c #00C000",
"*.	c #009300",
"=.	c #005E00",
"-.	c #000E00",
";.	c #004700",
">.	c #006400",
",.	c #005A00",
"'.	c #003E00",
").	c #001500",
"!.	c #000600",
"~.	c #000100",
"{.	c #000D00",
"].	c #004B00",
"^.	c #009000",
"/.	c #00EB00",
"(.	c #00CE00",
"_.	c #00A200",
":.	c #007A00",
"<.	c #003400",
"[.	c #000400",
"}.	c #002200",
"|.	c #003200",
"1.	c #001C00",
"2.	c #000F00",
"3.	c #006B00",
"4.	c #00A600",
"5.	c #007100",
"6.	c #003C00",
"7.	c #008C00",
"8.	c #00F400",
"9.	c #00B000",
"0.	c #005200",
"a.	c #000300",
"b.	c #005100",
"c.	c #008D00",
"d.	c #003700",
"e.	c #006000",
"f.	c #00CA00",
"g.	c #00D600",
"h.	c #002D00",
"i.	c #004100",
"j.	c #004200",
"k.	c #002900",
"l.	c #001800",
"m.	c #00A300",
"n.	c #00F600",
"o.	c #00F200",
"p.	c #00BA00",
"q.	c #00C100",
"r.	c #00B300",
"s.	c #008500",
"t.	c #000B00",
"u.	c #00D200",
"v.	c #009200",
"w.	c #007200",
"x.	c #00EA00",
"y.	c #00BB00",
"z.	c #005C00",
"A.	c #000C00",
"B.	c #006E00",
"C.	c #00B400",
"D.	c #00FD00",
"E.	c #007B00",
"F.	c #00C600",
"G.	c #00E000",
"H.	c #00F100",
"I.	c #008E00",
"J.	c #007400",
"K.	c #00DA00",
"L.	c #007500",
"M.	c #00EF00",
"N.	c #009F00",
"O.	c #009C00",
"P.	c #00E500",
"Q.	c #002800",
"R.	c #00AE00",
"S.	c #006F00",
"T.	c #001E00",
"U.	c #002300",
"V.	c #00CD00",
"W.	c #003900",
"X.	c #00AC00",
"Y.	c #00CC00",
"Z.	c #009400",
"`.	c #004600",
" +	c #00C700",
".+	c #008000",
"++	c #005800",
"@+	c #003300",
"#+	c #006200",
"$+	c #00AD00",
"%+	c #005400",
"&+	c #00B500",
"*+	c #006D00",
"=+	c #007C00",
"-+	c #00A400",
";+	c #009900",
">+	c #004800",
",+	c #004000",
"'+	c #00BD00",
")+	c #008600",
"!+	c #005F00",
"~+	c #00B100",
"{+	c #007600",
"]+	c #00F500",
"^+	c #00B800",
"/+	c #008800",
"(+	c #00AF00",
"_+	c #00A800",
":+	c #003800",
"<+	c #004400",
"[+	c #004D00",
"}+	c #008F00",
"|+	c #00D300",
"1+	c #005B00",
"2+	c #002700",
"3+	c #00B200",
"4+	c #00BC00",
"5+	c #001A00",
"6+	c #00C800",
"7+	c #002400",
"8+	c #001600",
"9+	c #002B00",
"0+	c #005500",
"a+	c #00E700",
"b+	c #000500",
"c+	c #007900",
"d+	c #003D00",
"e+	c #002500",
"f+	c #004F00",
"g+	c #006100",
"h+	c #001D00",
"i+	c #003B00",
"                                                                ",
"                    . + @ # $ % % % % % % % $ & * = - ;         ",
"                  ; > , ' ) ! ~ { ] ] ] { { ! ^ / ( _ :         ",
"            < [ # % } | 1 2 3 4 4 4 4 4 4 4 5 6 7 8 9 0 a   b   ",
"            c d e f g h i j k 4 4 4 4 4 4 4 k 5 l ] m n -   o   ",
"      p q r s t u v j w x y 2 z A B C B C C A D E F G H > I J   ",
"      K L M N O E x 4 P Q R S T U V d 9 d d W X Y t W Z `  .J   ",
"      ..H +.@.#.$.5 %.A &.*.=.` p           -.;.>.n ,.'.- ).!.  ",
"~.{.a ].^.7 /.3 P l (._.:.Z <.a             [.}.|.r : 1.2.!.b   ",
"b - c 3.4.C j 3 y F G 5.=  .p                                   ",
"[.6.>.7.^ h 8./.! 9.} 0. .  a.                                  ",
"o b.} 9.! i $.#.) c.>.d.                            ~.          ",
"J e.+.f.E 8.$.g._.3.L h.: i._ 0.0.b.0.* ].j.d.k.l.a.            ",
"J # m.(.Q n.o.! / 0.).|.H +.p.@.q.q.q.1 r.+.s.>.d.        ~.    ",
"t.& 4.u./.x o.u v., 0 w.Y F o.3 3 5 3 j x.F y.+.d z.'.}.        ",
"A.B.C.D j D.8.u X E.| F.G.8.4 4 4 4 4 4 w H.6 B ! p.I._       ~.",
"-.J.O y 4 4 j K.r.8 @.#.x.i i i i i i y H.x w 4 P Q y.E.'.q a   ",
"-.L.&.M.4 4 w o.E g @.9.Y t S N.N.N.O.Y @.P.w 4 4 o.u.8 V , Q.  ",
"{.5.p.Q P 4 D.3 %.K.R.S.<.T.U.< < q   6.s.1 2 8.3 n.6 V.G :.W.  ",
"t.M X.{ M.5 x v (.R.U ].              a.0 :._.Y.i P 3 i V.Z.`.  ",
"I =.O. +D $.8.C R..+++@+              [.  ; #+$+2 D.4 P A S 0   ",
"o %+7.&+F y o.] m.*+[ Q.                    ++m D D.4 P A S 0   ",
"!.].=+Y 7 Q H.] -+S.`.-                     Z m D P k o.g ;+>+  ",
"[.,+3.*.'+2 H.A r.)+!+= t.  ~.        o -.k.n ~+E x 8.D @.7.j.  ",
"b h.0 {+X.A ]+l F ^+X *+[ <             , /+(+g M.]+6 f._+% :+  ",
"~.I a.]./ ! o.P n.6  +S d =.<+d.:+d.: [+}+ +x.x P %.|+G W 1++   ",
"      2+5.e (.Q x 5 v g f ^ 3+9.9.9.R.&+Y.x.w 4 n.D 4+/+1+W.5+  ",
"       .,+>.c.4+D ]+5 j n.8.8.$.$.$.$.8.]+x n.M.h 6+| #+7+  o   ",
"      !.8+9+0+W X.Y.a+P 4 4 4 4 4 4 4 4 j 6 u.&.$+*.B.6.        ",
"      ~.b+2.7+@+0.} 1 P.8.]+8.8.8.8.]+H.#.O ;+c+1+d+e+;         ",
"                a.f+W Y ~+3+~+~+~+~+3+(+N.U g+i.h+        ~.    ",
"            ~.  b+l.9+d.i+i+i+i+i+i+i+= r + T.; I ~.            "};
