/* XPM */
static char * tres_xpm[] = {
"32 32 215 2",
"  	c #000000",
". 	c #000100",
"+ 	c #000600",
"@ 	c #001200",
"# 	c #001C00",
"$ 	c #002300",
"% 	c #002A00",
"& 	c #002F00",
"* 	c #003200",
"= 	c #003300",
"- 	c #003100",
"; 	c #002E00",
"> 	c #001800",
", 	c #000900",
"' 	c #005000",
") 	c #006E00",
"! 	c #008600",
"~ 	c #009B00",
"{ 	c #00AC00",
"] 	c #00B500",
"^ 	c #00B800",
"/ 	c #00B700",
"( 	c #00B600",
"_ 	c #00B100",
": 	c #00A900",
"< 	c #009C00",
"[ 	c #008500",
"} 	c #006000",
"| 	c #002800",
"1 	c #000500",
"2 	c #004D00",
"3 	c #007E00",
"4 	c #00A600",
"5 	c #00C400",
"6 	c #00DB00",
"7 	c #00ED00",
"8 	c #00F700",
"9 	c #00FA00",
"0 	c #00F900",
"a 	c #00F800",
"b 	c #00F300",
"c 	c #00EA00",
"d 	c #00DC00",
"e 	c #00A100",
"f 	c #007600",
"g 	c #005100",
"h 	c #003400",
"i 	c #001700",
"j 	c #002700",
"k 	c #004500",
"l 	c #007300",
"m 	c #00A800",
"n 	c #00D200",
"o 	c #00EB00",
"p 	c #00FE00",
"q 	c #00FF00",
"r 	c #00FB00",
"s 	c #00F500",
"t 	c #00EE00",
"u 	c #00E300",
"v 	c #00D300",
"w 	c #004600",
"x 	c #001F00",
"y 	c #003800",
"z 	c #005600",
"A 	c #00AD00",
"B 	c #00D100",
"C 	c #00E400",
"D 	c #00E600",
"E 	c #00E200",
"F 	c #00DF00",
"G 	c #00DE00",
"H 	c #00E000",
"I 	c #00E700",
"J 	c #00F200",
"K 	c #00FC00",
"L 	c #00AE00",
"M 	c #006F00",
"N 	c #003900",
"O 	c #001B00",
"P 	c #001E00",
"Q 	c #003C00",
"R 	c #005500",
"S 	c #008900",
"T 	c #00A200",
"U 	c #009700",
"V 	c #007800",
"W 	c #007400",
"X 	c #007500",
"Y 	c #007000",
"Z 	c #007D00",
"` 	c #00A400",
" .	c #00D000",
"..	c #00F000",
"+.	c #00E500",
"@.	c #00BF00",
"#.	c #009200",
"$.	c #006B00",
"%.	c #004900",
"&.	c #002500",
"*.	c #001500",
"=.	c #004100",
"-.	c #004F00",
";.	c #005C00",
">.	c #006300",
",.	c #005F00",
"'.	c #004B00",
").	c #002400",
"!.	c #000A00",
"~.	c #006900",
"{.	c #00CB00",
"].	c #00F600",
"^.	c #00C600",
"/.	c #009D00",
"(.	c #005300",
"_.	c #000300",
":.	c #001900",
"<.	c #002200",
"[.	c #002100",
"}.	c #001A00",
"|.	c #000E00",
"1.	c #000200",
"2.	c #00BD00",
"3.	c #00F100",
"4.	c #009900",
"5.	c #000F00",
"6.	c #003F00",
"7.	c #006400",
"8.	c #008A00",
"9.	c #00DD00",
"0.	c #008B00",
"a.	c #006100",
"b.	c #004000",
"c.	c #004700",
"d.	c #006C00",
"e.	c #009000",
"f.	c #00C800",
"g.	c #00D400",
"h.	c #00AA00",
"i.	c #000700",
"j.	c #001400",
"k.	c #001D00",
"l.	c #002000",
"m.	c #004400",
"n.	c #008100",
"o.	c #00CA00",
"p.	c #00DA00",
"q.	c #00C700",
"r.	c #00AB00",
"s.	c #008200",
"t.	c #007700",
"u.	c #00B300",
"v.	c #00BC00",
"w.	c #00C500",
"x.	c #00CE00",
"y.	c #00D500",
"z.	c #00B200",
"A.	c #009400",
"B.	c #005400",
"C.	c #006500",
"D.	c #00E900",
"E.	c #00B400",
"F.	c #00C100",
"G.	c #001300",
"H.	c #000400",
"I.	c #005D00",
"J.	c #009F00",
"K.	c #00CC00",
"L.	c #00EF00",
"M.	c #004E00",
"N.	c #005900",
"O.	c #008000",
"P.	c #008400",
"Q.	c #008300",
"R.	c #008700",
"S.	c #008D00",
"T.	c #00B900",
"U.	c #00F400",
"V.	c #004C00",
"W.	c #00A500",
"X.	c #005B00",
"Y.	c #007F00",
"Z.	c #00D800",
"`.	c #009A00",
" +	c #009300",
".+	c #00CD00",
"++	c #00A300",
"@+	c #003E00",
"#+	c #00D900",
"$+	c #001600",
"%+	c #00A000",
"&+	c #002D00",
"*+	c #002C00",
"=+	c #005800",
"-+	c #007900",
";+	c #006800",
">+	c #004A00",
",+	c #009100",
"'+	c #00C300",
")+	c #00FD00",
"!+	c #00BE00",
"~+	c #003000",
"{+	c #009600",
"]+	c #00BB00",
"^+	c #00D700",
"/+	c #004300",
"(+	c #005200",
"_+	c #00C200",
":+	c #00AF00",
"<+	c #005700",
"[+	c #002900",
"}+	c #006D00",
"|+	c #00D600",
"1+	c #004200",
"2+	c #006200",
"                                                                ",
"                                                    .           ",
"        + @ # $ % & * = = = = = = = * - ; % $ > ,               ",
"        % ' ) ! ~ { ] ^ / / / / / / ( _ : < [ } |       . .     ",
"  1   > 2 3 4 5 6 7 8 9 0 0 0 0 0 9 a b c d 5 e f g h #         ",
"  i j k l m n o a p q q q q q q q q q q r s t u v ] ! w         ",
"  x y z 3 A B C D E F G F F F F G G H I J K q q 0 G L M N O @   ",
"  P Q R ) S < T U [ V W X X X X W Y Z `  ...q q 9 +.@.#.$.%.&.  ",
"  *.; =.-.;.>.,.'.).                !.~.` {.C b ].I ^./.V (.%   ",
"  _.!.@ :.P <.[.}.|.1.              }.'.l U 2.H 3.D 5 4.l -.|   ",
"                                    5.6.7.8.] 9...C 2.0.a.b.[.  ",
"          .                     !.j c.d.e.L f.G +.g.h.l w % i   ",
"              i.j.k.[.<.<.l.O | m.a.n.4 o.H C p.q.r.s.-.k.. i.  ",
"            . m.t.4.h.L A { { A u.v.w.x.g.y.o.z.A.f B.%         ",
"            1.C.r.6 b a 8 ].].].8 0 ].D.n E.U f (.* k.5.        ",
"            1.$.E.I q q q q q q q q q 9 t d F.U 7.h G.H.        ",
"            1.I.J.K.E I D +.+.+.D I D.L.8 0 c K.4 ! ~.M.h l.|.  ",
"              * N.l O.P.Q.s.s.Q.R.S.< T.6 b 9 U.I B _ S.$.%.&.  ",
"          .                       [.V.Z h.{.E b 0 b H q.W.t.Q   ",
"                              . H., $ b.X.Y.{ Z.U.q p ..B `.-.  ",
"                                        + 2  +.+J q q 0 p.++X.i.",
"                                          @+S.{.J q q a #+++I.$+",
"    . 1.1.1..                       H.    '.#..+J q q 8 Z.%+R   ",
"  }.y V.g w &+H.                    :.(.3 T 5 E ].r U.C 5 e.%.  ",
"  *+=+X O.-+;+=+-.>+c.w w w w w c.c.} ,+'+D 8 )+9 L.#+!+< Y N   ",
"  ~+X.Z {+r.]+5 ^.5 '+'+'+'+'+'+'+'+f.^+o K q q K +.2.S.7./+$   ",
"  *+(+X ~ w.D 0 p )+K K K K K K )+)+K 9 ].J ..L.D o.4.z .   _.  ",
"  ).b.a.S.@.I )+q q q q q q q q q q q J d _+:+%+,+-+<+[+        ",
"  i % k }+~ @.n ^+|+y.y.y.y.y.y.|+^+v 5 : [ 7.1+}.        .     ",
"  1 |.# ~+c.=+2+C.7.7.7.7.7.7.7.7.C.>.X.M.Q *+# ,               ",
"                                                                ",
"                                                                "};
