/* XPM */
static char * um_xpm[] = {
"32 32 117 2",
"  	c #000000",
". 	c #002D00",
"+ 	c #006200",
"@ 	c #009500",
"# 	c #00AD00",
"$ 	c #009D00",
"% 	c #006B00",
"& 	c #002E00",
"* 	c #000600",
"= 	c #001600",
"- 	c #003E00",
"; 	c #005900",
"> 	c #006E00",
", 	c #008000",
"' 	c #008A00",
") 	c #008C00",
"! 	c #008E00",
"~ 	c #009200",
"{ 	c #009B00",
"] 	c #00B500",
"^ 	c #00DD00",
"/ 	c #00F000",
"( 	c #00D600",
"_ 	c #009300",
": 	c #004200",
"< 	c #000D00",
"[ 	c #000500",
"} 	c #001B00",
"| 	c #003300",
"1 	c #005B00",
"2 	c #008800",
"3 	c #00AE00",
"4 	c #00CC00",
"5 	c #00E500",
"6 	c #00F200",
"7 	c #00F100",
"8 	c #00ED00",
"9 	c #00EE00",
"0 	c #00F600",
"a 	c #00FC00",
"b 	c #00F700",
"c 	c #00D500",
"d 	c #001D00",
"e 	c #006700",
"f 	c #00C100",
"g 	c #00D900",
"h 	c #00E900",
"i 	c #00F300",
"j 	c #00D000",
"k 	c #00A900",
"l 	c #00B000",
"m 	c #00D100",
"n 	c #00F800",
"o 	c #001800",
"p 	c #005800",
"q 	c #00A400",
"r 	c #00B300",
"s 	c #00BB00",
"t 	c #00BF00",
"u 	c #00BE00",
"v 	c #00AF00",
"w 	c #008200",
"x 	c #005100",
"y 	c #007C00",
"z 	c #00BA00",
"A 	c #00DE00",
"B 	c #00F500",
"C 	c #000100",
"D 	c #000200",
"E 	c #000300",
"F 	c #000400",
"G 	c #003200",
"H 	c #00BD00",
"I 	c #00DF00",
"J 	c #001C00",
"K 	c #007E00",
"L 	c #00D400",
"M 	c #008F00",
"N 	c #003400",
"O 	c #003C00",
"P 	c #005F00",
"Q 	c #007400",
"R 	c #007F00",
"S 	c #008500",
"T 	c #00AC00",
"U 	c #00E700",
"V 	c #00E100",
"W 	c #008900",
"X 	c #006A00",
"Y 	c #003F00",
"Z 	c #002100",
"` 	c #007200",
" .	c #00D200",
"..	c #00F400",
"+.	c #00FA00",
"@.	c #00FE00",
"#.	c #00EB00",
"$.	c #007700",
"%.	c #000C00",
"&.	c #002400",
"*.	c #007800",
"=.	c #00B600",
"-.	c #00DC00",
";.	c #00FF00",
">.	c #00CB00",
",.	c #005700",
"'.	c #008700",
").	c #00A300",
"!.	c #00B200",
"~.	c #00C000",
"{.	c #00B700",
"].	c #009600",
"^.	c #005C00",
"/.	c #000700",
"(.	c #000900",
"_.	c #000B00",
":.	c #000800",
"                                                                ",
"                                                                ",
"                                                                ",
"                                                                ",
"                                                                ",
"                                                                ",
"                              . + @ # $ % &   *                 ",
"            = - ; > , ' ) ! ~ { ] ^ / ( _ :   <                 ",
"      [ } | 1 2 3 4 5 6 7 8 9 7 0 a b c ~ :   <                 ",
"      d e $ f g h 0 a i j k l m h n 0 c ~ :   <                 ",
"      o p 2 q r s t u v w x y z A i B c _ :   <                 ",
"        C D E F F [ [     G w H I i B c _ :   <                 ",
"                          G w H I i B c _ :   <                 ",
"                          G w H I i B c _ :   <                 ",
"                          G w H I i B c _ :   <                 ",
"                          G w H I i B c _ :   <                 ",
"                          G w H I i B c _ :   <                 ",
"                          G w H I i B c _ :   <                 ",
"                          G w H I i B c _ :   <                 ",
"                          G w H I i B c _ :   <                 ",
"                          G w H I i B c _ :   <                 ",
"                          G w H I i B c _ :   <                 ",
"    C                     J K s A i B L M N                     ",
"      < O P Q R S 2 2 2 S ! T j U 0 b V ] ~ 2 W 2 2 2 W w X Y E ",
"      Z ` #  .5 / B B ....B b +.a @.@.a b B ........B 0 #.f $.%.",
"      &.*.=.-./ a ;.;.;.;.;.;.;.;.;.;.;.;.;.;.;.;.;.;.;.b >.K < ",
"      o ,.'.).!.s t t t t t t t t t t t t t t t t t t ~.{.].^./.",
"        D * (._.%.< < < < < < < < < < < < < < < < < < < %.:.E   ",
"                                                                ",
"                                                                ",
"                                                                ",
"                                                                "};
