/* XPM */
static char * zero_xpm[] = {
"32 32 209 2",
"  	c #000000",
". 	c #000200",
"+ 	c #000F00",
"@ 	c #001C00",
"# 	c #002700",
"$ 	c #003000",
"% 	c #003700",
"& 	c #003B00",
"* 	c #003C00",
"= 	c #003A00",
"- 	c #003600",
"; 	c #002E00",
"> 	c #002500",
", 	c #001A00",
"' 	c #000C00",
") 	c #000100",
"! 	c #003D00",
"~ 	c #006B00",
"{ 	c #008C00",
"] 	c #00A700",
"^ 	c #00BD00",
"/ 	c #00C900",
"( 	c #00CC00",
"_ 	c #00CB00",
": 	c #00C800",
"< 	c #00BA00",
"[ 	c #00A300",
"} 	c #008800",
"| 	c #006400",
"1 	c #003400",
"2 	c #003500",
"3 	c #00CF00",
"4 	c #00E300",
"5 	c #00F500",
"6 	c #00FF00",
"7 	c #00FE00",
"8 	c #00F200",
"9 	c #00E000",
"0 	c #00B700",
"a 	c #009F00",
"b 	c #008300",
"c 	c #005D00",
"d 	c #002B00",
"e 	c #000800",
"f 	c #002600",
"g 	c #006D00",
"h 	c #00B100",
"i 	c #00F400",
"j 	c #00F800",
"k 	c #00F700",
"l 	c #00DA00",
"m 	c #00A800",
"n 	c #006100",
"o 	c #000500",
"p 	c #005600",
"q 	c #007F00",
"r 	c #00D200",
"s 	c #00F100",
"t 	c #00FC00",
"u 	c #00F600",
"v 	c #00E800",
"w 	c #00D300",
"x 	c #00A200",
"y 	c #009B00",
"z 	c #009D00",
"A 	c #009C00",
"B 	c #00A400",
"C 	c #00BC00",
"D 	c #00D700",
"E 	c #00EB00",
"F 	c #00FB00",
"G 	c #00EE00",
"H 	c #00A100",
"I 	c #007800",
"J 	c #004F00",
"K 	c #001E00",
"L 	c #004200",
"M 	c #008400",
"N 	c #00D800",
"O 	c #00ED00",
"P 	c #009400",
"Q 	c #001300",
"R 	c #002400",
"S 	c #006800",
"T 	c #009800",
"U 	c #00DE00",
"V 	c #00B000",
"W 	c #007A00",
"X 	c #002900",
"Y 	c #00A500",
"Z 	c #00DB00",
"` 	c #007000",
" .	c #003900",
"..	c #001D00",
"+.	c #000B00",
"@.	c #000A00",
"#.	c #000400",
"$.	c #007100",
"%.	c #00B600",
"&.	c #00E400",
"*.	c #00F900",
"=.	c #00D400",
"-.	c #005700",
";.	c #002200",
">.	c #001500",
",.	c #005E00",
"'.	c #00BB00",
").	c #00E500",
"!.	c #004800",
"~.	c #008F00",
"{.	c #00F000",
"].	c #00DF00",
"^.	c #00B300",
"/.	c #008100",
"(.	c #005800",
"_.	c #007C00",
":.	c #00EA00",
"<.	c #006A00",
"[.	c #004000",
"}.	c #009A00",
"|.	c #00C000",
"1.	c #00F300",
"2.	c #00E600",
"3.	c #00C400",
"4.	c #007500",
"5.	c #004700",
"6.	c #009100",
"7.	c #00B800",
"8.	c #00EF00",
"9.	c #00D600",
"0.	c #00A900",
"a.	c #007E00",
"b.	c #002D00",
"c.	c #00DC00",
"d.	c #008A00",
"e.	c #005400",
"f.	c #00A600",
"g.	c #00CE00",
"h.	c #00E700",
"i.	c #006500",
"j.	c #002800",
"k.	c #004500",
"l.	c #00D500",
"m.	c #009E00",
"n.	c #000E00",
"o.	c #00AD00",
"p.	c #00EC00",
"q.	c #009200",
"r.	c #005B00",
"s.	c #006300",
"t.	c #00E900",
"u.	c #00D000",
"v.	c #009300",
"w.	c #005C00",
"x.	c #002300",
"y.	c #00AC00",
"z.	c #003800",
"A.	c #001F00",
"B.	c #00A000",
"C.	c #004B00",
"D.	c #005100",
"E.	c #00BF00",
"F.	c #009500",
"G.	c #000D00",
"H.	c #008600",
"I.	c #00D100",
"J.	c #008900",
"K.	c #006000",
"L.	c #003200",
"M.	c #006700",
"N.	c #004E00",
"O.	c #006F00",
"P.	c #009700",
"Q.	c #00C300",
"R.	c #00C600",
"S.	c #007700",
"T.	c #003F00",
"U.	c #006900",
"V.	c #000600",
"W.	c #004600",
"X.	c #00E200",
"Y.	c #005900",
"Z.	c #00FA00",
"`.	c #006C00",
" +	c #000300",
".+	c #005000",
"++	c #009600",
"@+	c #004100",
"#+	c #00CA00",
"$+	c #00C500",
"%+	c #00B500",
"&+	c #004A00",
"*+	c #009000",
"=+	c #00D900",
"-+	c #006600",
";+	c #001800",
">+	c #008B00",
",+	c #00FD00",
"'+	c #001100",
")+	c #00BE00",
"!+	c #004400",
"~+	c #001400",
"{+	c #00C700",
"]+	c #00AB00",
"^+	c #002100",
"/+	c #005F00",
"(+	c #007200",
"_+	c #008200",
":+	c #008D00",
"                                                                ",
"                                                                ",
"                                                                ",
"                                                                ",
"                                                                ",
"                                                                ",
"            . + @ # $ % & * & & * = - ; > , '                   ",
"    )         ! ~ { ] ^ / ( _ ( ( : < [ } | 1       ) )         ",
"        2 | } [ < 3 4 5 6 6 6 6 6 7 8 9 ( 0 a b c d             ",
"  e   f g h 9 i j k k k k k k k k k k k k j 8 l m n ,   o       ",
"  # p q ] r s t u v w 0 x y z A y B C D E j F G ( H I J K       ",
"  L M 0 N O j 8 l < P n Q         R S T ^ U i k E w V W %       ",
"X n Y Z k 7 k 9 V `  ...+.        @.#.; $.%.&.*.7 i =.y -.;.>.) ",
",.} '.).u G D 0 } !.    )       )       J ~.^ Z {.5 ].^./.(.2 o ",
"_.[ _ :.8 U < P <.-                     [.$.}.|.4 1.2.3.z 4.5.e ",
"6.7.N 8.s 9.0.a.p b.                    2 c M h c.8 O w ^.d.e.+.",
"f.g.h.5 {.g.T i.[.;.                    j.k.g x l.1.i 4 / m.n n.",
"o.=.p.k {.( q.r.- K                     ;.= s.A w 1.u t.u.Y i.+ ",
"o.=.E k {.( v.w.- K                     x.& | z w 1.u v 3 B i.+ ",
"y.w E k {.( P c z.A.                    x.! i.z =.1.u h.g.[ | + ",
"z 3.9 8 {.r B.$.C.j.                    ; D.I 0.N 8 {.c.E.F.r.G.",
"H.o.I.p.s l h J.K.L.                    = M.~.7.].1.t.( m q N.@.",
"O.P.Q.h.1.&.R.[ S.T.                    5.a.0._ v 1.4 C 6.U.T.V.",
"W.4.h X.*.*.:.g.A p     .       )       Y.x w O Z.k Z ] `.[.f  +",
"#..+++( E *.F E R.++~ [.          V.@+<.T #+G F j h.$+{ k.   +) ",
"  2 O.z |.].1.u E l.%+} w.&+J N.C.n *+'.=+O k s Z '.++-+d       ",
"  ;+2 (.>+3.O ,+,+5 p.9 N 9.D D 9.=+X.G u ,+t v C /.D.$ '+      ",
"        .+q.)+l.9 v 1.t 6 6 6 6 6 6 F s h.].r 7.} !+      )     ",
"        ~+> L U.*+V _ X.8.1.8 8 8 G ].{+]+d.s.* ^+'+            ",
"    )         R W./+(+_+d.:+{ { :+J.q O.r.L ..                  ",
"          )                                     )               ",
"                                                                "};
